<svg width="56" height="56" viewBox="0 0 56 56" fill="none" xmlns="http://www.w3.org/2000/svg">
<path d="M45.324 10.6903C43.053 8.39691 40.3513 6.5748 37.374 5.32868C34.3968 4.08255 31.2026 3.43697 27.9751 3.42903C24.7476 3.42109 21.5503 4.05093 18.5669 5.28239C15.5835 6.51384 12.8729 8.32263 10.5907 10.6048C8.30847 12.8871 6.49968 15.5977 5.26823 18.5811C4.03677 21.5644 3.40693 24.7617 3.41487 27.9893C3.42281 31.2168 4.06839 34.4109 5.31452 37.3882C6.56064 40.3655 8.38275 43.0672 10.6762 45.3381C12.9471 47.6316 15.6488 49.4537 18.6261 50.6998C21.6034 51.9459 24.7975 52.5915 28.0251 52.5994C31.2526 52.6074 34.4499 51.9775 37.4332 50.7461C40.4166 49.5146 43.1273 47.7059 45.4095 45.4236C47.6917 43.1414 49.5005 40.4308 50.7319 37.4474C51.9634 34.464 52.5932 31.2667 52.5853 28.0392C52.5773 24.8117 51.9318 21.6175 50.6856 18.6403C49.4395 15.663 47.6174 12.9613 45.324 10.6903V10.6903ZM7.00007 28.0142C6.99929 26.1556 7.24572 24.3052 7.73288 22.5116C8.5357 24.2397 9.70164 25.7327 10.4946 27.5056C11.5194 29.785 14.2713 29.1528 15.4865 31.15C16.5649 32.923 15.4132 35.1652 16.2204 37.0202C16.8066 38.3666 18.1891 38.6608 19.1429 39.6452C20.1174 40.6383 20.0966 41.9989 20.2454 43.2939C20.4132 44.8155 20.6855 46.3237 21.0602 47.8078C21.0602 47.8188 21.0602 47.8308 21.069 47.8417C12.8844 44.9674 7.00007 37.1656 7.00007 28.0142ZM28.0001 49.0142C26.8273 49.0139 25.6566 48.9158 24.5001 48.7211C24.5121 48.4247 24.5176 48.148 24.5471 47.9555C24.8129 46.2164 25.6835 44.5157 26.8582 43.2141C28.0187 41.93 29.609 41.0616 30.589 39.6047C31.5493 38.1828 31.837 36.2688 31.441 34.6074C30.858 32.153 27.5232 31.3338 25.7251 30.0027C24.6915 29.2371 23.7716 28.0536 22.4143 27.9574C21.7887 27.9136 21.2648 28.0481 20.6446 27.8885C20.0759 27.7408 19.6296 27.4346 19.0237 27.5144C17.8916 27.6631 17.1774 28.8728 15.9612 28.7088C14.8073 28.5546 13.6184 27.2038 13.3559 26.1046C13.019 24.6914 14.1368 24.2331 15.3344 24.1074C15.8343 24.0549 16.3954 23.998 16.8755 24.1817C17.5077 24.4158 17.8063 25.0349 18.374 25.3477C19.4382 25.9317 19.6537 24.9988 19.4907 24.0538C19.2468 22.6385 18.9624 22.062 20.2246 21.0875C21.0996 20.416 21.8477 19.9303 21.7077 18.7239C21.6246 18.0152 21.2363 17.6947 21.5984 16.9892C21.8729 16.4522 22.6265 15.9677 23.1176 15.6472C24.3852 14.8203 28.548 14.8816 26.8473 12.5672C26.3474 11.888 25.4254 10.6739 24.5504 10.5077C23.4566 10.301 22.971 11.5216 22.2087 12.0597C21.4212 12.6164 19.8877 13.2486 19.0991 12.3878C18.0382 11.2295 19.8024 10.85 20.1929 10.0406C20.3734 9.6633 20.1929 9.13939 19.8888 8.64611C20.2833 8.47986 20.6843 8.32564 21.0919 8.18345C21.3474 8.37212 21.6504 8.48576 21.9669 8.51158C22.6987 8.5597 23.3888 8.16376 24.0276 8.66251C24.7363 9.20939 25.2471 9.90064 26.1877 10.0713C27.0977 10.2364 28.0613 9.70595 28.2866 8.77408C28.4234 8.20751 28.2866 7.60923 28.1554 7.02408C32.246 7.04761 36.2396 8.27268 39.6398 10.547C39.421 10.4639 39.1596 10.4738 38.837 10.6236C38.173 10.932 37.2324 11.7174 37.1548 12.4961C37.0662 13.3799 38.3699 13.5045 38.989 13.5045C39.9187 13.5045 40.8604 13.0889 40.5607 12.0149C40.4305 11.5489 40.2534 11.0644 39.9679 10.7713C40.6541 11.2474 41.3115 11.7639 41.9366 12.3178C41.9268 12.3277 41.917 12.3364 41.9071 12.3474C41.2771 13.0036 40.5454 13.5231 40.1145 14.3216C39.8104 14.8838 39.468 15.1506 38.8523 15.2961C38.5132 15.376 38.126 15.4055 37.8416 15.633C37.0498 16.2564 37.5004 17.7549 38.2507 18.2044C39.199 18.772 40.6055 18.5052 41.3209 17.6947C41.8798 17.0603 42.209 15.9589 43.2141 15.96C43.6567 15.9591 44.0818 16.1324 44.3976 16.4424C44.8132 16.8733 44.7312 17.2758 44.8198 17.8139C44.9762 18.7699 45.8195 18.2514 46.3324 17.7691C46.7063 18.4345 47.0437 19.1199 47.343 19.822C46.7787 20.6347 46.3302 21.5206 44.9729 20.5735C44.1602 20.0058 43.6604 19.1822 42.6399 18.9263C41.7485 18.7075 40.8352 18.935 39.9548 19.087C38.954 19.261 37.7673 19.3375 37.0082 20.0955C36.2743 20.8261 35.886 21.8039 35.1051 22.5378C33.5946 23.9597 32.957 25.5117 33.9348 27.5221C34.8754 29.4547 36.843 30.5036 38.966 30.3658C41.0518 30.2269 43.2185 29.0172 43.1584 32.048C43.1365 33.121 43.3607 33.8636 43.6899 34.86C43.9951 35.7788 43.9743 36.6691 44.0443 37.6174C44.1109 38.7278 44.2845 39.8292 44.5627 40.9063C42.6023 43.4304 40.0909 45.4731 37.2204 46.8783C34.3498 48.2835 31.1961 49.0141 28.0001 49.0142V49.0142Z" fill="#3981F7"/>
</svg>
