<svg width="56" height="56" viewBox="0 0 56 56" fill="none" xmlns="http://www.w3.org/2000/svg">
<path d="M39.6667 8.16666H16.3334C9.33341 8.16666 4.66675 11.6667 4.66675 19.8333V36.1667C4.66675 44.3333 9.33341 47.8333 16.3334 47.8333H39.6667C46.6667 47.8333 51.3334 44.3333 51.3334 36.1667V19.8333C51.3334 11.6667 46.6667 8.16666 39.6667 8.16666ZM14.5834 33.8333C14.5834 34.79 13.7901 35.5833 12.8334 35.5833C11.8767 35.5833 11.0834 34.79 11.0834 33.8333V22.1667C11.0834 21.21 11.8767 20.4167 12.8334 20.4167C13.7901 20.4167 14.5834 21.21 14.5834 22.1667V33.8333ZM28.0001 35C24.1267 35 21.0001 31.8733 21.0001 28C21.0001 24.1267 24.1267 21 28.0001 21C31.8734 21 35.0001 24.1267 35.0001 28C35.0001 31.8733 31.8734 35 28.0001 35ZM44.9167 33.8333C44.9167 34.79 44.1234 35.5833 43.1667 35.5833C42.2101 35.5833 41.4167 34.79 41.4167 33.8333V22.1667C41.4167 21.21 42.2101 20.4167 43.1667 20.4167C44.1234 20.4167 44.9167 21.21 44.9167 22.1667V33.8333Z" fill="#3981F7"/>
</svg>
