<svg width="328" height="200" viewBox="0 0 328 200" fill="none" xmlns="http://www.w3.org/2000/svg">
<rect width="328" height="200" rx="16" fill="#0A112F"/>
<mask id="mask0_847_6443" style="mask-type:alpha" maskUnits="userSpaceOnUse" x="0" y="0" width="328" height="200">
<rect width="328" height="200" rx="16" fill="#2378FA"/>
</mask>
<g mask="url(#mask0_847_6443)">
<g filter="url(#filter0_i_847_6443)">
<rect x="24.0469" y="75" width="39.954" height="30.0002" rx="3" fill="url(#paint0_linear_847_6443)"/>
</g>
<path d="M24 85.3834H37.5863C38.4466 82.6104 40.8653 76.8963 43.6584 76.2246C44.6958 76.6062 47.1195 77.9801 48.5161 80.4224M24 95.0002H37.5863C37.5863 99.7628 41.6344 103.243 43.6584 104.388C47.0588 103.228 49.68 97.6461 50.5655 95.0002L64 95.0002M64 87.6732L50.5655 87.6732C49.9583 86.4774 49.1082 83.7196 50.5655 82.2542" stroke="url(#paint1_linear_847_6443)" stroke-width="0.362966"/>
<path d="M80 86.8394C80.7252 88.083 81.7405 91.1503 80 93.4716M84.7863 84.456C85.8741 86.4249 87.397 91.4612 84.7863 95.855M89.0287 81.969C90.4429 84.6287 92.4227 91.5648 89.0287 98.0311M93.5975 80.0001C95.4105 83.1434 97.9487 91.5441 93.5975 100" stroke="white" stroke-width="1.5" stroke-linecap="round" stroke-linejoin="round"/>
<mask id="mask1_847_6443" style="mask-type:alpha" maskUnits="userSpaceOnUse" x="24" y="22" width="20" height="20">
<circle cx="34" cy="32" r="10" fill="#C4C4C4"/>
</mask>
<g mask="url(#mask1_847_6443)">
<circle cx="29.2457" cy="20.2242" r="8.29659" transform="rotate(-22 29.2457 20.2242)" fill="white"/>
<circle cx="38.7574" cy="43.7759" r="8.29659" transform="rotate(-22 38.7574 43.7759)" fill="white"/>
<circle cx="22.2262" cy="36.7574" r="8.29659" transform="rotate(-22 22.2262 36.7574)" fill="white"/>
<circle cx="45.5582" cy="26.7027" r="8.29659" transform="rotate(-22 45.5582 26.7027)" fill="white"/>
</g>
<path d="M59.4 34.96C62.32 34.96 64.24 32.98 64.24 30.16C64.24 27.3 62.34 25.38 59.4 25.38H53.62V40H56.18V34.96H59.4ZM58.9 27.66C60.6 27.66 61.56 28.54 61.56 30.14C61.56 31.74 60.62 32.68 58.86 32.68H56.18V27.66H58.9ZM68.1828 40.26C69.7228 40.26 71.0628 39.56 71.4828 38.54L71.6628 40H73.8028V34C73.8028 31.26 72.1628 29.82 69.5028 29.82C66.8228 29.82 65.0628 31.22 65.0628 33.36H67.1428C67.1428 32.32 67.9428 31.72 69.3828 31.72C70.6228 31.72 71.4228 32.26 71.4228 33.6V33.82L68.4628 34.04C66.1228 34.22 64.8028 35.36 64.8028 37.18C64.8028 39.04 66.0828 40.26 68.1828 40.26ZM68.9828 38.42C67.8828 38.42 67.2828 37.98 67.2828 37.08C67.2828 36.28 67.8628 35.78 69.3828 35.64L71.4428 35.48V36C71.4428 37.52 70.4828 38.42 68.9828 38.42ZM74.6664 44.58C75.2064 44.72 75.8064 44.8 76.4864 44.8C78.1064 44.8 79.1464 44.04 79.8864 42.2L84.7264 30.12H82.2064L79.5264 37.32L76.9864 30.12H74.4064L78.3864 40.42L78.1064 41.16C77.6864 42.32 77.0864 42.54 76.1264 42.54H74.6664V44.58ZM91.9123 30.08C91.5123 29.98 91.1723 29.94 90.8323 29.94C89.5123 29.94 88.5723 30.6 88.1523 31.58L88.0123 30.14H85.7123V40H88.1523V35.2C88.1523 33.28 89.2523 32.34 91.0123 32.34H91.9123V30.08ZM92.2519 35.04C92.2519 38.12 94.4719 40.24 97.5319 40.24C100.592 40.24 102.812 38.12 102.812 35.04C102.812 31.96 100.592 29.84 97.5319 29.84C94.4719 29.84 92.2519 31.96 92.2519 35.04ZM94.6919 35.04C94.6919 33.24 95.8519 32.02 97.5319 32.02C99.2119 32.02 100.372 33.24 100.372 35.04C100.372 36.84 99.2119 38.06 97.5319 38.06C95.8519 38.06 94.6919 36.84 94.6919 35.04ZM106.806 40V25.12H104.386V40H106.806ZM113.385 40.26C115.965 40.26 117.765 38.96 118.185 36.8H115.925C115.645 37.74 114.765 38.26 113.425 38.26C111.805 38.26 110.885 37.38 110.705 35.64L118.145 35.62V34.88C118.145 31.8 116.265 29.82 113.305 29.82C110.405 29.82 108.385 31.96 108.385 35.06C108.385 38.12 110.445 40.26 113.385 40.26ZM113.325 31.82C114.785 31.82 115.725 32.72 115.725 34.08H110.765C111.005 32.6 111.885 31.82 113.325 31.82Z" fill="white"/>
<path fill-rule="evenodd" clip-rule="evenodd" d="M578.573 -67.0513C578.573 -25.2226 544.719 8.68539 502.956 8.68539H365.472C323.71 8.68539 289.855 -25.2226 289.855 -67.0513C289.855 -108.88 323.71 -142.788 365.472 -142.788H502.956C544.719 -142.788 578.573 -108.88 578.573 -67.0513ZM502.956 -32.626C521.939 -32.626 537.328 -48.0391 537.328 -67.0518C537.328 -86.0644 521.939 -101.478 502.956 -101.478H365.472C346.489 -101.478 331.101 -86.0644 331.101 -67.0518C331.101 -48.0391 346.489 -32.626 365.472 -32.626H502.956Z" fill="#B4D51E"/>
<path opacity="0.1" fill-rule="evenodd" clip-rule="evenodd" d="M239.13 198.764C239.13 179.751 223.722 164.338 204.715 164.338C185.707 164.338 170.299 179.751 170.299 198.764C170.299 217.777 185.707 233.19 204.715 233.19C223.722 233.19 239.13 217.777 239.13 198.764ZM204.715 123.028C246.531 123.028 280.429 156.936 280.429 198.764C280.429 240.593 246.531 274.501 204.715 274.501C162.899 274.501 129 240.593 129 198.764C129 156.936 162.899 123.028 204.715 123.028Z" fill="white"/>
<path opacity="0.1" d="M268.056 21.107C244.573 21.107 225.535 40.2144 225.535 63.7851V143.634C225.535 155.039 216.324 164.285 204.961 164.285C193.598 164.285 184.387 155.039 184.387 143.634V63.7851C184.387 17.405 221.847 -20.1943 268.056 -20.1943V21.107Z" fill="white"/>
<path opacity="0.1" fill-rule="evenodd" clip-rule="evenodd" d="M205.009 164.285C193.62 164.285 184.387 155.049 184.387 143.656C184.387 132.263 193.62 123.027 205.009 123.027C216.399 123.027 225.632 132.263 225.632 143.656C225.632 155.049 216.399 164.285 205.009 164.285Z" fill="white"/>
<path fill-rule="evenodd" clip-rule="evenodd" d="M309.05 -44.9183C290.032 -44.9183 274.615 -29.5138 274.615 -10.5118C274.615 8.49015 290.032 23.8946 309.05 23.8946C384.36 23.8946 445.412 84.8959 445.412 160.144C445.412 171.545 436.161 180.788 424.751 180.788C413.341 180.788 404.09 171.545 404.09 160.144C404.09 107.698 361.54 65.1824 309.05 65.1824C267.21 65.1824 233.293 31.2934 233.293 -10.5118C233.293 -52.3171 267.21 -86.2061 309.05 -86.2061C320.46 -86.2061 329.711 -76.9631 329.711 -65.5622C329.711 -54.1613 320.46 -44.9183 309.05 -44.9183Z" fill="#434A61"/>
</g>
<defs>
<filter id="filter0_i_847_6443" x="24.0469" y="75" width="39.9531" height="30.0002" filterUnits="userSpaceOnUse" color-interpolation-filters="sRGB">
<feFlood flood-opacity="0" result="BackgroundImageFix"/>
<feBlend mode="normal" in="SourceGraphic" in2="BackgroundImageFix" result="shape"/>
<feColorMatrix in="SourceAlpha" type="matrix" values="0 0 0 0 0 0 0 0 0 0 0 0 0 0 0 0 0 0 127 0" result="hardAlpha"/>
<feOffset dx="-0.362966" dy="-0.362966"/>
<feComposite in2="hardAlpha" operator="arithmetic" k2="-1" k3="1"/>
<feColorMatrix type="matrix" values="0 0 0 0 0 0 0 0 0 0 0 0 0 0 0 0 0 0 0.25 0"/>
<feBlend mode="normal" in2="shape" result="effect1_innerShadow_847_6443"/>
</filter>
<linearGradient id="paint0_linear_847_6443" x1="24.0469" y1="75" x2="61.1811" y2="103.244" gradientUnits="userSpaceOnUse">
<stop stop-color="#ABABAB"/>
<stop offset="0.3125" stop-color="white"/>
<stop offset="0.630208" stop-color="#BDBDBD"/>
<stop offset="1" stop-color="#5E5E5E"/>
</linearGradient>
<linearGradient id="paint1_linear_847_6443" x1="25.5042" y1="76.6838" x2="62.4619" y2="101.925" gradientUnits="userSpaceOnUse">
<stop stop-color="#7D7D7D"/>
<stop offset="0.494792" stop-color="white"/>
<stop offset="1" stop-color="#1C1C1C"/>
</linearGradient>
</defs>
</svg>
