<svg width="160" height="160" viewBox="0 0 160 160" fill="none" xmlns="http://www.w3.org/2000/svg">
<circle cx="80" cy="80" r="80" fill="#0B0B0C"/>
<path d="M68.3156 78.76C70.6623 79.72 72.4756 81.2667 73.7556 83.4C75.1423 85.4267 75.8356 87.88 75.8356 90.76C75.8356 94.6 74.609 97.7467 72.1556 100.2C69.7023 102.653 66.6623 103.88 63.0356 103.88C59.1956 103.88 56.049 102.653 53.5956 100.2C51.1423 97.7467 49.9156 94.6 49.9156 90.76C49.9156 88.84 50.129 86.9733 50.5556 85.16C51.089 83.3467 52.049 80.6267 53.4356 77L61.9156 54.28H74.7156L68.3156 78.76ZM102.236 78.76C104.582 79.72 106.396 81.2667 107.676 83.4C109.062 85.4267 109.756 87.88 109.756 90.76C109.756 94.6 108.529 97.7467 106.076 100.2C103.622 102.653 100.582 103.88 96.9556 103.88C93.1156 103.88 89.969 102.653 87.5156 100.2C85.0623 97.7467 83.8356 94.6 83.8356 90.76C83.8356 88.84 84.049 86.9733 84.4756 85.16C85.009 83.3467 85.969 80.6267 87.3556 77L95.8356 54.28H108.636L102.236 78.76Z" fill="white"/>
</svg>
