<svg width="24" height="24" viewBox="0 0 24 24" fill="none" xmlns="http://www.w3.org/2000/svg">
<path d="M20.71 8.11998V17.53C20.71 19.99 18.7 22 16.24 22H7.76004C5.30004 22 3.29004 19.99 3.29004 17.53V8.11998C3.29004 6.40998 4.25004 4.91998 5.66004 4.16998C6.15004 3.90998 6.76004 4.25998 6.76004 4.81998C6.76004 6.40998 8.06004 7.70998 9.65004 7.70998H14.35C15.94 7.70998 17.24 6.40998 17.24 4.81998C17.24 4.25998 17.84 3.90998 18.34 4.16998C19.75 4.91998 20.71 6.40998 20.71 8.11998Z" fill="#0A112F"/>
<path d="M15.7298 3.87519L15.7298 3.87519V3.88V4.82C15.7298 5.58386 15.1136 6.2 14.3498 6.2H9.63977C8.87591 6.2 8.25977 5.58386 8.25977 4.82V3.88C8.25977 3.11959 8.88245 2.5 9.64976 2.5H14.3498C15.1181 2.5 15.7371 3.11947 15.7298 3.87519Z" fill="#0A112F" stroke="#FAFAFA"/>
</svg>
