<svg width="129" height="30" viewBox="0 0 129 30" fill="none" xmlns="http://www.w3.org/2000/svg">
<path d="M7.16 29.52H10.36V26.256C15.096 25.904 17.56 23.152 17.56 19.76C17.56 16.208 15.512 14.32 11 13.52L7.48 12.88C5.048 12.4 4.12 11.28 4.12 9.84C4.12 8.048 5.72 6.48 8.76 6.48C11.96 6.48 13.88 8.4 13.88 10.48H17.24C17.24 6.864 14.904 3.984 10.36 3.376V0.079998H7.16V3.408C3.16 3.92 0.76 6.608 0.76 9.84C0.76 12.912 2.488 15.12 6.04 15.76L10.36 16.56C12.92 17.04 14.2 18.128 14.2 19.76C14.2 21.68 12.76 23.12 9.08 23.12C5.752 23.12 3.64 21.2 3.64 19.12H0.28C0.28 22.608 2.712 25.584 7.16 26.192V29.52ZM20.28 26H35V22.8H25.24V22.64L31.48 16.4C33.112 14.768 34.68 13.04 34.68 10.32C34.68 6.128 31.832 3.28 27.48 3.28C23.16 3.28 20.12 6.32 20.12 10.8H23.48C23.48 8.24 25.24 6.48 27.48 6.48C29.752 6.48 31.16 7.888 31.16 10.32C31.16 11.92 30.648 12.688 29.496 13.84L20.28 23.12V26ZM37.3938 28.72H39.9538L41.7138 22.32H38.0338L37.3938 28.72ZM52.285 23.12C49.725 23.12 47.805 21.2 47.805 18.64C47.805 16.08 49.725 14.16 52.285 14.16C54.845 14.16 56.765 16.08 56.765 18.64C56.765 21.2 54.845 23.12 52.285 23.12ZM45.725 14.16C44.925 15.44 44.445 16.848 44.445 18.64C44.445 22.96 47.805 26.32 52.285 26.32C56.765 26.32 60.125 22.96 60.125 18.64C60.125 14.48 56.925 11.12 52.925 11.12C52.509 11.12 52.157 11.184 51.901 11.216L51.485 11.28H51.325L56.285 3.6H52.445L45.725 14.16ZM63.1493 26H66.8613L74.8613 6.48V3.6H60.3013V6.8H71.0213L63.1493 26ZM90.685 14.8C90.685 20.4 87.997 23.12 85.085 23.12C82.173 23.12 79.485 20.4 79.485 14.8C79.485 9.2 82.173 6.48 85.085 6.48C87.997 6.48 90.685 9.2 90.685 14.8ZM85.085 3.28C80.285 3.28 76.125 7.472 76.125 14.8C76.125 22.128 80.285 26.32 85.085 26.32C89.885 26.32 94.045 22.128 94.045 14.8C94.045 7.472 89.885 3.28 85.085 3.28Z" fill="#15191E"/>
<path d="M96.77 26H99.53V23.24H96.77V26ZM101.818 21.44C102.082 23.456 103.594 26.24 107.578 26.24C111.058 26.24 113.458 23.84 113.458 20.48C113.458 17.216 111.082 14.84 107.938 14.84C106.594 14.84 105.682 15.2 104.938 15.68H104.818L105.298 11.6H112.498V9.2H103.138L102.178 18.44H104.818C105.298 17.84 106.234 17.24 107.578 17.24C109.618 17.24 110.938 18.56 110.938 20.48C110.938 22.52 109.618 23.84 107.578 23.84C105.634 23.84 104.602 22.664 104.338 21.44H101.818ZM126.423 17.6C126.423 21.8 124.407 23.84 122.223 23.84C120.039 23.84 118.023 21.8 118.023 17.6C118.023 13.4 120.039 11.36 122.223 11.36C124.407 11.36 126.423 13.4 126.423 17.6ZM122.223 8.96C118.623 8.96 115.503 12.104 115.503 17.6C115.503 23.096 118.623 26.24 122.223 26.24C125.823 26.24 128.943 23.096 128.943 17.6C128.943 12.104 125.823 8.96 122.223 8.96Z" fill="#15191E" fill-opacity="0.3"/>
</svg>
