<svg width="1060" height="64" viewBox="0 0 1060 64" fill="none" xmlns="http://www.w3.org/2000/svg">
<g clip-path="url(#clip0_810_1785)">
<path d="M23.1174 19.3961L11.5587 26.774L23.1174 34.1519L11.5587 41.5298L0 34.0904L11.5587 26.7125L0 19.3961L11.5587 12.0182L23.1174 19.3961ZM11.4972 43.8661L23.0559 36.4882L34.6146 43.8661L23.0559 51.244L11.4972 43.8661ZM23.1174 34.0904L34.6761 26.7125L23.1174 19.3961L34.6146 12.0182L46.1733 19.3961L34.6146 26.774L46.1733 34.1519L34.6146 41.5298L23.1174 34.0904Z" fill="#0A112F"/>
<path d="M55.2114 19.3961H64.5568C70.5206 19.3961 75.4392 22.8391 75.4392 30.7089V32.3689C75.4392 40.3001 70.828 43.8661 64.7412 43.8661H55.2114V19.3961ZM60.4374 23.8228V39.3779H64.4338C67.8153 39.3779 70.0902 37.1645 70.0902 32.2459V30.9548C70.0902 26.0362 67.6924 23.8228 64.2493 23.8228H60.4374ZM78.2059 24.0688H82.3867L83.063 28.6799C83.8623 25.5443 85.8912 23.8843 89.5801 23.8843H90.8713V29.1718H88.7194C84.4771 29.1718 83.4319 30.6474 83.4319 34.8282V43.9276H78.2674V24.0688H78.2059ZM91.9165 34.3978V33.8445C91.9165 27.2044 96.1587 23.5769 101.938 23.5769C107.84 23.5769 111.96 27.2044 111.96 33.8445V34.3978C111.96 40.915 107.963 44.4195 101.938 44.4195C95.5439 44.358 91.9165 40.915 91.9165 34.3978ZM106.672 34.3363V33.8445C106.672 30.1555 104.828 27.9421 101.877 27.9421C98.9869 27.9421 97.081 29.9711 97.081 33.8445V34.3363C97.081 37.9023 98.9255 39.9312 101.877 39.9312C104.828 39.8697 106.672 37.9023 106.672 34.3363ZM114.665 24.0688H118.969L119.461 27.8192C120.506 25.2984 122.719 23.5769 125.978 23.5769C131.019 23.5769 134.339 27.2044 134.339 33.9059V34.4593C134.339 40.9764 130.65 44.4195 125.978 44.4195C122.842 44.4195 120.69 43.0054 119.645 40.7305V50.7521H114.603L114.665 24.0688ZM129.113 34.3363V33.9059C129.113 29.9711 127.084 28.0036 124.379 28.0036C121.49 28.0036 119.584 30.217 119.584 33.9059V34.2748C119.584 37.7793 121.428 39.9927 124.318 39.9927C127.269 39.9312 129.113 38.0253 129.113 34.3363ZM141.963 40.2386L141.533 43.8661H137.106V17.4286H142.148V27.5733C143.254 24.991 145.468 23.5769 148.603 23.5769C153.337 23.6384 156.842 26.8969 156.842 33.4756V34.0904C156.842 40.669 153.522 44.4195 148.48 44.4195C145.16 44.358 143.008 42.8209 141.963 40.2386ZM151.554 34.0904V33.5985C151.554 29.9711 149.587 27.9421 146.82 27.9421C143.992 27.9421 142.025 30.217 142.025 33.66V34.0904C142.025 37.7793 143.931 39.9312 146.759 39.9312C149.771 39.9312 151.554 38.0253 151.554 34.0904ZM159.055 34.3978V33.8445C159.055 27.2044 163.298 23.5769 169.077 23.5769C174.979 23.5769 179.099 27.2044 179.099 33.8445V34.3978C179.099 40.915 175.041 44.4195 169.077 44.4195C162.683 44.358 159.055 40.915 159.055 34.3978ZM173.873 34.3363V33.8445C173.873 30.1555 172.028 27.9421 169.077 27.9421C166.187 27.9421 164.281 29.9711 164.281 33.8445V34.3363C164.281 37.9023 166.126 39.9312 169.077 39.9312C172.028 39.8697 173.873 37.9023 173.873 34.3363ZM185.862 33.5985L178.914 24.0688H184.878L188.874 30.0326L192.932 24.0688H198.834L191.764 33.5371L199.203 43.8661H193.363L188.813 37.2875L184.386 43.8661H178.299L185.862 33.5985Z" fill="#0A112F"/>
</g>
<g clip-path="url(#clip1_810_1785)">
<path d="M307.859 16.0285C312.949 16.0352 318.041 15.9589 323.129 16.0753C327.05 16.1652 330.123 18.8257 330.784 22.4598C331.533 26.5736 329.396 30.0862 326.099 31.0288C326.015 31.0527 325.947 31.1303 325.835 31.2087C328.977 32.1073 330.853 34.1847 331.381 37.2972C332.252 42.4326 329.416 46.6524 324.058 47.2494C322.87 47.3816 321.663 47.3783 320.465 47.3845C316.263 47.4068 312.061 47.4061 307.86 47.4141L307.859 16.0285ZM314.626 41.4221C314.713 41.4521 314.801 41.5081 314.887 41.5081C316.997 41.5115 319.109 41.5862 321.214 41.4866C323.391 41.3834 324.686 40.0466 324.744 38.0767C324.802 36.0974 323.606 34.6698 321.473 34.4141C320.125 34.2524 318.748 34.3266 317.384 34.3074C316.48 34.2949 315.576 34.3051 314.626 34.3051V41.4221ZM314.58 28.4651C316.546 28.4651 318.413 28.4684 320.279 28.4622C320.639 28.4609 321.006 28.464 321.355 28.3937C322.674 28.1294 323.666 27.4543 324.012 26.082C324.562 23.8941 323.166 22.0039 320.899 21.8917C319.846 21.8398 318.787 21.8773 317.731 21.8763C316.707 21.875 315.683 21.876 314.626 21.876C314.605 22.1026 314.582 22.2409 314.581 22.3791C314.579 24.3666 314.58 26.3541 314.58 28.4651ZM429.225 47.9899C428.429 47.8422 427.625 47.7289 426.839 47.5406C420.685 46.0673 417.55 40.7767 418.087 34.9308C418.538 30.036 421.008 26.4574 425.714 24.8008C432.283 22.4878 439.901 25.6106 441.025 34.3414C441.174 35.4949 441.167 36.6684 441.237 37.9362H424.272C424.665 40.0871 425.751 41.596 427.645 42.3981C430.722 43.7016 433.605 43.0519 436.322 41.3046C436.483 41.2014 436.631 41.0787 436.787 40.9677C436.803 40.9568 436.833 40.9663 436.942 40.9663C437.773 42.1888 438.632 43.4512 439.597 44.8699C438.722 45.4151 437.914 46.0061 437.032 46.4487C435.41 47.2628 433.666 47.6945 431.854 47.8452C431.647 47.8623 431.446 47.9401 431.243 47.9897L429.225 47.9899ZM435.382 33.8048C435.5 30.986 432.811 28.8334 429.406 28.9676C426.575 29.0791 424.057 31.4744 424.36 33.8048H435.382ZM453.585 47.9899C452.606 47.7931 451.611 47.654 450.65 47.3894C446.064 46.1256 442.9 42.2517 442.484 37.5169C442.091 33.0508 443.387 29.2659 446.976 26.4484C452.416 22.1789 463.105 23.1474 465.229 33.2491C465.381 33.9728 465.47 34.7159 465.516 35.4544C465.565 36.2386 465.527 37.0286 465.527 37.9357H448.673C448.819 39.1985 449.31 40.2138 450.125 41.0536C451.989 42.9753 454.315 43.3369 456.829 42.8964C458.431 42.6155 459.909 42.0078 461.24 40.869L463.953 44.8417C463.247 45.3138 462.607 45.8131 461.904 46.1972C460.157 47.152 458.266 47.6559 456.286 47.8409C456.055 47.8623 455.83 47.9388 455.603 47.9896C454.93 47.9899 454.258 47.9899 453.585 47.9899ZM448.713 33.8008H459.746C459.888 31.0685 457.262 28.8983 453.963 28.9627C451.036 29.0195 448.502 31.332 448.713 33.8008ZM342.021 47.9899C341.3 47.8425 340.574 47.7148 339.858 47.5443C335.426 46.4893 332.808 43.1757 332.804 38.6207C332.801 34.2547 332.804 29.8885 332.804 25.5225V24.74H338.794V25.5738C338.794 29.7001 338.806 33.8263 338.789 37.9524C338.781 39.824 339.354 41.409 341.129 42.2235C343.054 43.1061 345.025 43.0739 346.805 41.8074C348.109 40.8801 348.477 39.4605 348.48 37.9353C348.488 33.833 348.483 29.7307 348.483 25.6286V24.7265H354.409L354.409 25.5352C354.409 29.8534 354.411 34.1715 354.408 38.4897C354.405 43.7004 351.158 47.2823 345.954 47.8284C345.698 47.8554 345.446 47.9345 345.192 47.9893C344.135 47.9899 343.078 47.9899 342.021 47.9899ZM398.587 47.342V16.0497H420.377V19.0852C420.377 19.7569 420.332 20.4326 420.39 21.0995C420.447 21.7634 420.181 21.8923 419.569 21.8888C415.269 21.8644 410.969 21.8759 406.67 21.8759H405.31V28.4651H406.121C409.364 28.4651 412.607 28.4837 415.85 28.4498C416.505 28.4431 416.658 28.6511 416.643 29.2695C416.603 30.9182 416.63 32.5685 416.63 34.2999H405.261V47.342H398.587ZM467.045 47.3298V46.5066C467.045 39.5036 467.045 32.501 467.045 25.498C467.045 24.5788 467.046 24.5707 467.996 24.5795C471.284 24.6097 474.585 24.4698 477.856 24.7227C482.517 25.083 486.165 27.1796 487.891 31.7748C489.646 36.4444 488.309 41.7735 484.743 44.6931C482.642 46.4131 480.17 47.2601 477.507 47.356C474.126 47.4782 470.737 47.3946 467.352 47.397C467.283 47.3972 467.215 47.3681 467.045 47.3298ZM472.758 42.5271C473.906 42.5271 474.982 42.5274 476.057 42.5271C479.925 42.5258 482.361 40.3482 482.795 36.5035C483.106 33.743 481.611 30.9974 479.23 30.0226C477.133 29.1642 474.942 29.6206 472.759 29.4992C472.758 33.883 472.758 38.1451 472.758 42.5271ZM366.485 29.8514H356.335V24.7166H374.685C374.685 25.6853 374.636 26.6589 374.699 27.6255C374.757 28.5165 374.486 29.2048 373.923 29.9044C370.871 33.6977 367.867 37.5292 364.848 41.3483C364.686 41.5531 364.532 41.7642 364.279 42.097H374.807V47.3305H356.28C356.28 45.901 356.259 44.4721 356.299 43.0448C356.307 42.7998 356.553 42.5444 356.727 42.3237C359.824 38.3831 362.928 34.4475 366.029 30.5092C366.158 30.3449 366.268 30.1655 366.485 29.8514ZM376.447 29.8572C376.447 28.2368 376.445 26.7514 376.449 25.2659C376.449 25.1021 376.476 24.9383 376.495 24.7258H394.789C394.789 26.1063 394.804 27.4647 394.773 28.822C394.768 29.0266 394.566 29.2421 394.421 29.4257C391.271 33.4182 388.116 37.4068 384.964 41.3975C384.808 41.5946 384.67 41.8051 384.427 42.1423H385.345C388.323 42.1423 391.301 42.1548 394.278 42.1315C394.832 42.1273 395.038 42.263 395.022 42.8519C394.982 44.3332 395.009 45.8165 395.009 47.3436H376.464C376.464 45.8643 376.453 44.4095 376.479 42.9555C376.483 42.7733 376.674 42.5829 376.805 42.4171C379.829 38.5702 382.858 34.7265 385.885 30.8816C386.117 30.5878 386.343 30.2901 386.677 29.857L376.447 29.8572Z" fill="#0A112F"/>
</g>
<g clip-path="url(#clip2_810_1785)">
<path d="M616.818 24.4494V47.9972H597.315L616.818 24.4494ZM616.818 16.0019C616.818 21.3833 612.458 25.7425 607.077 25.7425C601.696 25.7425 597.315 21.3833 597.315 16.0019H616.818ZM620.03 47.9981C620.03 42.6166 624.389 38.2574 629.771 38.2574C635.152 38.2574 639.511 42.6166 639.511 47.9981H620.03ZM620.03 39.5506V16.0019H639.532L620.03 39.5506Z" fill="#0A112F"/>
</g>
<g clip-path="url(#clip3_810_1785)">
<path d="M758.644 43.6383C760.865 43.6918 763.005 42.8624 764.61 41.3107L767.553 44.4945C765.6 46.5011 762.898 47.9993 758.698 47.9993C751.474 47.9993 746.819 43.2102 746.819 36.7356C746.819 30.3145 751.715 25.4718 758.029 25.4718C765.199 25.4718 769.239 30.9298 768.891 38.4747H751.982C752.571 41.6317 754.791 43.6383 758.644 43.6383ZM763.781 34.8895C763.326 31.9732 761.587 29.8061 758.082 29.8061C754.818 29.8061 752.571 31.6522 751.982 34.8895H763.781ZM647.532 43.3975L660.561 30.1539H647.826V26.0069H666.581V30.2609L653.578 43.4778H666.768V47.6248H647.532V43.3975ZM681.376 43.6383C683.597 43.6918 685.737 42.8624 687.343 41.3107L690.286 44.4945C688.333 46.5011 685.63 47.9993 681.43 47.9993C674.233 47.9993 669.551 43.2102 669.551 36.7356C669.551 30.3145 674.447 25.4718 680.761 25.4718C687.931 25.4718 691.971 30.9298 691.624 38.4747H674.715C675.33 41.6317 677.524 43.6383 681.376 43.6383ZM686.54 34.8895C686.085 31.9732 684.346 29.8061 680.841 29.8061C677.577 29.8061 675.33 31.6522 674.741 34.8895H686.54ZM719.77 36.7623C719.77 29.8329 724.933 25.5254 730.632 25.5254C733.495 25.5254 736.224 26.7828 737.829 28.7627V16.0007H742.431V47.5713H737.829V44.5747C736.17 46.6884 733.441 47.9993 730.578 47.9993C725.067 47.9993 719.77 43.6383 719.77 36.7623ZM738.097 36.7088C738.097 32.8562 735.18 29.6991 731.247 29.6991C727.395 29.6991 724.398 32.7759 724.398 36.7088C724.398 40.6418 727.395 43.7453 731.247 43.7453C735.18 43.7721 738.097 40.615 738.097 36.7088ZM771.888 42.9694L776.061 40.8023C777.185 42.8089 779.326 44.0129 781.626 43.9594C784.222 43.9594 785.586 42.6216 785.586 41.0966C785.586 39.3576 783.071 38.983 780.342 38.4211C776.65 37.6453 772.824 36.4413 772.824 31.9732C772.824 28.5486 776.088 25.3916 781.198 25.4451C785.238 25.4451 788.235 27.0504 789.92 29.6456L786.041 31.786C785.051 30.2609 783.339 29.3245 781.172 29.3245C778.683 29.3245 777.426 30.5285 777.426 31.9197C777.426 33.4715 779.433 33.8996 782.563 34.5952C786.121 35.3711 790.161 36.5483 790.161 41.0431C790.161 44.0396 787.566 48.0528 781.386 47.9993C776.891 47.9993 773.707 46.18 771.888 42.9694ZM802.656 37.9663L799.017 41.9528V47.5713H794.415V16.0007H799.017V36.6553L808.783 25.9534H814.374L805.92 35.2106L814.615 47.5713H809.398L802.656 37.9663ZM705.857 25.4986C700.372 25.4986 695.797 29.057 695.797 34.9163V47.5713H700.506V35.5316C700.506 31.9732 702.539 29.8596 706.018 29.8596C709.496 29.8596 711.235 31.9732 711.235 35.5316V47.5713H715.917V34.943C715.917 29.057 711.342 25.4986 705.857 25.4986Z" fill="#0A112F"/>
<path d="M813.09 23.1442C813.732 22.5021 814.802 22.5021 815.444 23.1442C816.087 23.7863 816.087 24.8565 815.444 25.4986C814.802 26.1407 813.732 26.1407 813.09 25.4986C812.421 24.8565 812.421 23.8131 813.09 23.1442ZM815.15 25.231C815.632 24.7227 815.605 23.9201 815.123 23.4385C814.615 22.9569 813.812 22.9837 813.331 23.4652C812.849 23.9736 812.849 24.7495 813.358 25.231C813.866 25.7394 814.669 25.7126 815.15 25.231ZM814.401 23.2512L814.909 23.7595C815.23 24.0806 815.23 24.4552 815.016 24.6692C814.856 24.8565 814.588 24.91 814.374 24.803L814.214 25.4451L813.866 25.0973L814.107 24.2144L814.24 24.3481C814.321 24.4552 814.508 24.4819 814.615 24.4017L814.642 24.3749C814.749 24.2679 814.722 24.0806 814.615 24.0003L814.588 23.9736L814.401 23.7863L813.465 24.7227L813.17 24.4284L814.401 23.2512Z" fill="#0A112F"/>
</g>
<g clip-path="url(#clip4_810_1785)">
<path d="M981.874 25.0625C974.438 25.0625 968.405 31.1118 968.405 38.5312C968.405 45.9507 974.454 51.9999 981.874 51.9999C989.293 51.9999 995.342 45.9507 995.342 38.5312C995.342 31.1118 989.309 25.0625 981.874 25.0625ZM981.874 45.6257C977.969 45.6257 974.79 42.4467 974.79 38.542C974.79 34.6374 977.969 31.4584 981.874 31.4584C985.778 31.4584 988.957 34.6374 988.957 38.542C988.957 42.4467 985.778 45.6257 981.874 45.6257Z" fill="#0A112F"/>
<path d="M1026.68 20.3997C1029 20.3997 1030.88 18.5204 1030.88 16.1971C1030.88 13.8738 1029 12 1026.68 12C1024.36 12 1022.47 13.8792 1022.47 16.2025C1022.47 18.5259 1024.36 20.3997 1026.68 20.3997Z" fill="#0A112F"/>
<path d="M954.373 25.0734C954.021 25.0463 953.685 25.03 953.339 25.03C950.089 25.03 947.008 26.3623 944.798 28.7127C942.589 26.3731 939.518 25.03 936.301 25.03C929.856 25.0354 924.609 30.267 924.609 36.7116V51.453H930.907V36.8903C930.907 34.215 933.106 31.7509 935.694 31.4855C935.879 31.4692 936.057 31.4584 936.225 31.4584C939.139 31.4584 941.516 33.8359 941.533 36.7495V51.4476H947.972V36.8632C947.972 34.2041 950.154 31.74 952.759 31.4747C952.943 31.4584 953.122 31.4476 953.29 31.4476C956.204 31.4476 958.597 33.8142 958.608 36.7116V51.453H965.047V36.8903C965.047 33.9388 963.953 31.0901 961.982 28.8968C960.016 26.6872 957.314 25.3279 954.373 25.0734Z" fill="#0A112F"/>
<path d="M1005.25 12.6282H998.814V51.4801H1005.25V12.6282ZM1017.58 12.6282H1011.14V51.4801H1017.58V12.6282ZM1029.9 25.707H1023.46V51.4693H1029.9V25.707Z" fill="#0A112F"/>
<path d="M1060 37.9302C1060 34.5129 1058.67 31.296 1056.26 28.8427C1053.84 26.3949 1050.65 25.0355 1047.25 25.0355H1047.08C1043.55 25.0788 1040.22 26.4761 1037.73 28.9835C1035.23 31.491 1033.83 34.8054 1033.79 38.3472C1033.75 41.9595 1035.14 45.3767 1037.7 47.9654C1040.26 50.5541 1043.65 51.9838 1047.26 51.9838H1047.28C1052.01 51.9838 1056.45 49.4493 1058.87 45.3767L1059.18 44.8568L1053.86 42.2411L1053.6 42.6743C1052.26 44.8731 1049.95 46.1728 1047.39 46.1728C1044.11 46.1728 1041.28 43.9903 1040.41 40.8817H1060V37.9302ZM1046.99 30.8844C1049.93 30.8844 1052.56 32.8178 1053.49 35.5582H1040.51C1041.42 32.8178 1044.05 30.8844 1046.99 30.8844Z" fill="#0A112F"/>
</g>
<defs>
<clipPath id="clip0_810_1785">
<rect width="199.203" height="40" fill="white" transform="translate(0 12)"/>
</clipPath>
<clipPath id="clip1_810_1785">
<rect width="180.8" height="32" fill="white" transform="translate(307.859 16)"/>
</clipPath>
<clipPath id="clip2_810_1785">
<rect width="42.2164" height="32" fill="white" transform="translate(597.315 16)"/>
</clipPath>
<clipPath id="clip3_810_1785">
<rect width="168.421" height="32" fill="white" transform="translate(647.532 16)"/>
</clipPath>
<clipPath id="clip4_810_1785">
<rect width="135.391" height="40" fill="white" transform="translate(924.609 12)"/>
</clipPath>
</defs>
</svg>
