<svg width="25" height="24" viewBox="0 0 25 24" fill="none" xmlns="http://www.w3.org/2000/svg">
<path d="M21.75 9.14999C19.44 5.51999 16.06 3.42999 12.5 3.42999C10.72 3.42999 8.99 3.94999 7.41 4.91999C5.83 5.89999 4.41 7.32999 3.25 9.14999C2.25 10.72 2.25 13.27 3.25 14.84C5.56 18.48 8.94 20.56 12.5 20.56C14.28 20.56 16.01 20.04 17.59 19.07C19.17 18.09 20.59 16.66 21.75 14.84C22.75 13.28 22.75 10.72 21.75 9.14999ZM12.5 16.04C10.26 16.04 8.46 14.23 8.46 12C8.46 9.76999 10.26 7.95999 12.5 7.95999C14.74 7.95999 16.54 9.76999 16.54 12C16.54 14.23 14.74 16.04 12.5 16.04Z" fill="#0A112F"/>
<path d="M10.1504 12C10.1504 10.695 11.2077 9.64001 12.5004 9.64001C13.7942 9.64001 14.8604 10.7062 14.8604 12C14.8604 13.2916 13.7965 14.35 12.5004 14.35C11.2065 14.35 10.1504 13.2939 10.1504 12Z" fill="#0A112F" stroke="#FAFAFA"/>
</svg>
