<svg width="48" height="48" viewBox="0 0 48 48" fill="none" xmlns="http://www.w3.org/2000/svg">
<rect width="48" height="48" rx="24" fill="url(#paint0_radial_1071_6046)"/>
<path d="M30.8167 17.2157L26.6527 12.1838L25.5119 10.318L26.4246 8L20.8916 12.6361L25.0556 17.6114L26.1964 19.4772L25.2837 21.7952L30.8167 17.2157Z" fill="white"/>
<path d="M22.7733 14.9538L16.2707 15.0669L14.1031 14.7842L12.9053 12.6357L13.0764 19.816L19.5791 19.703L21.7466 19.9857L22.9445 22.1341L22.7733 14.9538Z" fill="white"/>
<path d="M15.9857 19.8164L12.0499 24.9613L10.5098 26.5444L8 26.1486L13.7611 30.4455L17.697 25.3006L19.2371 23.7741L21.7469 24.1698L15.9857 19.8164Z" fill="white"/>
<path d="M15.5863 28.1277L17.1265 34.4034L17.4117 36.5518L15.5293 38.2479L22.4883 36.4387L20.8912 30.163L20.606 28.0146L22.4883 26.375L15.5863 28.1277Z" fill="white"/>
<path d="M21.8613 33.6112L27.7366 36.325L29.6189 37.5123L29.79 40L32.6991 33.4416L26.7669 30.7278L24.8845 29.597L24.7134 27.1094L21.8613 33.6112Z" fill="white"/>
<path d="M30.0744 32.1417L35.8926 29.2583L37.9461 28.5233L39.9995 29.9367L36.6911 23.6045L30.873 26.4879L28.7625 27.2229L26.709 25.8095L30.0744 32.1417Z" fill="white"/>
<path d="M34.0682 24.849L35.3801 18.5168L36.1217 16.4249L38.5174 15.7465L31.4443 14.333L30.1324 20.6652L29.3908 22.7571L26.9951 23.4356L34.0682 24.849Z" fill="white"/>
<defs>
<radialGradient id="paint0_radial_1071_6046" cx="0" cy="0" r="1" gradientUnits="userSpaceOnUse" gradientTransform="translate(24 24) rotate(90) scale(24)">
<stop stop-color="#ECC45D"/>
<stop offset="1" stop-color="#FAA745"/>
</radialGradient>
</defs>
</svg>
