<svg width="48" height="48" viewBox="0 0 48 48" fill="none" xmlns="http://www.w3.org/2000/svg">
<circle cx="24" cy="24" r="24" fill="#0A112F"/>
<path d="M24 6.5C14.3312 6.5 6.5 14.3312 6.5 24C6.5 31.7437 11.5094 38.2844 18.4656 40.6031C19.3406 40.7563 19.6687 40.2313 19.6687 39.7719C19.6687 39.3563 19.6469 37.9781 19.6469 36.5125C15.25 37.3219 14.1125 35.4406 13.7625 34.4562C13.5656 33.9531 12.7125 32.4 11.9688 31.9844C11.3562 31.6562 10.4812 30.8469 11.9469 30.825C13.325 30.8031 14.3094 32.0937 14.6375 32.6187C16.2125 35.2656 18.7281 34.5219 19.7344 34.0625C19.8875 32.925 20.3469 32.1594 20.85 31.7219C16.9562 31.2844 12.8875 29.775 12.8875 23.0812C12.8875 21.1781 13.5656 19.6031 14.6813 18.3781C14.5063 17.9406 13.8937 16.1469 14.8562 13.7406C14.8562 13.7406 16.3219 13.2813 19.6687 15.5344C21.0687 15.1406 22.5563 14.9437 24.0438 14.9437C25.5313 14.9437 27.0188 15.1406 28.4188 15.5344C31.7656 13.2594 33.2313 13.7406 33.2313 13.7406C34.1938 16.1469 33.5813 17.9406 33.4063 18.3781C34.5219 19.6031 35.2 21.1562 35.2 23.0812C35.2 29.7969 31.1094 31.2844 27.2156 31.7219C27.85 32.2687 28.3969 33.3188 28.3969 34.9594C28.3969 37.3 28.375 39.1813 28.375 39.7719C28.375 40.2313 28.7031 40.7781 29.5781 40.6031C33.0522 39.4303 36.071 37.1976 38.2096 34.2192C40.3483 31.2408 41.4991 27.6667 41.5 24C41.5 14.3312 33.6688 6.5 24 6.5Z" fill="white"/>
</svg>
