<svg width="160" height="161" viewBox="0 0 160 161" fill="none" xmlns="http://www.w3.org/2000/svg">
<circle cx="80" cy="80.2222" r="80" fill="#0B0B0C"/>
<path d="M68.3156 78.9822C70.6623 79.9422 72.4756 81.4888 73.7556 83.6222C75.1423 85.6488 75.8356 88.1022 75.8356 90.9822C75.8356 94.8222 74.609 97.9688 72.1556 100.422C69.7023 102.875 66.6623 104.102 63.0356 104.102C59.1956 104.102 56.049 102.875 53.5956 100.422C51.1423 97.9688 49.9156 94.8222 49.9156 90.9822C49.9156 89.0622 50.129 87.1955 50.5556 85.3822C51.089 83.5688 52.049 80.8488 53.4356 77.2222L61.9156 54.5022H74.7156L68.3156 78.9822ZM102.236 78.9822C104.582 79.9422 106.396 81.4888 107.676 83.6222C109.062 85.6488 109.756 88.1022 109.756 90.9822C109.756 94.8222 108.529 97.9688 106.076 100.422C103.622 102.875 100.582 104.102 96.9556 104.102C93.1156 104.102 89.969 102.875 87.5156 100.422C85.0623 97.9688 83.8356 94.8222 83.8356 90.9822C83.8356 89.0622 84.049 87.1955 84.4756 85.3822C85.009 83.5688 85.969 80.8488 87.3556 77.2222L95.8356 54.5022H108.636L102.236 78.9822Z" fill="white"/>
</svg>
