<svg width="25" height="25" viewBox="0 0 25 25" fill="none" xmlns="http://www.w3.org/2000/svg">
<g clip-path="url(#clip0_807_2218)">
<path d="M12.5 21.5C17.4706 21.5 21.5 17.4706 21.5 12.5C21.5 7.52944 17.4706 3.5 12.5 3.5C7.52944 3.5 3.5 7.52944 3.5 12.5C3.5 17.4706 7.52944 21.5 12.5 21.5Z" stroke="#0A112F" stroke-width="1.5" stroke-linecap="round" stroke-linejoin="round"/>
<path d="M4.1001 9.5H20.9001" stroke="#0A112F" stroke-width="1.5" stroke-linecap="round" stroke-linejoin="round"/>
<path d="M4.1001 15.5H20.9001" stroke="#0A112F" stroke-width="1.5" stroke-linecap="round" stroke-linejoin="round"/>
<path d="M12.0002 3.5C10.3155 6.19961 9.42236 9.31787 9.42236 12.5C9.42236 15.6821 10.3155 18.8004 12.0002 21.5" stroke="#0A112F" stroke-width="1.5" stroke-linecap="round" stroke-linejoin="round"/>
<path d="M13 3.5C14.6847 6.19961 15.5778 9.31787 15.5778 12.5C15.5778 15.6821 14.6847 18.8004 13 21.5" stroke="#0A112F" stroke-width="1.5" stroke-linecap="round" stroke-linejoin="round"/>
</g>
<defs>
<clipPath id="clip0_807_2218">
<rect width="24" height="24" fill="white" transform="translate(0.5 0.5)"/>
</clipPath>
</defs>
</svg>
