<svg width="24" height="24" viewBox="0 0 24 24" fill="none" xmlns="http://www.w3.org/2000/svg">
<path d="M1.5 22.966C1.5 17.7381 5.73808 13.5 10.966 13.5H13.034C18.2619 13.5 22.5 17.7381 22.5 22.966C22.5 23.1229 22.3729 23.25 22.216 23.25H1.78398C1.62714 23.25 1.5 23.1229 1.5 22.966Z" fill="#CCE1FF"/>
<path d="M9.75 14.25L11.25 15.75L10.125 19.875L12 21.75L13.875 19.875L12.75 15.75L14.25 14.25H9.75Z" fill="#3981F7"/>
<circle cx="12" cy="6.75" r="5.25" fill="#93BAFB"/>
<rect x="11.25" y="4.5" width="1.5" height="4.5" rx="0.75" fill="white"/>
<rect x="9.75" y="7.5" width="1.5" height="4.5" rx="0.75" transform="rotate(-90 9.75 7.5)" fill="white"/>
</svg>
