<svg width="184" height="184" viewBox="0 0 184 184" fill="none" xmlns="http://www.w3.org/2000/svg">
<path fill-rule="evenodd" clip-rule="evenodd" d="M24.0024 32.9019C10.7475 32.9019 0.00238037 43.6471 0.00238037 56.9019V160.431C0.00238037 165.008 1.28349 169.285 3.50666 172.924L91.8948 103.255L180.283 172.924C182.506 169.285 183.787 165.007 183.787 160.431V56.9019C183.787 43.6471 173.042 32.9019 159.787 32.9019H24.0024Z" fill="#F5F9FF"/>
<rect x="25.9789" y="-0.000427246" width="131.892" height="129.882" rx="16" fill="white"/>
<path d="M92.0021 81.1759C108.142 81.1759 121.226 68.0921 121.226 51.9524C121.226 35.8128 108.142 22.729 92.0021 22.729C75.8625 22.729 62.7787 35.8128 62.7787 51.9524C62.7787 68.0921 75.8625 81.1759 92.0021 81.1759Z" fill="#3981F7"/>
<path d="M82.261 51.9524L88.7551 58.4465L101.743 45.4583" stroke="white" stroke-width="4" stroke-linecap="round" stroke-linejoin="round"/>
<path fill-rule="evenodd" clip-rule="evenodd" d="M24.0555 184C15.4517 183.937 7.92468 179.347 3.73849 172.493L92.1273 102.824L180.516 172.493C176.329 179.347 168.802 183.937 160.199 184H24.0555Z" fill="#CCE1FF"/>
<path fill-rule="evenodd" clip-rule="evenodd" d="M183.6 52.1281L106.161 113.676L145.12 144.64L180.494 172.522C182.717 168.883 183.998 164.605 183.998 160.028V56.4996C183.998 55.0067 183.861 53.5456 183.6 52.1281Z" fill="#E0EDFF"/>
<path fill-rule="evenodd" clip-rule="evenodd" d="M0.403671 52.1288L77.8447 113.678L39.3575 144.267L3.51074 172.522C1.28767 168.883 0.00662231 164.605 0.00662231 160.028V56.4996C0.00662231 55.0069 0.142891 53.546 0.403671 52.1288Z" fill="#E0EDFF"/>
</svg>
