<svg width="20" height="21" viewBox="0 0 20 21" fill="none" xmlns="http://www.w3.org/2000/svg">
<path d="M17.1834 7.26387C16.3084 3.41388 12.9501 1.68054 10.0001 1.68054C10.0001 1.68054 10.0001 1.68054 9.99175 1.68054C7.05008 1.68054 3.68341 3.40554 2.80841 7.25554C1.83341 11.5555 4.46675 15.1972 6.85008 17.4889C7.73341 18.3389 8.86675 18.7639 10.0001 18.7639C11.1334 18.7639 12.2667 18.3389 13.1417 17.4889C15.5251 15.1972 18.1584 11.5639 17.1834 7.26387ZM10.0001 11.4389C8.55008 11.4389 7.37508 10.2639 7.37508 8.81388C7.37508 7.36387 8.55008 6.18887 10.0001 6.18887C11.4501 6.18887 12.6251 7.36387 12.6251 8.81388C12.6251 10.2639 11.4501 11.4389 10.0001 11.4389Z" fill="#9096A2"/>
</svg>
