<svg width="48" height="48" viewBox="0 0 48 48" fill="none" xmlns="http://www.w3.org/2000/svg">
<circle cx="24" cy="24" r="23.5" stroke="#E4E4E7"/>
<path fill-rule="evenodd" clip-rule="evenodd" d="M21.8576 21.4742H24.9526V23.0159C25.3984 22.1292 26.5417 21.3326 28.2592 21.3326C31.5517 21.3326 32.3334 23.0976 32.3334 26.3359V32.3334H29.0001V27.0734C29.0001 25.2292 28.5542 24.1892 27.4192 24.1892C25.8451 24.1892 25.1909 25.3101 25.1909 27.0726V32.3334H21.8576V21.4742ZM16.1417 32.1917H19.4751V21.3326H16.1417V32.1917ZM19.9526 17.7917C19.9527 18.0711 19.8973 18.3478 19.7896 18.6056C19.6818 18.8634 19.524 19.0972 19.3251 19.2934C18.9221 19.6939 18.3766 19.9181 17.8084 19.9167C17.2412 19.9164 16.697 19.6927 16.2934 19.2942C16.0953 19.0973 15.9379 18.8633 15.8304 18.6054C15.7228 18.3476 15.6672 18.0711 15.6667 17.7917C15.6667 17.2276 15.8917 16.6876 16.2942 16.2892C16.6975 15.8902 17.2419 15.6665 17.8092 15.6667C18.3776 15.6667 18.9226 15.8909 19.3251 16.2892C19.7267 16.6876 19.9526 17.2276 19.9526 17.7917Z" fill="#9096A2"/>
</svg>
