<svg width="41" height="32" viewBox="0 0 41 32" fill="none" xmlns="http://www.w3.org/2000/svg">
<path d="M18.9856 0.0446312C22.5115 -0.192689 26.1052 0.519264 29.2582 2.1127C33.9368 4.4181 37.6661 8.55426 39.3952 13.4363C40.1749 15.6061 40.5818 17.8776 40.5818 20.183V28.6926C40.5818 29.0316 40.5818 29.4045 40.514 29.7436C40.3106 30.5911 39.7003 31.3709 38.8866 31.7439C38.3103 32.0151 37.6661 32.049 37.0898 31.9473C35.8015 31.7099 34.7844 30.4894 34.7844 29.1672C34.7844 26.5228 34.7844 23.8784 34.7844 21.2339C34.8183 20.4881 34.8183 19.6744 34.4114 19.0303C33.7673 17.8098 32.14 17.2334 30.8855 17.7419C29.8007 18.1149 29.0209 19.2337 28.987 20.3864C28.987 23.0647 28.987 25.743 28.987 28.4214C28.987 28.9299 29.0209 29.4384 28.8514 29.9131C28.5802 30.8624 27.8004 31.6082 26.8511 31.8795C25.5967 32.2185 24.1728 31.676 23.5625 30.5233C23.1218 29.8453 23.1557 28.9977 23.1896 28.2179C23.1896 25.5396 23.1896 22.8952 23.1896 20.2169C23.1557 18.8607 22.0369 17.6402 20.7147 17.4707C19.8332 17.3351 18.9178 17.6402 18.2737 18.2505C17.6973 18.7929 17.3922 19.5727 17.3922 20.3525V28.1162C17.3922 28.7604 17.46 29.4385 17.2227 30.0487C16.8497 31.1675 15.7309 31.9812 14.5443 31.9473C13.3238 32.0151 12.1372 31.1675 11.7643 30.0487C11.5609 29.4724 11.5948 28.896 11.5948 28.2857C11.5948 25.6074 11.5948 22.9291 11.5948 20.2508C11.5948 18.9285 10.5438 17.708 9.25549 17.4707C8.06889 17.2334 6.78058 17.8097 6.17033 18.8946C5.93301 19.3354 5.7974 19.8439 5.7974 20.3525V29.0655C5.7974 29.9131 5.42446 30.7607 4.78031 31.3031C3.79713 32.1507 2.20369 32.2185 1.1866 31.4387C0.440738 30.9302 0 30.0487 0 29.1333V20.3186C0 16.9961 0.847573 13.6736 2.44101 10.724C3.72932 8.31694 5.52617 6.18105 7.66206 4.4859C10.815 1.84148 14.8495 0.281952 18.9856 0.0446312Z" fill="#0A112F"/>
</svg>
