<svg width="16" height="18" viewBox="0 0 16 18" fill="none" xmlns="http://www.w3.org/2000/svg">
<path d="M15.1834 6.04171C14.3084 2.19171 10.9501 0.458374 8.00008 0.458374C8.00008 0.458374 8.00008 0.458374 7.99175 0.458374C5.05008 0.458374 1.68341 2.18337 0.808413 6.03337C-0.166587 10.3334 2.46675 13.975 4.85008 16.2667C5.73341 17.1167 6.86675 17.5417 8.00008 17.5417C9.13341 17.5417 10.2667 17.1167 11.1417 16.2667C13.5251 13.975 16.1584 10.3417 15.1834 6.04171ZM8.00008 10.2167C6.55008 10.2167 5.37508 9.04171 5.37508 7.59171C5.37508 6.14171 6.55008 4.96671 8.00008 4.96671C9.45008 4.96671 10.6251 6.14171 10.6251 7.59171C10.6251 9.04171 9.45008 10.2167 8.00008 10.2167Z" fill="#9096A2"/>
</svg>
