<svg width="48" height="48" viewBox="0 0 48 48" fill="none" xmlns="http://www.w3.org/2000/svg">
<circle cx="24" cy="24" r="24" fill="#625DF5"/>
<path d="M38 22.5347H29.4703L36.857 18.2693L35.3922 15.7307L28.0045 19.996L32.2684 12.6087L29.7306 11.1433L25.4658 18.5288V10H22.5342V18.5297L18.2694 11.1433L15.7306 12.6087L19.9945 19.9941L12.6087 15.7307L11.143 18.2693L18.5297 22.5347H10V25.4663H18.5288L11.143 29.7316L12.6078 32.2703L19.9955 28.0049L15.7306 35.3923L18.2684 36.8576L22.5342 29.4712V38H25.4658V29.2883L29.809 36.8109L32.1891 35.4371L27.845 27.9125L35.3903 32.2693L36.8561 29.7307L29.4703 25.4653H37.9991V22.5347H38ZM24 27.9853C23.4767 27.9854 22.9585 27.8823 22.475 27.6821C21.9915 27.4818 21.5522 27.1882 21.1821 26.8181C20.812 26.448 20.5184 26.0086 20.3181 25.525C20.1178 25.0414 20.0147 24.523 20.0146 23.9995C20.0145 23.476 20.1175 22.9577 20.3178 22.474C20.518 21.9904 20.8114 21.5509 21.1814 21.1807C21.5514 20.8105 21.9907 20.5168 22.4741 20.3164C22.9576 20.116 23.4758 20.0129 23.9991 20.0128C25.0559 20.0127 26.0696 20.4325 26.817 21.18C27.5644 21.9275 27.9843 22.9414 27.9845 23.9986C27.9846 25.0558 27.5649 26.0698 26.8176 26.8175C26.0704 27.5651 25.0569 27.9852 24 27.9853Z" fill="white"/>
</svg>
