<svg width="48" height="48" viewBox="0 0 48 48" fill="none" xmlns="http://www.w3.org/2000/svg">
<rect width="48" height="48" rx="24" fill="#056D03"/>
<path d="M15.1875 33.625L15.1875 34L21.25 34L21.25 26.625C21.25 25.9375 22.1875 25.6875 22.5 26.3125L23.1875 27.75C24.125 29.6875 24.625 31.625 24.625 33.625L24.625 34L30.6875 34L30.6875 26.8125C30.6875 26.125 31.625 25.875 31.9375 26.5L32.625 28C33.5 29.8125 33.9375 31.75 33.9375 33.625L33.9375 34L40 34L40 26.8125L39 26C34.9375 22.5 32.8125 18.4375 32.8125 14.1875L32.8125 13.875L26.75 13.875L26.75 21.0625C26.75 21.75 25.8125 22 25.5 21.375L24.8125 19.875C23.9375 18.0625 23.5 16.125 23.5 14.25L23.5 13.9375L17.4375 13.9375L17.4375 21.25C17.4375 21.9375 16.5 22.1875 16.1875 21.5625L15.5 20.125C14.5625 18.1875 14.0625 16.25 14.0625 14.25L14.0625 13.9375L8 13.9375L8 21.125L9 21.9375C13.0625 25.3125 15.1875 29.4375 15.1875 33.625Z" fill="white"/>
</svg>
