<svg width="94" height="94" viewBox="0 0 94 94" fill="none" xmlns="http://www.w3.org/2000/svg">
<rect x="1.5" y="1.50012" width="91" height="91" rx="45.5" fill="#E1DAFE"/>
<g clip-path="url(#clip0_838_6166)">
<path d="M44.785 26.3484C45.7145 24.5507 48.2855 24.5507 49.215 26.3484L55.1341 37.7963C55.3712 38.255 55.745 38.6288 56.2039 38.866L67.6516 44.7851C69.4495 45.7146 69.4495 48.2856 67.6516 49.2151L56.2039 55.1342C55.745 55.3713 55.3712 55.7451 55.1341 56.204L49.215 67.6517C48.2855 69.4496 45.7145 69.4496 44.785 67.6517L38.8659 56.204C38.6287 55.7451 38.2549 55.3713 37.7962 55.1342L26.3483 49.2151C24.5506 48.2856 24.5506 45.7146 26.3483 44.7851L37.7962 38.866C38.2549 38.6288 38.6287 38.255 38.8659 37.7963L44.785 26.3484Z" fill="#6945FA"/>
</g>
<rect x="1.5" y="1.50012" width="91" height="91" rx="45.5" stroke="white" stroke-width="3"/>
<defs>
<clipPath id="clip0_838_6166">
<rect width="44" height="44" fill="white" transform="translate(25 25.0001)"/>
</clipPath>
</defs>
</svg>
