<svg width="30" height="30" viewBox="0 0 30 30" fill="none" xmlns="http://www.w3.org/2000/svg">
<path d="M10.0608 27.2849L10.5219 24.3784L9.49486 24.3548H4.59082L7.99888 2.90794C8.00902 2.84241 8.04256 2.78268 8.09337 2.73964C8.14418 2.6966 8.20888 2.67312 8.27568 2.67347H16.5446C19.2897 2.67347 21.1841 3.24041 22.1732 4.35943C22.6369 4.88438 22.9323 5.43295 23.0751 6.03665C23.2249 6.67009 23.2276 7.42689 23.0812 8.34993L23.0707 8.41729V9.00874L23.5343 9.26946C23.8883 9.44746 24.2065 9.68823 24.4732 9.9799C24.8699 10.4287 25.1264 10.9992 25.2348 11.6755C25.3468 12.371 25.3098 13.1987 25.1264 14.1358C24.9149 15.2136 24.5728 16.1524 24.1109 16.9206C23.7033 17.6088 23.1553 18.2048 22.5021 18.6704C21.8885 19.1027 21.1595 19.4307 20.3352 19.6407C19.5365 19.8472 18.6259 19.9513 17.6271 19.9513H16.9836C16.5234 19.9513 16.0765 20.1158 15.7256 20.4107C15.3753 20.7086 15.1428 21.1204 15.0698 21.5725L15.0213 21.8341L14.2067 26.9568L14.1697 27.1449C14.16 27.2044 14.1432 27.2341 14.1186 27.2543C14.0947 27.2737 14.0648 27.2845 14.0339 27.2849H10.0608Z" fill="#253B80"/>
<path d="M22.8323 8.03404C22.4841 7.93407 22.1299 7.85605 21.7718 7.80044C21.0642 7.69251 20.3491 7.64072 19.6332 7.64558H13.152C12.9054 7.64539 12.6668 7.73278 12.4794 7.89196C12.292 8.05114 12.1682 8.2716 12.1303 8.51349L10.7516 17.1804L10.7119 17.4333C10.7549 17.1574 10.8959 16.9058 11.1095 16.7242C11.3231 16.5425 11.5951 16.4427 11.8764 16.4429H14.3025C19.0672 16.4429 22.7979 14.5224 23.8884 8.9667C23.921 8.80222 23.9483 8.64211 23.973 8.4855C23.6853 8.33573 23.3854 8.21018 23.0765 8.11016C22.9955 8.08349 22.9141 8.05811 22.8323 8.03404Z" fill="#222D65"/>
<path d="M12.1304 8.51345C12.1679 8.27149 12.2917 8.05093 12.4792 7.89183C12.6666 7.73273 12.9054 7.64565 13.1521 7.64641H19.6332C20.401 7.64641 21.1177 7.69628 21.7718 7.80127C22.2145 7.87031 22.651 7.97357 23.0774 8.11012C23.3992 8.21598 23.698 8.34109 23.9739 8.48545C24.2983 6.43202 23.9713 5.03391 22.8526 3.7679C21.6193 2.37416 19.3934 1.77747 16.5451 1.77747H8.27625C7.69443 1.77747 7.19812 2.19743 7.10821 2.76875L3.66401 24.4361C3.64797 24.5367 3.65407 24.6395 3.6819 24.7375C3.70973 24.8356 3.75863 24.9265 3.82522 25.004C3.89182 25.0814 3.97454 25.1437 4.06769 25.1864C4.16084 25.2292 4.26222 25.2514 4.36484 25.2515H9.46986L10.7516 17.1804L12.1304 8.51345Z" fill="#253B80"/>
<path d="M23.9729 8.48535C23.9482 8.64196 23.92 8.80207 23.8883 8.96656C22.7978 14.5232 19.0671 16.4427 14.3023 16.4427H11.8763C11.2936 16.4427 10.8026 16.8627 10.7118 17.4331L9.46971 25.2514L9.11797 27.4676C9.10396 27.5555 9.10931 27.6453 9.13365 27.731C9.158 27.8167 9.20075 27.8961 9.25898 27.9637C9.31721 28.0314 9.38953 28.0858 9.47095 28.1231C9.55237 28.1604 9.64097 28.1797 9.73065 28.1797H14.0335C14.543 28.1797 14.9758 27.8123 15.0561 27.3136L15.0984 27.0966L15.9085 21.9941L15.9605 21.7141C16.0399 21.2136 16.4736 20.8462 16.9831 20.8462H17.6266C21.7955 20.8462 25.059 19.1663 26.0128 14.3053C26.4113 12.2746 26.205 10.579 25.1506 9.38652C24.8165 9.01762 24.4174 8.71224 23.9729 8.48535Z" fill="#179BD7"/>
</svg>
