<svg width="48" height="48" viewBox="0 0 48 48" fill="none" xmlns="http://www.w3.org/2000/svg">
<rect width="48" height="48" rx="24" fill="#F5F9FF"/>
<circle cx="24" cy="24" r="10.5" fill="#93BAFB"/>
<circle cx="24" cy="24" r="7.5" fill="#CCE1FF"/>
<g clip-path="url(#clip0_826_2954)">
<path d="M26.3757 25.2895C26.3757 23.9477 25.43 23.5629 24.4069 23.3464L23.8647 23.2365C23.0628 23.0789 23.0009 22.8463 23.0009 22.535C23.0009 22.131 23.365 21.8895 23.9749 21.8895C24.6972 21.8895 24.8822 22.2523 24.959 22.5248L24.9663 22.5475C25.0572 22.7851 25.2682 22.9269 25.5316 22.9269C25.5998 22.9269 25.6611 22.9165 25.707 22.9072C25.9896 22.851 26.1865 22.626 26.1865 22.3595C26.1865 22.2934 26.1746 22.2278 26.1505 22.1641C26.0057 21.6984 25.5987 20.9653 24.471 20.798V19.9992C24.471 19.3339 23.429 19.3339 23.429 19.9992V20.8027C22.2177 20.9923 21.7716 21.8164 21.7716 22.5347C21.7716 23.8417 22.6817 24.206 23.5708 24.3894L24.1573 24.514C24.9926 24.6839 25.1398 24.9017 25.1398 25.2963C25.1398 25.7785 24.7322 26.0659 24.0487 26.0659C23.1615 26.0659 22.9807 25.6664 22.8598 25.218C22.789 24.9697 22.5647 24.8099 22.2881 24.8099C22.2278 24.8099 22.1794 24.8179 22.1211 24.8279L22.1035 24.8312C21.8174 24.8992 21.6255 25.1244 21.6255 25.3915C21.6255 25.4422 21.6345 25.4854 21.6418 25.5203L21.6508 25.5602C21.7795 25.9952 22.0635 26.9451 23.4803 27.157V27.993C23.4803 28.3259 23.7422 28.5001 24.0012 28.5001C24.2602 28.5001 24.5224 28.3259 24.5224 27.993V27.1717C25.6474 27.0251 26.3768 26.3064 26.3768 25.2897" fill="#3981F7"/>
</g>
<defs>
<clipPath id="clip0_826_2954">
<rect width="9" height="9" fill="white" transform="translate(19.5 19.5)"/>
</clipPath>
</defs>
</svg>
