<svg width="1060" height="300" viewBox="0 0 1060 300" fill="none" xmlns="http://www.w3.org/2000/svg">
<rect width="1060" height="300" rx="24" fill="#0A112F"/>
<path d="M326.026 76H336.706V73.6H328.546V59.2H326.026V76ZM339.838 69.04C340.198 67.12 341.398 65.8 343.438 65.8C345.358 65.8 346.654 67.12 346.918 69.04H339.838ZM346.318 72.52C345.934 73.36 344.878 74.2 343.438 74.2C341.518 74.2 340.102 72.88 339.838 70.84H349.078L349.126 70.504C349.15 70.288 349.198 70 349.198 69.64C349.198 66.28 346.678 63.76 343.438 63.76C339.958 63.76 337.438 66.28 337.438 70C337.438 73.72 339.958 76.24 343.438 76.24C346.558 76.24 348.262 74.08 348.838 72.52H346.318ZM351.977 73.48C351.977 75.04 352.913 76 354.617 76H357.137V73.84H355.097C354.617 73.84 354.377 73.6 354.377 73.12V66.28H357.137V64H354.377V60.64H351.977V64H350.057V66.28H351.977V73.48ZM365.911 73.48C365.911 75.04 366.847 76 368.551 76H371.071V73.84H369.031C368.551 73.84 368.311 73.6 368.311 73.12V66.28H371.071V64H368.311V60.64H365.911V64H363.991V66.28H365.911V73.48ZM373.597 76H375.997V68.8C375.997 67.24 377.317 65.92 379.117 65.92C380.773 65.92 381.997 67.24 381.997 68.8V76H384.397V68.8C384.397 65.656 382.477 63.76 379.597 63.76C378.445 63.76 377.581 64.12 377.005 64.48C376.669 64.696 376.381 64.936 376.117 65.2H375.997V59.2H373.597V76ZM388.959 69.04C389.319 67.12 390.519 65.8 392.559 65.8C394.479 65.8 395.775 67.12 396.039 69.04H388.959ZM395.439 72.52C395.055 73.36 393.999 74.2 392.559 74.2C390.639 74.2 389.223 72.88 388.959 70.84H398.199L398.247 70.504C398.271 70.288 398.319 70 398.319 69.64C398.319 66.28 395.799 63.76 392.559 63.76C389.079 63.76 386.559 66.28 386.559 70C386.559 73.72 389.079 76.24 392.559 76.24C395.679 76.24 397.383 74.08 397.959 72.52H395.439ZM406.015 76H408.415V68.8C408.415 67.24 409.735 65.92 411.535 65.92C413.191 65.92 414.415 67.24 414.415 68.8V76H416.815V68.8C416.815 65.656 414.895 63.76 412.015 63.76C410.863 63.76 409.999 64.12 409.423 64.48C409.087 64.696 408.799 64.936 408.535 65.2H408.415L408.175 64H406.015V76ZM419.579 71.2C419.579 74.344 421.499 76.24 424.379 76.24C425.507 76.24 426.395 75.88 426.971 75.52C427.307 75.304 427.595 75.064 427.859 74.8H427.979L428.219 76H430.379V64H427.979V71.2C427.979 72.76 426.659 74.08 424.859 74.08C423.203 74.08 421.979 72.76 421.979 71.2V64H419.579V71.2ZM433.261 76H435.661V68.44C435.661 67 436.837 65.92 438.301 65.92C439.741 65.92 440.701 66.88 440.701 68.44V76H443.101V68.44C443.101 67 444.277 65.92 445.741 65.92C447.181 65.92 448.141 66.88 448.141 68.44V76H450.541V68.416C450.541 65.68 448.717 63.76 446.221 63.76C444.805 63.76 443.845 64.192 443.197 64.6C442.813 64.864 442.501 65.128 442.261 65.44H442.141C441.949 65.128 441.709 64.864 441.421 64.6C440.917 64.192 440.125 63.76 438.901 63.76C437.941 63.76 437.173 64.12 436.621 64.48C436.309 64.696 436.021 64.936 435.781 65.2H435.661L435.421 64H433.261V76ZM453.415 76H455.575L455.815 74.56H455.935C456.295 75.04 457.351 76.24 459.655 76.24C462.799 76.24 465.175 73.84 465.175 70C465.175 66.16 462.799 63.76 459.655 63.76C457.327 63.76 456.343 64.984 455.935 65.44H455.815V59.2H453.415V76ZM459.295 74.08C457.375 74.08 455.815 72.496 455.815 70C455.815 67.504 457.375 65.92 459.295 65.92C461.215 65.92 462.775 67.504 462.775 70C462.775 72.496 461.215 74.08 459.295 74.08ZM469.245 69.04C469.605 67.12 470.805 65.8 472.845 65.8C474.765 65.8 476.061 67.12 476.325 69.04H469.245ZM475.725 72.52C475.341 73.36 474.285 74.2 472.845 74.2C470.925 74.2 469.509 72.88 469.245 70.84H478.485L478.533 70.504C478.557 70.288 478.605 70 478.605 69.64C478.605 66.28 476.085 63.76 472.845 63.76C469.365 63.76 466.845 66.28 466.845 70C466.845 73.72 469.365 76.24 472.845 76.24C475.965 76.24 477.669 74.08 478.245 72.52H475.725ZM480.893 76H483.293V68.656C483.293 67 484.133 66.16 485.813 66.16H487.733V64H485.573C484.085 64 483.701 64.624 483.293 65.08H483.173L482.933 64H480.893V76ZM488.461 72.4C488.461 73.72 489.781 76.24 493.621 76.24C496.981 76.24 498.541 74.56 498.541 72.64C498.541 70.624 497.389 69.424 495.061 69.04L492.901 68.68C491.821 68.464 491.101 67.984 491.101 67.24C491.101 66.496 491.797 65.8 493.501 65.8C495.301 65.8 496.021 66.76 496.021 67.48H498.421C498.421 66.16 496.981 63.76 493.501 63.76C490.261 63.76 488.701 65.32 488.701 67.24C488.701 69.28 489.877 70.336 492.181 70.72L494.341 71.08C495.685 71.296 496.141 71.8 496.141 72.64C496.141 73.384 495.421 74.2 493.621 74.2C491.701 74.2 490.861 73.12 490.861 72.4H488.461ZM505.278 72.4C505.278 73.72 506.598 76.24 510.438 76.24C513.798 76.24 515.358 74.56 515.358 72.64C515.358 70.624 514.206 69.424 511.878 69.04L509.718 68.68C508.638 68.464 507.918 67.984 507.918 67.24C507.918 66.496 508.614 65.8 510.318 65.8C512.118 65.8 512.838 66.76 512.838 67.48H515.238C515.238 66.16 513.798 63.76 510.318 63.76C507.078 63.76 505.518 65.32 505.518 67.24C505.518 69.28 506.694 70.336 508.998 70.72L511.158 71.08C512.502 71.296 512.958 71.8 512.958 72.64C512.958 73.384 512.238 74.2 510.438 74.2C508.518 74.2 507.678 73.12 507.678 72.4H505.278ZM517.527 80.8H519.927V74.56H520.047C520.407 75.04 521.463 76.24 523.767 76.24C526.911 76.24 529.287 73.84 529.287 70C529.287 66.16 526.911 63.76 523.767 63.76C521.439 63.76 520.455 64.984 520.047 65.44H519.927L519.687 64H517.527V80.8ZM523.407 74.08C521.487 74.08 519.927 72.496 519.927 70C519.927 67.504 521.487 65.92 523.407 65.92C525.327 65.92 526.887 67.504 526.887 70C526.887 72.496 525.327 74.08 523.407 74.08ZM533.36 69.04C533.72 67.12 534.92 65.8 536.96 65.8C538.88 65.8 540.176 67.12 540.44 69.04H533.36ZM539.84 72.52C539.456 73.36 538.4 74.2 536.96 74.2C535.04 74.2 533.624 72.88 533.36 70.84H542.6L542.648 70.504C542.672 70.288 542.72 70 542.72 69.64C542.72 66.28 540.2 63.76 536.96 63.76C533.48 63.76 530.96 66.28 530.96 70C530.96 73.72 533.48 76.24 536.96 76.24C540.08 76.24 541.784 74.08 542.36 72.52H539.84ZM552.808 76H554.848V68.32C554.848 65.536 553.072 63.76 549.928 63.76C546.928 63.76 545.128 65.464 545.008 67.48H547.408C547.528 66.76 548.248 65.8 549.928 65.8C551.488 65.8 552.448 66.76 552.448 68.32V68.56H549.448C546.088 68.56 544.528 70.12 544.528 72.52C544.528 74.704 546.208 76.24 548.848 76.24C550.096 76.24 551.008 75.856 551.584 75.472C551.92 75.256 552.208 74.992 552.448 74.68H552.568L552.808 76ZM552.448 70.96C552.448 73 551.272 74.2 549.088 74.2C547.648 74.2 546.928 73.48 546.928 72.4C546.928 71.32 547.744 70.48 549.568 70.48H552.448V70.96ZM557.731 76H560.131V70.24L565.411 76H568.291L562.651 69.88L568.051 64H565.171L560.131 69.52V59.2H557.731V76ZM575.857 76H578.257V66.28H580.777V64H578.257V62.2C578.257 61.72 578.497 61.48 578.977 61.48H580.777V59.32H578.377C576.937 59.32 575.857 60.4 575.857 61.84V64H573.937V66.28H575.857V76ZM587.627 74.08C585.587 74.08 584.027 72.496 584.027 70C584.027 67.504 585.587 65.92 587.627 65.92C589.667 65.92 591.227 67.504 591.227 70C591.227 72.496 589.667 74.08 587.627 74.08ZM587.627 76.24C591.107 76.24 593.627 73.72 593.627 70C593.627 66.28 591.107 63.76 587.627 63.76C584.147 63.76 581.627 66.28 581.627 70C581.627 73.72 584.147 76.24 587.627 76.24ZM595.909 76H598.309V68.656C598.309 67 599.149 66.16 600.829 66.16H602.749V64H600.589C599.101 64 598.717 64.624 598.309 65.08H598.189L597.949 64H595.909V76ZM609.959 73.48C609.959 75.04 610.895 76 612.599 76H615.119V73.84H613.079C612.599 73.84 612.359 73.6 612.359 73.12V66.28H615.119V64H612.359V60.64H609.959V64H608.039V66.28H609.959V73.48ZM617.645 76H620.045V68.8C620.045 67.24 621.365 65.92 623.165 65.92C624.821 65.92 626.045 67.24 626.045 68.8V76H628.445V68.8C628.445 65.656 626.525 63.76 623.645 63.76C622.493 63.76 621.629 64.12 621.053 64.48C620.717 64.696 620.429 64.936 620.165 65.2H620.045V59.2H617.645V76ZM633.007 69.04C633.367 67.12 634.567 65.8 636.607 65.8C638.527 65.8 639.823 67.12 640.087 69.04H633.007ZM639.487 72.52C639.103 73.36 638.047 74.2 636.607 74.2C634.687 74.2 633.271 72.88 633.007 70.84H642.247L642.295 70.504C642.319 70.288 642.367 70 642.367 69.64C642.367 66.28 639.847 63.76 636.607 63.76C633.127 63.76 630.607 66.28 630.607 70C630.607 73.72 633.127 76.24 636.607 76.24C639.727 76.24 641.431 74.08 642.007 72.52H639.487ZM644.654 76H647.054V68.44C647.054 67 648.23 65.92 649.694 65.92C651.134 65.92 652.094 66.88 652.094 68.44V76H654.494V68.44C654.494 67 655.67 65.92 657.134 65.92C658.574 65.92 659.534 66.88 659.534 68.44V76H661.934V68.416C661.934 65.68 660.11 63.76 657.614 63.76C656.198 63.76 655.238 64.192 654.59 64.6C654.206 64.864 653.894 65.128 653.654 65.44H653.534C653.342 65.128 653.102 64.864 652.814 64.6C652.31 64.192 651.518 63.76 650.294 63.76C649.334 63.76 648.566 64.12 648.014 64.48C647.702 64.696 647.414 64.936 647.174 65.2H647.054L646.814 64H644.654V76ZM663.848 72.4C663.848 73.72 665.168 76.24 669.008 76.24C672.368 76.24 673.928 74.56 673.928 72.64C673.928 70.624 672.776 69.424 670.448 69.04L668.288 68.68C667.208 68.464 666.488 67.984 666.488 67.24C666.488 66.496 667.184 65.8 668.888 65.8C670.688 65.8 671.408 66.76 671.408 67.48H673.808C673.808 66.16 672.368 63.76 668.888 63.76C665.648 63.76 664.088 65.32 664.088 67.24C664.088 69.28 665.264 70.336 667.568 70.72L669.728 71.08C671.072 71.296 671.528 71.8 671.528 72.64C671.528 73.384 670.808 74.2 669.008 74.2C667.088 74.2 666.248 73.12 666.248 72.4H663.848ZM677.896 69.04C678.256 67.12 679.456 65.8 681.496 65.8C683.416 65.8 684.712 67.12 684.976 69.04H677.896ZM684.376 72.52C683.992 73.36 682.936 74.2 681.496 74.2C679.576 74.2 678.16 72.88 677.896 70.84H687.136L687.184 70.504C687.208 70.288 687.256 70 687.256 69.64C687.256 66.28 684.736 63.76 681.496 63.76C678.016 63.76 675.496 66.28 675.496 70C675.496 73.72 678.016 76.24 681.496 76.24C684.616 76.24 686.32 74.08 686.896 72.52H684.376ZM689.664 76H692.064V59.2H689.664V76ZM697.829 76H701.429L705.629 64H703.109L699.869 73.36H699.389L696.149 64H693.629L697.829 76ZM708.629 69.04C708.989 67.12 710.189 65.8 712.229 65.8C714.149 65.8 715.445 67.12 715.709 69.04H708.629ZM715.109 72.52C714.725 73.36 713.669 74.2 712.229 74.2C710.309 74.2 708.893 72.88 708.629 70.84H717.869L717.917 70.504C717.941 70.288 717.989 70 717.989 69.64C717.989 66.28 715.469 63.76 712.229 63.76C708.749 63.76 706.229 66.28 706.229 70C706.229 73.72 708.749 76.24 712.229 76.24C715.349 76.24 717.053 74.08 717.629 72.52H715.109ZM719.437 72.4C719.437 73.72 720.757 76.24 724.597 76.24C727.957 76.24 729.517 74.56 729.517 72.64C729.517 70.624 728.365 69.424 726.037 69.04L723.877 68.68C722.797 68.464 722.077 67.984 722.077 67.24C722.077 66.496 722.773 65.8 724.477 65.8C726.277 65.8 726.997 66.76 726.997 67.48H729.397C729.397 66.16 727.957 63.76 724.477 63.76C721.237 63.76 719.677 65.32 719.677 67.24C719.677 69.28 720.853 70.336 723.157 70.72L725.317 71.08C726.661 71.296 727.117 71.8 727.117 72.64C727.117 73.384 726.397 74.2 724.597 74.2C722.677 74.2 721.837 73.12 721.837 72.4H719.437ZM731.565 76H734.325V73.24H731.565V76Z" fill="white"/>
<rect x="48" y="118" width="300" height="134" rx="24" fill="white" fill-opacity="0.1"/>
<path d="M111.667 165.167H88.3334C81.3334 165.167 76.6667 168.667 76.6667 176.833V193.167C76.6667 201.333 81.3334 204.833 88.3334 204.833H111.667C118.667 204.833 123.333 201.333 123.333 193.167V176.833C123.333 168.667 118.667 165.167 111.667 165.167ZM86.5834 190.833C86.5834 191.79 85.7901 192.583 84.8334 192.583C83.8767 192.583 83.0834 191.79 83.0834 190.833V179.167C83.0834 178.21 83.8767 177.417 84.8334 177.417C85.7901 177.417 86.5834 178.21 86.5834 179.167V190.833ZM100 192C96.1267 192 93.0001 188.873 93.0001 185C93.0001 181.127 96.1267 178 100 178C103.873 178 107 181.127 107 185C107 188.873 103.873 192 100 192ZM116.917 190.833C116.917 191.79 116.123 192.583 115.167 192.583C114.21 192.583 113.417 191.79 113.417 190.833V179.167C113.417 178.21 114.21 177.417 115.167 177.417C116.123 177.417 116.917 178.21 116.917 179.167V190.833Z" fill="#3981F7"/>
<path d="M153.2 178.6C153.2 183.56 157 187.4 163.2 187.4C169.2 187.4 173 183.6 173 179.2C173 176.68 171.96 175.08 170.88 174.12C170.28 173.56 169.56 173.12 168.8 172.8V172.6C169.48 172.32 170.12 171.88 170.68 171.36C171.64 170.44 172.6 169.04 172.6 166.8C172.6 162.2 168.96 158.6 163.4 158.6C157.4 158.6 153.6 162.36 153.6 167H158.8C158.8 164.96 160.36 163.6 163.2 163.6C166.04 163.6 167.4 165 167.4 166.8C167.4 168.84 166.04 170.4 163 170.4H161.2V175H163C166.2 175 167.8 176.56 167.8 178.8C167.8 180.84 166.24 182.4 163.2 182.4C160.16 182.4 158.4 180.64 158.4 178.6H153.2ZM177.408 187H183.008V181.4H177.408V187ZM186.598 178.6C186.598 183.56 190.398 187.4 196.598 187.4C202.598 187.4 206.398 183.6 206.398 179.2C206.398 176.68 205.358 175.08 204.278 174.12C203.678 173.56 202.958 173.12 202.198 172.8V172.6C202.878 172.32 203.518 171.88 204.078 171.36C205.038 170.44 205.998 169.04 205.998 166.8C205.998 162.2 202.358 158.6 196.798 158.6C190.798 158.6 186.998 162.36 186.998 167H192.198C192.198 164.96 193.758 163.6 196.598 163.6C199.438 163.6 200.798 165 200.798 166.8C200.798 168.84 199.438 170.4 196.398 170.4H194.598V175H196.398C199.598 175 201.198 176.56 201.198 178.8C201.198 180.84 199.638 182.4 196.598 182.4C193.558 182.4 191.798 180.64 191.798 178.6H186.598ZM211.406 187H216.606V167.6H217.406L224.006 187H229.606L236.206 167.6H237.006V187H242.206V159H233.806L227.206 178.6H226.406L219.806 159H211.406V187ZM254.003 185H258.403V177.6H265.203V173.2H258.403V165.8H254.003V173.2H247.203V177.6H254.003V185Z" fill="white"/>
<path d="M153.35 222V209.4H155.24V222H153.35ZM157.758 222V213H159.378L159.558 213.9H159.648C159.852 213.696 160.074 213.516 160.314 213.36C160.89 213 161.538 212.82 162.258 212.82C163.35 212.82 164.22 213.162 164.868 213.846C165.528 214.518 165.858 215.436 165.858 216.6V222H164.058V216.6C164.058 216.012 163.848 215.508 163.428 215.088C163.02 214.656 162.51 214.44 161.898 214.44C161.238 214.44 160.68 214.656 160.224 215.088C159.78 215.508 159.558 216.012 159.558 216.6V222H157.758ZM174.501 218.85H176.301C176.217 219.222 176.079 219.588 175.887 219.948C175.707 220.308 175.455 220.662 175.131 221.01C174.819 221.358 174.405 221.64 173.889 221.856C173.373 222.072 172.797 222.18 172.161 222.18C170.853 222.18 169.773 221.748 168.921 220.884C168.081 220.02 167.661 218.892 167.661 217.5C167.661 216.108 168.081 214.98 168.921 214.116C169.773 213.252 170.853 212.82 172.161 212.82C173.361 212.82 174.303 213.162 174.987 213.846C175.671 214.518 176.109 215.256 176.301 216.06H174.501C174.117 214.98 173.337 214.44 172.161 214.44C171.381 214.44 170.733 214.722 170.217 215.286C169.713 215.838 169.461 216.576 169.461 217.5C169.461 218.424 169.713 219.168 170.217 219.732C170.733 220.284 171.381 220.56 172.161 220.56C172.809 220.56 173.331 220.386 173.727 220.038C174.123 219.69 174.381 219.294 174.501 218.85ZM180.202 219.732C180.718 220.284 181.366 220.56 182.146 220.56C182.926 220.56 183.568 220.284 184.072 219.732C184.588 219.168 184.846 218.424 184.846 217.5C184.846 216.576 184.588 215.838 184.072 215.286C183.568 214.722 182.926 214.44 182.146 214.44C181.366 214.44 180.718 214.722 180.202 215.286C179.698 215.838 179.446 216.576 179.446 217.5C179.446 218.424 179.698 219.168 180.202 219.732ZM185.368 220.884C184.528 221.748 183.454 222.18 182.146 222.18C180.838 222.18 179.758 221.748 178.906 220.884C178.066 220.02 177.646 218.892 177.646 217.5C177.646 216.108 178.066 214.98 178.906 214.116C179.758 213.252 180.838 212.82 182.146 212.82C183.454 212.82 184.528 213.252 185.368 214.116C186.22 214.98 186.646 216.108 186.646 217.5C186.646 218.892 186.22 220.02 185.368 220.884ZM188.537 222V213H190.157L190.337 213.9H190.427C190.595 213.708 190.805 213.528 191.057 213.36C191.609 213 192.179 212.82 192.767 212.82C193.511 212.82 194.141 213.03 194.657 213.45C194.885 213.666 195.065 213.876 195.197 214.08H195.287C195.443 213.876 195.677 213.666 195.989 213.45C196.661 213.03 197.417 212.82 198.257 212.82C199.193 212.82 199.967 213.15 200.579 213.81C201.191 214.458 201.497 215.292 201.497 216.312V222H199.697V216.33C199.697 215.754 199.529 215.298 199.193 214.962C198.869 214.614 198.437 214.44 197.897 214.44C197.345 214.44 196.877 214.62 196.493 214.98C196.109 215.34 195.917 215.79 195.917 216.33V222H194.117V216.33C194.117 215.754 193.949 215.298 193.613 214.962C193.289 214.614 192.857 214.44 192.317 214.44C191.765 214.44 191.297 214.62 190.913 214.98C190.529 215.34 190.337 215.79 190.337 216.33V222H188.537ZM205.092 216.78H210.402C210.306 216.048 210.024 215.46 209.556 215.016C209.088 214.572 208.5 214.35 207.792 214.35C207.048 214.35 206.448 214.572 205.992 215.016C205.536 215.448 205.236 216.036 205.092 216.78ZM209.952 219.39H211.842C211.578 220.11 211.098 220.758 210.402 221.334C209.718 221.898 208.848 222.18 207.792 222.18C206.484 222.18 205.404 221.748 204.552 220.884C203.712 220.02 203.292 218.892 203.292 217.5C203.292 216.108 203.712 214.98 204.552 214.116C205.404 213.252 206.484 212.82 207.792 212.82C209.016 212.82 210.042 213.24 210.87 214.08C211.698 214.92 212.112 215.97 212.112 217.23C212.112 217.338 212.094 217.554 212.058 217.878L212.022 218.13H205.092C205.188 218.898 205.482 219.51 205.974 219.966C206.466 220.422 207.072 220.65 207.792 220.65C208.296 220.65 208.74 220.53 209.124 220.29C209.52 220.038 209.796 219.738 209.952 219.39ZM218.244 222V213H219.774L219.954 213.81H220.044C220.056 213.798 220.092 213.756 220.152 213.684C220.224 213.612 220.266 213.564 220.278 213.54C220.302 213.516 220.35 213.474 220.422 213.414C220.494 213.342 220.554 213.294 220.602 213.27C220.65 213.246 220.716 213.216 220.8 213.18C220.884 213.132 220.968 213.102 221.052 213.09C221.148 213.066 221.256 213.048 221.376 213.036C221.496 213.012 221.622 213 221.754 213H223.374V214.62H221.934C220.674 214.62 220.044 215.244 220.044 216.492V222H218.244ZM225.729 216.78H231.039C230.943 216.048 230.661 215.46 230.193 215.016C229.725 214.572 229.137 214.35 228.429 214.35C227.685 214.35 227.085 214.572 226.629 215.016C226.173 215.448 225.873 216.036 225.729 216.78ZM230.589 219.39H232.479C232.215 220.11 231.735 220.758 231.039 221.334C230.355 221.898 229.485 222.18 228.429 222.18C227.121 222.18 226.041 221.748 225.189 220.884C224.349 220.02 223.929 218.892 223.929 217.5C223.929 216.108 224.349 214.98 225.189 214.116C226.041 213.252 227.121 212.82 228.429 212.82C229.653 212.82 230.679 213.24 231.507 214.08C232.335 214.92 232.749 215.97 232.749 217.23C232.749 217.338 232.731 217.554 232.695 217.878L232.659 218.13H225.729C225.825 218.898 226.119 219.51 226.611 219.966C227.103 220.422 227.709 220.65 228.429 220.65C228.933 220.65 229.377 220.53 229.761 220.29C230.157 220.038 230.433 219.738 230.589 219.39ZM241.035 218.85H242.835C242.751 219.222 242.613 219.588 242.421 219.948C242.241 220.308 241.989 220.662 241.665 221.01C241.353 221.358 240.939 221.64 240.423 221.856C239.907 222.072 239.331 222.18 238.695 222.18C237.387 222.18 236.307 221.748 235.455 220.884C234.615 220.02 234.195 218.892 234.195 217.5C234.195 216.108 234.615 214.98 235.455 214.116C236.307 213.252 237.387 212.82 238.695 212.82C239.895 212.82 240.837 213.162 241.521 213.846C242.205 214.518 242.643 215.256 242.835 216.06H241.035C240.651 214.98 239.871 214.44 238.695 214.44C237.915 214.44 237.267 214.722 236.751 215.286C236.247 215.838 235.995 216.576 235.995 217.5C235.995 218.424 236.247 219.168 236.751 219.732C237.267 220.284 237.915 220.56 238.695 220.56C239.343 220.56 239.865 220.386 240.261 220.038C240.657 219.69 240.915 219.294 241.035 218.85ZM245.979 216.78H251.289C251.193 216.048 250.911 215.46 250.443 215.016C249.975 214.572 249.387 214.35 248.679 214.35C247.935 214.35 247.335 214.572 246.879 215.016C246.423 215.448 246.123 216.036 245.979 216.78ZM250.839 219.39H252.729C252.465 220.11 251.985 220.758 251.289 221.334C250.605 221.898 249.735 222.18 248.679 222.18C247.371 222.18 246.291 221.748 245.439 220.884C244.599 220.02 244.179 218.892 244.179 217.5C244.179 216.108 244.599 214.98 245.439 214.116C246.291 213.252 247.371 212.82 248.679 212.82C249.903 212.82 250.929 213.24 251.757 214.08C252.585 214.92 252.999 215.97 252.999 217.23C252.999 217.338 252.981 217.554 252.945 217.878L252.909 218.13H245.979C246.075 218.898 246.369 219.51 246.861 219.966C247.353 220.422 247.959 220.65 248.679 220.65C249.183 220.65 249.627 220.53 250.011 220.29C250.407 220.038 250.683 219.738 250.839 219.39ZM254.895 222V213H256.695V222H254.895ZM254.805 211.29V209.4H256.785V211.29H254.805ZM261.113 222L257.963 213H259.853L262.283 220.02H262.643L265.073 213H266.963L263.813 222H261.113ZM269.393 216.78H274.703C274.607 216.048 274.325 215.46 273.857 215.016C273.389 214.572 272.801 214.35 272.093 214.35C271.349 214.35 270.749 214.572 270.293 215.016C269.837 215.448 269.537 216.036 269.393 216.78ZM274.253 219.39H276.143C275.879 220.11 275.399 220.758 274.703 221.334C274.019 221.898 273.149 222.18 272.093 222.18C270.785 222.18 269.705 221.748 268.853 220.884C268.013 220.02 267.593 218.892 267.593 217.5C267.593 216.108 268.013 214.98 268.853 214.116C269.705 213.252 270.785 212.82 272.093 212.82C273.317 212.82 274.343 213.24 275.171 214.08C275.999 214.92 276.413 215.97 276.413 217.23C276.413 217.338 276.395 217.554 276.359 217.878L276.323 218.13H269.393C269.489 218.898 269.783 219.51 270.275 219.966C270.767 220.422 271.373 220.65 272.093 220.65C272.597 220.65 273.041 220.53 273.425 220.29C273.821 220.038 274.097 219.738 274.253 219.39ZM285.059 222L284.879 220.92H284.789C284.153 221.76 283.223 222.18 281.999 222.18C280.799 222.18 279.809 221.754 279.029 220.902C278.249 220.05 277.859 218.916 277.859 217.5C277.859 216.084 278.249 214.95 279.029 214.098C279.809 213.246 280.799 212.82 281.999 212.82C282.527 212.82 283.007 212.916 283.439 213.108C283.883 213.288 284.171 213.444 284.303 213.576C284.435 213.696 284.597 213.864 284.789 214.08H284.879V209.4H286.679V222H285.059ZM280.397 219.714C280.901 220.278 281.525 220.56 282.269 220.56C283.013 220.56 283.631 220.278 284.123 219.714C284.627 219.15 284.879 218.412 284.879 217.5C284.879 216.588 284.627 215.85 284.123 215.286C283.631 214.722 283.013 214.44 282.269 214.44C281.525 214.44 280.901 214.722 280.397 215.286C279.905 215.85 279.659 216.588 279.659 217.5C279.659 218.412 279.905 219.15 280.397 219.714Z" fill="#9096A2"/>
<rect x="380" y="118" width="300" height="134" rx="24" fill="white" fill-opacity="0.1"/>
<path d="M449.324 167.69C447.053 165.397 444.351 163.575 441.374 162.329C438.397 161.083 435.203 160.437 431.975 160.429C428.748 160.421 425.55 161.051 422.567 162.282C419.584 163.514 416.873 165.323 414.591 167.605C412.308 169.887 410.5 172.598 409.268 175.581C408.037 178.564 407.407 181.762 407.415 184.989C407.423 188.217 408.068 191.411 409.315 194.388C410.561 197.365 412.383 200.067 414.676 202.338C416.947 204.632 419.649 206.454 422.626 207.7C425.603 208.946 428.798 209.592 432.025 209.599C435.253 209.607 438.45 208.978 441.433 207.746C444.417 206.515 447.127 204.706 449.409 202.424C451.692 200.141 453.5 197.431 454.732 194.447C455.963 191.464 456.593 188.267 456.585 185.039C456.577 181.812 455.932 178.618 454.686 175.64C453.44 172.663 451.617 169.961 449.324 167.69ZM411 185.014C410.999 183.156 411.246 181.305 411.733 179.512C412.536 181.24 413.702 182.733 414.495 184.506C415.519 186.785 418.271 186.153 419.486 188.15C420.565 189.923 419.413 192.165 420.22 194.02C420.807 195.367 422.189 195.661 423.143 196.645C424.117 197.638 424.097 198.999 424.245 200.294C424.413 201.815 424.685 203.324 425.06 204.808C425.06 204.819 425.06 204.831 425.069 204.842C416.884 201.967 411 194.166 411 185.014ZM432 206.014C430.827 206.014 429.657 205.916 428.5 205.721C428.512 205.425 428.518 205.148 428.547 204.955C428.813 203.216 429.684 201.516 430.858 200.214C432.019 198.93 433.609 198.062 434.589 196.605C435.549 195.183 435.837 193.269 435.441 191.607C434.858 189.153 431.523 188.334 429.725 187.003C428.691 186.237 427.772 185.054 426.414 184.957C425.789 184.914 425.265 185.048 424.645 184.888C424.076 184.741 423.63 184.435 423.024 184.514C421.892 184.663 421.177 185.873 419.961 185.709C418.807 185.555 417.618 184.204 417.356 183.105C417.019 181.691 418.137 181.233 419.334 181.107C419.834 181.055 420.395 180.998 420.876 181.182C421.508 181.416 421.806 182.035 422.374 182.348C423.438 182.932 423.654 181.999 423.491 181.054C423.247 179.638 422.962 179.062 424.225 178.088C425.1 177.416 425.848 176.93 425.708 175.724C425.625 175.015 425.236 174.695 425.598 173.989C425.873 173.452 426.626 172.968 427.118 172.647C428.385 171.82 432.548 171.882 430.847 169.567C430.347 168.888 429.425 167.674 428.55 167.508C427.457 167.301 426.971 168.522 426.209 169.06C425.421 169.616 423.888 170.249 423.099 169.388C422.038 168.23 423.802 167.85 424.193 167.041C424.373 166.663 424.193 166.139 423.889 165.646C424.283 165.48 424.684 165.326 425.092 165.183C425.347 165.372 425.65 165.486 425.967 165.512C426.699 165.56 427.389 165.164 428.028 165.663C428.736 166.209 429.247 166.901 430.188 167.071C431.098 167.236 432.061 166.706 432.287 165.774C432.423 165.208 432.287 164.609 432.155 164.024C436.246 164.048 440.24 165.273 443.64 167.547C443.421 167.464 443.16 167.474 442.837 167.624C442.173 167.932 441.232 168.717 441.155 169.496C441.066 170.38 442.37 170.505 442.989 170.505C443.919 170.505 444.86 170.089 444.561 169.015C444.431 168.549 444.253 168.064 443.968 167.771C444.654 168.247 445.312 168.764 445.937 169.318C445.927 169.328 445.917 169.336 445.907 169.347C445.277 170.004 444.545 170.523 444.114 171.322C443.81 171.884 443.468 172.151 442.852 172.296C442.513 172.376 442.126 172.405 441.842 172.633C441.05 173.256 441.5 174.755 442.251 175.204C443.199 175.772 444.606 175.505 445.321 174.695C445.88 174.06 446.209 172.959 447.214 172.96C447.657 172.959 448.082 173.132 448.398 173.442C448.813 173.873 448.731 174.276 448.82 174.814C448.976 175.77 449.819 175.251 450.332 174.769C450.706 175.435 451.044 176.12 451.343 176.822C450.779 177.635 450.33 178.521 448.973 177.573C448.16 177.006 447.66 176.182 446.64 175.926C445.749 175.708 444.835 175.935 443.955 176.087C442.954 176.261 441.767 176.338 441.008 177.095C440.274 177.826 439.886 178.804 439.105 179.538C437.595 180.96 436.957 182.512 437.935 184.522C438.875 186.455 440.843 187.504 442.966 187.366C445.052 187.227 447.219 186.017 447.158 189.048C447.136 190.121 447.361 190.864 447.69 191.86C447.995 192.779 447.974 193.669 448.044 194.617C448.111 195.728 448.284 196.829 448.563 197.906C446.602 200.43 444.091 202.473 441.22 203.878C438.35 205.284 435.196 206.014 432 206.014Z" fill="#3981F7"/>
<path d="M490.8 187H496V159H490.8V160.8C490.8 161.6 490.4 162 489.6 162H485V167H490.8V187ZM500.8 179C501 182.64 503.6 187.4 510.8 187.4C516.76 187.4 520.8 183.4 520.8 177.8C520.8 172.36 516.84 168.4 511.4 168.4C509 168.4 507.64 168.96 507 169.4H506.8L507.4 164H519.2V159H502.88L501.28 175H506.6C507 174.4 508.4 173.2 510.8 173.2C513.84 173.2 515.6 175.2 515.6 177.8C515.6 180.64 513.84 182.4 510.8 182.4C507.56 182.4 506.2 180.4 506 179H500.8ZM535.798 182.4C532.398 182.4 529.398 179.4 529.398 173C529.398 166.6 532.398 163.6 535.798 163.6C539.198 163.6 542.198 166.6 542.198 173C542.198 179.4 539.198 182.4 535.798 182.4ZM535.798 158.6C529.398 158.6 524.198 163.84 524.198 173C524.198 182.16 529.398 187.4 535.798 187.4C542.198 187.4 547.398 182.16 547.398 173C547.398 163.84 542.198 158.6 535.798 158.6ZM557.995 185H562.395V177.6H569.195V173.2H562.395V165.8H557.995V173.2H551.195V177.6H557.995V185Z" fill="white"/>
<path d="M494.53 217.68H496.51C496.39 218.208 496.186 218.724 495.898 219.228C495.622 219.732 495.256 220.212 494.8 220.668C494.344 221.124 493.774 221.49 493.09 221.766C492.406 222.042 491.656 222.18 490.84 222.18C489.148 222.18 487.72 221.574 486.556 220.362C485.392 219.15 484.81 217.596 484.81 215.7C484.81 213.804 485.392 212.25 486.556 211.038C487.72 209.826 489.148 209.22 490.84 209.22C492.328 209.22 493.57 209.652 494.566 210.516C495.574 211.368 496.222 212.406 496.51 213.63H494.53C494.218 212.79 493.732 212.148 493.072 211.704C492.412 211.248 491.668 211.02 490.84 211.02C489.64 211.02 488.65 211.446 487.87 212.298C487.09 213.15 486.7 214.284 486.7 215.7C486.7 217.116 487.09 218.25 487.87 219.102C488.65 219.954 489.64 220.38 490.84 220.38C491.8 220.38 492.592 220.122 493.216 219.606C493.852 219.078 494.29 218.436 494.53 217.68ZM500.424 219.732C500.94 220.284 501.588 220.56 502.368 220.56C503.148 220.56 503.79 220.284 504.294 219.732C504.81 219.168 505.068 218.424 505.068 217.5C505.068 216.576 504.81 215.838 504.294 215.286C503.79 214.722 503.148 214.44 502.368 214.44C501.588 214.44 500.94 214.722 500.424 215.286C499.92 215.838 499.668 216.576 499.668 217.5C499.668 218.424 499.92 219.168 500.424 219.732ZM505.59 220.884C504.75 221.748 503.676 222.18 502.368 222.18C501.06 222.18 499.98 221.748 499.128 220.884C498.288 220.02 497.868 218.892 497.868 217.5C497.868 216.108 498.288 214.98 499.128 214.116C499.98 213.252 501.06 212.82 502.368 212.82C503.676 212.82 504.75 213.252 505.59 214.116C506.442 214.98 506.868 216.108 506.868 217.5C506.868 218.892 506.442 220.02 505.59 220.884ZM508.76 218.4V213H510.56V218.4C510.56 218.988 510.764 219.498 511.172 219.93C511.592 220.35 512.108 220.56 512.72 220.56C513.38 220.56 513.932 220.35 514.376 219.93C514.832 219.498 515.06 218.988 515.06 218.4V213H516.86V222H515.24L515.06 221.1H514.97C514.766 221.304 514.544 221.484 514.304 221.64C513.728 222 513.08 222.18 512.36 222.18C511.268 222.18 510.392 221.844 509.732 221.172C509.084 220.488 508.76 219.564 508.76 218.4ZM519.201 222V213H520.821L521.001 213.9H521.091C521.295 213.696 521.517 213.516 521.757 213.36C522.333 213 522.981 212.82 523.701 212.82C524.793 212.82 525.663 213.162 526.311 213.846C526.971 214.518 527.301 215.436 527.301 216.6V222H525.501V216.6C525.501 216.012 525.291 215.508 524.871 215.088C524.463 214.656 523.953 214.44 523.341 214.44C522.681 214.44 522.123 214.656 521.667 215.088C521.223 215.508 521.001 216.012 521.001 216.6V222H519.201ZM529.923 220.11V214.71H528.483V213H529.923V210.48H531.723V213H533.793V214.71H531.723V219.84C531.723 220.2 531.903 220.38 532.263 220.38H533.793V222H531.903C531.267 222 530.775 221.832 530.427 221.496C530.091 221.16 529.923 220.698 529.923 220.11ZM535.777 222V213H537.307L537.487 213.81H537.577C537.589 213.798 537.625 213.756 537.685 213.684C537.757 213.612 537.799 213.564 537.811 213.54C537.835 213.516 537.883 213.474 537.955 213.414C538.027 213.342 538.087 213.294 538.135 213.27C538.183 213.246 538.249 213.216 538.333 213.18C538.417 213.132 538.501 213.102 538.585 213.09C538.681 213.066 538.789 213.048 538.909 213.036C539.029 213.012 539.155 213 539.287 213H540.907V214.62H539.467C538.207 214.62 537.577 215.244 537.577 216.492V222H535.777ZM542.264 222V213H544.064V222H542.264ZM542.174 211.29V209.4H544.154V211.29H542.174ZM547.762 216.78H553.072C552.976 216.048 552.694 215.46 552.226 215.016C551.758 214.572 551.17 214.35 550.462 214.35C549.718 214.35 549.118 214.572 548.662 215.016C548.206 215.448 547.906 216.036 547.762 216.78ZM552.622 219.39H554.512C554.248 220.11 553.768 220.758 553.072 221.334C552.388 221.898 551.518 222.18 550.462 222.18C549.154 222.18 548.074 221.748 547.222 220.884C546.382 220.02 545.962 218.892 545.962 217.5C545.962 216.108 546.382 214.98 547.222 214.116C548.074 213.252 549.154 212.82 550.462 212.82C551.686 212.82 552.712 213.24 553.54 214.08C554.368 214.92 554.782 215.97 554.782 217.23C554.782 217.338 554.764 217.554 554.728 217.878L554.692 218.13H547.762C547.858 218.898 548.152 219.51 548.644 219.966C549.136 220.422 549.742 220.65 550.462 220.65C550.966 220.65 551.41 220.53 551.794 220.29C552.19 220.038 552.466 219.738 552.622 219.39ZM556.048 219.3H557.848C557.848 219.624 558.028 219.93 558.388 220.218C558.748 220.506 559.258 220.65 559.918 220.65C560.542 220.65 561.01 220.536 561.322 220.308C561.646 220.068 561.808 219.792 561.808 219.48C561.808 219.156 561.706 218.904 561.502 218.724C561.298 218.532 560.95 218.394 560.458 218.31L558.838 218.04C557.098 217.752 556.228 216.882 556.228 215.43C556.228 214.674 556.534 214.05 557.146 213.558C557.77 213.066 558.664 212.82 559.828 212.82C560.44 212.82 560.992 212.916 561.484 213.108C561.988 213.3 562.378 213.546 562.654 213.846C562.942 214.146 563.158 214.452 563.302 214.764C563.446 215.064 563.518 215.346 563.518 215.61H561.718C561.718 215.298 561.556 215.01 561.232 214.746C560.908 214.482 560.44 214.35 559.828 214.35C559.228 214.35 558.778 214.458 558.478 214.674C558.178 214.878 558.028 215.13 558.028 215.43C558.028 215.97 558.478 216.33 559.378 216.51L560.998 216.78C562.738 217.068 563.608 217.968 563.608 219.48C563.608 220.248 563.29 220.89 562.654 221.406C562.03 221.922 561.118 222.18 559.918 222.18C559.246 222.18 558.64 222.078 558.1 221.874C557.572 221.67 557.164 221.412 556.876 221.1C556.6 220.788 556.39 220.482 556.246 220.182C556.114 219.87 556.048 219.576 556.048 219.3ZM569.02 219.3H570.82C570.82 219.624 571 219.93 571.36 220.218C571.72 220.506 572.23 220.65 572.89 220.65C573.514 220.65 573.982 220.536 574.294 220.308C574.618 220.068 574.78 219.792 574.78 219.48C574.78 219.156 574.678 218.904 574.474 218.724C574.27 218.532 573.922 218.394 573.43 218.31L571.81 218.04C570.07 217.752 569.2 216.882 569.2 215.43C569.2 214.674 569.506 214.05 570.118 213.558C570.742 213.066 571.636 212.82 572.8 212.82C573.412 212.82 573.964 212.916 574.456 213.108C574.96 213.3 575.35 213.546 575.626 213.846C575.914 214.146 576.13 214.452 576.274 214.764C576.418 215.064 576.49 215.346 576.49 215.61H574.69C574.69 215.298 574.528 215.01 574.204 214.746C573.88 214.482 573.412 214.35 572.8 214.35C572.2 214.35 571.75 214.458 571.45 214.674C571.15 214.878 571 215.13 571 215.43C571 215.97 571.45 216.33 572.35 216.51L573.97 216.78C575.71 217.068 576.58 217.968 576.58 219.48C576.58 220.248 576.262 220.89 575.626 221.406C575.002 221.922 574.09 222.18 572.89 222.18C572.218 222.18 571.612 222.078 571.072 221.874C570.544 221.67 570.136 221.412 569.848 221.1C569.572 220.788 569.362 220.482 569.218 220.182C569.086 219.87 569.02 219.576 569.02 219.3ZM578.387 218.4V213H580.187V218.4C580.187 218.988 580.391 219.498 580.799 219.93C581.219 220.35 581.735 220.56 582.347 220.56C583.007 220.56 583.559 220.35 584.003 219.93C584.459 219.498 584.687 218.988 584.687 218.4V213H586.487V222H584.867L584.687 221.1H584.597C584.393 221.304 584.171 221.484 583.931 221.64C583.355 222 582.707 222.18 581.987 222.18C580.895 222.18 580.019 221.844 579.359 221.172C578.711 220.488 578.387 219.564 578.387 218.4ZM588.828 225.6V213H590.448L590.628 214.08H590.718C590.91 213.864 591.072 213.696 591.204 213.576C591.336 213.444 591.618 213.288 592.05 213.108C592.494 212.916 592.98 212.82 593.508 212.82C594.708 212.82 595.698 213.246 596.478 214.098C597.258 214.95 597.648 216.084 597.648 217.5C597.648 218.916 597.258 220.05 596.478 220.902C595.698 221.754 594.708 222.18 593.508 222.18C592.272 222.18 591.342 221.76 590.718 220.92H590.628V225.6H588.828ZM591.366 219.714C591.87 220.278 592.494 220.56 593.238 220.56C593.982 220.56 594.6 220.278 595.092 219.714C595.596 219.15 595.848 218.412 595.848 217.5C595.848 216.588 595.596 215.85 595.092 215.286C594.6 214.722 593.982 214.44 593.238 214.44C592.494 214.44 591.87 214.722 591.366 215.286C590.874 215.85 590.628 216.588 590.628 217.5C590.628 218.412 590.874 219.15 591.366 219.714ZM599.533 225.6V213H601.153L601.333 214.08H601.423C601.615 213.864 601.777 213.696 601.909 213.576C602.041 213.444 602.323 213.288 602.755 213.108C603.199 212.916 603.685 212.82 604.213 212.82C605.413 212.82 606.403 213.246 607.183 214.098C607.963 214.95 608.353 216.084 608.353 217.5C608.353 218.916 607.963 220.05 607.183 220.902C606.403 221.754 605.413 222.18 604.213 222.18C602.977 222.18 602.047 221.76 601.423 220.92H601.333V225.6H599.533ZM602.071 219.714C602.575 220.278 603.199 220.56 603.943 220.56C604.687 220.56 605.305 220.278 605.797 219.714C606.301 219.15 606.553 218.412 606.553 217.5C606.553 216.588 606.301 215.85 605.797 215.286C605.305 214.722 604.687 214.44 603.943 214.44C603.199 214.44 602.575 214.722 602.071 215.286C601.579 215.85 601.333 216.588 601.333 217.5C601.333 218.412 601.579 219.15 602.071 219.714ZM612.344 219.732C612.86 220.284 613.508 220.56 614.288 220.56C615.068 220.56 615.71 220.284 616.214 219.732C616.73 219.168 616.988 218.424 616.988 217.5C616.988 216.576 616.73 215.838 616.214 215.286C615.71 214.722 615.068 214.44 614.288 214.44C613.508 214.44 612.86 214.722 612.344 215.286C611.84 215.838 611.588 216.576 611.588 217.5C611.588 218.424 611.84 219.168 612.344 219.732ZM617.51 220.884C616.67 221.748 615.596 222.18 614.288 222.18C612.98 222.18 611.9 221.748 611.048 220.884C610.208 220.02 609.788 218.892 609.788 217.5C609.788 216.108 610.208 214.98 611.048 214.116C611.9 213.252 612.98 212.82 614.288 212.82C615.596 212.82 616.67 213.252 617.51 214.116C618.362 214.98 618.788 216.108 618.788 217.5C618.788 218.892 618.362 220.02 617.51 220.884ZM620.68 222V213H622.21L622.39 213.81H622.48C622.492 213.798 622.528 213.756 622.588 213.684C622.66 213.612 622.702 213.564 622.714 213.54C622.738 213.516 622.786 213.474 622.858 213.414C622.93 213.342 622.99 213.294 623.038 213.27C623.086 213.246 623.152 213.216 623.236 213.18C623.32 213.132 623.404 213.102 623.488 213.09C623.584 213.066 623.692 213.048 623.812 213.036C623.932 213.012 624.058 213 624.19 213H625.81V214.62H624.37C623.11 214.62 622.48 215.244 622.48 216.492V222H620.68ZM627.886 220.11V214.71H626.446V213H627.886V210.48H629.686V213H631.756V214.71H629.686V219.84C629.686 220.2 629.866 220.38 630.226 220.38H631.756V222H629.866C629.23 222 628.738 221.832 628.39 221.496C628.054 221.16 627.886 220.698 627.886 220.11ZM634.739 216.78H640.049C639.953 216.048 639.671 215.46 639.203 215.016C638.735 214.572 638.147 214.35 637.439 214.35C636.695 214.35 636.095 214.572 635.639 215.016C635.183 215.448 634.883 216.036 634.739 216.78ZM639.599 219.39H641.489C641.225 220.11 640.745 220.758 640.049 221.334C639.365 221.898 638.495 222.18 637.439 222.18C636.131 222.18 635.051 221.748 634.199 220.884C633.359 220.02 632.939 218.892 632.939 217.5C632.939 216.108 633.359 214.98 634.199 214.116C635.051 213.252 636.131 212.82 637.439 212.82C638.663 212.82 639.689 213.24 640.517 214.08C641.345 214.92 641.759 215.97 641.759 217.23C641.759 217.338 641.741 217.554 641.705 217.878L641.669 218.13H634.739C634.835 218.898 635.129 219.51 635.621 219.966C636.113 220.422 636.719 220.65 637.439 220.65C637.943 220.65 638.387 220.53 638.771 220.29C639.167 220.038 639.443 219.738 639.599 219.39ZM650.404 222L650.224 220.92H650.134C649.498 221.76 648.568 222.18 647.344 222.18C646.144 222.18 645.154 221.754 644.374 220.902C643.594 220.05 643.204 218.916 643.204 217.5C643.204 216.084 643.594 214.95 644.374 214.098C645.154 213.246 646.144 212.82 647.344 212.82C647.872 212.82 648.352 212.916 648.784 213.108C649.228 213.288 649.516 213.444 649.648 213.576C649.78 213.696 649.942 213.864 650.134 214.08H650.224V209.4H652.024V222H650.404ZM645.742 219.714C646.246 220.278 646.87 220.56 647.614 220.56C648.358 220.56 648.976 220.278 649.468 219.714C649.972 219.15 650.224 218.412 650.224 217.5C650.224 216.588 649.972 215.85 649.468 215.286C648.976 214.722 648.358 214.44 647.614 214.44C646.87 214.44 646.246 214.722 645.742 215.286C645.25 215.85 645.004 216.588 645.004 217.5C645.004 218.412 645.25 219.15 645.742 219.714Z" fill="#9096A2"/>
<rect x="712" y="118" width="300" height="134" rx="24" fill="white" fill-opacity="0.1"/>
<path d="M764 185C770.443 185 775.667 179.777 775.667 173.333C775.667 166.89 770.443 161.667 764 161.667C757.557 161.667 752.333 166.89 752.333 173.333C752.333 179.777 757.557 185 764 185Z" fill="#3981F7"/>
<path d="M764 190.833C752.31 190.833 742.79 198.673 742.79 208.333C742.79 208.987 743.303 209.5 743.957 209.5H784.043C784.697 209.5 785.21 208.987 785.21 208.333C785.21 198.673 775.69 190.833 764 190.833Z" fill="#3981F7"/>
<path d="M822.8 187H828V159H822.8V160.8C822.8 161.6 822.4 162 821.6 162H817V167H822.8V187ZM833.4 187H839V181.4H833.4V187ZM843.591 187H862.591V182H851.191V181.8L857.791 175.4C859.871 173.32 862.191 171.44 862.191 167.6C862.191 162.4 858.551 158.6 852.791 158.6C847.191 158.6 843.191 162.6 843.191 168.4H848.391C848.391 165.64 850.351 163.6 852.791 163.6C855.191 163.6 856.791 165.4 856.791 167.6C856.791 169.6 855.991 170.4 854.991 171.4L843.591 182.4V187ZM867.203 187H872.403V167.6H873.203L879.803 187H885.403L892.003 167.6H892.803V187H898.003V159H889.603L883.003 178.6H882.203L875.603 159H867.203V187ZM909.8 185H914.2V177.6H921V173.2H914.2V165.8H909.8V173.2H903V177.6H909.8V185Z" fill="white"/>
<path d="M817.497 216.96V209.4H819.387V216.96C819.387 217.98 819.681 218.808 820.269 219.444C820.869 220.068 821.625 220.38 822.537 220.38C823.449 220.38 824.199 220.068 824.787 219.444C825.387 218.808 825.687 217.98 825.687 216.96V209.4H827.577V216.96C827.577 218.532 827.109 219.798 826.173 220.758C825.249 221.706 824.037 222.18 822.537 222.18C821.037 222.18 819.819 221.706 818.883 220.758C817.959 219.798 817.497 218.532 817.497 216.96ZM829.381 219.3H831.181C831.181 219.624 831.361 219.93 831.721 220.218C832.081 220.506 832.591 220.65 833.251 220.65C833.875 220.65 834.343 220.536 834.655 220.308C834.979 220.068 835.141 219.792 835.141 219.48C835.141 219.156 835.039 218.904 834.835 218.724C834.631 218.532 834.283 218.394 833.791 218.31L832.171 218.04C830.431 217.752 829.561 216.882 829.561 215.43C829.561 214.674 829.867 214.05 830.479 213.558C831.103 213.066 831.997 212.82 833.161 212.82C833.773 212.82 834.325 212.916 834.817 213.108C835.321 213.3 835.711 213.546 835.987 213.846C836.275 214.146 836.491 214.452 836.635 214.764C836.779 215.064 836.851 215.346 836.851 215.61H835.051C835.051 215.298 834.889 215.01 834.565 214.746C834.241 214.482 833.773 214.35 833.161 214.35C832.561 214.35 832.111 214.458 831.811 214.674C831.511 214.878 831.361 215.13 831.361 215.43C831.361 215.97 831.811 216.33 832.711 216.51L834.331 216.78C836.071 217.068 836.941 217.968 836.941 219.48C836.941 220.248 836.623 220.89 835.987 221.406C835.363 221.922 834.451 222.18 833.251 222.18C832.579 222.18 831.973 222.078 831.433 221.874C830.905 221.67 830.497 221.412 830.209 221.1C829.933 220.788 829.723 220.482 829.579 220.182C829.447 219.87 829.381 219.576 829.381 219.3ZM840.097 216.78H845.407C845.311 216.048 845.029 215.46 844.561 215.016C844.093 214.572 843.505 214.35 842.797 214.35C842.053 214.35 841.453 214.572 840.997 215.016C840.541 215.448 840.241 216.036 840.097 216.78ZM844.957 219.39H846.847C846.583 220.11 846.103 220.758 845.407 221.334C844.723 221.898 843.853 222.18 842.797 222.18C841.489 222.18 840.409 221.748 839.557 220.884C838.717 220.02 838.297 218.892 838.297 217.5C838.297 216.108 838.717 214.98 839.557 214.116C840.409 213.252 841.489 212.82 842.797 212.82C844.021 212.82 845.047 213.24 845.875 214.08C846.703 214.92 847.117 215.97 847.117 217.23C847.117 217.338 847.099 217.554 847.063 217.878L847.027 218.13H840.097C840.193 218.898 840.487 219.51 840.979 219.966C841.471 220.422 842.077 220.65 842.797 220.65C843.301 220.65 843.745 220.53 844.129 220.29C844.525 220.038 844.801 219.738 844.957 219.39ZM849.013 222V213H850.543L850.723 213.81H850.813C850.825 213.798 850.861 213.756 850.921 213.684C850.993 213.612 851.035 213.564 851.047 213.54C851.071 213.516 851.119 213.474 851.191 213.414C851.263 213.342 851.323 213.294 851.371 213.27C851.419 213.246 851.485 213.216 851.569 213.18C851.653 213.132 851.737 213.102 851.821 213.09C851.917 213.066 852.025 213.048 852.145 213.036C852.265 213.012 852.391 213 852.523 213H854.143V214.62H852.703C851.443 214.62 850.813 215.244 850.813 216.492V222H849.013ZM854.869 219.3H856.669C856.669 219.624 856.849 219.93 857.209 220.218C857.569 220.506 858.079 220.65 858.739 220.65C859.363 220.65 859.831 220.536 860.143 220.308C860.467 220.068 860.629 219.792 860.629 219.48C860.629 219.156 860.527 218.904 860.323 218.724C860.119 218.532 859.771 218.394 859.279 218.31L857.659 218.04C855.919 217.752 855.049 216.882 855.049 215.43C855.049 214.674 855.355 214.05 855.967 213.558C856.591 213.066 857.485 212.82 858.649 212.82C859.261 212.82 859.813 212.916 860.305 213.108C860.809 213.3 861.199 213.546 861.475 213.846C861.763 214.146 861.979 214.452 862.123 214.764C862.267 215.064 862.339 215.346 862.339 215.61H860.539C860.539 215.298 860.377 215.01 860.053 214.746C859.729 214.482 859.261 214.35 858.649 214.35C858.049 214.35 857.599 214.458 857.299 214.674C856.999 214.878 856.849 215.13 856.849 215.43C856.849 215.97 857.299 216.33 858.199 216.51L859.819 216.78C861.559 217.068 862.429 217.968 862.429 219.48C862.429 220.248 862.111 220.89 861.475 221.406C860.851 221.922 859.939 222.18 858.739 222.18C858.067 222.18 857.461 222.078 856.921 221.874C856.393 221.67 855.985 221.412 855.697 221.1C855.421 220.788 855.211 220.482 855.067 220.182C854.935 219.87 854.869 219.576 854.869 219.3ZM869.822 216.78H875.132C875.036 216.048 874.754 215.46 874.286 215.016C873.818 214.572 873.23 214.35 872.522 214.35C871.778 214.35 871.178 214.572 870.722 215.016C870.266 215.448 869.966 216.036 869.822 216.78ZM874.682 219.39H876.572C876.308 220.11 875.828 220.758 875.132 221.334C874.448 221.898 873.578 222.18 872.522 222.18C871.214 222.18 870.134 221.748 869.282 220.884C868.442 220.02 868.022 218.892 868.022 217.5C868.022 216.108 868.442 214.98 869.282 214.116C870.134 213.252 871.214 212.82 872.522 212.82C873.746 212.82 874.772 213.24 875.6 214.08C876.428 214.92 876.842 215.97 876.842 217.23C876.842 217.338 876.824 217.554 876.788 217.878L876.752 218.13H869.822C869.918 218.898 870.212 219.51 870.704 219.966C871.196 220.422 871.802 220.65 872.522 220.65C873.026 220.65 873.47 220.53 873.854 220.29C874.25 220.038 874.526 219.738 874.682 219.39ZM880.632 222L877.482 213H879.372L881.802 220.02H882.162L884.592 213H886.482L883.332 222H880.632ZM888.912 216.78H894.222C894.126 216.048 893.844 215.46 893.376 215.016C892.908 214.572 892.32 214.35 891.612 214.35C890.868 214.35 890.268 214.572 889.812 215.016C889.356 215.448 889.056 216.036 888.912 216.78ZM893.772 219.39H895.662C895.398 220.11 894.918 220.758 894.222 221.334C893.538 221.898 892.668 222.18 891.612 222.18C890.304 222.18 889.224 221.748 888.372 220.884C887.532 220.02 887.112 218.892 887.112 217.5C887.112 216.108 887.532 214.98 888.372 214.116C889.224 213.252 890.304 212.82 891.612 212.82C892.836 212.82 893.862 213.24 894.69 214.08C895.518 214.92 895.932 215.97 895.932 217.23C895.932 217.338 895.914 217.554 895.878 217.878L895.842 218.13H888.912C889.008 218.898 889.302 219.51 889.794 219.966C890.286 220.422 890.892 220.65 891.612 220.65C892.116 220.65 892.56 220.53 892.944 220.29C893.34 220.038 893.616 219.738 893.772 219.39ZM897.827 222V213H899.357L899.537 213.81H899.627C899.639 213.798 899.675 213.756 899.735 213.684C899.807 213.612 899.849 213.564 899.861 213.54C899.885 213.516 899.933 213.474 900.005 213.414C900.077 213.342 900.137 213.294 900.185 213.27C900.233 213.246 900.299 213.216 900.383 213.18C900.467 213.132 900.551 213.102 900.635 213.09C900.731 213.066 900.839 213.048 900.959 213.036C901.079 213.012 901.205 213 901.337 213H902.957V214.62H901.517C900.257 214.62 899.627 215.244 899.627 216.492V222H897.827ZM904.224 225.6V223.98H906.024C906.18 223.98 906.312 223.92 906.42 223.8C906.528 223.692 906.6 223.572 906.636 223.44L906.924 222.63L903.234 213H905.124L907.734 219.84H908.094L910.434 213H912.324L908.364 224.07C908.172 224.598 907.908 224.982 907.572 225.222C907.248 225.474 906.762 225.6 906.114 225.6H904.224ZM917.269 222V213H918.889L919.069 213.9H919.159C919.327 213.708 919.537 213.528 919.789 213.36C920.341 213 920.911 212.82 921.499 212.82C922.243 212.82 922.873 213.03 923.389 213.45C923.617 213.666 923.797 213.876 923.929 214.08H924.019C924.175 213.876 924.409 213.666 924.721 213.45C925.393 213.03 926.149 212.82 926.989 212.82C927.925 212.82 928.699 213.15 929.311 213.81C929.923 214.458 930.229 215.292 930.229 216.312V222H928.429V216.33C928.429 215.754 928.261 215.298 927.925 214.962C927.601 214.614 927.169 214.44 926.629 214.44C926.077 214.44 925.609 214.62 925.225 214.98C924.841 215.34 924.649 215.79 924.649 216.33V222H922.849V216.33C922.849 215.754 922.681 215.298 922.345 214.962C922.021 214.614 921.589 214.44 921.049 214.44C920.497 214.44 920.029 214.62 919.645 214.98C919.261 215.34 919.069 215.79 919.069 216.33V222H917.269ZM934.58 219.732C935.096 220.284 935.744 220.56 936.524 220.56C937.304 220.56 937.946 220.284 938.45 219.732C938.966 219.168 939.224 218.424 939.224 217.5C939.224 216.576 938.966 215.838 938.45 215.286C937.946 214.722 937.304 214.44 936.524 214.44C935.744 214.44 935.096 214.722 934.58 215.286C934.076 215.838 933.824 216.576 933.824 217.5C933.824 218.424 934.076 219.168 934.58 219.732ZM939.746 220.884C938.906 221.748 937.832 222.18 936.524 222.18C935.216 222.18 934.136 221.748 933.284 220.884C932.444 220.02 932.024 218.892 932.024 217.5C932.024 216.108 932.444 214.98 933.284 214.116C934.136 213.252 935.216 212.82 936.524 212.82C937.832 212.82 938.906 213.252 939.746 214.116C940.598 214.98 941.024 216.108 941.024 217.5C941.024 218.892 940.598 220.02 939.746 220.884ZM942.915 222V213H944.535L944.715 213.9H944.805C945.009 213.696 945.231 213.516 945.471 213.36C946.047 213 946.695 212.82 947.415 212.82C948.507 212.82 949.377 213.162 950.025 213.846C950.685 214.518 951.015 215.436 951.015 216.6V222H949.215V216.6C949.215 216.012 949.005 215.508 948.585 215.088C948.177 214.656 947.667 214.44 947.055 214.44C946.395 214.44 945.837 214.656 945.381 215.088C944.937 215.508 944.715 216.012 944.715 216.6V222H942.915ZM953.637 220.11V214.71H952.197V213H953.637V210.48H955.437V213H957.507V214.71H955.437V219.84C955.437 220.2 955.617 220.38 955.977 220.38H957.507V222H955.617C954.981 222 954.489 221.832 954.141 221.496C953.805 221.16 953.637 220.698 953.637 220.11ZM959.581 222V209.4H961.381V213.9H961.471C961.675 213.696 961.897 213.516 962.137 213.36C962.713 213 963.361 212.82 964.081 212.82C965.173 212.82 966.043 213.162 966.691 213.846C967.351 214.518 967.681 215.436 967.681 216.6V222H965.881V216.6C965.881 216.012 965.671 215.508 965.251 215.088C964.843 214.656 964.333 214.44 963.721 214.44C963.061 214.44 962.503 214.656 962.047 215.088C961.603 215.508 961.381 216.012 961.381 216.6V222H959.581Z" fill="#9096A2"/>
</svg>
