<svg width="272" height="272" viewBox="0 0 272 272" fill="none" xmlns="http://www.w3.org/2000/svg">
<path d="M272 136C272 211.111 211.111 272 136 272C60.8893 272 0 211.111 0 136C0 60.8893 60.8893 0 136 0C211.111 0 272 60.8893 272 136ZM48.96 136C48.96 184.071 87.9291 223.04 136 223.04C184.071 223.04 223.04 184.071 223.04 136C223.04 87.9291 184.071 48.96 136 48.96C87.9291 48.96 48.96 87.9291 48.96 136Z" fill="#EBF3FE"/>
<path d="M136 16C153.028 16 169.862 19.6242 185.382 26.6316C200.902 33.6391 214.752 43.8693 226.013 56.6426C237.274 69.4158 245.688 84.4395 250.695 100.715C255.702 116.991 257.188 134.146 255.054 151.04C252.92 167.934 247.214 184.181 238.317 198.7C229.419 213.219 217.534 225.678 203.45 235.25C189.366 244.821 173.406 251.285 156.632 254.213C139.857 257.141 122.651 256.465 106.157 252.23L116.901 210.387C127.456 213.097 138.468 213.53 149.204 211.656C159.94 209.783 170.154 205.645 179.168 199.52C188.182 193.394 195.788 185.42 201.483 176.128C207.177 166.836 210.829 156.438 212.194 145.626C213.56 134.813 212.609 123.834 209.405 113.418C206.2 103.001 200.816 93.3861 193.609 85.2112C186.401 77.0364 177.537 70.489 167.604 66.0042C157.672 61.5195 146.898 59.2 136 59.2V16Z" fill="#3981F7"/>
<path d="M107.051 252.456C79.9516 245.719 56.0496 229.743 39.4629 207.278C22.8762 184.814 14.6433 157.268 16.1824 129.386L59.3168 131.767C58.3317 149.611 63.6008 167.241 74.2163 181.618C84.8318 195.995 100.129 206.22 117.473 210.532L107.051 252.456Z" fill="#51C6FB"/>
<path d="M16.2029 129.025C17.3036 110.12 22.8629 91.7436 32.4265 75.3986C41.99 59.0536 55.2862 45.2041 71.2278 34.9824L94.5458 71.3487C84.3431 77.8906 75.8336 86.7543 69.713 97.2151C63.5923 107.676 60.0343 119.437 59.3298 131.536L16.2029 129.025Z" fill="#C3B5FD"/>
<path d="M71.4847 34.8181C90.6851 22.5756 112.973 16.0489 135.744 16.0003L135.836 59.2002C121.262 59.2313 106.998 63.4084 94.7102 71.2436L71.4847 34.8181Z" fill="#0A112F"/>
<rect x="192.5" y="16.5" width="63" height="63" rx="31.5" fill="white"/>
<path d="M207.9 51.2H210C210.12 51.76 210.407 52.2333 210.86 52.62C211.327 53.0067 211.94 53.2 212.7 53.2C213.553 53.2 214.233 52.9467 214.74 52.44C215.247 51.9333 215.5 51.2533 215.5 50.4C215.5 49.6 215.24 48.9533 214.72 48.46C214.213 47.9533 213.54 47.7 212.7 47.7C211.7 47.7 210.933 48.0333 210.4 48.7H208.2L209 41H216.8V43H210.8L210.4 46.4H210.5C211.22 45.9333 212.053 45.7 213 45.7C214.32 45.7 215.413 46.1467 216.28 47.04C217.16 47.92 217.6 49.04 217.6 50.4C217.6 51.8 217.14 52.9533 216.22 53.86C215.313 54.7533 214.14 55.2 212.7 55.2C211.913 55.2 211.207 55.0733 210.58 54.82C209.967 54.5667 209.48 54.2333 209.12 53.82C208.76 53.4067 208.48 52.98 208.28 52.54C208.093 52.1 207.967 51.6533 207.9 51.2ZM218.804 52V50.3L224.104 41H227.404V50.1H229.104V52H227.404V55H225.304V52H218.804ZM221.304 50.1H225.304V43.6H224.904L221.304 50V50.1Z" fill="#0A112F"/>
<path d="M231.25 55L237.34 45.2H238.74L232.65 55H231.25ZM232.986 46.474C232.799 46.278 232.547 46.18 232.23 46.18C231.913 46.18 231.656 46.278 231.46 46.474C231.273 46.67 231.18 46.9453 231.18 47.3C231.18 47.6547 231.273 47.93 231.46 48.126C231.656 48.322 231.913 48.42 232.23 48.42C232.547 48.42 232.799 48.322 232.986 48.126C233.182 47.93 233.28 47.6547 233.28 47.3C233.28 46.9453 233.182 46.67 232.986 46.474ZM230.634 48.896C230.205 48.4667 229.99 47.9347 229.99 47.3C229.99 46.6653 230.205 46.1333 230.634 45.704C231.073 45.2747 231.605 45.06 232.23 45.06C232.855 45.06 233.383 45.2747 233.812 45.704C234.251 46.1333 234.47 46.6653 234.47 47.3C234.47 47.9347 234.251 48.4667 233.812 48.896C233.383 49.3253 232.855 49.54 232.23 49.54C231.605 49.54 231.073 49.3253 230.634 48.896ZM236.99 53.726C237.186 53.922 237.443 54.02 237.76 54.02C238.077 54.02 238.329 53.922 238.516 53.726C238.712 53.53 238.81 53.2547 238.81 52.9C238.81 52.5453 238.712 52.27 238.516 52.074C238.329 51.878 238.077 51.78 237.76 51.78C237.443 51.78 237.186 51.878 236.99 52.074C236.803 52.27 236.71 52.5453 236.71 52.9C236.71 53.2547 236.803 53.53 236.99 53.726ZM236.164 54.496C235.735 54.0667 235.52 53.5347 235.52 52.9C235.52 52.2653 235.735 51.7333 236.164 51.304C236.593 50.8747 237.125 50.66 237.76 50.66C238.395 50.66 238.927 50.8747 239.356 51.304C239.785 51.7333 240 52.2653 240 52.9C240 53.5347 239.785 54.0667 239.356 54.496C238.927 54.9253 238.395 55.14 237.76 55.14C237.125 55.14 236.593 54.9253 236.164 54.496Z" fill="#9096A2"/>
<rect x="192.5" y="16.5" width="63" height="63" rx="31.5" stroke="#F4F4F5"/>
</svg>
