<svg width="255" height="129" viewBox="0 0 255 129" fill="none" xmlns="http://www.w3.org/2000/svg">
<path d="M127.499 0.364685C144.154 0.364685 160.646 3.69194 176.033 10.1565C191.42 16.621 205.4 26.0962 217.177 38.0411C228.954 49.986 238.296 64.1666 244.669 79.7734C251.042 95.3802 254.323 112.107 254.323 129H208.666C208.666 118.189 206.567 107.483 202.488 97.495C198.409 87.5066 192.43 78.431 184.893 70.7863C177.356 63.1416 168.408 57.0774 158.561 52.9401C148.713 48.8028 138.158 46.6734 127.499 46.6734V0.364685Z" fill="#3981F7"/>
<path d="M0.675781 129C0.675784 99.0661 10.9682 70.0693 29.7801 47.0048C48.5919 23.9403 74.7453 8.25228 103.735 2.64319L112.29 48.1316C93.7367 51.7215 76.9986 61.7618 64.959 76.5231C52.9194 91.2843 46.3323 109.842 46.3323 129L0.675781 129Z" fill="#51C6FB"/>
<path d="M59.3155 20.537C79.8613 7.24944 103.746 0.246619 128.113 0.36619L127.892 46.6744C112.297 46.5978 97.011 51.0796 83.8616 59.5837L59.3155 20.537Z" fill="#0A112F"/>
</svg>
