<svg width="148" height="32" viewBox="0 0 148 32" fill="none" xmlns="http://www.w3.org/2000/svg">
<rect width="148" height="32" rx="16" fill="#FEF6EB"/>
<circle cx="15" cy="16" r="3" fill="#FAA745"/>
<path d="M27.2 22H29.28V10.8H27.2V22ZM32.0044 22H34.0844V14.24H34.4044L38.4844 22H41.2844V10.8H39.2044V18.56H38.8844L34.8044 10.8H32.0044V22ZM48.3319 22H50.4119V18.32H53.3719C55.4679 18.32 56.8919 16.864 56.8919 14.56C56.8919 12.256 55.4679 10.8 53.3719 10.8H48.3319V22ZM50.4119 16.32V12.8H53.2919C54.1879 12.8 54.8119 13.424 54.8119 14.56C54.8119 15.696 54.1879 16.32 53.2919 16.32H50.4119ZM59.0581 22H61.1381V18.16H61.7781L65.3781 22H68.0181L64.4181 18.16C66.1781 18.08 67.6981 16.72 67.6981 14.56C67.6981 12.32 66.1621 10.8 64.1781 10.8H59.0581V22ZM61.1381 16.24V12.8H64.0981C64.8981 12.8 65.6181 13.52 65.6181 14.56C65.6181 15.52 64.8981 16.24 64.0981 16.24H61.1381ZM74.9787 20.16C73.0587 20.16 71.6187 18.704 71.6187 16.4C71.6187 14.096 73.0587 12.64 74.9787 12.64C76.8987 12.64 78.3387 14.096 78.3387 16.4C78.3387 18.704 76.8987 20.16 74.9787 20.16ZM74.9787 10.64C71.9547 10.64 69.5387 13.024 69.5387 16.4C69.5387 19.776 71.9547 22.16 74.9787 22.16C78.0027 22.16 80.4187 19.776 80.4187 16.4C80.4187 13.024 78.0027 10.64 74.9787 10.64ZM91.1312 22H92.7312V16.08H87.8512V17.68H90.6512V17.76C90.6512 18.48 89.6912 20.16 87.6112 20.16C85.6912 20.16 84.2512 18.704 84.2512 16.4C84.2512 14.096 85.6912 12.64 87.6112 12.64C89.1152 12.64 90.0112 13.6 90.4912 14.64H92.6512C92.2672 12.88 90.6352 10.64 87.6112 10.64C84.5872 10.64 82.1712 13.024 82.1712 16.4C82.1712 19.776 84.5872 22.16 87.6112 22.16C88.7472 22.16 89.5312 21.808 90.0912 21.44C90.4112 21.232 90.6832 20.992 90.8912 20.72H90.9712L91.1312 22ZM95.2056 22H97.2856V18.16H97.9256L101.526 22H104.166L100.566 18.16C102.326 18.08 103.846 16.72 103.846 14.56C103.846 12.32 102.31 10.8 100.326 10.8H95.2056V22ZM97.2856 16.24V12.8H100.246C101.046 12.8 101.766 13.52 101.766 14.56C101.766 15.52 101.046 16.24 100.246 16.24H97.2856ZM106.166 22H113.686V20.08H108.246V17.36H113.366V15.44H108.246V12.72H113.686V10.8H106.166V22ZM115.44 18.48C115.44 20.576 117.12 22.16 120 22.16C122.88 22.16 124.32 20.72 124.32 18.8C124.32 16.944 123.296 16 121.04 15.6L119.28 15.28C118.08 15.072 117.76 14.64 117.76 14C117.76 13.184 118.384 12.56 119.84 12.56C121.296 12.56 122.08 13.36 122.08 14.32H124.16C124.16 12.224 122.72 10.64 119.84 10.64C117.2 10.64 115.68 12.144 115.68 14C115.68 15.6 116.544 16.72 118.48 17.04L120.4 17.36C121.84 17.616 122.24 18.144 122.24 18.8C122.24 19.616 121.6 20.24 120 20.24C118.48 20.24 117.52 19.456 117.52 18.48H115.44ZM125.916 18.48C125.916 20.576 127.596 22.16 130.476 22.16C133.356 22.16 134.796 20.72 134.796 18.8C134.796 16.944 133.772 16 131.516 15.6L129.756 15.28C128.556 15.072 128.236 14.64 128.236 14C128.236 13.184 128.86 12.56 130.316 12.56C131.772 12.56 132.556 13.36 132.556 14.32H134.636C134.636 12.224 133.196 10.64 130.316 10.64C127.676 10.64 126.156 12.144 126.156 14C126.156 15.6 127.02 16.72 128.956 17.04L130.876 17.36C132.316 17.616 132.716 18.144 132.716 18.8C132.716 19.616 132.076 20.24 130.476 20.24C128.956 20.24 127.996 19.456 127.996 18.48H125.916Z" fill="#FAA745"/>
</svg>
