<svg width="205" height="40" viewBox="0 0 205 40" fill="none" xmlns="http://www.w3.org/2000/svg">
<path d="M186.839 31.3818L186.575 31.4706C184.864 32.039 182.335 32.9141 180.064 33.9577C179.943 34.0148 179.863 34.1742 179.863 34.1742C179.821 34.2713 179.768 34.3918 179.709 34.5279L179.7 34.5453C179.446 35.1242 179.095 35.9953 178.944 36.3498L178.828 36.6288C178.809 36.6732 178.82 36.7242 178.855 36.7577C178.876 36.7777 178.902 36.7889 178.933 36.79C178.949 36.79 178.968 36.7868 178.985 36.778L179.259 36.6478C179.88 36.3523 180.667 35.904 181.491 35.5121L181.52 35.4987C183.088 34.7549 184.858 33.9151 185.924 33.4071C185.924 33.4064 186.095 33.3151 186.182 33.1437L186.98 31.5434C187.001 31.5015 186.994 31.451 186.965 31.4153C186.933 31.3804 186.884 31.3673 186.839 31.3818ZM180.464 28.9013C180.575 28.6826 181.094 27.6871 181.211 27.4644L181.232 27.4262C184.695 20.8929 188.916 14.7311 193.775 9.11152L193.909 8.95651C193.929 8.93256 193.942 8.90316 193.945 8.87206C193.948 8.84095 193.942 8.80955 193.928 8.78185C193.896 8.72509 193.832 8.69416 193.77 8.70253L193.567 8.73018C190.378 9.16937 187.152 9.77776 183.973 10.5375C183.658 10.6256 183.454 10.8312 183.41 10.8788C181.031 13.7279 178.777 16.7273 176.711 19.8002C176.607 19.9556 176.596 20.3267 176.596 20.3267C176.596 20.3267 177.117 24.3282 177.875 27.277C175.996 32.6809 174.319 39.8025 174.319 39.8025C174.312 39.8253 174.311 39.8492 174.315 39.8725C174.319 39.8958 174.328 39.9179 174.342 39.9372C174.37 39.9761 174.415 39.9986 174.464 40.0001H175.533C175.601 40.0012 175.661 39.9608 175.684 39.8986L175.757 39.6985C176.849 36.7209 178.094 33.7801 179.47 30.9154C179.79 30.248 180.464 28.9013 180.464 28.9013Z" fill="#0A112F"/>
<path d="M195.341 10.2785L195.339 10.0747C195.337 10.0106 195.297 9.95315 195.238 9.93168C195.178 9.90912 195.109 9.92622 195.068 9.97535L194.935 10.1296C189.269 16.6818 184.508 23.9545 180.782 31.745L180.695 31.9269C180.667 31.9844 180.678 32.0539 180.721 32.1001C180.751 32.1307 180.79 32.1474 180.832 32.1478C180.851 32.1485 180.874 32.1445 180.893 32.1365L181.08 32.059C184.262 30.7407 187.512 29.5985 190.741 28.6656C190.934 28.6095 191.097 28.4745 191.189 28.2959C192.604 25.5374 195.89 20.1972 195.89 20.1972C195.974 20.0768 195.953 19.8985 195.953 19.8985C195.953 19.8985 195.377 13.5107 195.341 10.2785Z" fill="#0A112F"/>
<path d="M202.669 1.06672C201.864 0.369182 200.697 0.0413351 198.884 0.00240098C197.24 -0.0328944 195.285 0.321151 193.07 1.05144C192.738 1.16788 192.474 1.35163 192.238 1.58451C189.971 3.71359 187.797 5.94066 185.725 8.25935L185.565 8.43582C185.521 8.48567 185.515 8.55845 185.547 8.61594C185.58 8.67416 185.648 8.704 185.714 8.68944L185.946 8.64032C189.284 7.92677 192.653 7.38133 195.959 7.01964C196.176 6.99563 196.401 7.0684 196.563 7.21649C196.725 7.36605 196.819 7.57891 196.814 7.80051C196.76 11.0812 196.879 14.3782 197.171 17.601L197.19 17.8113C197.196 17.8757 197.241 17.9292 197.305 17.9463C197.316 17.9496 197.328 17.9518 197.342 17.9521C197.391 17.9529 197.442 17.9292 197.472 17.8863L197.593 17.7134C199.456 15.0561 201.483 12.473 203.614 10.0299L203.613 10.0292C203.852 9.7574 203.915 9.58529 203.96 9.33859C204.631 5.04419 203.595 1.87015 202.669 1.06672ZM158.975 3.89982H162.505V30.4624H159.266V28.6066H159.193C157.956 30.0257 155.7 31.0082 153.735 31.0082C148.641 31.0082 145.366 27.0056 145.366 20.8198C145.366 14.8887 148.823 10.6314 153.699 10.6314C155.627 10.6314 157.629 11.5411 158.902 13.033H158.975V3.89982ZM158.975 18.4182C158.975 15.8348 156.937 13.8699 154.281 13.8699C150.824 13.8699 148.896 16.3806 148.896 20.8198C148.896 25.2954 150.824 27.8061 154.281 27.8061C156.937 27.8061 158.975 25.9867 158.975 23.5852V18.4182ZM143.183 20.8198C143.183 26.9692 139.726 31.0082 134.45 31.0082C129.101 31.0082 125.608 26.9692 125.608 20.8198C125.608 14.8159 129.21 10.6314 134.45 10.6314C139.617 10.6314 143.183 14.8159 143.183 20.8198ZM139.69 20.8198C139.69 16.5989 137.652 13.8699 134.45 13.8699C131.139 13.8699 129.101 16.5261 129.101 20.8198C129.101 25.1135 131.139 27.8061 134.45 27.8061C137.652 27.8061 139.69 25.0771 139.69 20.8198ZM123.425 20.8198C123.425 26.9692 119.968 31.0082 114.692 31.0082C109.343 31.0082 105.85 26.9692 105.85 20.8198C105.85 14.8159 109.452 10.6314 114.692 10.6314C119.859 10.6314 123.425 14.8159 123.425 20.8198ZM119.932 20.8198C119.932 16.5989 117.894 13.8699 114.692 13.8699C111.381 13.8699 109.343 16.5261 109.343 20.8198C109.343 25.1135 111.381 27.8061 114.692 27.8061C117.894 27.8061 119.932 25.0771 119.932 20.8198ZM96.4257 10.6314C94.2788 10.6314 92.0956 11.6503 91.0768 13.1057H91.004V3.89982H87.4744V30.4624H91.004V18.3455C91.004 15.7256 92.8961 13.9063 95.5888 13.9063C98.245 13.9063 99.7733 15.6528 99.7733 18.673V30.4624H103.303V17.7997C103.303 13.3968 100.647 10.6314 96.4257 10.6314ZM76.8858 10.6314C74.8481 10.6314 72.6649 11.6139 71.6097 13.033H71.5369V11.1772H68.0802V30.4624H71.6097V18.3455C71.6097 15.6164 73.3927 13.9063 76.1945 13.9063C78.9599 13.9063 80.2698 15.5073 80.2698 18.8549V30.4624H83.8357V17.8361C83.8357 13.3968 81.1431 10.6314 76.8858 10.6314ZM60.548 11.1772H64.0776V30.4624H60.548V11.1772ZM60.4025 3.89982H64.2231V7.64768H60.4025V3.89982ZM57.6371 20.8198C57.6371 27.0056 54.3622 31.0082 49.2681 31.0082C47.3032 31.0082 45.0472 30.0257 43.81 28.6066H43.7372V30.4624H40.4988V3.89982H44.0283V13.033H44.1011C45.3746 11.5775 47.4123 10.6314 49.3408 10.6314C54.2167 10.6314 57.6371 14.8159 57.6371 20.8198ZM54.1075 20.8198C54.1075 16.3806 52.179 13.8699 48.7222 13.8699C46.066 13.8699 44.0283 15.8348 44.0283 18.4182V23.5852C44.0283 25.9867 46.066 27.8061 48.7222 27.8061C52.179 27.8061 54.1075 25.2954 54.1075 20.8198ZM37.7697 20.8198C37.7697 26.9692 34.313 31.0082 29.0369 31.0082C23.688 31.0082 20.1948 26.9692 20.1948 20.8198C20.1948 14.8159 23.7971 10.6314 29.0369 10.6314C34.2038 10.6314 37.7697 14.8159 37.7697 20.8198ZM34.2766 20.8198C34.2766 16.5989 32.2389 13.8699 29.0369 13.8699C25.7256 13.8699 23.688 16.5261 23.688 20.8198C23.688 25.1135 25.7256 27.8061 29.0369 27.8061C32.2389 27.8061 34.2766 25.0771 34.2766 20.8198ZM13.8966 18.9499C16.5907 19.9436 17.8297 22.3575 17.8297 26.4234V30.4624H14.3001V26.4234C14.3001 21.9842 12.8446 20.3831 8.84205 20.3831H3.6387V30.4624H0V4.99143H9.97005C15.2098 4.99143 18.5574 7.866 18.5574 12.378C18.5574 15.7045 16.6584 17.9823 13.8966 18.9499ZM14.8823 12.7419C14.8823 9.79452 13.0993 8.30265 9.64257 8.30265H3.6387V17.1447H9.67895C13.0629 17.1447 14.8823 15.5801 14.8823 12.7419Z" fill="#0A112F"/>
</svg>
