<svg width="48" height="48" viewBox="0 0 48 48" fill="none" xmlns="http://www.w3.org/2000/svg">
<rect width="48" height="48" rx="24" fill="#15191E"/>
<path d="M12 18.1656H18.6122C19.3469 18.1656 19.9347 18.7771 19.9347 19.5414C19.9347 20.3057 19.3469 20.9172 18.6122 20.9172H12C12.2449 24.3822 15.0367 27.0828 18.4163 27.0828H18.6612C19.3959 27.0828 19.9837 27.6943 19.9837 28.4586C19.9837 29.2229 19.3959 29.8344 18.6612 29.8344H18.4163C15.0367 29.8344 12.2449 32.535 12 36H29.5837C32.9633 36 35.7551 33.2994 36 29.8344H29.3878C28.6531 29.8344 28.0653 29.2229 28.0653 28.4586C28.0653 27.6943 28.6531 27.0828 29.3878 27.0828H36C35.7551 23.6178 32.9633 20.9172 29.5837 20.9172H29.3388C28.6041 20.9172 28.0163 20.3057 28.0163 19.5414C28.0163 18.7771 28.6041 18.1656 29.3388 18.1656H29.5837C32.9633 18.1656 35.7551 15.465 36 12H18.4163C15.0367 12 12.2449 14.7006 12 18.1656Z" fill="white"/>
</svg>
