<svg width="232" height="41" viewBox="0 0 232 41" fill="none" xmlns="http://www.w3.org/2000/svg">
<circle cx="20" cy="20.2222" r="20" fill="#F4F4F5"/>
<path d="M24.4498 14.772C24.2521 14.772 24.0587 14.8307 23.8943 14.9405C23.7298 15.0504 23.6016 15.2066 23.526 15.3893C23.4503 15.572 23.4305 15.7731 23.4691 15.9671C23.5076 16.1611 23.6029 16.3393 23.7427 16.4791C23.8826 16.619 24.0608 16.7142 24.2547 16.7528C24.4487 16.7914 24.6498 16.7716 24.8325 16.6959C25.0152 16.6202 25.1714 16.492 25.2813 16.3276C25.3912 16.1631 25.4498 15.9698 25.4498 15.772C25.4498 15.5068 25.3445 15.2524 25.1569 15.0649C24.9694 14.8774 24.7151 14.772 24.4498 14.772ZM28.2832 16.7887C28.267 16.0973 28.1375 15.4132 27.8998 14.7637C27.6879 14.2079 27.3582 13.7047 26.9332 13.2887C26.5205 12.8615 26.0161 12.5338 25.4582 12.3303C24.8104 12.0855 24.1255 11.953 23.4332 11.9387C22.5498 11.8887 22.2665 11.8887 19.9998 11.8887C17.7332 11.8887 17.4498 11.8887 16.5665 11.9387C15.8741 11.953 15.1893 12.0855 14.5415 12.3303C13.9846 12.5359 13.4806 12.8633 13.0665 13.2887C12.6394 13.7013 12.3117 14.2057 12.1082 14.7637C11.8633 15.4115 11.7308 16.0963 11.7165 16.7887C11.6665 17.672 11.6665 17.9553 11.6665 20.222C11.6665 22.4887 11.6665 22.772 11.7165 23.6553C11.7308 24.3477 11.8633 25.0326 12.1082 25.6803C12.3117 26.2383 12.6394 26.7427 13.0665 27.1553C13.4806 27.5807 13.9846 27.9081 14.5415 28.1137C15.1893 28.3585 15.8741 28.491 16.5665 28.5053C17.4498 28.5553 17.7332 28.5553 19.9998 28.5553C22.2665 28.5553 22.5498 28.5553 23.4332 28.5053C24.1255 28.491 24.8104 28.3585 25.4582 28.1137C26.0161 27.9102 26.5205 27.5825 26.9332 27.1553C27.36 26.7408 27.6901 26.2372 27.8998 25.6803C28.1375 25.0308 28.267 24.3468 28.2832 23.6553C28.2832 22.772 28.3332 22.4887 28.3332 20.222C28.3332 17.9553 28.3332 17.672 28.2832 16.7887ZM26.7832 23.5553C26.7771 24.0843 26.6813 24.6084 26.4998 25.1053C26.3668 25.468 26.1531 25.7957 25.8748 26.0637C25.6045 26.3391 25.2775 26.5524 24.9165 26.6887C24.4196 26.8701 23.8955 26.9659 23.3665 26.972C22.5332 27.0137 22.2248 27.022 20.0332 27.022C17.8415 27.022 17.5332 27.022 16.6998 26.972C16.1506 26.9823 15.6037 26.8977 15.0832 26.722C14.738 26.5787 14.426 26.366 14.1665 26.097C13.8899 25.8293 13.6789 25.5013 13.5498 25.1387C13.3464 24.6346 13.2335 24.0986 13.2165 23.5553C13.2165 22.722 13.1665 22.4137 13.1665 20.222C13.1665 18.0303 13.1665 17.722 13.2165 16.8887C13.2202 16.3479 13.319 15.812 13.5082 15.3053C13.6549 14.9536 13.8801 14.6401 14.1665 14.3887C14.4197 14.1021 14.7326 13.8746 15.0832 13.722C15.5911 13.5387 16.1265 13.4429 16.6665 13.4387C17.4998 13.4387 17.8082 13.3887 19.9998 13.3887C22.1915 13.3887 22.4998 13.3887 23.3332 13.4387C23.8621 13.4447 24.3863 13.5405 24.8832 13.722C25.2619 13.8625 25.6017 14.091 25.8748 14.3887C26.1479 14.6447 26.3613 14.9576 26.4998 15.3053C26.685 15.8128 26.7809 16.3485 26.7832 16.8887C26.8248 17.722 26.8332 18.0303 26.8332 20.222C26.8332 22.4137 26.8248 22.722 26.7832 23.5553ZM19.9998 15.947C19.1547 15.9487 18.329 16.2008 17.627 16.6715C16.9251 17.1423 16.3785 17.8105 16.0562 18.5918C15.7339 19.3731 15.6504 20.2324 15.8163 21.0611C15.9822 21.8898 16.39 22.6508 16.9882 23.2478C17.5864 23.8449 18.3482 24.2512 19.1772 24.4155C20.0063 24.5797 20.8654 24.4946 21.6461 24.1708C22.4267 23.847 23.0939 23.299 23.5633 22.5962C24.0327 21.8934 24.2832 21.0672 24.2832 20.222C24.2843 19.6596 24.1742 19.1025 23.9592 18.5828C23.7442 18.0631 23.4286 17.591 23.0306 17.1937C22.6325 16.7964 22.1598 16.4817 21.6397 16.2678C21.1195 16.0538 20.5622 15.9448 19.9998 15.947ZM19.9998 22.997C19.451 22.997 18.9145 22.8343 18.4581 22.5293C18.0018 22.2244 17.6461 21.791 17.4361 21.284C17.226 20.7769 17.1711 20.2189 17.2782 19.6806C17.3852 19.1423 17.6495 18.6479 18.0376 18.2598C18.4257 17.8717 18.9202 17.6074 19.4585 17.5003C19.9968 17.3933 20.5547 17.4482 21.0618 17.6582C21.5688 17.8683 22.0022 18.224 22.3072 18.6803C22.6121 19.1366 22.7748 19.6732 22.7748 20.222C22.7748 20.5864 22.7031 20.9473 22.5636 21.284C22.4241 21.6206 22.2197 21.9265 21.9621 22.1842C21.7044 22.4419 21.3985 22.6463 21.0618 22.7858C20.7251 22.9252 20.3643 22.997 19.9998 22.997Z" fill="#000929"/>
<circle cx="84" cy="20.2222" r="20" fill="#F4F4F5"/>
<path d="M86.6 14.6554H88.1666V12.0054C87.4081 11.9265 86.6459 11.8875 85.8833 11.8887C83.6166 11.8887 82.0666 13.272 82.0666 15.8054V17.9887H79.5083V20.9554H82.0666V28.5554H85.1333V20.9554H87.6833L88.0666 17.9887H85.1333V16.097C85.1333 15.222 85.3666 14.6554 86.6 14.6554Z" fill="#000929"/>
<circle cx="148" cy="20.2222" r="20" fill="#F4F4F5"/>
<path d="M155.058 11.8888H140.942C140.783 11.8866 140.626 11.9157 140.478 11.9744C140.331 12.0331 140.196 12.1202 140.082 12.2309C139.969 12.3415 139.878 12.4735 139.815 12.6193C139.752 12.7651 139.719 12.9218 139.717 13.0805V27.3638C139.719 27.5225 139.752 27.6792 139.815 27.8249C139.878 27.9707 139.969 28.1027 140.082 28.2134C140.196 28.324 140.331 28.4112 140.478 28.4699C140.626 28.5286 140.783 28.5577 140.942 28.5555H155.058C155.217 28.5577 155.375 28.5286 155.522 28.4699C155.67 28.4112 155.804 28.324 155.918 28.2134C156.032 28.1027 156.122 27.9707 156.185 27.8249C156.248 27.6792 156.281 27.5225 156.283 27.3638V13.0805C156.281 12.9218 156.248 12.7651 156.185 12.6193C156.122 12.4735 156.032 12.3415 155.918 12.2309C155.804 12.1202 155.67 12.0331 155.522 11.9744C155.375 11.9157 155.217 11.8866 155.058 11.8888ZM144.742 25.8388H142.242V18.3388H144.742V25.8388ZM143.492 17.2888C143.147 17.2888 142.816 17.1518 142.573 16.908C142.329 16.6642 142.192 16.3336 142.192 15.9888C142.192 15.644 142.329 15.3133 142.573 15.0695C142.816 14.8258 143.147 14.6888 143.492 14.6888C143.675 14.668 143.86 14.6862 144.036 14.742C144.211 14.7979 144.373 14.8902 144.511 15.0129C144.648 15.1356 144.758 15.286 144.833 15.4542C144.909 15.6224 144.948 15.8045 144.948 15.9888C144.948 16.173 144.909 16.3552 144.833 16.5234C144.758 16.6916 144.648 16.8419 144.511 16.9647C144.373 17.0874 144.211 17.1797 144.036 17.2356C143.86 17.2914 143.675 17.3096 143.492 17.2888ZM153.758 25.8388H151.258V21.8138C151.258 20.8055 150.9 20.1471 149.992 20.1471C149.711 20.1492 149.437 20.2374 149.207 20.3998C148.978 20.5622 148.804 20.791 148.708 21.0555C148.643 21.2513 148.615 21.4576 148.625 21.6638V25.8305H146.125C146.125 25.8305 146.125 19.0138 146.125 18.3305H148.625V19.3888C148.852 18.9947 149.183 18.6701 149.58 18.4498C149.978 18.2295 150.429 18.122 150.883 18.1388C152.55 18.1388 153.758 19.2138 153.758 21.5221V25.8388Z" fill="#000929"/>
<circle cx="212" cy="20.2222" r="20" fill="#F4F4F5"/>
<path d="M220.333 15.0557C219.707 15.3274 219.044 15.5071 218.367 15.589C219.082 15.1618 219.618 14.4897 219.875 13.6973C219.203 14.0974 218.467 14.3793 217.7 14.5307C217.187 13.9745 216.504 13.6043 215.758 13.4781C215.012 13.3518 214.245 13.4768 213.578 13.8333C212.911 14.1899 212.381 14.7578 212.071 15.448C211.761 16.1383 211.689 16.9118 211.867 17.6473C210.508 17.5786 209.179 17.2248 207.965 16.6089C206.752 15.993 205.682 15.1288 204.825 14.0723C204.524 14.5975 204.366 15.1922 204.367 15.7973C204.365 16.3593 204.503 16.9129 204.768 17.4086C205.033 17.9044 205.416 18.3271 205.883 18.639C205.34 18.6242 204.808 18.4784 204.333 18.214V18.2557C204.337 19.0431 204.613 19.8049 205.114 20.4123C205.615 21.0197 206.311 21.4354 207.083 21.589C206.786 21.6795 206.477 21.7272 206.167 21.7307C205.951 21.7282 205.737 21.7087 205.525 21.6723C205.745 22.3497 206.17 22.9416 206.742 23.3658C207.314 23.79 208.004 24.0253 208.717 24.039C207.514 24.9851 206.03 25.5014 204.5 25.5057C204.221 25.5066 203.943 25.4899 203.667 25.4557C205.229 26.4642 207.049 26.9996 208.908 26.9973C210.191 27.0107 211.464 26.7682 212.652 26.2841C213.841 25.8 214.921 25.0839 215.829 24.1778C216.738 23.2716 217.456 22.1935 217.944 21.0064C218.431 19.8194 218.677 18.5471 218.667 17.264C218.667 17.1223 218.667 16.9723 218.667 16.8223C219.32 16.3347 219.884 15.7369 220.333 15.0557Z" fill="#000929"/>
</svg>
