<svg width="144" height="48" viewBox="0 0 144 48" fill="none" xmlns="http://www.w3.org/2000/svg">
<path d="M80.3056 40.9237C84.6942 41.529 87.4181 40.7219 89.4863 38.6538C90.7978 37.3422 91.8066 35.8289 92.6642 34.2148C96.1952 27.7076 104.771 12.0198 104.771 12.0198H98.6165L92.2102 24.8828L90.1925 12.0198H83.6349V12.3224C83.6349 12.3224 85.8544 24.0757 86.9641 30.1289C87.1154 31.0368 87.3172 33.3572 85.703 34.8201C84.7951 35.6776 83.4835 36.3334 81.2136 35.9803L80.3056 40.9237ZM75.4126 12.0198L69.4603 25.5385L69.309 25.4881L68.5019 12.3729H61.9947L55.6893 25.5385L55.538 25.4376L55.2858 12.0198H49.0813L50.2919 33.559H57.0009L63.508 19.5358H63.6594L64.6682 33.559H71.4276L81.2136 12.0198H75.4126ZM111.227 33.559H104.72C106.183 26.2952 107.545 19.2836 109.008 12.0198H114.052V16.0048C114.708 14.3906 115.666 12.8269 117.23 12.1711C118.743 11.5153 121.114 11.5658 123.535 12.272C122.577 14.1384 121.871 15.7526 120.811 17.7703C119.903 17.5685 119.046 17.3667 118.188 17.2659C116.272 17.0641 114.91 17.8207 114.254 19.6367C113.8 20.8978 113.497 22.2597 113.245 23.5712C112.539 26.9005 111.933 30.2297 111.227 33.559ZM132.06 17.165C132.968 16.0552 134.683 15.3995 135.894 15.803C137.407 16.257 137.912 17.9721 136.852 19.1322C136.499 19.5358 135.995 19.8385 135.49 20.0402C133.927 20.6455 132.312 20.5951 130.597 20.2924C130.85 19.0818 131.304 18.0729 132.06 17.165ZM140.383 28.212H140.182C137.71 29.1704 134.936 29.4227 133.019 28.8678C130.9 28.2625 129.689 26.4465 130.093 24.3783C136.348 24.8828 139.021 23.7226 140.484 22.865C144.368 20.5447 145.327 14.3402 140.283 12.5242C135.844 10.91 129.639 11.6667 126.713 15.1977C124.04 18.4261 123.283 21.9571 123.687 25.9421C123.989 28.9182 126.007 33.1555 132.666 33.8617C136.701 34.2652 139.274 33.2059 139.475 33.1554L140.383 28.212Z" fill="#061027"/>
<path d="M24.465 24.0253H39.2448L31.2748 43.5467C30.165 46.2707 27.542 48.0362 24.6163 48.0362H9.83643L17.8065 28.5147C18.9162 25.7403 21.5393 24.0253 24.465 24.0253Z" fill="#0A112F"/>
<path d="M39.2449 24.0253L30.266 35.4254C28.904 37.2413 26.8358 38.4015 24.4146 38.4015H13.6702L17.7561 28.4642C18.8658 25.7908 21.4889 24.0253 24.4146 24.0253H39.2449Z" fill="#0A112F"/>
<path d="M19.5216 12.0198H34.3015L26.3314 31.5413C25.2217 34.2652 22.5986 36.0307 19.6729 36.0307H4.89307L12.8631 16.5092C13.9728 13.7853 16.6463 12.0198 19.5216 12.0198Z" fill="#0A112F"/>
<path d="M34.3518 12.0198L25.3729 23.4199C24.0109 25.2359 21.9428 26.3961 19.5215 26.3961H8.7771L12.863 16.4588C13.9727 13.7853 16.5958 12.0198 19.5215 12.0198H34.3518Z" fill="#0A112F"/>
<path d="M14.6285 0.0142822H29.4084L21.4384 19.5358C20.3286 22.2597 17.7056 24.0252 14.7799 24.0252H0L7.97002 4.50372C9.07977 1.77979 11.7028 0.0142822 14.6285 0.0142822Z" fill="#0A112F"/>
</svg>
