<svg width="184" height="32" viewBox="0 0 184 32" fill="none" xmlns="http://www.w3.org/2000/svg">
<g clip-path="url(#clip0_107_5247)">
<path fill-rule="evenodd" clip-rule="evenodd" d="M3.21088 0.267973C3.32187 0.106183 3.50853 0 3.72008 0C4.06048 0 4.35044 0.288346 4.35044 0.627477C4.35044 0.682565 4.34279 0.735604 4.32852 0.785807C4.33007 0.782452 4.33159 0.77908 4.33308 0.775691C4.33403 0.773535 4.33627 0.767084 4.33973 0.756643C1.9749 9.32517 13.3872 16.2395 30.0335 16.2395C46.6513 16.2395 58.0512 9.34886 55.7354 0.800707L55.7367 0.803009C55.7144 0.739424 55.7024 0.670841 55.7024 0.599332C55.7024 0.268357 55.9604 0 56.2962 0C56.5367 0 56.7446 0.137591 56.8433 0.337199C58.8205 3.06791 59.9558 6.1365 59.9988 9.37982C60.1432 20.7785 46.715 32 29.9954 32C13.2758 32 -0.148146 20.7785 0.00123471 9.37982C0.0461186 6.10906 1.20157 3.01601 3.21088 0.267973Z" fill="#0A112F"/>
<path fill-rule="evenodd" clip-rule="evenodd" d="M69.9539 2.17738C70.8155 2.50666 71.7512 2.68709 72.7291 2.68709C73.5878 2.68709 74.4138 2.54799 75.1858 2.29117L77.8438 24.2563C77.8812 24.5912 77.8812 24.8144 78.0305 24.8144C78.1798 24.8144 78.1798 24.5912 78.2545 24.2563L81.4652 11.1963C81.6892 10.3033 82.2119 9.52193 83.8172 9.52193H86.3932C87.9986 9.52193 88.5212 10.3033 88.7452 11.1963L91.9559 24.2563C92.0306 24.5912 92.0306 24.8144 92.1799 24.8144C92.3293 24.8144 92.3293 24.5912 92.3666 24.2563L95.047 2.10645C95.9575 2.48066 96.9551 2.68709 98.0011 2.68709C98.7758 2.68709 99.5239 2.57387 100.23 2.36313L96.772 26.3028C96.436 28.6469 95.3533 29.3166 93.4119 29.3166H91.3959C89.7159 29.3166 88.8199 28.4981 88.2972 26.34L85.3479 14.0613C85.2732 13.7264 85.2732 13.652 85.1239 13.652C84.9745 13.652 84.9372 13.7264 84.8625 14.0613L81.9132 26.34C81.3905 28.4981 80.4945 29.3166 78.8145 29.3166H76.7985C74.8571 29.3166 73.7745 28.6469 73.4385 26.3028L69.9539 2.17738Z" fill="#0A112F"/>
<path fill-rule="evenodd" clip-rule="evenodd" d="M120.815 19.3076C120.815 19.9029 120.591 20.2378 120.068 20.2378H107.897V20.3494C107.897 22.5075 108.793 25.0748 112.377 25.0748C115.103 25.0748 117.679 24.8516 119.247 24.7028H119.359C119.732 24.7028 120.031 24.8888 120.031 25.2609V27.7166C120.031 28.3119 119.919 28.5724 119.247 28.684C116.82 29.1305 115.364 29.3166 112.004 29.3166C108.271 29.3166 102.969 27.3073 102.969 19.9773V17.2239C102.969 11.4195 106.217 7.77307 111.929 7.77307C117.679 7.77307 120.815 11.6799 120.815 17.2239V19.3076ZM115.849 16.7402V16.5914C115.849 13.6892 114.244 12.0148 111.929 12.0148C109.615 12.0148 107.935 13.6519 107.935 16.5914V16.7402H115.849Z" fill="#0A112F"/>
<path fill-rule="evenodd" clip-rule="evenodd" d="M125.033 1.78119C125.749 1.99801 126.507 2.11462 127.294 2.11462C128.231 2.11462 129.13 1.94882 129.961 1.64502V8.03357C131.343 7.84753 132.65 7.77311 133.546 7.77311C139.556 7.77311 142.468 11.3079 142.468 17.1123V19.9774C142.468 25.7818 139.556 29.3166 133.546 29.3166C131.156 29.3166 128.356 28.9445 126.041 28.3492C125.183 28.1259 125.033 27.9027 125.033 27.3446V1.78119ZM137.54 19.9774V17.1123C137.54 14.0613 136.756 11.7916 133.546 11.7916C132.65 11.7916 131.007 11.9032 129.961 12.052V25.0377C130.671 25.1865 132.202 25.2981 133.546 25.2981C136.756 25.2981 137.54 23.0284 137.54 19.9774Z" fill="#0A112F"/>
<path fill-rule="evenodd" clip-rule="evenodd" d="M163.637 9.16074V20.3122C163.637 28.4236 157.327 29.3166 155.124 29.3166H154.9C152.698 29.3166 146.388 28.4236 146.388 20.3122V9.06323C147.238 9.3819 148.158 9.55622 149.12 9.55622C149.883 9.55622 150.62 9.44637 151.316 9.24165V20.3122C151.316 24.1819 152.735 25.0749 154.9 25.0749H155.124C157.29 25.0749 158.709 24.1819 158.709 20.3122V9.15498C159.485 9.4152 160.317 9.55622 161.181 9.55622C162.039 9.55622 162.865 9.41728 163.637 9.16074Z" fill="#0A112F"/>
<path fill-rule="evenodd" clip-rule="evenodd" d="M168.49 1.71913C169.261 1.97568 170.087 2.11462 170.945 2.11462C171.81 2.11462 172.641 1.9736 173.418 1.71338V28.2376C173.418 28.6468 173.119 29.0189 172.708 29.0189H169.236C168.826 29.0189 168.49 28.6468 168.49 28.2376V1.71913Z" fill="#0A112F"/>
<path fill-rule="evenodd" clip-rule="evenodd" d="M178.645 1.6554C179.468 1.95256 180.357 2.11458 181.284 2.11458C182.08 2.11458 182.849 1.99482 183.573 1.77238V28.2375C183.573 28.6468 183.274 29.0189 182.863 29.0189H179.391C178.981 29.0189 178.645 28.6468 178.645 28.2375V1.6554Z" fill="#0A112F"/>
</g>
<defs>
<clipPath id="clip0_107_5247">
<rect width="184" height="32" fill="white"/>
</clipPath>
</defs>
</svg>
