<svg width="167" height="23" viewBox="0 0 167 23" fill="none" xmlns="http://www.w3.org/2000/svg">
<path d="M30.6008 12.6V11.412H33.8588V8.316H35.1548V11.412H38.4128V12.6H35.1548V15.696H33.8588V12.6H30.6008ZM47.384 18.288L46.376 17.55L49.13 13.716C48.782 13.824 48.428 13.878 48.068 13.878C46.928 13.878 45.992 13.5 45.26 12.744C44.54 11.988 44.18 11.046 44.18 9.918C44.18 8.718 44.564 7.734 45.332 6.966C46.112 6.186 47.102 5.796 48.302 5.796C49.19 5.796 49.958 6.012 50.606 6.444C51.266 6.864 51.74 7.38 52.028 7.992C52.316 8.592 52.46 9.222 52.46 9.882C52.46 10.806 52.13 11.724 51.47 12.636L47.384 18.288ZM48.32 7.02C47.504 7.02 46.832 7.296 46.304 7.848C45.776 8.388 45.512 9.066 45.512 9.882C45.512 10.686 45.776 11.352 46.304 11.88C46.844 12.396 47.522 12.654 48.338 12.654C49.154 12.654 49.82 12.39 50.336 11.862C50.864 11.334 51.128 10.674 51.128 9.882C51.128 9.066 50.864 8.388 50.336 7.848C49.82 7.296 49.148 7.02 48.32 7.02ZM57.6145 18.288L56.6065 17.55L59.3605 13.716C59.0125 13.824 58.6585 13.878 58.2985 13.878C57.1585 13.878 56.2225 13.5 55.4905 12.744C54.7705 11.988 54.4105 11.046 54.4105 9.918C54.4105 8.718 54.7945 7.734 55.5625 6.966C56.3425 6.186 57.3325 5.796 58.5325 5.796C59.4205 5.796 60.1885 6.012 60.8365 6.444C61.4965 6.864 61.9705 7.38 62.2585 7.992C62.5465 8.592 62.6905 9.222 62.6905 9.882C62.6905 10.806 62.3605 11.724 61.7005 12.636L57.6145 18.288ZM58.5505 7.02C57.7345 7.02 57.0625 7.296 56.5345 7.848C56.0065 8.388 55.7425 9.066 55.7425 9.882C55.7425 10.686 56.0065 11.352 56.5345 11.88C57.0745 12.396 57.7525 12.654 58.5685 12.654C59.3845 12.654 60.0505 12.39 60.5665 11.862C61.0945 11.334 61.3585 10.674 61.3585 9.882C61.3585 9.066 61.0945 8.388 60.5665 7.848C60.0505 7.296 59.3785 7.02 58.5505 7.02ZM70.4064 11.754C71.6184 12.294 72.2244 13.272 72.2244 14.688C72.2244 15.684 71.9004 16.524 71.2524 17.208C70.6164 17.88 69.7164 18.216 68.5524 18.216C67.3884 18.216 66.4824 17.88 65.8344 17.208C65.1984 16.524 64.8804 15.684 64.8804 14.688C64.8804 13.272 65.4864 12.294 66.6984 11.754C65.7264 11.19 65.2404 10.314 65.2404 9.126C65.2404 8.214 65.5344 7.434 66.1224 6.786C66.7104 6.126 67.5204 5.796 68.5524 5.796C69.5844 5.796 70.3944 6.126 70.9824 6.786C71.5704 7.434 71.8644 8.214 71.8644 9.126C71.8644 10.314 71.3784 11.19 70.4064 11.754ZM67.0764 10.62C67.4724 11.016 67.9644 11.214 68.5524 11.214C69.1404 11.214 69.6264 11.016 70.0104 10.62C70.4064 10.224 70.6044 9.732 70.6044 9.144C70.6044 8.508 70.4004 7.998 69.9924 7.614C69.5964 7.218 69.1164 7.02 68.5524 7.02C67.9884 7.02 67.5024 7.218 67.0944 7.614C66.6984 7.998 66.5004 8.508 66.5004 9.144C66.5004 9.732 66.6924 10.224 67.0764 10.62ZM66.8604 16.344C67.2924 16.776 67.8564 16.992 68.5524 16.992C69.2484 16.992 69.8124 16.776 70.2444 16.344C70.6764 15.9 70.8924 15.336 70.8924 14.652C70.8924 13.98 70.6704 13.434 70.2264 13.014C69.7944 12.582 69.2364 12.366 68.5524 12.366C67.8684 12.366 67.3044 12.582 66.8604 13.014C66.4284 13.434 66.2124 13.98 66.2124 14.652C66.2124 15.336 66.4284 15.9 66.8604 16.344ZM85.7201 5.328V14.508H87.1961V15.732H85.7201V18H84.3881V15.732H78.2321L85.7201 5.328ZM80.5901 14.508H84.3881V9.198L80.5901 14.508ZM96.7245 5.994V7.218H92.8725L92.0985 9.81C92.3025 9.762 92.5545 9.738 92.8545 9.738C94.0425 9.738 94.9965 10.134 95.7165 10.926C96.4485 11.718 96.8145 12.708 96.8145 13.896C96.8145 15.192 96.3885 16.236 95.5365 17.028C94.6965 17.82 93.6645 18.216 92.4405 18.216C91.4085 18.216 90.5145 17.904 89.7585 17.28C89.3265 16.908 88.9785 16.5 88.7145 16.056L89.7765 15.3C89.9565 15.66 90.2265 15.984 90.5865 16.272C91.1745 16.752 91.8225 16.992 92.5305 16.992C93.3705 16.992 94.0725 16.692 94.6365 16.092C95.2005 15.492 95.4825 14.766 95.4825 13.914C95.4825 13.05 95.2005 12.342 94.6365 11.79C94.0845 11.238 93.3825 10.962 92.5305 10.962C91.7745 10.962 91.0005 11.238 90.2085 11.79L91.9545 5.994H96.7245ZM105.299 11.754C106.511 12.294 107.117 13.272 107.117 14.688C107.117 15.684 106.793 16.524 106.145 17.208C105.509 17.88 104.609 18.216 103.445 18.216C102.281 18.216 101.375 17.88 100.727 17.208C100.091 16.524 99.773 15.684 99.773 14.688C99.773 13.272 100.379 12.294 101.591 11.754C100.619 11.19 100.133 10.314 100.133 9.126C100.133 8.214 100.427 7.434 101.015 6.786C101.603 6.126 102.413 5.796 103.445 5.796C104.477 5.796 105.287 6.126 105.875 6.786C106.463 7.434 106.757 8.214 106.757 9.126C106.757 10.314 106.271 11.19 105.299 11.754ZM101.969 10.62C102.365 11.016 102.857 11.214 103.445 11.214C104.033 11.214 104.519 11.016 104.903 10.62C105.299 10.224 105.497 9.732 105.497 9.144C105.497 8.508 105.293 7.998 104.885 7.614C104.489 7.218 104.009 7.02 103.445 7.02C102.881 7.02 102.395 7.218 101.987 7.614C101.591 7.998 101.393 8.508 101.393 9.144C101.393 9.732 101.585 10.224 101.969 10.62ZM101.753 16.344C102.185 16.776 102.749 16.992 103.445 16.992C104.141 16.992 104.705 16.776 105.137 16.344C105.569 15.9 105.785 15.336 105.785 14.652C105.785 13.98 105.563 13.434 105.119 13.014C104.687 12.582 104.129 12.366 103.445 12.366C102.761 12.366 102.197 12.582 101.753 13.014C101.321 13.434 101.105 13.98 101.105 14.652C101.105 15.336 101.321 15.9 101.753 16.344ZM121.423 18H113.665L118.039 12.942C118.783 12.066 119.251 11.484 119.443 11.196C119.887 10.56 120.109 9.948 120.109 9.36C120.109 8.676 119.887 8.118 119.443 7.686C118.999 7.242 118.423 7.02 117.715 7.02C116.851 7.02 116.185 7.374 115.717 8.082C115.465 8.466 115.333 8.94 115.321 9.504H113.989C114.037 8.484 114.337 7.656 114.889 7.02C115.609 6.204 116.557 5.796 117.733 5.796C118.801 5.796 119.683 6.138 120.379 6.822C121.087 7.494 121.441 8.346 121.441 9.378C121.441 10.182 121.123 11.04 120.487 11.952C120.163 12.396 119.617 13.062 118.849 13.95L116.347 16.776H121.423V18ZM130.949 5.994V7.218H127.097L126.323 9.81C126.527 9.762 126.779 9.738 127.079 9.738C128.267 9.738 129.221 10.134 129.941 10.926C130.673 11.718 131.039 12.708 131.039 13.896C131.039 15.192 130.613 16.236 129.761 17.028C128.921 17.82 127.889 18.216 126.665 18.216C125.633 18.216 124.739 17.904 123.983 17.28C123.551 16.908 123.203 16.5 122.939 16.056L124.001 15.3C124.181 15.66 124.451 15.984 124.811 16.272C125.399 16.752 126.047 16.992 126.755 16.992C127.595 16.992 128.297 16.692 128.861 16.092C129.425 15.492 129.707 14.766 129.707 13.914C129.707 13.05 129.425 12.342 128.861 11.79C128.309 11.238 127.607 10.962 126.755 10.962C125.999 10.962 125.225 11.238 124.433 11.79L126.179 5.994H130.949ZM139.949 5.328V14.508H141.425V15.732H139.949V18H138.617V15.732H132.461L139.949 5.328ZM134.819 14.508H138.617V9.198L134.819 14.508ZM154.38 5.328V14.508H155.856V15.732H154.38V18H153.048V15.732H146.892L154.38 5.328ZM149.25 14.508H153.048V9.198L149.25 14.508ZM165.385 5.994V7.218H161.533L160.759 9.81C160.963 9.762 161.215 9.738 161.515 9.738C162.703 9.738 163.657 10.134 164.377 10.926C165.109 11.718 165.475 12.708 165.475 13.896C165.475 15.192 165.049 16.236 164.197 17.028C163.357 17.82 162.325 18.216 161.101 18.216C160.069 18.216 159.175 17.904 158.419 17.28C157.987 16.908 157.639 16.5 157.375 16.056L158.437 15.3C158.617 15.66 158.887 15.984 159.247 16.272C159.835 16.752 160.483 16.992 161.191 16.992C162.031 16.992 162.733 16.692 163.297 16.092C163.861 15.492 164.143 14.766 164.143 13.914C164.143 13.05 163.861 12.342 163.297 11.79C162.745 11.238 162.043 10.962 161.191 10.962C160.435 10.962 159.661 11.238 158.869 11.79L160.615 5.994H165.385Z" fill="white"/>
<path d="M14.8534 14.2292L12.525 13.9633C12.2513 13.9312 11.9738 13.9615 11.7134 14.052C11.453 14.1425 11.2165 14.2908 11.0217 14.4858L9.33503 16.1725C6.73279 14.849 4.61767 12.7339 3.2942 10.1317L4.99003 8.43583C5.3842 8.04167 5.5767 7.49167 5.51253 6.9325L5.2467 4.6225C5.19473 4.17533 4.98013 3.76288 4.64375 3.46369C4.30737 3.1645 3.87272 2.99947 3.42253 3H1.8367C0.800868 3 -0.0607993 3.86167 0.00336735 4.8975C0.489201 12.7258 6.75003 18.9775 14.5692 19.4633C15.605 19.5275 16.4667 18.6658 16.4667 17.63V16.0442C16.4759 15.1183 15.7792 14.3392 14.8534 14.2292V14.2292Z" fill="white"/>
</svg>
    
