<svg width="30" height="26" viewBox="0 0 30 26" fill="none" xmlns="http://www.w3.org/2000/svg">
<g filter="url(#filter0_d_1_413)">
<path d="M23.0838 6.51181H19.491V5H10.509V6.51181H6.91617C6.40797 6.51181 5.92058 6.72418 5.56123 7.10221C5.20188 7.48024 5 7.99295 5 8.52756V18.9843C5 19.5189 5.20188 20.0316 5.56123 20.4096C5.92058 20.7876 6.40797 21 6.91617 21H23.0838C23.592 21 24.0794 20.7876 24.4388 20.4096C24.7981 20.0316 25 19.5189 25 18.9843V8.52756C25 7.99295 24.7981 7.48024 24.4388 7.10221C24.0794 6.72418 23.592 6.51181 23.0838 6.51181ZM14.9995 19.8661C11.7976 19.8661 9.19353 17.1247 9.19353 13.7564C9.19353 10.3881 11.7976 7.64668 14.9995 7.64668C18.2014 7.64668 20.8074 10.3881 20.8074 13.7564C20.8074 17.1247 18.2014 19.8641 14.9995 19.8641V19.8661ZM14.9995 9.66142C14.4883 9.66148 13.982 9.76748 13.5097 9.97336C13.0374 10.1792 12.6082 10.481 12.2468 10.8613C11.8853 11.2417 11.5986 11.6932 11.403 12.1901C11.2074 12.687 11.1068 13.2196 11.1068 13.7574C11.1069 14.2952 11.2077 14.8278 11.4034 15.3247C11.5991 15.8215 11.8859 16.273 12.2474 16.6532C12.609 17.0335 13.0382 17.3351 13.5106 17.5409C13.983 17.7466 14.4892 17.8525 15.0005 17.8524C16.0331 17.8523 17.0235 17.4206 17.7536 16.6524C18.4837 15.8841 18.8938 14.8422 18.8937 13.7559C18.8935 12.6696 18.4832 11.6278 17.7529 10.8597C17.0226 10.0917 16.0322 9.66028 14.9995 9.66041V9.66142Z" fill="url(#paint0_linear_1_413)"/>
</g>
<defs>
<filter id="filter0_d_1_413" x="0" y="0" width="30" height="26" filterUnits="userSpaceOnUse" color-interpolation-filters="sRGB">
<feFlood flood-opacity="0" result="BackgroundImageFix"/>
<feColorMatrix in="SourceAlpha" type="matrix" values="0 0 0 0 0 0 0 0 0 0 0 0 0 0 0 0 0 0 127 0" result="hardAlpha"/>
<feOffset/>
<feGaussianBlur stdDeviation="2.5"/>
<feColorMatrix type="matrix" values="0 0 0 0 0.738476 0 0 0 0 0.232569 0 0 0 0 0.820833 0 0 0 0.5 0"/>
<feBlend mode="normal" in2="BackgroundImageFix" result="effect1_dropShadow_1_413"/>
<feBlend mode="normal" in="SourceGraphic" in2="effect1_dropShadow_1_413" result="shape"/>
</filter>
<linearGradient id="paint0_linear_1_413" x1="15" y1="5" x2="15" y2="21" gradientUnits="userSpaceOnUse">
<stop stop-color="#CB1D45"/>
<stop offset="1" stop-color="#D11F8A"/>
</linearGradient>
</defs>
</svg>
