<svg width="26" height="26" viewBox="0 0 26 26" fill="none" xmlns="http://www.w3.org/2000/svg">
<g filter="url(#filter0_d_1_416)">
<path d="M5 13.0156C5 11.5652 5.35914 10.224 6.07742 8.99219C6.79571 7.76036 7.76903 6.78703 8.9974 6.07222C10.2258 5.35741 11.5617 5 13.0052 5C14.0878 5 15.1219 5.21167 16.1074 5.635C17.0928 6.05834 17.943 6.62741 18.6578 7.34223C19.3726 8.05704 19.9417 8.90891 20.365 9.89785C20.7883 10.8868 21 11.926 21 13.0156C21 14.0982 20.7883 15.134 20.365 16.123C19.9417 17.1119 19.3726 17.962 18.6578 18.6734C17.943 19.3847 17.0928 19.9503 16.1074 20.3702C15.1219 20.7901 14.0878 21 13.0052 21C11.9156 21 10.8764 20.7883 9.88744 20.365C8.8985 19.9417 8.04663 19.3726 7.33182 18.6578C6.617 17.943 6.04966 17.0946 5.6298 16.1126C5.20993 15.1306 5 14.0982 5 13.0156ZM6.75927 13.0156C6.75927 14.702 7.37346 16.1663 8.60182 17.4086C9.83019 18.637 11.298 19.2511 13.0052 19.2511C14.1295 19.2511 15.1705 18.9718 16.1282 18.4131C17.0859 17.8545 17.8458 17.0963 18.4079 16.1386C18.9701 15.1809 19.2511 14.1399 19.2511 13.0156C19.2511 11.8913 18.9701 10.8486 18.4079 9.88744C17.8458 8.92626 17.0859 8.16634 16.1282 7.60768C15.1705 7.04901 14.1295 6.76968 13.0052 6.76968C11.8809 6.76968 10.8399 7.04901 9.88224 7.60768C8.92453 8.16634 8.16461 8.92626 7.60247 9.88744C7.04034 10.8486 6.75927 11.8913 6.75927 13.0156ZM12.391 13.0156V8.27912C12.391 8.11256 12.4483 7.97202 12.5628 7.85751C12.6773 7.74301 12.8178 7.68575 12.9844 7.68575C13.1509 7.68575 13.2915 7.74301 13.406 7.85751C13.5205 7.97202 13.5777 8.11256 13.5777 8.27912V12.4118H16.2635C16.4301 12.4118 16.5706 12.4691 16.6851 12.5836C16.7996 12.6981 16.8569 12.8386 16.8569 13.0052C16.8569 13.1648 16.7996 13.3036 16.6851 13.4216C16.5706 13.5396 16.4301 13.5986 16.2635 13.5986H13.1093C13.0885 13.6055 13.0468 13.609 12.9844 13.609C12.8178 13.609 12.6773 13.5517 12.5628 13.4372C12.4483 13.3227 12.391 13.1822 12.391 13.0156Z" fill="url(#paint0_linear_1_416)"/>
</g>
<defs>
<filter id="filter0_d_1_416" x="0" y="0" width="26" height="26" filterUnits="userSpaceOnUse" color-interpolation-filters="sRGB">
<feFlood flood-opacity="0" result="BackgroundImageFix"/>
<feColorMatrix in="SourceAlpha" type="matrix" values="0 0 0 0 0 0 0 0 0 0 0 0 0 0 0 0 0 0 127 0" result="hardAlpha"/>
<feOffset/>
<feGaussianBlur stdDeviation="2.5"/>
<feColorMatrix type="matrix" values="0 0 0 0 0.738476 0 0 0 0 0.232569 0 0 0 0 0.820833 0 0 0 0.5 0"/>
<feBlend mode="normal" in2="BackgroundImageFix" result="effect1_dropShadow_1_416"/>
<feBlend mode="normal" in="SourceGraphic" in2="effect1_dropShadow_1_416" result="shape"/>
</filter>
<linearGradient id="paint0_linear_1_416" x1="13" y1="5" x2="13" y2="21" gradientUnits="userSpaceOnUse">
<stop stop-color="#CB1D45"/>
<stop offset="1" stop-color="#D11F8A"/>
</linearGradient>
</defs>
</svg>
