<svg width="26" height="26" viewBox="0 0 26 26" fill="none" xmlns="http://www.w3.org/2000/svg">
<g filter="url(#filter0_d_1_324)">
<path d="M13 5C8.58214 5 5 8.58214 5 13C5 17.4179 8.58214 21 13 21C17.4179 21 21 17.4179 21 13C21 8.58214 17.4179 5 13 5ZM13 19.6429C9.33214 19.6429 6.35714 16.6679 6.35714 13C6.35714 9.33214 9.33214 6.35714 13 6.35714C16.6679 6.35714 19.6429 9.33214 19.6429 13C19.6429 16.6679 16.6679 19.6429 13 19.6429ZM13.8518 12.5857L13.3982 12.4804V10.0821C14.0768 10.175 14.4964 10.6 14.5679 11.1214C14.5768 11.1929 14.6375 11.2446 14.7089 11.2446H15.5107C15.5946 11.2446 15.6607 11.1714 15.6536 11.0875C15.5446 9.975 14.6286 9.26071 13.4054 9.1375V8.55357C13.4054 8.475 13.3411 8.41071 13.2625 8.41071H12.7607C12.6821 8.41071 12.6179 8.475 12.6179 8.55357V9.14286C11.3536 9.26607 10.3643 9.96429 10.3643 11.2679C10.3643 12.475 11.2536 13.0571 12.1875 13.2804L12.6286 13.3929V15.9411C11.8393 15.8357 11.3964 15.4143 11.3054 14.8464C11.2946 14.7786 11.2339 14.7286 11.1643 14.7286H10.3393C10.2554 14.7286 10.1893 14.8 10.1964 14.8839C10.2768 15.8661 11.0214 16.7696 12.6107 16.8857V17.4464C12.6107 17.525 12.675 17.5893 12.7536 17.5893H13.2607C13.3393 17.5893 13.4036 17.525 13.4036 17.4446L13.4 16.8786C14.7982 16.7554 15.7982 16.0071 15.7982 14.6643C15.7964 13.425 15.0089 12.8714 13.8518 12.5857ZM12.6268 12.2964C12.5268 12.2679 12.4429 12.2411 12.3589 12.2071C11.7554 11.9893 11.475 11.6375 11.475 11.1839C11.475 10.5357 11.9661 10.1661 12.6268 10.0821V12.2964ZM13.3982 15.9464V13.5589C13.4536 13.575 13.5036 13.5875 13.5554 13.5982C14.4 13.8554 14.6839 14.2125 14.6839 14.7607C14.6839 15.4589 14.1589 15.8786 13.3982 15.9464Z" fill="url(#paint0_linear_1_324)"/>
</g>
<defs>
<filter id="filter0_d_1_324" x="0" y="0" width="26" height="26" filterUnits="userSpaceOnUse" color-interpolation-filters="sRGB">
<feFlood flood-opacity="0" result="BackgroundImageFix"/>
<feColorMatrix in="SourceAlpha" type="matrix" values="0 0 0 0 0 0 0 0 0 0 0 0 0 0 0 0 0 0 127 0" result="hardAlpha"/>
<feOffset/>
<feGaussianBlur stdDeviation="2.5"/>
<feColorMatrix type="matrix" values="0 0 0 0 0.632589 0 0 0 0 0.820833 0 0 0 0 0.232569 0 0 0 0.4 0"/>
<feBlend mode="normal" in2="BackgroundImageFix" result="effect1_dropShadow_1_324"/>
<feBlend mode="normal" in="SourceGraphic" in2="effect1_dropShadow_1_324" result="shape"/>
</filter>
<linearGradient id="paint0_linear_1_324" x1="13" y1="5" x2="13" y2="21" gradientUnits="userSpaceOnUse">
<stop stop-color="#6ACB1D"/>
<stop offset="1" stop-color="#B8FF5F"/>
</linearGradient>
</defs>
</svg>
