<svg width="9" height="17" viewBox="0 0 9 17" fill="none" xmlns="http://www.w3.org/2000/svg">
<path d="M8.6606 0.00353713L6.50191 0C4.0767 0 2.50941 1.64212 2.50941 4.18372V6.1127H0.338945C0.151391 6.1127 -0.000488281 6.26798 -0.000488281 6.45952V9.25438C-0.000488281 9.44596 0.151564 9.60103 0.338945 9.60103H2.50941V16.6534C2.50941 16.8449 2.66129 17 2.84884 17H5.68069C5.86824 17 6.02012 16.8447 6.02012 16.6534V9.60103H8.55791C8.74546 9.60103 8.89734 9.44596 8.89734 9.25438L8.89837 6.45952C8.89837 6.36755 8.86253 6.27948 8.79897 6.21439C8.73541 6.14931 8.64882 6.1127 8.55877 6.1127H6.02012V4.47748C6.02012 3.69153 6.20352 3.29254 7.20606 3.29254L8.66025 3.29201C8.84763 3.29201 8.99951 3.13673 8.99951 2.94537V0.350176C8.99951 0.158994 8.84781 0.00389085 8.6606 0.00353713Z" fill="white"/>
</svg>
