<svg width="37" height="40" viewBox="0 0 37 40" fill="none" xmlns="http://www.w3.org/2000/svg">
<path d="M35.15 0H1.85C0.74 0 0 0.713514 0 1.78378V33.8919C0 34.9622 0.74 35.6757 1.85 35.6757H35.15C36.26 35.6757 37 34.9622 37 33.8919V1.78378C37 0.713514 36.26 0 35.15 0ZM20.35 3.56757H24.05V7.13514H20.35V3.56757ZM12.95 3.56757H16.65V7.13514H12.95V3.56757ZM9.25 32.1081H5.55V28.5405H9.25V32.1081ZM9.25 7.13514H5.55V3.56757H9.25V7.13514ZM16.65 32.1081H12.95V28.5405H16.65V32.1081ZM24.05 32.1081H20.35V28.5405H24.05V32.1081ZM23.125 19.2649L15.725 24.6162C14.43 25.3297 12.95 24.6162 12.95 23.1892V12.4865C12.95 11.0595 14.43 10.3459 15.725 10.8811L23.125 16.2324C24.42 16.9459 24.42 18.7297 23.125 19.2649ZM31.45 32.1081H27.75V28.5405H31.45V32.1081ZM31.45 7.13514H27.75V3.56757H31.45V7.13514Z" fill="white"/>
</svg>
