<svg width="35" height="35" viewBox="0 0 35 35" fill="none" xmlns="http://www.w3.org/2000/svg">
<path d="M5.01336 22.2708C4.80716 22.6916 4.88747 23.2003 5.21233 23.533L5.47327 23.8C6.22719 22.8858 7.10588 21.8937 8.1716 20.8035C8.24691 20.7264 8.32444 20.6892 8.40002 20.6181L6.72128 18.9C5.74533 20.7062 5.1762 21.9403 5.01336 22.2708Z" fill="white"/>
<path d="M13.7251 26.8222C12.8025 27.8614 11.9673 28.7179 11.2 29.4519L11.5053 29.7957C11.7885 30.1147 12.2219 30.1915 12.5783 29.985C13.0557 29.7079 13.8064 29.3099 15.4 28.3102L13.8818 26.6C13.8218 26.6738 13.7903 26.7489 13.7251 26.8222Z" fill="white"/>
<path d="M12.9985 21.3216C12.2993 20.5697 10.3329 21.2438 9.40924 22.2368C6.31914 25.5595 4.92351 27.9153 4.29687 29.3063C4.11722 29.7048 4.19206 30.1819 4.48333 30.4952C4.7751 30.8092 5.21957 30.8888 5.59046 30.6956C6.85507 30.0354 9.0192 28.5417 12.1461 25.1797C13.1617 24.087 13.6629 22.0363 12.9992 21.3224L12.9985 21.3216Z" fill="white"/>
<path d="M3.3329 13.6191L0.312773 16.4758C-0.0286979 16.7988 -0.0987717 17.2988 0.14315 17.6949C0.379232 18.0857 0.873643 18.2848 1.34414 18.1657C2.97642 17.7517 4.41265 17.5768 5.37978 17.8114C6.75568 15.4976 8.23418 13.3677 9.8 11.4329C8.89432 10.8837 5.90144 11.1896 3.3329 13.6191Z" fill="white"/>
<path d="M17.3093 34.8919C17.6658 35.0881 18.0975 35.0123 18.3798 34.7049L20.9978 31.8558C23.0247 29.6494 23.3814 26.8027 22.9215 25.9C20.9441 27.522 18.9409 28.8915 17.0719 30.0382C17.2009 30.8306 17.1151 31.5995 16.8102 33.845C16.7506 34.2796 16.9569 34.7001 17.3093 34.8919Z" fill="white"/>
<path d="M20.419 10.0216C19.327 11.2505 19.327 13.2495 20.419 14.4783C21.5113 15.7072 23.2884 15.7072 24.3807 14.4783C25.4731 13.2495 25.4731 11.2505 24.3807 10.0216C23.2884 8.79276 21.5113 8.79276 20.419 10.0216Z" fill="white"/>
<path d="M34.9402 0.990584C34.9037 0.488372 34.5044 0.0914157 34.0044 0.0538622C31.5134 -0.133905 29.0321 0.17287 26.6 0.917593C26.783 2.59058 27.6473 4.40108 29.1227 5.87836C30.6158 7.3731 32.4732 8.23815 34.174 8.4C34.829 6.10157 35.1396 3.63996 34.9402 0.990584Z" fill="white"/>
<path d="M27.6635 7.20964C25.9424 5.48425 24.8914 3.41487 24.5542 1.40002C18.3435 3.95355 12.3981 9.52987 7.70001 17.3635L10.0341 19.7035C11.6289 19.0543 13.5649 18.8829 14.7928 20.1136C16.0223 21.3465 15.8481 23.2865 15.2009 24.8831L17.6117 27.3C23.6239 23.6675 30.6235 17.9446 33.6 10.3305C31.5412 10.0186 29.4126 8.96311 27.6635 7.20964ZM26.2004 16.0075C24.1844 18.0286 20.9036 18.0286 18.8873 16.0075C16.871 13.9862 16.871 10.6969 18.8873 8.67582C20.9036 6.65476 24.1844 6.65476 26.2004 8.67582C28.2167 10.6971 28.2167 13.9862 26.2004 16.0075Z" fill="white"/>
</svg>
