<svg width="101" height="25" viewBox="0 0 101 25" fill="none" xmlns="http://www.w3.org/2000/svg">
<g filter="url(#filter0_d_1_191)">
<path d="M33 5L34.7961 10.5279H40.6085L35.9062 13.9443L37.7023 19.4721L33 16.0557L28.2977 19.4721L30.0938 13.9443L25.3915 10.5279H31.2039L33 5Z" fill="url(#paint0_linear_1_191)"/>
</g>
<g filter="url(#filter1_d_1_191)">
<path d="M13 5L14.7961 10.5279H20.6085L15.9062 13.9443L17.7023 19.4721L13 16.0557L8.29772 19.4721L10.0938 13.9443L5.39155 10.5279H11.2039L13 5Z" fill="url(#paint1_linear_1_191)"/>
</g>
<g filter="url(#filter2_d_1_191)">
<path d="M53 5L54.7961 10.5279H60.6085L55.9062 13.9443L57.7023 19.4721L53 16.0557L48.2977 19.4721L50.0938 13.9443L45.3915 10.5279H51.2039L53 5Z" fill="url(#paint2_linear_1_191)"/>
</g>
<g filter="url(#filter3_d_1_191)">
<path d="M73 5L74.7961 10.5279H80.6085L75.9062 13.9443L77.7023 19.4721L73 16.0557L68.2977 19.4721L70.0938 13.9443L65.3915 10.5279H71.2039L73 5Z" fill="url(#paint3_linear_1_191)"/>
</g>
<path d="M93 5L94.7961 10.5279H100.608L95.9062 13.9443L97.7023 19.4721L93 16.0557L88.2977 19.4721L90.0938 13.9443L85.3915 10.5279H91.2039L93 5Z" fill="white"/>
<g filter="url(#filter4_d_1_191)">
<path fill-rule="evenodd" clip-rule="evenodd" d="M93.0001 5L91.2039 10.5279H85.3916L90.0939 13.9443L88.2978 19.4721L93.0001 16.0557V5Z" fill="url(#paint4_linear_1_191)"/>
</g>
<defs>
<filter id="filter0_d_1_191" x="20.3915" y="0" width="25.2169" height="24.4721" filterUnits="userSpaceOnUse" color-interpolation-filters="sRGB">
<feFlood flood-opacity="0" result="BackgroundImageFix"/>
<feColorMatrix in="SourceAlpha" type="matrix" values="0 0 0 0 0 0 0 0 0 0 0 0 0 0 0 0 0 0 127 0" result="hardAlpha"/>
<feOffset/>
<feGaussianBlur stdDeviation="2.5"/>
<feColorMatrix type="matrix" values="0 0 0 0 0.941176 0 0 0 0 0.686275 0 0 0 0 0.129412 0 0 0 0.3 0"/>
<feBlend mode="normal" in2="BackgroundImageFix" result="effect1_dropShadow_1_191"/>
<feBlend mode="normal" in="SourceGraphic" in2="effect1_dropShadow_1_191" result="shape"/>
</filter>
<filter id="filter1_d_1_191" x="0.391541" y="0" width="25.2169" height="24.4721" filterUnits="userSpaceOnUse" color-interpolation-filters="sRGB">
<feFlood flood-opacity="0" result="BackgroundImageFix"/>
<feColorMatrix in="SourceAlpha" type="matrix" values="0 0 0 0 0 0 0 0 0 0 0 0 0 0 0 0 0 0 127 0" result="hardAlpha"/>
<feOffset/>
<feGaussianBlur stdDeviation="2.5"/>
<feColorMatrix type="matrix" values="0 0 0 0 0.941176 0 0 0 0 0.686275 0 0 0 0 0.129412 0 0 0 0.3 0"/>
<feBlend mode="normal" in2="BackgroundImageFix" result="effect1_dropShadow_1_191"/>
<feBlend mode="normal" in="SourceGraphic" in2="effect1_dropShadow_1_191" result="shape"/>
</filter>
<filter id="filter2_d_1_191" x="40.3915" y="0" width="25.2169" height="24.4721" filterUnits="userSpaceOnUse" color-interpolation-filters="sRGB">
<feFlood flood-opacity="0" result="BackgroundImageFix"/>
<feColorMatrix in="SourceAlpha" type="matrix" values="0 0 0 0 0 0 0 0 0 0 0 0 0 0 0 0 0 0 127 0" result="hardAlpha"/>
<feOffset/>
<feGaussianBlur stdDeviation="2.5"/>
<feColorMatrix type="matrix" values="0 0 0 0 0.941176 0 0 0 0 0.686275 0 0 0 0 0.129412 0 0 0 0.3 0"/>
<feBlend mode="normal" in2="BackgroundImageFix" result="effect1_dropShadow_1_191"/>
<feBlend mode="normal" in="SourceGraphic" in2="effect1_dropShadow_1_191" result="shape"/>
</filter>
<filter id="filter3_d_1_191" x="60.3915" y="0" width="25.2169" height="24.4721" filterUnits="userSpaceOnUse" color-interpolation-filters="sRGB">
<feFlood flood-opacity="0" result="BackgroundImageFix"/>
<feColorMatrix in="SourceAlpha" type="matrix" values="0 0 0 0 0 0 0 0 0 0 0 0 0 0 0 0 0 0 127 0" result="hardAlpha"/>
<feOffset/>
<feGaussianBlur stdDeviation="2.5"/>
<feColorMatrix type="matrix" values="0 0 0 0 0.941176 0 0 0 0 0.686275 0 0 0 0 0.129412 0 0 0 0.3 0"/>
<feBlend mode="normal" in2="BackgroundImageFix" result="effect1_dropShadow_1_191"/>
<feBlend mode="normal" in="SourceGraphic" in2="effect1_dropShadow_1_191" result="shape"/>
</filter>
<filter id="filter4_d_1_191" x="80.3916" y="0" width="17.6085" height="24.4721" filterUnits="userSpaceOnUse" color-interpolation-filters="sRGB">
<feFlood flood-opacity="0" result="BackgroundImageFix"/>
<feColorMatrix in="SourceAlpha" type="matrix" values="0 0 0 0 0 0 0 0 0 0 0 0 0 0 0 0 0 0 127 0" result="hardAlpha"/>
<feOffset/>
<feGaussianBlur stdDeviation="2.5"/>
<feColorMatrix type="matrix" values="0 0 0 0 0.941176 0 0 0 0 0.686275 0 0 0 0 0.129412 0 0 0 0.3 0"/>
<feBlend mode="normal" in2="BackgroundImageFix" result="effect1_dropShadow_1_191"/>
<feBlend mode="normal" in="SourceGraphic" in2="effect1_dropShadow_1_191" result="shape"/>
</filter>
<linearGradient id="paint0_linear_1_191" x1="33" y1="5" x2="33" y2="21" gradientUnits="userSpaceOnUse">
<stop stop-color="#F7971E"/>
<stop offset="1" stop-color="#FFAA2B"/>
<stop offset="1" stop-color="#FFD200"/>
</linearGradient>
<linearGradient id="paint1_linear_1_191" x1="13" y1="5" x2="13" y2="21" gradientUnits="userSpaceOnUse">
<stop stop-color="#F7971E"/>
<stop offset="1" stop-color="#FFAA2B"/>
<stop offset="1" stop-color="#FFD200"/>
</linearGradient>
<linearGradient id="paint2_linear_1_191" x1="53" y1="5" x2="53" y2="21" gradientUnits="userSpaceOnUse">
<stop stop-color="#F7971E"/>
<stop offset="1" stop-color="#FFAA2B"/>
<stop offset="1" stop-color="#FFD200"/>
</linearGradient>
<linearGradient id="paint3_linear_1_191" x1="73" y1="5" x2="73" y2="21" gradientUnits="userSpaceOnUse">
<stop stop-color="#F7971E"/>
<stop offset="1" stop-color="#FFAA2B"/>
<stop offset="1" stop-color="#FFD200"/>
</linearGradient>
<linearGradient id="paint4_linear_1_191" x1="89.1958" y1="5" x2="89.1958" y2="19.4722" gradientUnits="userSpaceOnUse">
<stop stop-color="#F7971E"/>
<stop offset="1" stop-color="#FFAA2B"/>
<stop offset="1" stop-color="#FFD200"/>
</linearGradient>
</defs>
</svg>
