<svg width="21" height="26" viewBox="0 0 21 26" fill="none" xmlns="http://www.w3.org/2000/svg">
<g filter="url(#filter0_d_1_78)">
<path d="M16 10.6C16 9.8646 15.8577 9.1364 15.5813 8.45697C15.3049 7.77755 14.8998 7.16021 14.3891 6.6402C13.8784 6.12019 13.272 5.7077 12.6048 5.42627C11.9375 5.14485 11.2223 5 10.5 5C9.77773 5 9.06253 5.14485 8.39524 5.42627C7.72795 5.7077 7.12163 6.12019 6.61091 6.6402C6.10019 7.16021 5.69506 7.77755 5.41866 8.45697C5.14226 9.1364 5 9.8646 5 10.6C5 11.7096 5.32214 12.7416 5.86821 13.612H5.86193C7.71621 16.568 10.5 21 10.5 21L15.1381 13.612H15.1326C15.6986 12.7131 15.9996 11.6678 16 10.6ZM10.5 13C9.87485 13 9.2753 12.7471 8.83325 12.2971C8.3912 11.847 8.14286 11.2365 8.14286 10.6C8.14286 9.96348 8.3912 9.35303 8.83325 8.90294C9.2753 8.45286 9.87485 8.2 10.5 8.2C11.1252 8.2 11.7247 8.45286 12.1668 8.90294C12.6088 9.35303 12.8571 9.96348 12.8571 10.6C12.8571 11.2365 12.6088 11.847 12.1668 12.2971C11.7247 12.7471 11.1252 13 10.5 13Z" fill="url(#paint0_linear_1_78)"/>
</g>
<defs>
<filter id="filter0_d_1_78" x="0" y="0" width="21" height="26" filterUnits="userSpaceOnUse" color-interpolation-filters="sRGB">
<feFlood flood-opacity="0" result="BackgroundImageFix"/>
<feColorMatrix in="SourceAlpha" type="matrix" values="0 0 0 0 0 0 0 0 0 0 0 0 0 0 0 0 0 0 127 0" result="hardAlpha"/>
<feOffset/>
<feGaussianBlur stdDeviation="2.5"/>
<feColorMatrix type="matrix" values="0 0 0 0 0.738476 0 0 0 0 0.232569 0 0 0 0 0.820833 0 0 0 0.5 0"/>
<feBlend mode="normal" in2="BackgroundImageFix" result="effect1_dropShadow_1_78"/>
<feBlend mode="normal" in="SourceGraphic" in2="effect1_dropShadow_1_78" result="shape"/>
</filter>
<linearGradient id="paint0_linear_1_78" x1="10.5" y1="5" x2="10.5" y2="21" gradientUnits="userSpaceOnUse">
<stop stop-color="#CB1D45"/>
<stop offset="1" stop-color="#D11F8A"/>
</linearGradient>
</defs>
</svg>
