<svg width="48" height="48" viewBox="0 0 48 48" fill="none" xmlns="http://www.w3.org/2000/svg">
<rect width="48" height="48" rx="24" fill="#52B5EA"/>
<g clip-path="url(#clip0_316_14020)">
<path fill-rule="evenodd" clip-rule="evenodd" d="M29.415 26.382C29.117 26.233 27.656 25.515 27.384 25.415C27.112 25.316 26.914 25.267 26.715 25.565C26.517 25.861 25.948 26.531 25.775 26.729C25.601 26.928 25.428 26.952 25.131 26.804C24.834 26.654 23.876 26.341 22.741 25.329C21.858 24.541 21.261 23.568 21.088 23.27C20.915 22.973 21.069 22.812 21.218 22.664C21.352 22.531 21.515 22.317 21.664 22.144C21.813 21.97 21.862 21.846 21.961 21.647C22.061 21.449 22.011 21.276 21.936 21.127C21.862 20.978 21.268 19.515 21.02 18.92C20.779 18.341 20.534 18.42 20.352 18.41C20.178 18.402 19.98 18.4 19.782 18.4C19.584 18.4 19.262 18.474 18.99 18.772C18.717 19.069 17.95 19.788 17.95 21.251C17.95 22.713 19.014 24.126 19.163 24.325C19.312 24.523 21.258 27.525 24.239 28.812C24.949 29.118 25.502 29.301 25.933 29.437C26.645 29.664 27.293 29.632 27.805 29.555C28.375 29.47 29.563 28.836 29.811 28.142C30.058 27.448 30.058 26.853 29.984 26.729C29.91 26.605 29.712 26.531 29.414 26.382H29.415ZM23.993 33.785H23.989C22.2184 33.7854 20.4804 33.3094 18.957 32.407L18.597 32.193L14.855 33.175L15.854 29.527L15.619 29.153C14.6291 27.5774 14.1053 25.7538 14.108 23.893C14.11 18.443 18.544 14.009 23.997 14.009C26.637 14.009 29.119 15.039 30.985 16.907C31.9054 17.8236 32.6349 18.9136 33.1313 20.1139C33.6277 21.3143 33.8811 22.6011 33.877 23.9C33.875 29.35 29.441 33.785 23.993 33.785ZM32.405 15.488C31.3032 14.379 29.9922 13.4996 28.5481 12.9008C27.1039 12.3021 25.5553 11.9959 23.992 12C17.438 12 12.102 17.335 12.1 23.892C12.097 25.9788 12.6444 28.0294 13.687 29.837L12 36L18.304 34.346C20.0479 35.2962 22.0021 35.794 23.988 35.794H23.993C30.547 35.794 35.883 30.459 35.885 23.901C35.8898 22.3383 35.5848 20.7901 34.9874 19.3461C34.3901 17.902 33.5124 16.5907 32.405 15.488Z" fill="white"/>
</g>
<defs>
<clipPath id="clip0_316_14020">
<rect width="24" height="24" fill="white" transform="translate(12 12)"/>
</clipPath>
</defs>
</svg>
