<svg width="162" height="167" viewBox="0 0 162 167" fill="none" xmlns="http://www.w3.org/2000/svg">
<path d="M10.008 10.58H3.096L1.62 14H0.468L6.048 1.184H7.056L12.618 14H11.466L10.008 10.58ZM9.576 9.608L6.552 2.534L3.51 9.608H9.576ZM22.2221 0.751999V14H21.1241V12.272C20.8601 12.872 20.4581 13.334 19.9181 13.658C19.3901 13.97 18.7541 14.126 18.0101 14.126C17.2181 14.126 16.5161 13.934 15.9041 13.55C15.3041 13.154 14.8361 12.602 14.5001 11.894C14.1641 11.174 13.9961 10.346 13.9961 9.41C13.9961 8.474 14.1581 7.658 14.4821 6.962C14.8181 6.254 15.2861 5.714 15.8861 5.342C16.4981 4.958 17.2061 4.766 18.0101 4.766C18.7421 4.766 19.3721 4.922 19.9001 5.234C20.4401 5.546 20.8481 6.002 21.1241 6.602V0.751999H22.2221ZM18.1541 13.154C19.1021 13.154 19.8341 12.83 20.3501 12.182C20.8661 11.534 21.1241 10.622 21.1241 9.446C21.1241 8.27 20.8661 7.358 20.3501 6.71C19.8341 6.05 19.1081 5.72 18.1721 5.72C17.2121 5.72 16.4681 6.044 15.9401 6.692C15.4121 7.34 15.1481 8.246 15.1481 9.41C15.1481 10.586 15.4121 11.504 15.9401 12.164C16.4681 12.824 17.2061 13.154 18.1541 13.154ZM32.8569 4.982L28.9869 14H27.8529L24.0369 4.982H25.2069L28.4649 12.902L31.7409 4.982H32.8569ZM35.152 9.356V9.41C35.152 10.622 35.428 11.552 35.98 12.2C36.544 12.836 37.36 13.154 38.428 13.154C39.508 13.154 40.498 12.782 41.398 12.038L41.83 12.902C41.434 13.274 40.93 13.574 40.318 13.802C39.706 14.018 39.076 14.126 38.428 14.126C37.06 14.126 35.98 13.712 35.188 12.884C34.396 12.056 34 10.916 34 9.464C34 8.54 34.174 7.724 34.522 7.016C34.882 6.296 35.38 5.744 36.016 5.36C36.652 4.964 37.384 4.766 38.212 4.766C39.4 4.766 40.324 5.15 40.984 5.918C41.656 6.686 41.992 7.754 41.992 9.122V9.356H35.152ZM38.212 5.666C37.384 5.666 36.712 5.918 36.196 6.422C35.68 6.914 35.356 7.61 35.224 8.51H40.948C40.876 7.586 40.606 6.884 40.138 6.404C39.67 5.912 39.028 5.666 38.212 5.666ZM48.5435 4.766C50.7155 4.766 51.8015 5.93 51.8015 8.258V14H50.7035V8.33C50.7035 7.43 50.5175 6.77 50.1455 6.35C49.7855 5.93 49.2155 5.72 48.4355 5.72C47.5355 5.72 46.8095 5.996 46.2575 6.548C45.7055 7.1 45.4295 7.844 45.4295 8.78V14H44.3495V7.484C44.3495 6.548 44.3015 5.714 44.2055 4.982H45.2495L45.3935 6.638C45.6695 6.026 46.0835 5.564 46.6355 5.252C47.1875 4.928 47.8235 4.766 48.5435 4.766ZM56.2857 5.864V11.228C56.2857 11.948 56.4237 12.446 56.6997 12.722C56.9757 12.998 57.3837 13.136 57.9237 13.136C58.2597 13.136 58.5837 13.082 58.8957 12.974V13.964C58.5117 14.06 58.1217 14.108 57.7257 14.108C56.9337 14.108 56.3097 13.886 55.8537 13.442C55.4097 12.998 55.1877 12.332 55.1877 11.444V5.864H53.4057V4.982H55.1877V2.588L56.2857 2.174V4.982H58.9497V5.864H56.2857ZM68.0742 4.982V14H67.0122V12.362C66.7242 12.938 66.3162 13.376 65.7882 13.676C65.2602 13.976 64.6542 14.126 63.9702 14.126C62.9142 14.126 62.1162 13.832 61.5762 13.244C61.0362 12.656 60.7662 11.786 60.7662 10.634V4.982H61.8462V10.562C61.8462 11.45 62.0262 12.104 62.3862 12.524C62.7462 12.944 63.3042 13.154 64.0602 13.154C64.9482 13.154 65.6562 12.878 66.1842 12.326C66.7122 11.762 66.9762 11.018 66.9762 10.094V4.982H68.0742ZM74.9562 4.766C75.2562 4.766 75.5202 4.79 75.7482 4.838L75.6942 5.828C75.4662 5.78 75.1902 5.756 74.8662 5.756C73.9542 5.756 73.2702 6.05 72.8142 6.638C72.3702 7.214 72.1482 7.904 72.1482 8.708V14H71.0682V7.484C71.0682 6.548 71.0202 5.714 70.9242 4.982H71.9682L72.1122 6.656C72.3402 6.044 72.7062 5.576 73.2102 5.252C73.7262 4.928 74.3082 4.766 74.9562 4.766ZM77.7438 9.356V9.41C77.7438 10.622 78.0198 11.552 78.5718 12.2C79.1358 12.836 79.9518 13.154 81.0198 13.154C82.0998 13.154 83.0898 12.782 83.9898 12.038L84.4218 12.902C84.0258 13.274 83.5218 13.574 82.9098 13.802C82.2978 14.018 81.6678 14.126 81.0198 14.126C79.6518 14.126 78.5718 13.712 77.7798 12.884C76.9878 12.056 76.5918 10.916 76.5918 9.464C76.5918 8.54 76.7658 7.724 77.1138 7.016C77.4738 6.296 77.9718 5.744 78.6078 5.36C79.2438 4.964 79.9758 4.766 80.8038 4.766C81.9918 4.766 82.9158 5.15 83.5758 5.918C84.2478 6.686 84.5838 7.754 84.5838 9.122V9.356H77.7438ZM80.8038 5.666C79.9758 5.666 79.3038 5.918 78.7878 6.422C78.2718 6.914 77.9478 7.61 77.8158 8.51H83.5398C83.4678 7.586 83.1978 6.884 82.7298 6.404C82.2618 5.912 81.6198 5.666 80.8038 5.666ZM94.8412 2.156H90.2512V1.184H100.547V2.156H95.9572V14H94.8412V2.156ZM104.769 4.766C105.069 4.766 105.333 4.79 105.561 4.838L105.507 5.828C105.279 5.78 105.003 5.756 104.679 5.756C103.767 5.756 103.083 6.05 102.627 6.638C102.183 7.214 101.961 7.904 101.961 8.708V14H100.881V7.484C100.881 6.548 100.833 5.714 100.737 4.982H101.781L101.925 6.656C102.153 6.044 102.519 5.576 103.023 5.252C103.539 4.928 104.121 4.766 104.769 4.766ZM114.63 4.982V14H113.532V12.272C113.268 12.872 112.866 13.334 112.326 13.658C111.798 13.97 111.162 14.126 110.418 14.126C109.614 14.126 108.906 13.94 108.294 13.568C107.694 13.184 107.226 12.644 106.89 11.948C106.566 11.24 106.404 10.418 106.404 9.482C106.404 8.546 106.572 7.724 106.908 7.016C107.244 6.296 107.712 5.744 108.312 5.36C108.924 4.964 109.626 4.766 110.418 4.766C111.15 4.766 111.78 4.922 112.308 5.234C112.848 5.546 113.256 6.002 113.532 6.602V4.982H114.63ZM110.58 13.154C111.516 13.154 112.242 12.83 112.758 12.182C113.274 11.534 113.532 10.622 113.532 9.446C113.532 8.258 113.274 7.34 112.758 6.692C112.242 6.044 111.51 5.72 110.562 5.72C109.614 5.72 108.876 6.056 108.348 6.728C107.82 7.388 107.556 8.306 107.556 9.482C107.556 10.646 107.82 11.552 108.348 12.2C108.876 12.836 109.62 13.154 110.58 13.154ZM125.265 4.982L121.395 14H120.261L116.445 4.982H117.615L120.873 12.902L124.149 4.982H125.265ZM127.56 9.356V9.41C127.56 10.622 127.836 11.552 128.388 12.2C128.952 12.836 129.768 13.154 130.836 13.154C131.916 13.154 132.906 12.782 133.806 12.038L134.238 12.902C133.842 13.274 133.338 13.574 132.726 13.802C132.114 14.018 131.484 14.126 130.836 14.126C129.468 14.126 128.388 13.712 127.596 12.884C126.804 12.056 126.408 10.916 126.408 9.464C126.408 8.54 126.582 7.724 126.93 7.016C127.29 6.296 127.788 5.744 128.424 5.36C129.06 4.964 129.792 4.766 130.62 4.766C131.808 4.766 132.732 5.15 133.392 5.918C134.064 6.686 134.4 7.754 134.4 9.122V9.356H127.56ZM130.62 5.666C129.792 5.666 129.12 5.918 128.604 6.422C128.088 6.914 127.764 7.61 127.632 8.51H133.356C133.284 7.586 133.014 6.884 132.546 6.404C132.078 5.912 131.436 5.666 130.62 5.666ZM136.758 0.751999H137.838V14H136.758V0.751999ZM10.008 48.58H3.096L1.62 52H0.468L6.048 39.184H7.056L12.618 52H11.466L10.008 48.58ZM9.576 47.608L6.552 40.534L3.51 47.608H9.576ZM18.4601 42.766C18.7601 42.766 19.0241 42.79 19.2521 42.838L19.1981 43.828C18.9701 43.78 18.6941 43.756 18.3701 43.756C17.4581 43.756 16.7741 44.05 16.3181 44.638C15.8741 45.214 15.6521 45.904 15.6521 46.708V52H14.5721V45.484C14.5721 44.548 14.5241 43.714 14.4281 42.982H15.4721L15.6161 44.656C15.8441 44.044 16.2101 43.576 16.7141 43.252C17.2301 42.928 17.8121 42.766 18.4601 42.766ZM23.0279 43.864V49.228C23.0279 49.948 23.1659 50.446 23.4419 50.722C23.7179 50.998 24.1259 51.136 24.6659 51.136C25.0019 51.136 25.3259 51.082 25.6379 50.974V51.964C25.2539 52.06 24.8639 52.108 24.4679 52.108C23.6759 52.108 23.0519 51.886 22.5959 51.442C22.1519 50.998 21.9299 50.332 21.9299 49.444V43.864H20.1479V42.982H21.9299V40.588L23.0279 40.174V42.982H25.6919V43.864H23.0279ZM40.6643 48.58H33.7523L32.2763 52H31.1243L36.7043 39.184H37.7123L43.2743 52H42.1223L40.6643 48.58ZM40.2323 47.608L37.2083 40.534L34.1663 47.608H40.2323ZM49.4224 42.766C51.5944 42.766 52.6804 43.93 52.6804 46.258V52H51.5824V46.33C51.5824 45.43 51.3964 44.77 51.0244 44.35C50.6644 43.93 50.0944 43.72 49.3144 43.72C48.4144 43.72 47.6884 43.996 47.1364 44.548C46.5844 45.1 46.3084 45.844 46.3084 46.78V52H45.2284V45.484C45.2284 44.548 45.1804 43.714 45.0844 42.982H46.1284L46.2724 44.638C46.5484 44.026 46.9624 43.564 47.5144 43.252C48.0664 42.928 48.7024 42.766 49.4224 42.766ZM63.2846 38.752V52H62.1866V50.272C61.9226 50.872 61.5206 51.334 60.9806 51.658C60.4526 51.97 59.8166 52.126 59.0726 52.126C58.2806 52.126 57.5786 51.934 56.9666 51.55C56.3666 51.154 55.8986 50.602 55.5626 49.894C55.2266 49.174 55.0586 48.346 55.0586 47.41C55.0586 46.474 55.2206 45.658 55.5446 44.962C55.8806 44.254 56.3486 43.714 56.9486 43.342C57.5606 42.958 58.2686 42.766 59.0726 42.766C59.8046 42.766 60.4346 42.922 60.9626 43.234C61.5026 43.546 61.9106 44.002 62.1866 44.602V38.752H63.2846ZM59.2166 51.154C60.1646 51.154 60.8966 50.83 61.4126 50.182C61.9286 49.534 62.1866 48.622 62.1866 47.446C62.1866 46.27 61.9286 45.358 61.4126 44.71C60.8966 44.05 60.1706 43.72 59.2346 43.72C58.2746 43.72 57.5306 44.044 57.0026 44.692C56.4746 45.34 56.2106 46.246 56.2106 47.41C56.2106 48.586 56.4746 49.504 57.0026 50.164C57.5306 50.824 58.2686 51.154 59.2166 51.154ZM76.3473 52.144C75.1593 52.144 74.1273 51.886 73.2513 51.37C72.3753 50.842 71.7033 50.086 71.2353 49.102C70.7673 48.106 70.5333 46.93 70.5333 45.574C70.5333 44.23 70.7673 43.066 71.2353 42.082C71.7033 41.098 72.3753 40.348 73.2513 39.832C74.1273 39.304 75.1593 39.04 76.3473 39.04C77.2353 39.04 78.0453 39.184 78.7773 39.472C79.5213 39.748 80.1633 40.162 80.7033 40.714L80.2353 41.596C79.6233 41.044 79.0113 40.648 78.3993 40.408C77.7873 40.156 77.1033 40.03 76.3473 40.03C74.8713 40.03 73.7253 40.516 72.9093 41.488C72.0933 42.448 71.6853 43.81 71.6853 45.574C71.6853 47.35 72.0873 48.724 72.8913 49.696C73.7073 50.668 74.8593 51.154 76.3473 51.154C77.1033 51.154 77.7873 51.034 78.3993 50.794C79.0113 50.542 79.6233 50.14 80.2353 49.588L80.7033 50.47C80.1633 51.022 79.5213 51.442 78.7773 51.73C78.0453 52.006 77.2353 52.144 76.3473 52.144ZM90.2402 42.982V52H89.1782V50.362C88.8902 50.938 88.4822 51.376 87.9542 51.676C87.4262 51.976 86.8202 52.126 86.1362 52.126C85.0802 52.126 84.2822 51.832 83.7422 51.244C83.2022 50.656 82.9322 49.786 82.9322 48.634V42.982H84.0122V48.562C84.0122 49.45 84.1922 50.104 84.5522 50.524C84.9122 50.944 85.4702 51.154 86.2262 51.154C87.1142 51.154 87.8222 50.878 88.3502 50.326C88.8782 49.762 89.1422 49.018 89.1422 48.094V42.982H90.2402ZM93.2342 38.752H94.3142V52H93.2342V38.752ZM98.8599 43.864V49.228C98.8599 49.948 98.9979 50.446 99.2739 50.722C99.5499 50.998 99.9579 51.136 100.498 51.136C100.834 51.136 101.158 51.082 101.47 50.974V51.964C101.086 52.06 100.696 52.108 100.3 52.108C99.5079 52.108 98.8839 51.886 98.4279 51.442C97.9839 50.998 97.7619 50.332 97.7619 49.444V43.864H95.9799V42.982H97.7619V40.588L98.8599 40.174V42.982H101.524V43.864H98.8599ZM110.648 42.982V52H109.586V50.362C109.298 50.938 108.89 51.376 108.362 51.676C107.834 51.976 107.228 52.126 106.544 52.126C105.488 52.126 104.69 51.832 104.15 51.244C103.61 50.656 103.34 49.786 103.34 48.634V42.982H104.42V48.562C104.42 49.45 104.6 50.104 104.96 50.524C105.32 50.944 105.878 51.154 106.634 51.154C107.522 51.154 108.23 50.878 108.758 50.326C109.286 49.762 109.55 49.018 109.55 48.094V42.982H110.648ZM117.53 42.766C117.83 42.766 118.094 42.79 118.322 42.838L118.268 43.828C118.04 43.78 117.764 43.756 117.44 43.756C116.528 43.756 115.844 44.05 115.388 44.638C114.944 45.214 114.722 45.904 114.722 46.708V52H113.642V45.484C113.642 44.548 113.594 43.714 113.498 42.982H114.542L114.686 44.656C114.914 44.044 115.28 43.576 115.784 43.252C116.3 42.928 116.882 42.766 117.53 42.766ZM120.318 47.356V47.41C120.318 48.622 120.594 49.552 121.146 50.2C121.71 50.836 122.526 51.154 123.594 51.154C124.674 51.154 125.664 50.782 126.564 50.038L126.996 50.902C126.6 51.274 126.096 51.574 125.484 51.802C124.872 52.018 124.242 52.126 123.594 52.126C122.226 52.126 121.146 51.712 120.354 50.884C119.562 50.056 119.166 48.916 119.166 47.464C119.166 46.54 119.34 45.724 119.688 45.016C120.048 44.296 120.546 43.744 121.182 43.36C121.818 42.964 122.55 42.766 123.378 42.766C124.566 42.766 125.49 43.15 126.15 43.918C126.822 44.686 127.158 45.754 127.158 47.122V47.356H120.318ZM123.378 43.666C122.55 43.666 121.878 43.918 121.362 44.422C120.846 44.914 120.522 45.61 120.39 46.51H126.114C126.042 45.586 125.772 44.884 125.304 44.404C124.836 43.912 124.194 43.666 123.378 43.666ZM19.26 77.184L14.796 90H13.824L9.972 78.966L6.102 90H5.148L0.684 77.184H1.8L5.652 88.452L9.54 77.184L10.422 77.202L14.292 88.416L18.144 77.184H19.26ZM21.4276 80.982H22.5076V90H21.4276V80.982ZM22.7236 77.256V78.66H21.2656V77.256H22.7236ZM25.5233 76.752H26.6033V90H25.5233V76.752ZM37.269 76.752V90H36.171V88.272C35.907 88.872 35.505 89.334 34.965 89.658C34.437 89.97 33.801 90.126 33.057 90.126C32.265 90.126 31.563 89.934 30.951 89.55C30.351 89.154 29.883 88.602 29.547 87.894C29.211 87.174 29.043 86.346 29.043 85.41C29.043 84.474 29.205 83.658 29.529 82.962C29.865 82.254 30.333 81.714 30.933 81.342C31.545 80.958 32.253 80.766 33.057 80.766C33.789 80.766 34.419 80.922 34.947 81.234C35.487 81.546 35.895 82.002 36.171 82.602V76.752H37.269ZM33.201 89.154C34.149 89.154 34.881 88.83 35.397 88.182C35.913 87.534 36.171 86.622 36.171 85.446C36.171 84.27 35.913 83.358 35.397 82.71C34.881 82.05 34.155 81.72 33.219 81.72C32.259 81.72 31.515 82.044 30.987 82.692C30.459 83.34 30.195 84.246 30.195 85.41C30.195 86.586 30.459 87.504 30.987 88.164C31.515 88.824 32.253 89.154 33.201 89.154ZM40.2538 76.752H41.3338V90H40.2538V76.752ZM44.3495 80.982H45.4295V90H44.3495V80.982ZM45.6455 77.256V78.66H44.1875V77.256H45.6455ZM51.5592 77.67C51.0432 77.67 50.6472 77.808 50.3712 78.084C50.0952 78.36 49.9572 78.852 49.9572 79.56V80.982H52.2792V81.864H49.9572V90H48.8592V81.864H47.0952V80.982H48.8592V79.362C48.8592 78.462 49.0812 77.79 49.5252 77.346C49.9692 76.902 50.5812 76.68 51.3612 76.68C51.7212 76.68 52.0932 76.728 52.4772 76.824V77.814C52.1532 77.718 51.8472 77.67 51.5592 77.67ZM54.7692 85.356V85.41C54.7692 86.622 55.0452 87.552 55.5972 88.2C56.1612 88.836 56.9772 89.154 58.0452 89.154C59.1252 89.154 60.1152 88.782 61.0152 88.038L61.4472 88.902C61.0512 89.274 60.5472 89.574 59.9352 89.802C59.3232 90.018 58.6932 90.126 58.0452 90.126C56.6772 90.126 55.5972 89.712 54.8052 88.884C54.0132 88.056 53.6172 86.916 53.6172 85.464C53.6172 84.54 53.7912 83.724 54.1392 83.016C54.4992 82.296 54.9972 81.744 55.6332 81.36C56.2692 80.964 57.0012 80.766 57.8292 80.766C59.0172 80.766 59.9412 81.15 60.6012 81.918C61.2732 82.686 61.6092 83.754 61.6092 85.122V85.356H54.7692ZM57.8292 81.666C57.0012 81.666 56.3292 81.918 55.8132 82.422C55.2972 82.914 54.9732 83.61 54.8412 84.51H60.5652C60.4932 83.586 60.2232 82.884 59.7552 82.404C59.2872 81.912 58.6452 81.666 57.8292 81.666ZM77.0685 86.58H70.1565L68.6805 90H67.5285L73.1085 77.184H74.1165L79.6785 90H78.5265L77.0685 86.58ZM76.6365 85.608L73.6125 78.534L70.5705 85.608H76.6365ZM85.8267 80.766C87.9987 80.766 89.0847 81.93 89.0847 84.258V90H87.9867V84.33C87.9867 83.43 87.8007 82.77 87.4287 82.35C87.0687 81.93 86.4987 81.72 85.7187 81.72C84.8187 81.72 84.0927 81.996 83.5407 82.548C82.9887 83.1 82.7127 83.844 82.7127 84.78V90H81.6327V83.484C81.6327 82.548 81.5847 81.714 81.4887 80.982H82.5327L82.6767 82.638C82.9527 82.026 83.3667 81.564 83.9187 81.252C84.4707 80.928 85.1067 80.766 85.8267 80.766ZM99.6889 76.752V90H98.5909V88.272C98.3269 88.872 97.9249 89.334 97.3849 89.658C96.8569 89.97 96.2209 90.126 95.4769 90.126C94.6849 90.126 93.9829 89.934 93.3709 89.55C92.7709 89.154 92.3029 88.602 91.9669 87.894C91.6309 87.174 91.4629 86.346 91.4629 85.41C91.4629 84.474 91.6249 83.658 91.9489 82.962C92.2849 82.254 92.7529 81.714 93.3529 81.342C93.9649 80.958 94.6729 80.766 95.4769 80.766C96.2089 80.766 96.8389 80.922 97.3669 81.234C97.9069 81.546 98.3149 82.002 98.5909 82.602V76.752H99.6889ZM95.6209 89.154C96.5689 89.154 97.3009 88.83 97.8169 88.182C98.3329 87.534 98.5909 86.622 98.5909 85.446C98.5909 84.27 98.3329 83.358 97.8169 82.71C97.3009 82.05 96.5749 81.72 95.6389 81.72C94.6789 81.72 93.9349 82.044 93.4069 82.692C92.8789 83.34 92.6149 84.246 92.6149 85.41C92.6149 86.586 92.8789 87.504 93.4069 88.164C93.9349 88.824 94.6729 89.154 95.6209 89.154ZM117.468 77.184V90H116.604L108.468 79.074V90H107.424V77.184H108.306L116.424 88.11V77.184H117.468ZM128.271 80.982V90H127.173V88.272C126.909 88.872 126.507 89.334 125.967 89.658C125.439 89.97 124.803 90.126 124.059 90.126C123.255 90.126 122.547 89.94 121.935 89.568C121.335 89.184 120.867 88.644 120.531 87.948C120.207 87.24 120.045 86.418 120.045 85.482C120.045 84.546 120.213 83.724 120.549 83.016C120.885 82.296 121.353 81.744 121.953 81.36C122.565 80.964 123.267 80.766 124.059 80.766C124.791 80.766 125.421 80.922 125.949 81.234C126.489 81.546 126.897 82.002 127.173 82.602V80.982H128.271ZM124.221 89.154C125.157 89.154 125.883 88.83 126.399 88.182C126.915 87.534 127.173 86.622 127.173 85.446C127.173 84.258 126.915 83.34 126.399 82.692C125.883 82.044 125.151 81.72 124.203 81.72C123.255 81.72 122.517 82.056 121.989 82.728C121.461 83.388 121.197 84.306 121.197 85.482C121.197 86.646 121.461 87.552 121.989 88.2C122.517 88.836 123.261 89.154 124.221 89.154ZM132.786 81.864V87.228C132.786 87.948 132.924 88.446 133.2 88.722C133.476 88.998 133.884 89.136 134.424 89.136C134.76 89.136 135.084 89.082 135.396 88.974V89.964C135.012 90.06 134.622 90.108 134.226 90.108C133.434 90.108 132.81 89.886 132.354 89.442C131.91 88.998 131.688 88.332 131.688 87.444V81.864H129.906V80.982H131.688V78.588L132.786 78.174V80.982H135.45V81.864H132.786ZM144.574 80.982V90H143.512V88.362C143.224 88.938 142.816 89.376 142.288 89.676C141.76 89.976 141.154 90.126 140.47 90.126C139.414 90.126 138.616 89.832 138.076 89.244C137.536 88.656 137.266 87.786 137.266 86.634V80.982H138.346V86.562C138.346 87.45 138.526 88.104 138.886 88.524C139.246 88.944 139.804 89.154 140.56 89.154C141.448 89.154 142.156 88.878 142.684 88.326C143.212 87.762 143.476 87.018 143.476 86.094V80.982H144.574ZM151.456 80.766C151.756 80.766 152.02 80.79 152.248 80.838L152.194 81.828C151.966 81.78 151.69 81.756 151.366 81.756C150.454 81.756 149.77 82.05 149.314 82.638C148.87 83.214 148.648 83.904 148.648 84.708V90H147.568V83.484C147.568 82.548 147.52 81.714 147.424 80.982H148.468L148.612 82.656C148.84 82.044 149.206 81.576 149.71 81.252C150.226 80.928 150.808 80.766 151.456 80.766ZM154.244 85.356V85.41C154.244 86.622 154.52 87.552 155.072 88.2C155.636 88.836 156.452 89.154 157.52 89.154C158.6 89.154 159.59 88.782 160.49 88.038L160.922 88.902C160.526 89.274 160.022 89.574 159.41 89.802C158.798 90.018 158.168 90.126 157.52 90.126C156.152 90.126 155.072 89.712 154.28 88.884C153.488 88.056 153.092 86.916 153.092 85.464C153.092 84.54 153.266 83.724 153.614 83.016C153.974 82.296 154.472 81.744 155.108 81.36C155.744 80.964 156.476 80.766 157.304 80.766C158.492 80.766 159.416 81.15 160.076 81.918C160.748 82.686 161.084 83.754 161.084 85.122V85.356H154.244ZM157.304 81.666C156.476 81.666 155.804 81.918 155.288 82.422C154.772 82.914 154.448 83.61 154.316 84.51H160.04C159.968 83.586 159.698 82.884 159.23 82.404C158.762 81.912 158.12 81.666 157.304 81.666ZM1.656 115.184H9.378V116.138H2.772V120.998H9.018V121.988H2.772V128H1.656V115.184ZM19.0053 118.982V128H17.9073V126.272C17.6433 126.872 17.2413 127.334 16.7013 127.658C16.1733 127.97 15.5373 128.126 14.7933 128.126C13.9893 128.126 13.2813 127.94 12.6693 127.568C12.0693 127.184 11.6013 126.644 11.2653 125.948C10.9413 125.24 10.7793 124.418 10.7793 123.482C10.7793 122.546 10.9473 121.724 11.2833 121.016C11.6193 120.296 12.0873 119.744 12.6873 119.36C13.2993 118.964 14.0013 118.766 14.7933 118.766C15.5253 118.766 16.1553 118.922 16.6833 119.234C17.2233 119.546 17.6313 120.002 17.9073 120.602V118.982H19.0053ZM14.9553 127.154C15.8913 127.154 16.6173 126.83 17.1333 126.182C17.6493 125.534 17.9073 124.622 17.9073 123.446C17.9073 122.258 17.6493 121.34 17.1333 120.692C16.6173 120.044 15.8853 119.72 14.9373 119.72C13.9893 119.72 13.2513 120.056 12.7233 120.728C12.1953 121.388 11.9313 122.306 11.9313 123.482C11.9313 124.646 12.1953 125.552 12.7233 126.2C13.2513 126.836 13.9953 127.154 14.9553 127.154ZM31.7101 118.766C33.7021 118.766 34.6981 119.93 34.6981 122.258V128H33.6001V122.33C33.6001 121.418 33.4381 120.758 33.1141 120.35C32.7901 119.93 32.2741 119.72 31.5661 119.72C30.7381 119.72 30.0841 119.996 29.6041 120.548C29.1361 121.1 28.9021 121.85 28.9021 122.798V128H27.8041V122.33C27.8041 121.418 27.6361 120.758 27.3001 120.35C26.9761 119.93 26.4601 119.72 25.7521 119.72C24.9361 119.72 24.2821 119.996 23.7901 120.548C23.3101 121.1 23.0701 121.85 23.0701 122.798V128H21.9901V121.484C21.9901 120.548 21.9421 119.714 21.8461 118.982H22.8901L23.0341 120.602C23.2861 120.002 23.6581 119.546 24.1501 119.234C24.6541 118.922 25.2361 118.766 25.8961 118.766C27.3481 118.766 28.2781 119.354 28.6861 120.53C28.9381 119.978 29.3281 119.546 29.8561 119.234C30.3961 118.922 31.0141 118.766 31.7101 118.766ZM37.6346 118.982H38.7146V128H37.6346V118.982ZM38.9306 115.256V116.66H37.4726V115.256H38.9306ZM41.7303 114.752H42.8103V128H41.7303V114.752ZM53.476 118.982L49.228 128.936C48.808 129.92 48.28 130.64 47.644 131.096C47.02 131.564 46.234 131.894 45.286 132.086L45.07 131.222C45.934 131.018 46.582 130.754 47.014 130.43C47.458 130.106 47.83 129.596 48.13 128.9L48.508 128.018L44.656 118.982H45.826L49.084 126.902L52.36 118.982H53.476ZM70.437 115.184V128H69.321V121.988H61.149V128H60.033V115.184H61.149V120.998H69.321V115.184H70.437ZM77.1639 128.126C76.3359 128.126 75.6039 127.934 74.9679 127.55C74.3439 127.166 73.8579 126.62 73.5099 125.912C73.1739 125.204 73.0059 124.382 73.0059 123.446C73.0059 122.51 73.1739 121.688 73.5099 120.98C73.8579 120.272 74.3439 119.726 74.9679 119.342C75.6039 118.958 76.3359 118.766 77.1639 118.766C77.9799 118.766 78.6999 118.958 79.3239 119.342C79.9479 119.726 80.4279 120.272 80.7639 120.98C81.1119 121.688 81.2859 122.51 81.2859 123.446C81.2859 124.382 81.1119 125.204 80.7639 125.912C80.4279 126.62 79.9479 127.166 79.3239 127.55C78.6999 127.934 77.9799 128.126 77.1639 128.126ZM77.1459 127.154C78.1059 127.154 78.8439 126.836 79.3599 126.2C79.8879 125.552 80.1519 124.634 80.1519 123.446C80.1519 122.27 79.8879 121.358 79.3599 120.71C78.8319 120.05 78.0999 119.72 77.1639 119.72C76.2159 119.72 75.4779 120.05 74.9499 120.71C74.4219 121.358 74.1579 122.27 74.1579 123.446C74.1579 124.646 74.4159 125.564 74.9319 126.2C75.4479 126.836 76.1859 127.154 77.1459 127.154ZM83.6893 114.752H84.7693V128H83.6893V114.752ZM87.785 118.982H88.865V128H87.785V118.982ZM89.081 115.256V116.66H87.623V115.256H89.081ZM99.5307 114.752V128H98.4327V126.272C98.1687 126.872 97.7667 127.334 97.2267 127.658C96.6987 127.97 96.0627 128.126 95.3187 128.126C94.5267 128.126 93.8247 127.934 93.2127 127.55C92.6127 127.154 92.1447 126.602 91.8087 125.894C91.4727 125.174 91.3047 124.346 91.3047 123.41C91.3047 122.474 91.4667 121.658 91.7907 120.962C92.1267 120.254 92.5947 119.714 93.1947 119.342C93.8067 118.958 94.5147 118.766 95.3187 118.766C96.0507 118.766 96.6807 118.922 97.2087 119.234C97.7487 119.546 98.1567 120.002 98.4327 120.602V114.752H99.5307ZM95.4627 127.154C96.4107 127.154 97.1427 126.83 97.6587 126.182C98.1747 125.534 98.4327 124.622 98.4327 123.446C98.4327 122.27 98.1747 121.358 97.6587 120.71C97.1427 120.05 96.4167 119.72 95.4807 119.72C94.5207 119.72 93.7767 120.044 93.2487 120.692C92.7207 121.34 92.4567 122.246 92.4567 123.41C92.4567 124.586 92.7207 125.504 93.2487 126.164C93.7767 126.824 94.5147 127.154 95.4627 127.154ZM110.165 118.982V128H109.067V126.272C108.803 126.872 108.401 127.334 107.861 127.658C107.333 127.97 106.697 128.126 105.953 128.126C105.149 128.126 104.441 127.94 103.829 127.568C103.229 127.184 102.761 126.644 102.425 125.948C102.101 125.24 101.939 124.418 101.939 123.482C101.939 122.546 102.107 121.724 102.443 121.016C102.779 120.296 103.247 119.744 103.847 119.36C104.459 118.964 105.161 118.766 105.953 118.766C106.685 118.766 107.315 118.922 107.843 119.234C108.383 119.546 108.791 120.002 109.067 120.602V118.982H110.165ZM106.115 127.154C107.051 127.154 107.777 126.83 108.293 126.182C108.809 125.534 109.067 124.622 109.067 123.446C109.067 122.258 108.809 121.34 108.293 120.692C107.777 120.044 107.045 119.72 106.097 119.72C105.149 119.72 104.411 120.056 103.883 120.728C103.355 121.388 103.091 122.306 103.091 123.482C103.091 124.646 103.355 125.552 103.883 126.2C104.411 126.836 105.155 127.154 106.115 127.154ZM120.8 118.982L116.552 128.936C116.132 129.92 115.604 130.64 114.968 131.096C114.344 131.564 113.558 131.894 112.61 132.086L112.394 131.222C113.258 131.018 113.906 130.754 114.338 130.43C114.782 130.106 115.154 129.596 115.454 128.9L115.832 128.018L111.98 118.982H113.15L116.408 126.902L119.684 118.982H120.8ZM125.366 128.126C123.902 128.126 122.744 127.724 121.892 126.92L122.288 126.074C122.768 126.47 123.248 126.752 123.728 126.92C124.22 127.088 124.784 127.172 125.42 127.172C126.164 127.172 126.728 127.046 127.112 126.794C127.508 126.53 127.706 126.152 127.706 125.66C127.706 125.252 127.574 124.934 127.31 124.706C127.058 124.466 126.638 124.274 126.05 124.13L124.52 123.788C123.8 123.62 123.23 123.32 122.81 122.888C122.402 122.456 122.198 121.952 122.198 121.376C122.198 120.584 122.498 119.954 123.098 119.486C123.71 119.006 124.52 118.766 125.528 118.766C126.164 118.766 126.752 118.868 127.292 119.072C127.844 119.276 128.3 119.57 128.66 119.954L128.246 120.8C127.418 120.08 126.512 119.72 125.528 119.72C124.832 119.72 124.292 119.858 123.908 120.134C123.524 120.41 123.332 120.794 123.332 121.286C123.332 121.694 123.452 122.024 123.692 122.276C123.944 122.528 124.328 122.714 124.844 122.834L126.392 123.212C128.012 123.572 128.822 124.37 128.822 125.606C128.822 126.362 128.51 126.974 127.886 127.442C127.262 127.898 126.422 128.126 125.366 128.126ZM1.656 153.184H9.378V154.138H2.772V158.998H9.018V159.988H2.772V166H1.656V153.184ZM14.9373 166.126C14.1093 166.126 13.3773 165.934 12.7413 165.55C12.1173 165.166 11.6313 164.62 11.2833 163.912C10.9473 163.204 10.7793 162.382 10.7793 161.446C10.7793 160.51 10.9473 159.688 11.2833 158.98C11.6313 158.272 12.1173 157.726 12.7413 157.342C13.3773 156.958 14.1093 156.766 14.9373 156.766C15.7533 156.766 16.4733 156.958 17.0973 157.342C17.7213 157.726 18.2013 158.272 18.5373 158.98C18.8853 159.688 19.0593 160.51 19.0593 161.446C19.0593 162.382 18.8853 163.204 18.5373 163.912C18.2013 164.62 17.7213 165.166 17.0973 165.55C16.4733 165.934 15.7533 166.126 14.9373 166.126ZM14.9193 165.154C15.8793 165.154 16.6173 164.836 17.1333 164.2C17.6613 163.552 17.9253 162.634 17.9253 161.446C17.9253 160.27 17.6613 159.358 17.1333 158.71C16.6053 158.05 15.8733 157.72 14.9373 157.72C13.9893 157.72 13.2513 158.05 12.7233 158.71C12.1953 159.358 11.9313 160.27 11.9313 161.446C11.9313 162.646 12.1893 163.564 12.7053 164.2C13.2213 164.836 13.9593 165.154 14.9193 165.154ZM25.0448 166.126C24.2168 166.126 23.4848 165.934 22.8488 165.55C22.2248 165.166 21.7388 164.62 21.3908 163.912C21.0548 163.204 20.8868 162.382 20.8868 161.446C20.8868 160.51 21.0548 159.688 21.3908 158.98C21.7388 158.272 22.2248 157.726 22.8488 157.342C23.4848 156.958 24.2168 156.766 25.0448 156.766C25.8608 156.766 26.5808 156.958 27.2048 157.342C27.8288 157.726 28.3088 158.272 28.6448 158.98C28.9928 159.688 29.1668 160.51 29.1668 161.446C29.1668 162.382 28.9928 163.204 28.6448 163.912C28.3088 164.62 27.8288 165.166 27.2048 165.55C26.5808 165.934 25.8608 166.126 25.0448 166.126ZM25.0268 165.154C25.9868 165.154 26.7248 164.836 27.2408 164.2C27.7688 163.552 28.0328 162.634 28.0328 161.446C28.0328 160.27 27.7688 159.358 27.2408 158.71C26.7128 158.05 25.9808 157.72 25.0448 157.72C24.0968 157.72 23.3588 158.05 22.8308 158.71C22.3028 159.358 22.0388 160.27 22.0388 161.446C22.0388 162.646 22.2968 163.564 22.8128 164.2C23.3288 164.836 24.0668 165.154 25.0268 165.154ZM39.2202 152.752V166H38.1222V164.272C37.8582 164.872 37.4562 165.334 36.9162 165.658C36.3882 165.97 35.7522 166.126 35.0082 166.126C34.2162 166.126 33.5142 165.934 32.9022 165.55C32.3022 165.154 31.8342 164.602 31.4982 163.894C31.1622 163.174 30.9942 162.346 30.9942 161.41C30.9942 160.474 31.1562 159.658 31.4802 158.962C31.8162 158.254 32.2842 157.714 32.8842 157.342C33.4962 156.958 34.2042 156.766 35.0082 156.766C35.7402 156.766 36.3702 156.922 36.8982 157.234C37.4382 157.546 37.8462 158.002 38.1222 158.602V152.752H39.2202ZM35.1522 165.154C36.1002 165.154 36.8322 164.83 37.3482 164.182C37.8642 163.534 38.1222 162.622 38.1222 161.446C38.1222 160.27 37.8642 159.358 37.3482 158.71C36.8322 158.05 36.1062 157.72 35.1702 157.72C34.2102 157.72 33.4662 158.044 32.9382 158.692C32.4102 159.34 32.1462 160.246 32.1462 161.41C32.1462 162.586 32.4102 163.504 32.9382 164.164C33.4662 164.824 34.2042 165.154 35.1522 165.154ZM55.3068 162.58H48.3948L46.9188 166H45.7668L51.3468 153.184H52.3548L57.9168 166H56.7648L55.3068 162.58ZM54.8748 161.608L51.8508 154.534L48.8088 161.608H54.8748ZM64.065 156.766C66.237 156.766 67.323 157.93 67.323 160.258V166H66.225V160.33C66.225 159.43 66.039 158.77 65.667 158.35C65.307 157.93 64.737 157.72 63.957 157.72C63.057 157.72 62.331 157.996 61.779 158.548C61.227 159.1 60.951 159.844 60.951 160.78V166H59.871V159.484C59.871 158.548 59.823 157.714 59.727 156.982H60.771L60.915 158.638C61.191 158.026 61.605 157.564 62.157 157.252C62.709 156.928 63.345 156.766 64.065 156.766ZM77.9272 152.752V166H76.8292V164.272C76.5652 164.872 76.1632 165.334 75.6232 165.658C75.0952 165.97 74.4592 166.126 73.7152 166.126C72.9232 166.126 72.2212 165.934 71.6092 165.55C71.0092 165.154 70.5412 164.602 70.2052 163.894C69.8692 163.174 69.7012 162.346 69.7012 161.41C69.7012 160.474 69.8632 159.658 70.1872 158.962C70.5232 158.254 70.9912 157.714 71.5912 157.342C72.2032 156.958 72.9112 156.766 73.7152 156.766C74.4472 156.766 75.0772 156.922 75.6052 157.234C76.1452 157.546 76.5532 158.002 76.8292 158.602V152.752H77.9272ZM73.8592 165.154C74.8072 165.154 75.5392 164.83 76.0552 164.182C76.5712 163.534 76.8292 162.622 76.8292 161.446C76.8292 160.27 76.5712 159.358 76.0552 158.71C75.5392 158.05 74.8132 157.72 73.8772 157.72C72.9172 157.72 72.1732 158.044 71.6452 158.692C71.1172 159.34 70.8532 160.246 70.8532 161.41C70.8532 162.586 71.1172 163.504 71.6452 164.164C72.1732 164.824 72.9112 165.154 73.8592 165.154ZM85.6619 153.184H89.7839C91.8239 153.184 93.3959 153.736 94.4999 154.84C95.6039 155.944 96.1559 157.522 96.1559 159.574C96.1559 161.626 95.5979 163.21 94.4819 164.326C93.3779 165.442 91.8119 166 89.7839 166H85.6619V153.184ZM89.7299 165.028C91.4699 165.028 92.7779 164.572 93.6539 163.66C94.5299 162.736 94.9679 161.374 94.9679 159.574C94.9679 155.962 93.2219 154.156 89.7299 154.156H86.7779V165.028H89.7299ZM102.695 156.766C102.995 156.766 103.259 156.79 103.487 156.838L103.433 157.828C103.205 157.78 102.929 157.756 102.604 157.756C101.693 157.756 101.009 158.05 100.553 158.638C100.109 159.214 99.8865 159.904 99.8865 160.708V166H98.8065V159.484C98.8065 158.548 98.7585 157.714 98.6625 156.982H99.7065L99.8505 158.656C100.079 158.044 100.445 157.576 100.949 157.252C101.465 156.928 102.047 156.766 102.695 156.766ZM105.082 156.982H106.162V166H105.082V156.982ZM106.378 153.256V154.66H104.92V153.256H106.378ZM113.372 156.766C115.544 156.766 116.63 157.93 116.63 160.258V166H115.532V160.33C115.532 159.43 115.346 158.77 114.974 158.35C114.614 157.93 114.044 157.72 113.264 157.72C112.364 157.72 111.638 157.996 111.086 158.548C110.534 159.1 110.258 159.844 110.258 160.78V166H109.178V159.484C109.178 158.548 109.13 157.714 109.034 156.982H110.078L110.222 158.638C110.498 158.026 110.912 157.564 111.464 157.252C112.016 156.928 112.652 156.766 113.372 156.766ZM125.632 166L120.664 161.608V166H119.584V152.752H120.664V161.176L125.2 156.982H126.622L121.906 161.32L127.126 166H125.632Z" fill="#848484"/>
</svg>
