<svg width="84" height="167" viewBox="0 0 84 167" fill="none" xmlns="http://www.w3.org/2000/svg">
<path d="M10.008 10.58H3.096L1.62 14H0.468L6.048 1.184H7.056L12.618 14H11.466L10.008 10.58ZM9.576 9.608L6.552 2.534L3.51 9.608H9.576ZM17.5982 1.67C17.0822 1.67 16.6862 1.808 16.4102 2.084C16.1342 2.36 15.9962 2.852 15.9962 3.56V4.982H18.3182V5.864H15.9962V14H14.8982V5.864H13.1342V4.982H14.8982V3.362C14.8982 2.462 15.1202 1.79 15.5642 1.346C16.0082 0.902 16.6202 0.68 17.4002 0.68C17.7602 0.68 18.1322 0.728 18.5162 0.823999V1.814C18.1922 1.718 17.8862 1.67 17.5982 1.67ZM24.2082 4.766C24.5082 4.766 24.7722 4.79 25.0002 4.838L24.9462 5.828C24.7182 5.78 24.4422 5.756 24.1182 5.756C23.2062 5.756 22.5222 6.05 22.0662 6.638C21.6222 7.214 21.4002 7.904 21.4002 8.708V14H20.3202V7.484C20.3202 6.548 20.2722 5.714 20.1762 4.982H21.2202L21.3642 6.656C21.5922 6.044 21.9582 5.576 22.4622 5.252C22.9782 4.928 23.5602 4.766 24.2082 4.766ZM26.5956 4.982H27.6756V14H26.5956V4.982ZM27.8916 1.256V2.66H26.4336V1.256H27.8916ZM34.3453 14.126C33.4933 14.126 32.7493 13.934 32.1133 13.55C31.4773 13.166 30.9853 12.626 30.6373 11.93C30.2893 11.222 30.1153 10.406 30.1153 9.482C30.1153 8.546 30.2893 7.724 30.6373 7.016C30.9853 6.296 31.4833 5.744 32.1313 5.36C32.7793 4.964 33.5293 4.766 34.3813 4.766C34.9933 4.766 35.5753 4.874 36.1273 5.09C36.6913 5.294 37.1533 5.582 37.5133 5.954L37.0813 6.818C36.6133 6.434 36.1633 6.158 35.7313 5.99C35.3113 5.81 34.8733 5.72 34.4173 5.72C33.4453 5.72 32.6773 6.056 32.1133 6.728C31.5493 7.388 31.2673 8.306 31.2673 9.482C31.2673 10.634 31.5433 11.534 32.0953 12.182C32.6593 12.83 33.4333 13.154 34.4173 13.154C34.8733 13.154 35.3113 13.07 35.7313 12.902C36.1633 12.722 36.6133 12.446 37.0813 12.074L37.5133 12.92C37.1293 13.292 36.6493 13.586 36.0733 13.802C35.5093 14.018 34.9333 14.126 34.3453 14.126ZM47.1655 4.982V14H46.0675V12.272C45.8035 12.872 45.4015 13.334 44.8615 13.658C44.3335 13.97 43.6975 14.126 42.9535 14.126C42.1495 14.126 41.4415 13.94 40.8295 13.568C40.2295 13.184 39.7615 12.644 39.4255 11.948C39.1015 11.24 38.9395 10.418 38.9395 9.482C38.9395 8.546 39.1075 7.724 39.4435 7.016C39.7795 6.296 40.2475 5.744 40.8475 5.36C41.4595 4.964 42.1615 4.766 42.9535 4.766C43.6855 4.766 44.3155 4.922 44.8435 5.234C45.3835 5.546 45.7915 6.002 46.0675 6.602V4.982H47.1655ZM43.1155 13.154C44.0515 13.154 44.7775 12.83 45.2935 12.182C45.8095 11.534 46.0675 10.622 46.0675 9.446C46.0675 8.258 45.8095 7.34 45.2935 6.692C44.7775 6.044 44.0455 5.72 43.0975 5.72C42.1495 5.72 41.4115 6.056 40.8835 6.728C40.3555 7.388 40.0915 8.306 40.0915 9.482C40.0915 10.646 40.3555 11.552 40.8835 12.2C41.4115 12.836 42.1555 13.154 43.1155 13.154ZM10.008 48.58H3.096L1.62 52H0.468L6.048 39.184H7.056L12.618 52H11.466L10.008 48.58ZM9.576 47.608L6.552 40.534L3.51 47.608H9.576ZM18.7661 42.766C20.9381 42.766 22.0241 43.93 22.0241 46.258V52H20.9261V46.33C20.9261 45.43 20.7401 44.77 20.3681 44.35C20.0081 43.93 19.4381 43.72 18.6581 43.72C17.7581 43.72 17.0321 43.996 16.4801 44.548C15.9281 45.1 15.6521 45.844 15.6521 46.78V52H14.5721V45.484C14.5721 44.548 14.5241 43.714 14.4281 42.982H15.4721L15.6161 44.638C15.8921 44.026 16.3061 43.564 16.8581 43.252C17.4101 42.928 18.0461 42.766 18.7661 42.766ZM26.5084 43.864V49.228C26.5084 49.948 26.6464 50.446 26.9224 50.722C27.1984 50.998 27.6064 51.136 28.1464 51.136C28.4824 51.136 28.8064 51.082 29.1184 50.974V51.964C28.7344 52.06 28.3444 52.108 27.9484 52.108C27.1564 52.108 26.5324 51.886 26.0764 51.442C25.6324 50.998 25.4104 50.332 25.4104 49.444V43.864H23.6284V42.982H25.4104V40.588L26.5084 40.174V42.982H29.1724V43.864H26.5084ZM38.6928 42.982V52H37.5948V50.272C37.3308 50.872 36.9288 51.334 36.3888 51.658C35.8608 51.97 35.2248 52.126 34.4808 52.126C33.6768 52.126 32.9688 51.94 32.3568 51.568C31.7568 51.184 31.2888 50.644 30.9528 49.948C30.6288 49.24 30.4668 48.418 30.4668 47.482C30.4668 46.546 30.6348 45.724 30.9708 45.016C31.3068 44.296 31.7748 43.744 32.3748 43.36C32.9868 42.964 33.6888 42.766 34.4808 42.766C35.2128 42.766 35.8428 42.922 36.3708 43.234C36.9108 43.546 37.3188 44.002 37.5948 44.602V42.982H38.6928ZM34.6428 51.154C35.5788 51.154 36.3048 50.83 36.8208 50.182C37.3368 49.534 37.5948 48.622 37.5948 47.446C37.5948 46.258 37.3368 45.34 36.8208 44.692C36.3048 44.044 35.5728 43.72 34.6248 43.72C33.6768 43.72 32.9388 44.056 32.4108 44.728C31.8828 45.388 31.6188 46.306 31.6188 47.482C31.6188 48.646 31.8828 49.552 32.4108 50.2C32.9388 50.836 33.6828 51.154 34.6428 51.154ZM45.5656 42.766C45.8656 42.766 46.1296 42.79 46.3576 42.838L46.3036 43.828C46.0756 43.78 45.7996 43.756 45.4756 43.756C44.5636 43.756 43.8796 44.05 43.4236 44.638C42.9796 45.214 42.7576 45.904 42.7576 46.708V52H41.6776V45.484C41.6776 44.548 41.6296 43.714 41.5336 42.982H42.5776L42.7216 44.656C42.9496 44.044 43.3156 43.576 43.8196 43.252C44.3356 42.928 44.9176 42.766 45.5656 42.766ZM51.4312 52.126C50.5792 52.126 49.8352 51.934 49.1992 51.55C48.5632 51.166 48.0712 50.626 47.7232 49.93C47.3752 49.222 47.2012 48.406 47.2012 47.482C47.2012 46.546 47.3752 45.724 47.7232 45.016C48.0712 44.296 48.5692 43.744 49.2172 43.36C49.8652 42.964 50.6152 42.766 51.4672 42.766C52.0792 42.766 52.6612 42.874 53.2132 43.09C53.7772 43.294 54.2392 43.582 54.5992 43.954L54.1672 44.818C53.6992 44.434 53.2492 44.158 52.8172 43.99C52.3972 43.81 51.9592 43.72 51.5032 43.72C50.5312 43.72 49.7632 44.056 49.1992 44.728C48.6352 45.388 48.3532 46.306 48.3532 47.482C48.3532 48.634 48.6292 49.534 49.1812 50.182C49.7452 50.83 50.5192 51.154 51.5032 51.154C51.9592 51.154 52.3972 51.07 52.8172 50.902C53.2492 50.722 53.6992 50.446 54.1672 50.074L54.5992 50.92C54.2152 51.292 53.7352 51.586 53.1592 51.802C52.5952 52.018 52.0192 52.126 51.4312 52.126ZM58.1314 43.864V49.228C58.1314 49.948 58.2694 50.446 58.5454 50.722C58.8214 50.998 59.2294 51.136 59.7694 51.136C60.1054 51.136 60.4294 51.082 60.7414 50.974V51.964C60.3574 52.06 59.9674 52.108 59.5714 52.108C58.7794 52.108 58.1554 51.886 57.6994 51.442C57.2554 50.998 57.0334 50.332 57.0334 49.444V43.864H55.2514V42.982H57.0334V40.588L58.1314 40.174V42.982H60.7954V43.864H58.1314ZM62.6659 42.982H63.7459V52H62.6659V42.982ZM63.9619 39.256V40.66H62.5039V39.256H63.9619ZM70.4156 52.126C69.5636 52.126 68.8196 51.934 68.1836 51.55C67.5476 51.166 67.0556 50.626 66.7076 49.93C66.3596 49.222 66.1856 48.406 66.1856 47.482C66.1856 46.546 66.3596 45.724 66.7076 45.016C67.0556 44.296 67.5536 43.744 68.2016 43.36C68.8496 42.964 69.5996 42.766 70.4516 42.766C71.0636 42.766 71.6456 42.874 72.1976 43.09C72.7616 43.294 73.2236 43.582 73.5836 43.954L73.1516 44.818C72.6836 44.434 72.2336 44.158 71.8016 43.99C71.3816 43.81 70.9436 43.72 70.4876 43.72C69.5156 43.72 68.7476 44.056 68.1836 44.728C67.6196 45.388 67.3376 46.306 67.3376 47.482C67.3376 48.634 67.6136 49.534 68.1656 50.182C68.7296 50.83 69.5036 51.154 70.4876 51.154C70.9436 51.154 71.3816 51.07 71.8016 50.902C72.2336 50.722 72.6836 50.446 73.1516 50.074L73.5836 50.92C73.1996 51.292 72.7196 51.586 72.1436 51.802C71.5796 52.018 71.0036 52.126 70.4156 52.126ZM83.2358 42.982V52H82.1378V50.272C81.8738 50.872 81.4718 51.334 80.9318 51.658C80.4038 51.97 79.7678 52.126 79.0238 52.126C78.2198 52.126 77.5118 51.94 76.8998 51.568C76.2998 51.184 75.8318 50.644 75.4958 49.948C75.1718 49.24 75.0098 48.418 75.0098 47.482C75.0098 46.546 75.1778 45.724 75.5138 45.016C75.8498 44.296 76.3178 43.744 76.9178 43.36C77.5298 42.964 78.2318 42.766 79.0238 42.766C79.7558 42.766 80.3858 42.922 80.9138 43.234C81.4538 43.546 81.8618 44.002 82.1378 44.602V42.982H83.2358ZM79.1858 51.154C80.1218 51.154 80.8478 50.83 81.3638 50.182C81.8798 49.534 82.1378 48.622 82.1378 47.446C82.1378 46.258 81.8798 45.34 81.3638 44.692C80.8478 44.044 80.1158 43.72 79.1678 43.72C78.2198 43.72 77.4818 44.056 76.9538 44.728C76.4258 45.388 76.1618 46.306 76.1618 47.482C76.1618 48.646 76.4258 49.552 76.9538 50.2C77.4818 50.836 78.2258 51.154 79.1858 51.154ZM10.008 86.58H3.096L1.62 90H0.468L6.048 77.184H7.056L12.618 90H11.466L10.008 86.58ZM9.576 85.608L6.552 78.534L3.51 85.608H9.576ZM17.4182 90.126C15.9542 90.126 14.7962 89.724 13.9442 88.92L14.3402 88.074C14.8202 88.47 15.3002 88.752 15.7802 88.92C16.2722 89.088 16.8362 89.172 17.4722 89.172C18.2162 89.172 18.7802 89.046 19.1642 88.794C19.5602 88.53 19.7582 88.152 19.7582 87.66C19.7582 87.252 19.6262 86.934 19.3622 86.706C19.1102 86.466 18.6902 86.274 18.1022 86.13L16.5722 85.788C15.8522 85.62 15.2822 85.32 14.8622 84.888C14.4542 84.456 14.2502 83.952 14.2502 83.376C14.2502 82.584 14.5502 81.954 15.1502 81.486C15.7622 81.006 16.5722 80.766 17.5802 80.766C18.2162 80.766 18.8042 80.868 19.3442 81.072C19.8962 81.276 20.3522 81.57 20.7122 81.954L20.2982 82.8C19.4702 82.08 18.5642 81.72 17.5802 81.72C16.8842 81.72 16.3442 81.858 15.9602 82.134C15.5762 82.41 15.3842 82.794 15.3842 83.286C15.3842 83.694 15.5042 84.024 15.7442 84.276C15.9962 84.528 16.3802 84.714 16.8962 84.834L18.4442 85.212C20.0642 85.572 20.8742 86.37 20.8742 87.606C20.8742 88.362 20.5622 88.974 19.9382 89.442C19.3142 89.898 18.4742 90.126 17.4182 90.126ZM23.3788 80.982H24.4588V90H23.3788V80.982ZM24.6748 77.256V78.66H23.2168V77.256H24.6748ZM35.1245 80.982V90H34.0265V88.272C33.7625 88.872 33.3605 89.334 32.8205 89.658C32.2925 89.97 31.6565 90.126 30.9125 90.126C30.1085 90.126 29.4005 89.94 28.7885 89.568C28.1885 89.184 27.7205 88.644 27.3845 87.948C27.0605 87.24 26.8985 86.418 26.8985 85.482C26.8985 84.546 27.0665 83.724 27.4025 83.016C27.7385 82.296 28.2065 81.744 28.8065 81.36C29.4185 80.964 30.1205 80.766 30.9125 80.766C31.6445 80.766 32.2745 80.922 32.8025 81.234C33.3425 81.546 33.7505 82.002 34.0265 82.602V80.982H35.1245ZM31.0745 89.154C32.0105 89.154 32.7365 88.83 33.2525 88.182C33.7685 87.534 34.0265 86.622 34.0265 85.446C34.0265 84.258 33.7685 83.34 33.2525 82.692C32.7365 82.044 32.0045 81.72 31.0565 81.72C30.1085 81.72 29.3705 82.056 28.8425 82.728C28.3145 83.388 28.0505 84.306 28.0505 85.482C28.0505 86.646 28.3145 87.552 28.8425 88.2C29.3705 88.836 30.1145 89.154 31.0745 89.154ZM1.656 115.184H9.558V116.138H2.754V120.998H9.198V121.988H2.754V127.046H9.558V128H1.656V115.184ZM19.2773 118.982V128H18.2153V126.362C17.9273 126.938 17.5193 127.376 16.9913 127.676C16.4633 127.976 15.8573 128.126 15.1733 128.126C14.1173 128.126 13.3193 127.832 12.7793 127.244C12.2393 126.656 11.9693 125.786 11.9693 124.634V118.982H13.0493V124.562C13.0493 125.45 13.2293 126.104 13.5893 126.524C13.9493 126.944 14.5073 127.154 15.2633 127.154C16.1513 127.154 16.8593 126.878 17.3873 126.326C17.9153 125.762 18.1793 125.018 18.1793 124.094V118.982H19.2773ZM26.1593 118.766C26.4593 118.766 26.7233 118.79 26.9513 118.838L26.8973 119.828C26.6693 119.78 26.3933 119.756 26.0693 119.756C25.1573 119.756 24.4733 120.05 24.0173 120.638C23.5733 121.214 23.3513 121.904 23.3513 122.708V128H22.2713V121.484C22.2713 120.548 22.2233 119.714 22.1273 118.982H23.1713L23.3153 120.656C23.5433 120.044 23.9093 119.576 24.4133 119.252C24.9293 118.928 25.5113 118.766 26.1593 118.766ZM31.953 128.126C31.125 128.126 30.393 127.934 29.757 127.55C29.133 127.166 28.647 126.62 28.299 125.912C27.963 125.204 27.795 124.382 27.795 123.446C27.795 122.51 27.963 121.688 28.299 120.98C28.647 120.272 29.133 119.726 29.757 119.342C30.393 118.958 31.125 118.766 31.953 118.766C32.769 118.766 33.489 118.958 34.113 119.342C34.737 119.726 35.217 120.272 35.553 120.98C35.901 121.688 36.075 122.51 36.075 123.446C36.075 124.382 35.901 125.204 35.553 125.912C35.217 126.62 34.737 127.166 34.113 127.55C33.489 127.934 32.769 128.126 31.953 128.126ZM31.935 127.154C32.895 127.154 33.633 126.836 34.149 126.2C34.677 125.552 34.941 124.634 34.941 123.446C34.941 122.27 34.677 121.358 34.149 120.71C33.621 120.05 32.889 119.72 31.953 119.72C31.005 119.72 30.267 120.05 29.739 120.71C29.211 121.358 28.947 122.27 28.947 123.446C28.947 124.646 29.205 125.564 29.721 126.2C30.237 126.836 30.975 127.154 31.935 127.154ZM42.6904 118.766C43.4824 118.766 44.1784 118.964 44.7784 119.36C45.3904 119.744 45.8644 120.296 46.2004 121.016C46.5364 121.724 46.7044 122.546 46.7044 123.482C46.7044 124.418 46.5364 125.234 46.2004 125.93C45.8764 126.626 45.4084 127.166 44.7964 127.55C44.1844 127.934 43.4824 128.126 42.6904 128.126C41.9344 128.126 41.2864 127.964 40.7464 127.64C40.2184 127.304 39.8224 126.824 39.5584 126.2V131.888H38.4784V121.484C38.4784 120.548 38.4304 119.714 38.3344 118.982H39.3784L39.5224 120.746C39.7864 120.11 40.1884 119.624 40.7284 119.288C41.2804 118.94 41.9344 118.766 42.6904 118.766ZM42.5464 127.154C43.4944 127.154 44.2324 126.836 44.7604 126.2C45.2884 125.552 45.5524 124.646 45.5524 123.482C45.5524 122.306 45.2884 121.388 44.7604 120.728C44.2324 120.056 43.5004 119.72 42.5644 119.72C41.6044 119.72 40.8664 120.044 40.3504 120.692C39.8344 121.34 39.5764 122.258 39.5764 123.446C39.5764 124.622 39.8344 125.534 40.3504 126.182C40.8664 126.83 41.5984 127.154 42.5464 127.154ZM49.6891 123.356V123.41C49.6891 124.622 49.9651 125.552 50.5171 126.2C51.0811 126.836 51.8971 127.154 52.9651 127.154C54.0451 127.154 55.0351 126.782 55.9351 126.038L56.3671 126.902C55.9711 127.274 55.4671 127.574 54.8551 127.802C54.2431 128.018 53.6131 128.126 52.9651 128.126C51.5971 128.126 50.5171 127.712 49.7251 126.884C48.9331 126.056 48.5371 124.916 48.5371 123.464C48.5371 122.54 48.7111 121.724 49.0591 121.016C49.4191 120.296 49.9171 119.744 50.5531 119.36C51.1891 118.964 51.9211 118.766 52.7491 118.766C53.9371 118.766 54.8611 119.15 55.5211 119.918C56.1931 120.686 56.5291 121.754 56.5291 123.122V123.356H49.6891ZM52.7491 119.666C51.9211 119.666 51.2491 119.918 50.7331 120.422C50.2171 120.914 49.8931 121.61 49.7611 122.51H55.4851C55.4131 121.586 55.1431 120.884 54.6751 120.404C54.2071 119.912 53.5651 119.666 52.7491 119.666ZM10.008 162.58H3.096L1.62 166H0.468L6.048 153.184H7.056L12.618 166H11.466L10.008 162.58ZM9.576 161.608L6.552 154.534L3.51 161.608H9.576ZM24.2921 156.766C26.2841 156.766 27.2801 157.93 27.2801 160.258V166H26.1821V160.33C26.1821 159.418 26.0201 158.758 25.6961 158.35C25.3721 157.93 24.8561 157.72 24.1481 157.72C23.3201 157.72 22.6661 157.996 22.1861 158.548C21.7181 159.1 21.4841 159.85 21.4841 160.798V166H20.3861V160.33C20.3861 159.418 20.2181 158.758 19.8821 158.35C19.5581 157.93 19.0421 157.72 18.3341 157.72C17.5181 157.72 16.8641 157.996 16.3721 158.548C15.8921 159.1 15.6521 159.85 15.6521 160.798V166H14.5721V159.484C14.5721 158.548 14.5241 157.714 14.4281 156.982H15.4721L15.6161 158.602C15.8681 158.002 16.2401 157.546 16.7321 157.234C17.2361 156.922 17.8181 156.766 18.4781 156.766C19.9301 156.766 20.8601 157.354 21.2681 158.53C21.5201 157.978 21.9101 157.546 22.4381 157.234C22.9781 156.922 23.5961 156.766 24.2921 156.766ZM30.7927 161.356V161.41C30.7927 162.622 31.0687 163.552 31.6207 164.2C32.1847 164.836 33.0007 165.154 34.0687 165.154C35.1487 165.154 36.1387 164.782 37.0387 164.038L37.4707 164.902C37.0747 165.274 36.5707 165.574 35.9587 165.802C35.3467 166.018 34.7167 166.126 34.0687 166.126C32.7007 166.126 31.6207 165.712 30.8287 164.884C30.0367 164.056 29.6407 162.916 29.6407 161.464C29.6407 160.54 29.8147 159.724 30.1627 159.016C30.5227 158.296 31.0207 157.744 31.6567 157.36C32.2927 156.964 33.0247 156.766 33.8527 156.766C35.0407 156.766 35.9647 157.15 36.6247 157.918C37.2967 158.686 37.6327 159.754 37.6327 161.122V161.356H30.7927ZM33.8527 157.666C33.0247 157.666 32.3527 157.918 31.8367 158.422C31.3207 158.914 30.9967 159.61 30.8647 160.51H36.5887C36.5167 159.586 36.2467 158.884 35.7787 158.404C35.3107 157.912 34.6687 157.666 33.8527 157.666ZM43.8781 156.766C44.1781 156.766 44.4421 156.79 44.6701 156.838L44.6161 157.828C44.3881 157.78 44.1121 157.756 43.7881 157.756C42.8761 157.756 42.1921 158.05 41.7361 158.638C41.2921 159.214 41.0701 159.904 41.0701 160.708V166H39.9901V159.484C39.9901 158.548 39.9421 157.714 39.8461 156.982H40.8901L41.0341 158.656C41.2621 158.044 41.6281 157.576 42.1321 157.252C42.6481 156.928 43.2301 156.766 43.8781 156.766ZM46.2655 156.982H47.3455V166H46.2655V156.982ZM47.5615 153.256V154.66H46.1035V153.256H47.5615ZM54.0152 166.126C53.1632 166.126 52.4192 165.934 51.7832 165.55C51.1472 165.166 50.6552 164.626 50.3072 163.93C49.9592 163.222 49.7852 162.406 49.7852 161.482C49.7852 160.546 49.9592 159.724 50.3072 159.016C50.6552 158.296 51.1532 157.744 51.8012 157.36C52.4492 156.964 53.1992 156.766 54.0512 156.766C54.6632 156.766 55.2452 156.874 55.7972 157.09C56.3612 157.294 56.8232 157.582 57.1832 157.954L56.7512 158.818C56.2832 158.434 55.8332 158.158 55.4012 157.99C54.9812 157.81 54.5432 157.72 54.0872 157.72C53.1152 157.72 52.3472 158.056 51.7832 158.728C51.2192 159.388 50.9372 160.306 50.9372 161.482C50.9372 162.634 51.2132 163.534 51.7652 164.182C52.3292 164.83 53.1032 165.154 54.0872 165.154C54.5432 165.154 54.9812 165.07 55.4012 164.902C55.8332 164.722 56.2832 164.446 56.7512 164.074L57.1832 164.92C56.7992 165.292 56.3192 165.586 55.7432 165.802C55.1792 166.018 54.6032 166.126 54.0152 166.126ZM66.8354 156.982V166H65.7374V164.272C65.4734 164.872 65.0714 165.334 64.5314 165.658C64.0034 165.97 63.3674 166.126 62.6234 166.126C61.8194 166.126 61.1114 165.94 60.4994 165.568C59.8994 165.184 59.4314 164.644 59.0954 163.948C58.7714 163.24 58.6094 162.418 58.6094 161.482C58.6094 160.546 58.7774 159.724 59.1134 159.016C59.4494 158.296 59.9174 157.744 60.5174 157.36C61.1294 156.964 61.8314 156.766 62.6234 156.766C63.3554 156.766 63.9854 156.922 64.5134 157.234C65.0534 157.546 65.4614 158.002 65.7374 158.602V156.982H66.8354ZM62.7854 165.154C63.7214 165.154 64.4474 164.83 64.9634 164.182C65.4794 163.534 65.7374 162.622 65.7374 161.446C65.7374 160.258 65.4794 159.34 64.9634 158.692C64.4474 158.044 63.7154 157.72 62.7674 157.72C61.8194 157.72 61.0814 158.056 60.5534 158.728C60.0254 159.388 59.7614 160.306 59.7614 161.482C59.7614 162.646 60.0254 163.552 60.5534 164.2C61.0814 164.836 61.8254 165.154 62.7854 165.154Z" fill="#848484"/>
</svg>
