<svg width="155" height="170" viewBox="0 0 155 170" fill="none" xmlns="http://www.w3.org/2000/svg">
<path d="M1.656 1.184H5.778C7.818 1.184 9.39 1.736 10.494 2.84C11.598 3.944 12.15 5.522 12.15 7.574C12.15 9.626 11.592 11.21 10.476 12.326C9.372 13.442 7.806 14 5.778 14H1.656V1.184ZM5.724 13.028C7.464 13.028 8.772 12.572 9.648 11.66C10.524 10.736 10.962 9.374 10.962 7.574C10.962 3.962 9.216 2.156 5.724 2.156H2.772V13.028H5.724ZM15.3766 9.356V9.41C15.3766 10.622 15.6526 11.552 16.2046 12.2C16.7686 12.836 17.5846 13.154 18.6526 13.154C19.7326 13.154 20.7226 12.782 21.6226 12.038L22.0546 12.902C21.6586 13.274 21.1546 13.574 20.5426 13.802C19.9306 14.018 19.3006 14.126 18.6526 14.126C17.2846 14.126 16.2046 13.712 15.4126 12.884C14.6206 12.056 14.2246 10.916 14.2246 9.464C14.2246 8.54 14.3986 7.724 14.7466 7.016C15.1066 6.296 15.6046 5.744 16.2406 5.36C16.8766 4.964 17.6086 4.766 18.4366 4.766C19.6246 4.766 20.5486 5.15 21.2086 5.918C21.8806 6.686 22.2166 7.754 22.2166 9.122V9.356H15.3766ZM18.4366 5.666C17.6086 5.666 16.9366 5.918 16.4206 6.422C15.9046 6.914 15.5806 7.61 15.4486 8.51H21.1726C21.1006 7.586 20.8306 6.884 20.3626 6.404C19.8946 5.912 19.2526 5.666 18.4366 5.666ZM27.5081 14.126C26.0441 14.126 24.8861 13.724 24.0341 12.92L24.4301 12.074C24.9101 12.47 25.3901 12.752 25.8701 12.92C26.3621 13.088 26.9261 13.172 27.5621 13.172C28.3061 13.172 28.8701 13.046 29.2541 12.794C29.6501 12.53 29.8481 12.152 29.8481 11.66C29.8481 11.252 29.7161 10.934 29.4521 10.706C29.2001 10.466 28.7801 10.274 28.1921 10.13L26.6621 9.788C25.9421 9.62 25.3721 9.32 24.9521 8.888C24.5441 8.456 24.3401 7.952 24.3401 7.376C24.3401 6.584 24.6401 5.954 25.2401 5.486C25.8521 5.006 26.6621 4.766 27.6701 4.766C28.3061 4.766 28.8941 4.868 29.4341 5.072C29.9861 5.276 30.4421 5.57 30.8021 5.954L30.3881 6.8C29.5601 6.08 28.6541 5.72 27.6701 5.72C26.9741 5.72 26.4341 5.858 26.0501 6.134C25.6661 6.41 25.4741 6.794 25.4741 7.286C25.4741 7.694 25.5941 8.024 25.8341 8.276C26.0861 8.528 26.4701 8.714 26.9861 8.834L28.5341 9.212C30.1541 9.572 30.9641 10.37 30.9641 11.606C30.9641 12.362 30.6521 12.974 30.0281 13.442C29.4041 13.898 28.5641 14.126 27.5081 14.126ZM34.9107 5.864V11.228C34.9107 11.948 35.0487 12.446 35.3247 12.722C35.6007 12.998 36.0087 13.136 36.5487 13.136C36.8847 13.136 37.2087 13.082 37.5207 12.974V13.964C37.1367 14.06 36.7467 14.108 36.3507 14.108C35.5587 14.108 34.9347 13.886 34.4787 13.442C34.0347 12.998 33.8127 12.332 33.8127 11.444V5.864H32.0307V4.982H33.8127V2.588L34.9107 2.174V4.982H37.5747V5.864H34.9107ZM39.4452 4.982H40.5252V14H39.4452V4.982ZM40.7412 1.256V2.66H39.2832V1.256H40.7412ZM47.7349 4.766C49.9069 4.766 50.9929 5.93 50.9929 8.258V14H49.8949V8.33C49.8949 7.43 49.7089 6.77 49.3369 6.35C48.9769 5.93 48.4069 5.72 47.6269 5.72C46.7269 5.72 46.0009 5.996 45.4489 6.548C44.8969 7.1 44.6209 7.844 44.6209 8.78V14H43.5409V7.484C43.5409 6.548 43.4929 5.714 43.3969 4.982H44.4409L44.5849 6.638C44.8609 6.026 45.2749 5.564 45.8269 5.252C46.3789 4.928 47.0149 4.766 47.7349 4.766ZM61.5971 4.982V14H60.4991V12.272C60.2351 12.872 59.8331 13.334 59.2931 13.658C58.7651 13.97 58.1291 14.126 57.3851 14.126C56.5811 14.126 55.8731 13.94 55.2611 13.568C54.6611 13.184 54.1931 12.644 53.8571 11.948C53.5331 11.24 53.3711 10.418 53.3711 9.482C53.3711 8.546 53.5391 7.724 53.8751 7.016C54.2111 6.296 54.6791 5.744 55.2791 5.36C55.8911 4.964 56.5931 4.766 57.3851 4.766C58.1171 4.766 58.7471 4.922 59.2751 5.234C59.8151 5.546 60.2231 6.002 60.4991 6.602V4.982H61.5971ZM57.5471 13.154C58.4831 13.154 59.2091 12.83 59.7251 12.182C60.2411 11.534 60.4991 10.622 60.4991 9.446C60.4991 8.258 60.2411 7.34 59.7251 6.692C59.2091 6.044 58.4771 5.72 57.5291 5.72C56.5811 5.72 55.8431 6.056 55.3151 6.728C54.7871 7.388 54.5231 8.306 54.5231 9.482C54.5231 10.646 54.7871 11.552 55.3151 12.2C55.8431 12.836 56.5871 13.154 57.5471 13.154ZM66.1119 5.864V11.228C66.1119 11.948 66.2499 12.446 66.5259 12.722C66.8019 12.998 67.2099 13.136 67.7499 13.136C68.0859 13.136 68.4099 13.082 68.7219 12.974V13.964C68.3379 14.06 67.9479 14.108 67.5519 14.108C66.7599 14.108 66.1359 13.886 65.6799 13.442C65.2359 12.998 65.0139 12.332 65.0139 11.444V5.864H63.2319V4.982H65.0139V2.588L66.1119 2.174V4.982H68.7759V5.864H66.1119ZM70.6463 4.982H71.7263V14H70.6463V4.982ZM71.9423 1.256V2.66H70.4843V1.256H71.9423ZM78.324 14.126C77.496 14.126 76.764 13.934 76.128 13.55C75.504 13.166 75.018 12.62 74.67 11.912C74.334 11.204 74.166 10.382 74.166 9.446C74.166 8.51 74.334 7.688 74.67 6.98C75.018 6.272 75.504 5.726 76.128 5.342C76.764 4.958 77.496 4.766 78.324 4.766C79.14 4.766 79.86 4.958 80.484 5.342C81.108 5.726 81.588 6.272 81.924 6.98C82.272 7.688 82.446 8.51 82.446 9.446C82.446 10.382 82.272 11.204 81.924 11.912C81.588 12.62 81.108 13.166 80.484 13.55C79.86 13.934 79.14 14.126 78.324 14.126ZM78.306 13.154C79.266 13.154 80.004 12.836 80.52 12.2C81.048 11.552 81.312 10.634 81.312 9.446C81.312 8.27 81.048 7.358 80.52 6.71C79.992 6.05 79.26 5.72 78.324 5.72C77.376 5.72 76.638 6.05 76.11 6.71C75.582 7.358 75.318 8.27 75.318 9.446C75.318 10.646 75.576 11.564 76.092 12.2C76.608 12.836 77.346 13.154 78.306 13.154ZM89.0435 4.766C91.2155 4.766 92.3015 5.93 92.3015 8.258V14H91.2035V8.33C91.2035 7.43 91.0175 6.77 90.6455 6.35C90.2855 5.93 89.7155 5.72 88.9355 5.72C88.0355 5.72 87.3095 5.996 86.7575 6.548C86.2055 7.1 85.9295 7.844 85.9295 8.78V14H84.8495V7.484C84.8495 6.548 84.8015 5.714 84.7055 4.982H85.7495L85.8935 6.638C86.1695 6.026 86.5835 5.564 87.1355 5.252C87.6875 4.928 88.3235 4.766 89.0435 4.766ZM109.906 7.43V13.28C109.438 13.532 108.796 13.742 107.98 13.91C107.164 14.066 106.342 14.144 105.514 14.144C104.266 14.144 103.192 13.886 102.292 13.37C101.392 12.842 100.702 12.086 100.222 11.102C99.7536 10.118 99.5196 8.942 99.5196 7.574C99.5196 6.218 99.7536 5.048 100.222 4.064C100.702 3.08 101.386 2.33 102.274 1.814C103.162 1.298 104.212 1.04 105.424 1.04C107.236 1.04 108.688 1.598 109.78 2.714L109.312 3.596C108.7 3.044 108.082 2.648 107.458 2.408C106.846 2.156 106.162 2.03 105.406 2.03C103.894 2.03 102.724 2.51 101.896 3.47C101.08 4.43 100.672 5.798 100.672 7.574C100.672 9.386 101.086 10.772 101.914 11.732C102.754 12.692 103.96 13.172 105.532 13.172C106.744 13.172 107.866 12.974 108.898 12.578V8.384H105.514V7.43H109.906ZM120.158 4.982V14H119.096V12.362C118.808 12.938 118.4 13.376 117.872 13.676C117.344 13.976 116.738 14.126 116.054 14.126C114.998 14.126 114.2 13.832 113.66 13.244C113.12 12.656 112.85 11.786 112.85 10.634V4.982H113.93V10.562C113.93 11.45 114.11 12.104 114.47 12.524C114.83 12.944 115.388 13.154 116.144 13.154C117.032 13.154 117.74 12.878 118.268 12.326C118.796 11.762 119.06 11.018 119.06 10.094V4.982H120.158ZM123.152 4.982H124.232V14H123.152V4.982ZM124.448 1.256V2.66H122.99V1.256H124.448ZM134.898 0.751999V14H133.8V12.272C133.536 12.872 133.134 13.334 132.594 13.658C132.066 13.97 131.43 14.126 130.686 14.126C129.894 14.126 129.192 13.934 128.58 13.55C127.98 13.154 127.512 12.602 127.176 11.894C126.84 11.174 126.672 10.346 126.672 9.41C126.672 8.474 126.834 7.658 127.158 6.962C127.494 6.254 127.962 5.714 128.562 5.342C129.174 4.958 129.882 4.766 130.686 4.766C131.418 4.766 132.048 4.922 132.576 5.234C133.116 5.546 133.524 6.002 133.8 6.602V0.751999H134.898ZM130.83 13.154C131.778 13.154 132.51 12.83 133.026 12.182C133.542 11.534 133.8 10.622 133.8 9.446C133.8 8.27 133.542 7.358 133.026 6.71C132.51 6.05 131.784 5.72 130.848 5.72C129.888 5.72 129.144 6.044 128.616 6.692C128.088 7.34 127.824 8.246 127.824 9.41C127.824 10.586 128.088 11.504 128.616 12.164C129.144 12.824 129.882 13.154 130.83 13.154ZM138.459 9.356V9.41C138.459 10.622 138.735 11.552 139.287 12.2C139.851 12.836 140.667 13.154 141.735 13.154C142.815 13.154 143.805 12.782 144.705 12.038L145.137 12.902C144.741 13.274 144.237 13.574 143.625 13.802C143.013 14.018 142.383 14.126 141.735 14.126C140.367 14.126 139.287 13.712 138.495 12.884C137.703 12.056 137.307 10.916 137.307 9.464C137.307 8.54 137.481 7.724 137.829 7.016C138.189 6.296 138.687 5.744 139.323 5.36C139.959 4.964 140.691 4.766 141.519 4.766C142.707 4.766 143.631 5.15 144.291 5.918C144.963 6.686 145.299 7.754 145.299 9.122V9.356H138.459ZM141.519 5.666C140.691 5.666 140.019 5.918 139.503 6.422C138.987 6.914 138.663 7.61 138.531 8.51H144.255C144.183 7.586 143.913 6.884 143.445 6.404C142.977 5.912 142.335 5.666 141.519 5.666ZM150.59 14.126C149.126 14.126 147.968 13.724 147.116 12.92L147.512 12.074C147.992 12.47 148.472 12.752 148.952 12.92C149.444 13.088 150.008 13.172 150.644 13.172C151.388 13.172 151.952 13.046 152.336 12.794C152.732 12.53 152.93 12.152 152.93 11.66C152.93 11.252 152.798 10.934 152.534 10.706C152.282 10.466 151.862 10.274 151.274 10.13L149.744 9.788C149.024 9.62 148.454 9.32 148.034 8.888C147.626 8.456 147.422 7.952 147.422 7.376C147.422 6.584 147.722 5.954 148.322 5.486C148.934 5.006 149.744 4.766 150.752 4.766C151.388 4.766 151.976 4.868 152.516 5.072C153.068 5.276 153.524 5.57 153.884 5.954L153.47 6.8C152.642 6.08 151.736 5.72 150.752 5.72C150.056 5.72 149.516 5.858 149.132 6.134C148.748 6.41 148.556 6.794 148.556 7.286C148.556 7.694 148.676 8.024 148.916 8.276C149.168 8.528 149.552 8.714 150.068 8.834L151.616 9.212C153.236 9.572 154.046 10.37 154.046 11.606C154.046 12.362 153.734 12.974 153.11 13.442C152.486 13.898 151.646 14.126 150.59 14.126ZM1.656 39.184H6.588C7.872 39.184 8.88 39.496 9.612 40.12C10.344 40.744 10.71 41.602 10.71 42.694C10.71 43.798 10.338 44.668 9.594 45.304C8.862 45.928 7.86 46.24 6.588 46.24H2.772V52H1.656V39.184ZM6.516 45.268C7.524 45.268 8.286 45.046 8.802 44.602C9.318 44.158 9.576 43.522 9.576 42.694C9.576 41.878 9.318 41.248 8.802 40.804C8.286 40.36 7.524 40.138 6.516 40.138H2.772V45.268H6.516ZM13.078 42.982H14.158V52H13.078V42.982ZM14.374 39.256V40.66H12.916V39.256H14.374ZM20.8277 52.126C19.9757 52.126 19.2317 51.934 18.5957 51.55C17.9597 51.166 17.4677 50.626 17.1197 49.93C16.7717 49.222 16.5977 48.406 16.5977 47.482C16.5977 46.546 16.7717 45.724 17.1197 45.016C17.4677 44.296 17.9657 43.744 18.6137 43.36C19.2617 42.964 20.0117 42.766 20.8637 42.766C21.4757 42.766 22.0577 42.874 22.6097 43.09C23.1737 43.294 23.6357 43.582 23.9957 43.954L23.5637 44.818C23.0957 44.434 22.6457 44.158 22.2137 43.99C21.7937 43.81 21.3557 43.72 20.8997 43.72C19.9277 43.72 19.1597 44.056 18.5957 44.728C18.0317 45.388 17.7497 46.306 17.7497 47.482C17.7497 48.634 18.0257 49.534 18.5777 50.182C19.1417 50.83 19.9157 51.154 20.8997 51.154C21.3557 51.154 21.7937 51.07 22.2137 50.902C22.6457 50.722 23.0957 50.446 23.5637 50.074L23.9957 50.92C23.6117 51.292 23.1317 51.586 22.5557 51.802C21.9917 52.018 21.4157 52.126 20.8277 52.126ZM27.5279 43.864V49.228C27.5279 49.948 27.6659 50.446 27.9419 50.722C28.2179 50.998 28.6259 51.136 29.1659 51.136C29.5019 51.136 29.8259 51.082 30.1379 50.974V51.964C29.7539 52.06 29.3639 52.108 28.9679 52.108C28.1759 52.108 27.5519 51.886 27.0959 51.442C26.6519 50.998 26.4299 50.332 26.4299 49.444V43.864H24.6479V42.982H26.4299V40.588L27.5279 40.174V42.982H30.1919V43.864H27.5279ZM35.6444 52.126C34.8164 52.126 34.0844 51.934 33.4484 51.55C32.8244 51.166 32.3384 50.62 31.9904 49.912C31.6544 49.204 31.4864 48.382 31.4864 47.446C31.4864 46.51 31.6544 45.688 31.9904 44.98C32.3384 44.272 32.8244 43.726 33.4484 43.342C34.0844 42.958 34.8164 42.766 35.6444 42.766C36.4604 42.766 37.1804 42.958 37.8044 43.342C38.4284 43.726 38.9084 44.272 39.2444 44.98C39.5924 45.688 39.7664 46.51 39.7664 47.446C39.7664 48.382 39.5924 49.204 39.2444 49.912C38.9084 50.62 38.4284 51.166 37.8044 51.55C37.1804 51.934 36.4604 52.126 35.6444 52.126ZM35.6264 51.154C36.5864 51.154 37.3244 50.836 37.8404 50.2C38.3684 49.552 38.6324 48.634 38.6324 47.446C38.6324 46.27 38.3684 45.358 37.8404 44.71C37.3124 44.05 36.5804 43.72 35.6444 43.72C34.6964 43.72 33.9584 44.05 33.4304 44.71C32.9024 45.358 32.6384 46.27 32.6384 47.446C32.6384 48.646 32.8964 49.564 33.4124 50.2C33.9284 50.836 34.6664 51.154 35.6264 51.154ZM46.0578 42.766C46.3578 42.766 46.6218 42.79 46.8498 42.838L46.7958 43.828C46.5678 43.78 46.2918 43.756 45.9678 43.756C45.0558 43.756 44.3718 44.05 43.9158 44.638C43.4718 45.214 43.2498 45.904 43.2498 46.708V52H42.1698V45.484C42.1698 44.548 42.1218 43.714 42.0258 42.982H43.0698L43.2138 44.656C43.4418 44.044 43.8078 43.576 44.3118 43.252C44.8278 42.928 45.4098 42.766 46.0578 42.766ZM48.4452 42.982H49.5252V52H48.4452V42.982ZM49.7412 39.256V40.66H48.2832V39.256H49.7412ZM60.1909 42.982V52H59.0929V50.272C58.8289 50.872 58.4269 51.334 57.8869 51.658C57.3589 51.97 56.7229 52.126 55.9789 52.126C55.1749 52.126 54.4669 51.94 53.8549 51.568C53.2549 51.184 52.7869 50.644 52.4509 49.948C52.1269 49.24 51.9649 48.418 51.9649 47.482C51.9649 46.546 52.1329 45.724 52.4689 45.016C52.8049 44.296 53.2729 43.744 53.8729 43.36C54.4849 42.964 55.1869 42.766 55.9789 42.766C56.7109 42.766 57.3409 42.922 57.8689 43.234C58.4089 43.546 58.8169 44.002 59.0929 44.602V42.982H60.1909ZM56.1409 51.154C57.0769 51.154 57.8029 50.83 58.3189 50.182C58.8349 49.534 59.0929 48.622 59.0929 47.446C59.0929 46.258 58.8349 45.34 58.3189 44.692C57.8029 44.044 57.0709 43.72 56.1229 43.72C55.1749 43.72 54.4369 44.056 53.9089 44.728C53.3809 45.388 53.1169 46.306 53.1169 47.482C53.1169 48.646 53.3809 49.552 53.9089 50.2C54.4369 50.836 55.1809 51.154 56.1409 51.154ZM63.1756 38.752H64.2556V52H63.1756V38.752ZM79.8692 49.534C80.5052 50.242 81.3392 50.86 82.3712 51.388L81.7232 52.144C80.7392 51.64 79.9232 51.046 79.2752 50.362C78.7712 50.938 78.1952 51.376 77.5472 51.676C76.8992 51.976 76.1852 52.126 75.4052 52.126C74.6252 52.126 73.9292 51.994 73.3172 51.73C72.7172 51.454 72.2492 51.07 71.9132 50.578C71.5892 50.074 71.4272 49.498 71.4272 48.85C71.4272 48.082 71.6612 47.386 72.1292 46.762C72.6092 46.138 73.3952 45.49 74.4872 44.818C73.8992 44.11 73.4912 43.54 73.2632 43.108C73.0472 42.676 72.9392 42.226 72.9392 41.758C72.9392 40.942 73.2092 40.288 73.7492 39.796C74.3012 39.304 75.0272 39.058 75.9272 39.058C76.7672 39.058 77.4332 39.28 77.9252 39.724C78.4172 40.168 78.6632 40.774 78.6632 41.542C78.6632 42.166 78.4712 42.724 78.0872 43.216C77.7032 43.696 77.0012 44.278 75.9812 44.962L79.2032 48.742C79.7912 47.638 80.1032 46.246 80.1392 44.566H81.1832C81.1352 46.546 80.6972 48.202 79.8692 49.534ZM74.0552 41.758C74.0552 42.13 74.1452 42.484 74.3252 42.82C74.5052 43.156 74.8532 43.636 75.3692 44.26C76.2332 43.696 76.8212 43.228 77.1332 42.856C77.4572 42.472 77.6192 42.058 77.6192 41.614C77.6192 41.122 77.4632 40.726 77.1512 40.426C76.8512 40.126 76.4432 39.976 75.9272 39.976C75.3632 39.976 74.9072 40.144 74.5592 40.48C74.2232 40.804 74.0552 41.23 74.0552 41.758ZM75.4592 51.19C76.7432 51.19 77.8052 50.674 78.6452 49.642L75.1172 45.52C74.1572 46.132 73.4852 46.684 73.1012 47.176C72.7172 47.668 72.5252 48.22 72.5252 48.832C72.5252 49.552 72.7892 50.128 73.3172 50.56C73.8452 50.98 74.5592 51.19 75.4592 51.19ZM98.4447 45.43V51.28C97.9767 51.532 97.3347 51.742 96.5187 51.91C95.7027 52.066 94.8807 52.144 94.0527 52.144C92.8047 52.144 91.7307 51.886 90.8307 51.37C89.9307 50.842 89.2407 50.086 88.7607 49.102C88.2927 48.118 88.0587 46.942 88.0587 45.574C88.0587 44.218 88.2927 43.048 88.7607 42.064C89.2407 41.08 89.9247 40.33 90.8127 39.814C91.7007 39.298 92.7507 39.04 93.9627 39.04C95.7747 39.04 97.2267 39.598 98.3187 40.714L97.8507 41.596C97.2387 41.044 96.6207 40.648 95.9967 40.408C95.3847 40.156 94.7007 40.03 93.9447 40.03C92.4327 40.03 91.2627 40.51 90.4347 41.47C89.6187 42.43 89.2107 43.798 89.2107 45.574C89.2107 47.386 89.6247 48.772 90.4527 49.732C91.2927 50.692 92.4987 51.172 94.0707 51.172C95.2827 51.172 96.4047 50.974 97.4367 50.578V46.384H94.0527V45.43H98.4447ZM101.443 42.982H102.523V52H101.443V42.982ZM102.739 39.256V40.66H101.281V39.256H102.739ZM108.653 39.67C108.137 39.67 107.741 39.808 107.465 40.084C107.189 40.36 107.051 40.852 107.051 41.56V42.982H109.373V43.864H107.051V52H105.953V43.864H104.189V42.982H105.953V41.362C105.953 40.462 106.175 39.79 106.619 39.346C107.063 38.902 107.675 38.68 108.455 38.68C108.815 38.68 109.187 38.728 109.571 38.824V39.814C109.247 39.718 108.941 39.67 108.653 39.67ZM112.518 43.864V49.228C112.518 49.948 112.656 50.446 112.932 50.722C113.208 50.998 113.616 51.136 114.156 51.136C114.492 51.136 114.816 51.082 115.128 50.974V51.964C114.744 52.06 114.354 52.108 113.958 52.108C113.166 52.108 112.542 51.886 112.086 51.442C111.642 50.998 111.42 50.332 111.42 49.444V43.864H109.638V42.982H111.42V40.588L112.518 40.174V42.982H115.182V43.864H112.518ZM119.987 52.126C118.523 52.126 117.365 51.724 116.513 50.92L116.909 50.074C117.389 50.47 117.869 50.752 118.349 50.92C118.841 51.088 119.405 51.172 120.041 51.172C120.785 51.172 121.349 51.046 121.733 50.794C122.129 50.53 122.327 50.152 122.327 49.66C122.327 49.252 122.195 48.934 121.931 48.706C121.679 48.466 121.259 48.274 120.671 48.13L119.141 47.788C118.421 47.62 117.851 47.32 117.431 46.888C117.023 46.456 116.819 45.952 116.819 45.376C116.819 44.584 117.119 43.954 117.719 43.486C118.331 43.006 119.141 42.766 120.149 42.766C120.785 42.766 121.373 42.868 121.913 43.072C122.465 43.276 122.921 43.57 123.281 43.954L122.867 44.8C122.039 44.08 121.133 43.72 120.149 43.72C119.453 43.72 118.913 43.858 118.529 44.134C118.145 44.41 117.953 44.794 117.953 45.286C117.953 45.694 118.073 46.024 118.313 46.276C118.565 46.528 118.949 46.714 119.465 46.834L121.013 47.212C122.633 47.572 123.443 48.37 123.443 49.606C123.443 50.362 123.131 50.974 122.507 51.442C121.883 51.898 121.043 52.126 119.987 52.126ZM5.634 90.144C4.626 90.144 3.732 90.012 2.952 89.748C2.184 89.472 1.5 89.046 0.9 88.47L1.368 87.588C2.004 88.152 2.646 88.554 3.294 88.794C3.954 89.034 4.734 89.154 5.634 89.154C6.714 89.154 7.554 88.932 8.154 88.488C8.754 88.044 9.054 87.42 9.054 86.616C9.054 86.148 8.904 85.77 8.604 85.482C8.316 85.182 7.944 84.948 7.488 84.78C7.044 84.612 6.45 84.444 5.706 84.276C4.722 84.06 3.918 83.838 3.294 83.61C2.682 83.37 2.166 83.016 1.746 82.548C1.326 82.08 1.116 81.456 1.116 80.676C1.116 79.956 1.302 79.32 1.674 78.768C2.046 78.216 2.574 77.79 3.258 77.49C3.954 77.19 4.758 77.04 5.67 77.04C6.546 77.04 7.356 77.184 8.1 77.472C8.844 77.748 9.486 78.162 10.026 78.714L9.558 79.596C8.958 79.056 8.346 78.66 7.722 78.408C7.098 78.156 6.414 78.03 5.67 78.03C4.59 78.03 3.744 78.264 3.132 78.732C2.532 79.2 2.232 79.842 2.232 80.658C2.232 81.366 2.496 81.894 3.024 82.242C3.552 82.59 4.326 82.884 5.346 83.124L5.868 83.25C6.828 83.478 7.59 83.7 8.154 83.916C8.718 84.132 9.198 84.456 9.594 84.888C9.99 85.32 10.188 85.896 10.188 86.616C10.188 87.312 10.002 87.93 9.63 88.47C9.258 88.998 8.724 89.412 8.028 89.712C7.344 90 6.546 90.144 5.634 90.144ZM16.7451 80.766C17.5371 80.766 18.2331 80.964 18.8331 81.36C19.4451 81.744 19.9191 82.296 20.2551 83.016C20.5911 83.724 20.7591 84.546 20.7591 85.482C20.7591 86.418 20.5911 87.234 20.2551 87.93C19.9311 88.626 19.4631 89.166 18.8511 89.55C18.2391 89.934 17.5371 90.126 16.7451 90.126C15.9891 90.126 15.3411 89.964 14.8011 89.64C14.2731 89.304 13.8771 88.824 13.6131 88.2V93.888H12.5331V83.484C12.5331 82.548 12.4851 81.714 12.3891 80.982H13.4331L13.5771 82.746C13.8411 82.11 14.2431 81.624 14.7831 81.288C15.3351 80.94 15.9891 80.766 16.7451 80.766ZM16.6011 89.154C17.5491 89.154 18.2871 88.836 18.8151 88.2C19.3431 87.552 19.6071 86.646 19.6071 85.482C19.6071 84.306 19.3431 83.388 18.8151 82.728C18.2871 82.056 17.5551 81.72 16.6191 81.72C15.6591 81.72 14.9211 82.044 14.4051 82.692C13.8891 83.34 13.6311 84.258 13.6311 85.446C13.6311 86.622 13.8891 87.534 14.4051 88.182C14.9211 88.83 15.6531 89.154 16.6011 89.154ZM23.7438 85.356V85.41C23.7438 86.622 24.0198 87.552 24.5718 88.2C25.1358 88.836 25.9518 89.154 27.0198 89.154C28.0998 89.154 29.0898 88.782 29.9898 88.038L30.4218 88.902C30.0258 89.274 29.5218 89.574 28.9098 89.802C28.2978 90.018 27.6678 90.126 27.0198 90.126C25.6518 90.126 24.5718 89.712 23.7798 88.884C22.9878 88.056 22.5918 86.916 22.5918 85.464C22.5918 84.54 22.7658 83.724 23.1138 83.016C23.4738 82.296 23.9718 81.744 24.6078 81.36C25.2438 80.964 25.9758 80.766 26.8038 80.766C27.9918 80.766 28.9158 81.15 29.5758 81.918C30.2478 82.686 30.5838 83.754 30.5838 85.122V85.356H23.7438ZM26.8038 81.666C25.9758 81.666 25.3038 81.918 24.7878 82.422C24.2718 82.914 23.9478 83.61 23.8158 84.51H29.5398C29.4678 83.586 29.1978 82.884 28.7298 82.404C28.2618 81.912 27.6198 81.666 26.8038 81.666ZM36.5953 90.126C35.7433 90.126 34.9993 89.934 34.3633 89.55C33.7273 89.166 33.2353 88.626 32.8873 87.93C32.5393 87.222 32.3653 86.406 32.3653 85.482C32.3653 84.546 32.5393 83.724 32.8873 83.016C33.2353 82.296 33.7333 81.744 34.3813 81.36C35.0293 80.964 35.7793 80.766 36.6313 80.766C37.2433 80.766 37.8253 80.874 38.3773 81.09C38.9413 81.294 39.4033 81.582 39.7633 81.954L39.3313 82.818C38.8633 82.434 38.4133 82.158 37.9813 81.99C37.5613 81.81 37.1233 81.72 36.6673 81.72C35.6953 81.72 34.9273 82.056 34.3633 82.728C33.7993 83.388 33.5173 84.306 33.5173 85.482C33.5173 86.634 33.7933 87.534 34.3453 88.182C34.9093 88.83 35.6833 89.154 36.6673 89.154C37.1233 89.154 37.5613 89.07 37.9813 88.902C38.4133 88.722 38.8633 88.446 39.3313 88.074L39.7633 88.92C39.3793 89.292 38.8993 89.586 38.3233 89.802C37.7593 90.018 37.1833 90.126 36.5953 90.126ZM41.7655 80.982H42.8455V90H41.7655V80.982ZM43.0615 77.256V78.66H41.6035V77.256H43.0615ZM53.5112 80.982V90H52.4132V88.272C52.1492 88.872 51.7472 89.334 51.2072 89.658C50.6792 89.97 50.0432 90.126 49.2992 90.126C48.4952 90.126 47.7872 89.94 47.1752 89.568C46.5752 89.184 46.1072 88.644 45.7712 87.948C45.4472 87.24 45.2852 86.418 45.2852 85.482C45.2852 84.546 45.4532 83.724 45.7892 83.016C46.1252 82.296 46.5932 81.744 47.1932 81.36C47.8052 80.964 48.5072 80.766 49.2992 80.766C50.0312 80.766 50.6612 80.922 51.1892 81.234C51.7292 81.546 52.1372 82.002 52.4132 82.602V80.982H53.5112ZM49.4612 89.154C50.3972 89.154 51.1232 88.83 51.6392 88.182C52.1552 87.534 52.4132 86.622 52.4132 85.446C52.4132 84.258 52.1552 83.34 51.6392 82.692C51.1232 82.044 50.3912 81.72 49.4432 81.72C48.4952 81.72 47.7572 82.056 47.2292 82.728C46.7012 83.388 46.4372 84.306 46.4372 85.482C46.4372 86.646 46.7012 87.552 47.2292 88.2C47.7572 88.836 48.5012 89.154 49.4612 89.154ZM56.496 76.752H57.576V90H56.496V76.752ZM70.5615 90.144C69.3975 90.144 68.3835 89.88 67.5195 89.352C66.6675 88.824 66.0075 88.068 65.5395 87.084C65.0835 86.1 64.8555 84.936 64.8555 83.592C64.8555 82.248 65.0835 81.084 65.5395 80.1C65.9955 79.116 66.6495 78.36 67.5015 77.832C68.3655 77.304 69.3855 77.04 70.5615 77.04C71.7375 77.04 72.7575 77.304 73.6215 77.832C74.4855 78.36 75.1455 79.116 75.6015 80.1C76.0575 81.072 76.2855 82.23 76.2855 83.574C76.2855 84.918 76.0515 86.088 75.5835 87.084C75.1275 88.068 74.4675 88.824 73.6035 89.352C72.7515 89.88 71.7375 90.144 70.5615 90.144ZM70.5615 89.154C72.0015 89.154 73.1175 88.668 73.9095 87.696C74.7135 86.724 75.1155 85.35 75.1155 83.574C75.1155 81.798 74.7195 80.43 73.9275 79.47C73.1355 78.51 72.0135 78.03 70.5615 78.03C69.1215 78.03 67.9995 78.516 67.1955 79.488C66.4035 80.448 66.0075 81.81 66.0075 83.574C66.0075 85.338 66.4035 86.712 67.1955 87.696C67.9995 88.668 69.1215 89.154 70.5615 89.154ZM82.0572 77.67C81.5412 77.67 81.1452 77.808 80.8692 78.084C80.5932 78.36 80.4552 78.852 80.4552 79.56V80.982H82.7772V81.864H80.4552V90H79.3572V81.864H77.5932V80.982H79.3572V79.362C79.3572 78.462 79.5792 77.79 80.0232 77.346C80.4672 76.902 81.0792 76.68 81.8592 76.68C82.2192 76.68 82.5912 76.728 82.9752 76.824V77.814C82.6512 77.718 82.3452 77.67 82.0572 77.67ZM87.9635 77.67C87.4475 77.67 87.0515 77.808 86.7755 78.084C86.4995 78.36 86.3615 78.852 86.3615 79.56V80.982H88.6835V81.864H86.3615V90H85.2635V81.864H83.4995V80.982H85.2635V79.362C85.2635 78.462 85.4855 77.79 85.9295 77.346C86.3735 76.902 86.9855 76.68 87.7655 76.68C88.1255 76.68 88.4975 76.728 88.8815 76.824V77.814C88.5575 77.718 88.2515 77.67 87.9635 77.67ZM91.1735 85.356V85.41C91.1735 86.622 91.4495 87.552 92.0015 88.2C92.5655 88.836 93.3815 89.154 94.4495 89.154C95.5295 89.154 96.5195 88.782 97.4195 88.038L97.8515 88.902C97.4555 89.274 96.9515 89.574 96.3395 89.802C95.7275 90.018 95.0975 90.126 94.4495 90.126C93.0815 90.126 92.0015 89.712 91.2095 88.884C90.4175 88.056 90.0215 86.916 90.0215 85.464C90.0215 84.54 90.1955 83.724 90.5435 83.016C90.9035 82.296 91.4015 81.744 92.0375 81.36C92.6735 80.964 93.4055 80.766 94.2335 80.766C95.4215 80.766 96.3455 81.15 97.0055 81.918C97.6775 82.686 98.0135 83.754 98.0135 85.122V85.356H91.1735ZM94.2335 81.666C93.4055 81.666 92.7335 81.918 92.2175 82.422C91.7015 82.914 91.3775 83.61 91.2455 84.51H96.9695C96.8975 83.586 96.6275 82.884 96.1595 82.404C95.6915 81.912 95.0495 81.666 94.2335 81.666ZM104.259 80.766C104.559 80.766 104.823 80.79 105.051 80.838L104.997 81.828C104.769 81.78 104.493 81.756 104.169 81.756C103.257 81.756 102.573 82.05 102.117 82.638C101.673 83.214 101.451 83.904 101.451 84.708V90H100.371V83.484C100.371 82.548 100.323 81.714 100.227 80.982H101.271L101.415 82.656C101.643 82.044 102.009 81.576 102.513 81.252C103.029 80.928 103.611 80.766 104.259 80.766ZM109.492 90.126C108.028 90.126 106.87 89.724 106.018 88.92L106.414 88.074C106.894 88.47 107.374 88.752 107.854 88.92C108.346 89.088 108.91 89.172 109.546 89.172C110.29 89.172 110.854 89.046 111.238 88.794C111.634 88.53 111.832 88.152 111.832 87.66C111.832 87.252 111.7 86.934 111.436 86.706C111.184 86.466 110.764 86.274 110.176 86.13L108.646 85.788C107.926 85.62 107.356 85.32 106.936 84.888C106.528 84.456 106.324 83.952 106.324 83.376C106.324 82.584 106.624 81.954 107.224 81.486C107.836 81.006 108.646 80.766 109.654 80.766C110.29 80.766 110.878 80.868 111.418 81.072C111.97 81.276 112.426 81.57 112.786 81.954L112.372 82.8C111.544 82.08 110.638 81.72 109.654 81.72C108.958 81.72 108.418 81.858 108.034 82.134C107.65 82.41 107.458 82.794 107.458 83.286C107.458 83.694 107.578 84.024 107.818 84.276C108.07 84.528 108.454 84.714 108.97 84.834L110.518 85.212C112.138 85.572 112.948 86.37 112.948 87.606C112.948 88.362 112.636 88.974 112.012 89.442C111.388 89.898 110.548 90.126 109.492 90.126ZM1.656 115.184H5.778C7.818 115.184 9.39 115.736 10.494 116.84C11.598 117.944 12.15 119.522 12.15 121.574C12.15 123.626 11.592 125.21 10.476 126.326C9.372 127.442 7.806 128 5.778 128H1.656V115.184ZM5.724 127.028C7.464 127.028 8.772 126.572 9.648 125.66C10.524 124.736 10.962 123.374 10.962 121.574C10.962 117.962 9.216 116.156 5.724 116.156H2.772V127.028H5.724ZM15.3766 123.356V123.41C15.3766 124.622 15.6526 125.552 16.2046 126.2C16.7686 126.836 17.5846 127.154 18.6526 127.154C19.7326 127.154 20.7226 126.782 21.6226 126.038L22.0546 126.902C21.6586 127.274 21.1546 127.574 20.5426 127.802C19.9306 128.018 19.3006 128.126 18.6526 128.126C17.2846 128.126 16.2046 127.712 15.4126 126.884C14.6206 126.056 14.2246 124.916 14.2246 123.464C14.2246 122.54 14.3986 121.724 14.7466 121.016C15.1066 120.296 15.6046 119.744 16.2406 119.36C16.8766 118.964 17.6086 118.766 18.4366 118.766C19.6246 118.766 20.5486 119.15 21.2086 119.918C21.8806 120.686 22.2166 121.754 22.2166 123.122V123.356H15.3766ZM18.4366 119.666C17.6086 119.666 16.9366 119.918 16.4206 120.422C15.9046 120.914 15.5806 121.61 15.4486 122.51H21.1726C21.1006 121.586 20.8306 120.884 20.3626 120.404C19.8946 119.912 19.2526 119.666 18.4366 119.666ZM24.5741 114.752H25.6541V128H24.5741V114.752ZM28.6698 118.982H29.7498V128H28.6698V118.982ZM29.9658 115.256V116.66H28.5078V115.256H29.9658ZM40.4155 118.982L36.5455 128H35.4115L31.5955 118.982H32.7655L36.0235 126.902L39.2995 118.982H40.4155ZM42.7106 123.356V123.41C42.7106 124.622 42.9866 125.552 43.5386 126.2C44.1026 126.836 44.9186 127.154 45.9866 127.154C47.0666 127.154 48.0566 126.782 48.9566 126.038L49.3886 126.902C48.9926 127.274 48.4886 127.574 47.8766 127.802C47.2646 128.018 46.6346 128.126 45.9866 128.126C44.6186 128.126 43.5386 127.712 42.7466 126.884C41.9546 126.056 41.5586 124.916 41.5586 123.464C41.5586 122.54 41.7326 121.724 42.0806 121.016C42.4406 120.296 42.9386 119.744 43.5746 119.36C44.2106 118.964 44.9426 118.766 45.7706 118.766C46.9586 118.766 47.8826 119.15 48.5426 119.918C49.2146 120.686 49.5506 121.754 49.5506 123.122V123.356H42.7106ZM45.7706 119.666C44.9426 119.666 44.2706 119.918 43.7546 120.422C43.2386 120.914 42.9146 121.61 42.7826 122.51H48.5066C48.4346 121.586 48.1646 120.884 47.6966 120.404C47.2286 119.912 46.5866 119.666 45.7706 119.666ZM55.7961 118.766C56.0961 118.766 56.3601 118.79 56.5881 118.838L56.5341 119.828C56.3061 119.78 56.0301 119.756 55.7061 119.756C54.7941 119.756 54.1101 120.05 53.6541 120.638C53.2101 121.214 52.9881 121.904 52.9881 122.708V128H51.9081V121.484C51.9081 120.548 51.8601 119.714 51.7641 118.982H52.8081L52.9521 120.656C53.1801 120.044 53.5461 119.576 54.0501 119.252C54.5661 118.928 55.1481 118.766 55.7961 118.766ZM66.3784 118.982L62.1304 128.936C61.7104 129.92 61.1824 130.64 60.5464 131.096C59.9224 131.564 59.1364 131.894 58.1884 132.086L57.9724 131.222C58.8364 131.018 59.4844 130.754 59.9164 130.43C60.3604 130.106 60.7324 129.596 61.0324 128.9L61.4104 128.018L57.5584 118.982H58.7284L61.9864 126.902L65.2624 118.982H66.3784ZM76.0853 116.156H71.4953V115.184H81.7913V116.156H77.2013V128H76.0853V116.156ZM83.496 118.982H84.576V128H83.496V118.982ZM84.792 115.256V116.66H83.334V115.256H84.792ZM97.3117 118.766C99.3037 118.766 100.3 119.93 100.3 122.258V128H99.2017V122.33C99.2017 121.418 99.0397 120.758 98.7157 120.35C98.3917 119.93 97.8757 119.72 97.1677 119.72C96.3397 119.72 95.6857 119.996 95.2057 120.548C94.7377 121.1 94.5037 121.85 94.5037 122.798V128H93.4057V122.33C93.4057 121.418 93.2377 120.758 92.9017 120.35C92.5777 119.93 92.0617 119.72 91.3537 119.72C90.5377 119.72 89.8837 119.996 89.3917 120.548C88.9117 121.1 88.6717 121.85 88.6717 122.798V128H87.5917V121.484C87.5917 120.548 87.5437 119.714 87.4477 118.982H88.4917L88.6357 120.602C88.8877 120.002 89.2597 119.546 89.7517 119.234C90.2557 118.922 90.8377 118.766 91.4977 118.766C92.9497 118.766 93.8797 119.354 94.2877 120.53C94.5397 119.978 94.9297 119.546 95.4577 119.234C95.9977 118.922 96.6157 118.766 97.3117 118.766ZM103.812 123.356V123.41C103.812 124.622 104.088 125.552 104.64 126.2C105.204 126.836 106.02 127.154 107.088 127.154C108.168 127.154 109.158 126.782 110.058 126.038L110.49 126.902C110.094 127.274 109.59 127.574 108.978 127.802C108.366 128.018 107.736 128.126 107.088 128.126C105.72 128.126 104.64 127.712 103.848 126.884C103.056 126.056 102.66 124.916 102.66 123.464C102.66 122.54 102.834 121.724 103.182 121.016C103.542 120.296 104.04 119.744 104.676 119.36C105.312 118.964 106.044 118.766 106.872 118.766C108.06 118.766 108.984 119.15 109.644 119.918C110.316 120.686 110.652 121.754 110.652 123.122V123.356H103.812ZM106.872 119.666C106.044 119.666 105.372 119.918 104.856 120.422C104.34 120.914 104.016 121.61 103.884 122.51H109.608C109.536 121.586 109.266 120.884 108.798 120.404C108.33 119.912 107.688 119.666 106.872 119.666ZM115.944 128.126C114.48 128.126 113.322 127.724 112.47 126.92L112.866 126.074C113.346 126.47 113.826 126.752 114.306 126.92C114.798 127.088 115.362 127.172 115.998 127.172C116.742 127.172 117.306 127.046 117.69 126.794C118.086 126.53 118.284 126.152 118.284 125.66C118.284 125.252 118.152 124.934 117.888 124.706C117.636 124.466 117.216 124.274 116.628 124.13L115.098 123.788C114.378 123.62 113.808 123.32 113.388 122.888C112.98 122.456 112.776 121.952 112.776 121.376C112.776 120.584 113.076 119.954 113.676 119.486C114.288 119.006 115.098 118.766 116.106 118.766C116.742 118.766 117.33 118.868 117.87 119.072C118.422 119.276 118.878 119.57 119.238 119.954L118.824 120.8C117.996 120.08 117.09 119.72 116.106 119.72C115.41 119.72 114.87 119.858 114.486 120.134C114.102 120.41 113.91 120.794 113.91 121.286C113.91 121.694 114.03 122.024 114.27 122.276C114.522 122.528 114.906 122.714 115.422 122.834L116.97 123.212C118.59 123.572 119.4 124.37 119.4 125.606C119.4 126.362 119.088 126.974 118.464 127.442C117.84 127.898 117 128.126 115.944 128.126ZM1.656 153.184H9.378V154.138H2.772V158.998H9.018V159.988H2.772V166H1.656V153.184ZM18.8674 162.58H11.9554L10.4794 166H9.32738L14.9074 153.184H15.9154L21.4774 166H20.3254L18.8674 162.58ZM18.4354 161.608L15.4114 154.534L12.3694 161.608H18.4354ZM30.2645 165.874C30.8285 166.882 31.6025 167.8 32.5865 168.628L31.8125 169.438C31.3445 169.066 30.8585 168.58 30.3545 167.98C29.8625 167.38 29.4305 166.756 29.0585 166.108C28.7465 166.132 28.5125 166.144 28.3565 166.144C27.1925 166.144 26.1785 165.88 25.3145 165.352C24.4625 164.824 23.8025 164.068 23.3345 163.084C22.8785 162.1 22.6505 160.936 22.6505 159.592C22.6505 158.248 22.8785 157.084 23.3345 156.1C23.7905 155.116 24.4445 154.36 25.2965 153.832C26.1605 153.304 27.1805 153.04 28.3565 153.04C29.5325 153.04 30.5525 153.304 31.4165 153.832C32.2805 154.36 32.9405 155.116 33.3965 156.1C33.8525 157.072 34.0805 158.23 34.0805 159.574C34.0805 161.206 33.7445 162.568 33.0725 163.66C32.4125 164.752 31.4765 165.49 30.2645 165.874ZM23.8025 159.574C23.8025 161.338 24.1985 162.712 24.9905 163.696C25.7945 164.668 26.9165 165.154 28.3565 165.154C29.7965 165.154 30.9125 164.668 31.7045 163.696C32.5085 162.724 32.9105 161.35 32.9105 159.574C32.9105 157.798 32.5145 156.43 31.7225 155.47C30.9305 154.51 29.8085 154.03 28.3565 154.03C26.9165 154.03 25.7945 154.516 24.9905 155.488C24.1985 156.448 23.8025 157.81 23.8025 159.574ZM39.6721 166.126C38.2081 166.126 37.0501 165.724 36.1981 164.92L36.5941 164.074C37.0741 164.47 37.5541 164.752 38.0341 164.92C38.5261 165.088 39.0901 165.172 39.7261 165.172C40.4701 165.172 41.0341 165.046 41.4181 164.794C41.8141 164.53 42.0121 164.152 42.0121 163.66C42.0121 163.252 41.8801 162.934 41.6161 162.706C41.3641 162.466 40.9441 162.274 40.3561 162.13L38.8261 161.788C38.1061 161.62 37.5361 161.32 37.1161 160.888C36.7081 160.456 36.5041 159.952 36.5041 159.376C36.5041 158.584 36.8041 157.954 37.4041 157.486C38.0161 157.006 38.8261 156.766 39.8341 156.766C40.4701 156.766 41.0581 156.868 41.5981 157.072C42.1501 157.276 42.6061 157.57 42.9661 157.954L42.5521 158.8C41.7241 158.08 40.8181 157.72 39.8341 157.72C39.1381 157.72 38.5981 157.858 38.2141 158.134C37.8301 158.41 37.6381 158.794 37.6381 159.286C37.6381 159.694 37.7581 160.024 37.9981 160.276C38.2501 160.528 38.6341 160.714 39.1501 160.834L40.6981 161.212C42.3181 161.572 43.1281 162.37 43.1281 163.606C43.1281 164.362 42.8161 164.974 42.1921 165.442C41.5681 165.898 40.7281 166.126 39.6721 166.126Z" fill="#848484"/>
</svg>
