<svg width="40" height="40" viewBox="0 0 40 40" fill="none" xmlns="http://www.w3.org/2000/svg">
<path fill-rule="evenodd" clip-rule="evenodd" d="M31.2 8H8.80001C5.70722 8 3.20001 10.5072 3.20001 13.6V14.4H36.8V13.6C36.8 10.5072 34.2928 8 31.2 8ZM3.20001 28V20.8H36.8V28C36.8 31.0928 34.2928 33.6 31.2 33.6H8.80001C5.70722 33.6 3.20001 31.0928 3.20001 28ZM31.2 28.8H24.8C24.3582 28.8 24 28.4418 24 28C24 27.5582 24.3582 27.2 24.8 27.2H31.2C31.6418 27.2 32 27.5582 32 28C32 28.4418 31.6418 28.8 31.2 28.8ZM3.20001 19.2V16H36.8V19.2H3.20001Z" fill="#1BD27E"/>
</svg>
