<svg width="40" height="38" viewBox="0 0 40 38" fill="none" xmlns="http://www.w3.org/2000/svg">
<path fill-rule="evenodd" clip-rule="evenodd" d="M6 13.2C6 12.8817 6.12643 12.5765 6.35147 12.3515C6.57652 12.1264 6.88174 12 7.2 12H21.6C21.9183 12 22.2235 12.1264 22.4485 12.3515C22.6736 12.5765 22.8 12.8817 22.8 13.2C22.8 13.5183 22.6736 13.8235 22.4485 14.0485C22.2235 14.2736 21.9183 14.4 21.6 14.4H7.2C6.88174 14.4 6.57652 14.2736 6.35147 14.0485C6.12643 13.8235 6 13.5183 6 13.2ZM6 19.2C6 18.8817 6.12643 18.5765 6.35147 18.3515C6.57652 18.1264 6.88174 18 7.2 18H21.6C21.9183 18 22.2235 18.1264 22.4485 18.3515C22.6736 18.5765 22.8 18.8817 22.8 19.2C22.8 19.5183 22.6736 19.8235 22.4485 20.0485C22.2235 20.2736 21.9183 20.4 21.6 20.4H7.2C6.88174 20.4 6.57652 20.2736 6.35147 20.0485C6.12643 19.8235 6 19.5183 6 19.2ZM13.2 25.2C13.2 24.8817 13.3264 24.5765 13.5515 24.3515C13.7765 24.1264 14.0817 24 14.4 24H21.6C21.9183 24 22.2235 24.1264 22.4485 24.3515C22.6736 24.5765 22.8 24.8817 22.8 25.2C22.8 25.5183 22.6736 25.8235 22.4485 26.0485C22.2235 26.2736 21.9183 26.4 21.6 26.4H14.4C14.0817 26.4 13.7765 26.2736 13.5515 26.0485C13.3264 25.8235 13.2 25.5183 13.2 25.2Z" fill="#112F53"/>
</svg>
