<svg width="40" height="40" viewBox="0 0 40 40" fill="none" xmlns="http://www.w3.org/2000/svg">
<path fill-rule="evenodd" clip-rule="evenodd" d="M8.8 3.19995H31.2C34.2928 3.19995 36.8 5.70716 36.8 8.79995V20C36.8 23.0927 34.2928 25.6 31.2 25.6H8.8C5.7072 25.6 3.2 23.0927 3.2 20V8.79995C3.2 5.70716 5.7072 3.19995 8.8 3.19995ZM36.8 24.7999V24C36.8 24 35.5911 26.9287 31.2 27.2H8.8C4.31491 26.8688 3.2 24 3.2 24V24.7999C3.2 27.8927 5.7072 30.4 8.8 30.4H31.2C34.2928 30.4 36.8 27.8927 36.8 24.7999ZM36.8 29.6V28.8C36.8 28.8 35.5911 31.7287 31.2 32H8.8C4.31491 31.6688 3.2 28.8 3.2 28.8V29.6C3.2 32.6927 5.7072 35.2 8.8 35.2H31.2C34.2928 35.2 36.8 32.6927 36.8 29.6ZM23.2 9.59995H20.8V8.79995C20.8 8.35812 20.4418 7.99995 20 7.99995C19.5582 7.99995 19.2 8.35812 19.2 8.79995V9.59995H18.4223C17.0968 9.59995 16.0223 10.6745 16.0223 12V12.8012C16.0223 14.1266 17.0968 15.2012 18.4223 15.2012H21.6C22.0418 15.2012 22.4 15.5593 22.4 16.0012V16.8C22.4 17.2418 22.0418 17.6 21.6 17.6H17.6196C17.5867 17.1997 17.2576 16.8794 16.8466 16.8669C16.405 16.8535 16.0361 17.2006 16.0227 17.6422L16.0004 18.3756C15.9867 18.8268 16.3486 19.2 16.8 19.2H19.2V19.9859C19.2 20.4278 19.5582 20.7859 20 20.7859C20.4418 20.7859 20.8 20.4278 20.8 19.9859V19.2H21.6C22.9255 19.2 24 18.1254 24 16.8V16.0012C24 14.6757 22.9255 13.6012 21.6 13.6012H18.4223C17.9805 13.6012 17.6223 13.243 17.6223 12.8012V12C17.6223 11.5581 17.9805 11.2 18.4223 11.2H22.4238C22.5106 11.5479 22.8252 11.8056 23.2 11.8056C23.6418 11.8056 24 11.4474 24 11.0056V10.4C24 9.95812 23.6418 9.59995 23.2 9.59995Z" fill="#1BD27E"/>
</svg>
