<svg width="150" height="29" viewBox="0 0 150 29" fill="none" xmlns="http://www.w3.org/2000/svg">
<g clip-path="url(#clip0_0_592)">
<path d="M9.72 21.624C10.448 21.624 11.08 21.56 11.616 21.432C12.16 21.296 12.676 21.112 13.164 20.88V17.724H10.992C10.784 17.724 10.62 17.668 10.5 17.556C10.38 17.436 10.32 17.292 10.32 17.124V15.3H16.092V22.32C15.652 22.64 15.192 22.92 14.712 23.16C14.24 23.392 13.732 23.584 13.188 23.736C12.652 23.888 12.076 24 11.46 24.072C10.844 24.152 10.18 24.192 9.468 24.192C8.204 24.192 7.04 23.972 5.976 23.532C4.912 23.092 3.992 22.48 3.216 21.696C2.44 20.912 1.832 19.976 1.392 18.888C0.96 17.8 0.744 16.612 0.744 15.324C0.744 14.02 0.956 12.824 1.38 11.736C1.804 10.648 2.404 9.712 3.18 8.928C3.964 8.144 4.912 7.536 6.024 7.104C7.136 6.672 8.384 6.456 9.768 6.456C11.184 6.456 12.408 6.668 13.44 7.092C14.48 7.508 15.36 8.052 16.08 8.724L15.144 10.188C14.96 10.484 14.716 10.632 14.412 10.632C14.22 10.632 14.024 10.568 13.824 10.44C13.568 10.288 13.304 10.136 13.032 9.984C12.768 9.832 12.472 9.7 12.144 9.588C11.824 9.476 11.46 9.384 11.052 9.312C10.652 9.24 10.188 9.204 9.66 9.204C8.804 9.204 8.028 9.348 7.332 9.636C6.644 9.924 6.056 10.336 5.568 10.872C5.08 11.408 4.704 12.052 4.44 12.804C4.176 13.556 4.044 14.396 4.044 15.324C4.044 16.324 4.184 17.216 4.464 18C4.744 18.776 5.136 19.432 5.64 19.968C6.144 20.504 6.744 20.916 7.44 21.204C8.136 21.484 8.896 21.624 9.72 21.624ZM19.0028 24V11.688H20.7428C21.0468 11.688 21.2588 11.744 21.3788 11.856C21.4988 11.968 21.5788 12.16 21.6188 12.432L21.7988 13.92C22.2388 13.16 22.7548 12.56 23.3468 12.12C23.9388 11.68 24.6028 11.46 25.3388 11.46C25.9468 11.46 26.4508 11.6 26.8508 11.88L26.4668 14.1C26.4428 14.244 26.3908 14.348 26.3108 14.412C26.2308 14.468 26.1228 14.496 25.9868 14.496C25.8668 14.496 25.7028 14.468 25.4948 14.412C25.2868 14.356 25.0108 14.328 24.6668 14.328C24.0508 14.328 23.5228 14.5 23.0828 14.844C22.6428 15.18 22.2708 15.676 21.9668 16.332V24H19.0028ZM34.1306 11.496C35.0506 11.496 35.8826 11.644 36.6266 11.94C37.3786 12.236 38.0186 12.656 38.5466 13.2C39.0746 13.744 39.4826 14.408 39.7706 15.192C40.0586 15.976 40.2026 16.852 40.2026 17.82C40.2026 18.796 40.0586 19.676 39.7706 20.46C39.4826 21.244 39.0746 21.912 38.5466 22.464C38.0186 23.016 37.3786 23.44 36.6266 23.736C35.8826 24.032 35.0506 24.18 34.1306 24.18C33.2106 24.18 32.3746 24.032 31.6226 23.736C30.8706 23.44 30.2266 23.016 29.6906 22.464C29.1626 21.912 28.7506 21.244 28.4546 20.46C28.1666 19.676 28.0226 18.796 28.0226 17.82C28.0226 16.852 28.1666 15.976 28.4546 15.192C28.7506 14.408 29.1626 13.744 29.6906 13.2C30.2266 12.656 30.8706 12.236 31.6226 11.94C32.3746 11.644 33.2106 11.496 34.1306 11.496ZM34.1306 21.9C35.1546 21.9 35.9106 21.556 36.3986 20.868C36.8946 20.18 37.1426 19.172 37.1426 17.844C37.1426 16.516 36.8946 15.504 36.3986 14.808C35.9106 14.112 35.1546 13.764 34.1306 13.764C33.0906 13.764 32.3226 14.116 31.8266 14.82C31.3306 15.516 31.0826 16.524 31.0826 17.844C31.0826 19.164 31.3306 20.172 31.8266 20.868C32.3226 21.556 33.0906 21.9 34.1306 21.9ZM51.2422 14.292C51.1542 14.404 51.0662 14.492 50.9782 14.556C50.8982 14.62 50.7782 14.652 50.6182 14.652C50.4662 14.652 50.3182 14.608 50.1742 14.52C50.0302 14.424 49.8582 14.32 49.6582 14.208C49.4582 14.088 49.2182 13.984 48.9382 13.896C48.6662 13.8 48.3262 13.752 47.9182 13.752C47.3982 13.752 46.9422 13.848 46.5502 14.04C46.1582 14.224 45.8302 14.492 45.5662 14.844C45.3102 15.196 45.1182 15.624 44.9902 16.128C44.8622 16.624 44.7982 17.188 44.7982 17.82C44.7982 18.476 44.8662 19.06 45.0022 19.572C45.1462 20.084 45.3502 20.516 45.6142 20.868C45.8782 21.212 46.1982 21.476 46.5742 21.66C46.9502 21.836 47.3742 21.924 47.8462 21.924C48.3182 21.924 48.6982 21.868 48.9862 21.756C49.2822 21.636 49.5302 21.508 49.7302 21.372C49.9302 21.228 50.1022 21.1 50.2462 20.988C50.3982 20.868 50.5662 20.808 50.7502 20.808C50.9902 20.808 51.1702 20.9 51.2902 21.084L52.1422 22.164C51.8142 22.548 51.4582 22.872 51.0742 23.136C50.6902 23.392 50.2902 23.6 49.8742 23.76C49.4662 23.912 49.0422 24.02 48.6022 24.084C48.1622 24.148 47.7262 24.18 47.2942 24.18C46.5342 24.18 45.8182 24.04 45.1462 23.76C44.4742 23.472 43.8862 23.056 43.3822 22.512C42.8862 21.968 42.4902 21.304 42.1942 20.52C41.9062 19.728 41.7622 18.828 41.7622 17.82C41.7622 16.916 41.8902 16.08 42.1462 15.312C42.4102 14.536 42.7942 13.868 43.2982 13.308C43.8022 12.74 44.4262 12.296 45.1702 11.976C45.9142 11.656 46.7702 11.496 47.7382 11.496C48.6582 11.496 49.4622 11.644 50.1502 11.94C50.8462 12.236 51.4702 12.66 52.0222 13.212L51.2422 14.292ZM59.1907 11.496C59.9667 11.496 60.6787 11.62 61.3267 11.868C61.9827 12.116 62.5467 12.48 63.0187 12.96C63.4907 13.432 63.8587 14.016 64.1228 14.712C64.3867 15.4 64.5187 16.188 64.5187 17.076C64.5187 17.3 64.5067 17.488 64.4827 17.64C64.4667 17.784 64.4307 17.9 64.3747 17.988C64.3267 18.068 64.2587 18.128 64.1708 18.168C64.0827 18.2 63.9707 18.216 63.8347 18.216H56.2267C56.3147 19.48 56.6547 20.408 57.2467 21C57.8387 21.592 58.6227 21.888 59.5987 21.888C60.0787 21.888 60.4907 21.832 60.8347 21.72C61.1867 21.608 61.4907 21.484 61.7467 21.348C62.0107 21.212 62.2387 21.088 62.4307 20.976C62.6307 20.864 62.8227 20.808 63.0067 20.808C63.1267 20.808 63.2307 20.832 63.3187 20.88C63.4067 20.928 63.4827 20.996 63.5467 21.084L64.4107 22.164C64.0827 22.548 63.7147 22.872 63.3067 23.136C62.8987 23.392 62.4707 23.6 62.0227 23.76C61.5827 23.912 61.1307 24.02 60.6667 24.084C60.2107 24.148 59.7667 24.18 59.3347 24.18C58.4787 24.18 57.6827 24.04 56.9467 23.76C56.2107 23.472 55.5707 23.052 55.0267 22.5C54.4827 21.94 54.0547 21.252 53.7427 20.436C53.4307 19.612 53.2747 18.66 53.2747 17.58C53.2747 16.74 53.4107 15.952 53.6827 15.216C53.9547 14.472 54.3427 13.828 54.8467 13.284C55.3587 12.732 55.9787 12.296 56.7067 11.976C57.4427 11.656 58.2707 11.496 59.1907 11.496ZM59.2507 13.62C58.3867 13.62 57.7107 13.864 57.2227 14.352C56.7347 14.84 56.4227 15.532 56.2867 16.428H61.8547C61.8547 16.044 61.8027 15.684 61.6987 15.348C61.5947 15.004 61.4347 14.704 61.2187 14.448C61.0027 14.192 60.7307 13.992 60.4027 13.848C60.0747 13.696 59.6907 13.62 59.2507 13.62ZM66.9981 24V11.688H68.7381C69.0421 11.688 69.2541 11.744 69.3741 11.856C69.4941 11.968 69.5741 12.16 69.6141 12.432L69.7941 13.92C70.2341 13.16 70.7501 12.56 71.3421 12.12C71.9341 11.68 72.5981 11.46 73.3341 11.46C73.9421 11.46 74.4461 11.6 74.8461 11.88L74.4621 14.1C74.4381 14.244 74.3861 14.348 74.3061 14.412C74.2261 14.468 74.1181 14.496 73.9821 14.496C73.8621 14.496 73.6981 14.468 73.4901 14.412C73.2821 14.356 73.0061 14.328 72.6621 14.328C72.0461 14.328 71.5181 14.5 71.0781 14.844C70.6381 15.18 70.2661 15.676 69.9621 16.332V24H66.9981ZM81.2379 27.384C81.1499 27.592 81.0339 27.748 80.8899 27.852C80.7539 27.964 80.5419 28.02 80.2539 28.02H78.0459L80.3499 23.088L75.3699 11.688H77.9619C78.2019 11.688 78.3859 11.744 78.5139 11.856C78.6419 11.968 78.7379 12.096 78.8019 12.24L81.4299 18.624C81.5179 18.832 81.5939 19.048 81.6579 19.272C81.7219 19.496 81.7779 19.72 81.8259 19.944C81.8899 19.712 81.9579 19.488 82.0299 19.272C82.1099 19.056 82.1939 18.836 82.2819 18.612L84.7539 12.24C84.8179 12.08 84.9219 11.948 85.0659 11.844C85.2179 11.74 85.3859 11.688 85.5699 11.688H87.9459L81.2379 27.384ZM97.0498 14.088C96.9698 14.216 96.8858 14.308 96.7978 14.364C96.7098 14.412 96.5978 14.436 96.4618 14.436C96.3178 14.436 96.1618 14.396 95.9938 14.316C95.8338 14.236 95.6458 14.148 95.4298 14.052C95.2138 13.948 94.9658 13.856 94.6858 13.776C94.4138 13.696 94.0898 13.656 93.7138 13.656C93.1298 13.656 92.6698 13.78 92.3338 14.028C91.9978 14.276 91.8298 14.6 91.8298 15C91.8298 15.264 91.9138 15.488 92.0818 15.672C92.2578 15.848 92.4858 16.004 92.7658 16.14C93.0538 16.276 93.3778 16.4 93.7378 16.512C94.0978 16.616 94.4658 16.732 94.8418 16.86C95.2178 16.988 95.5858 17.136 95.9458 17.304C96.3058 17.464 96.6258 17.672 96.9058 17.928C97.1938 18.176 97.4218 18.476 97.5898 18.828C97.7658 19.18 97.8538 19.604 97.8538 20.1C97.8538 20.692 97.7458 21.24 97.5298 21.744C97.3138 22.24 96.9978 22.672 96.5818 23.04C96.1658 23.4 95.6498 23.684 95.0338 23.892C94.4258 24.092 93.7258 24.192 92.9338 24.192C92.5098 24.192 92.0938 24.152 91.6858 24.072C91.2858 24 90.8978 23.896 90.5218 23.76C90.1538 23.624 89.8098 23.464 89.4898 23.28C89.1778 23.096 88.9018 22.896 88.6618 22.68L89.3458 21.552C89.4338 21.416 89.5378 21.312 89.6578 21.24C89.7778 21.168 89.9298 21.132 90.1138 21.132C90.2978 21.132 90.4698 21.184 90.6298 21.288C90.7978 21.392 90.9898 21.504 91.2058 21.624C91.4218 21.744 91.6738 21.856 91.9618 21.96C92.2578 22.064 92.6298 22.116 93.0778 22.116C93.4298 22.116 93.7298 22.076 93.9778 21.996C94.2338 21.908 94.4418 21.796 94.6018 21.66C94.7698 21.524 94.8898 21.368 94.9618 21.192C95.0418 21.008 95.0818 20.82 95.0818 20.628C95.0818 20.34 94.9938 20.104 94.8178 19.92C94.6498 19.736 94.4218 19.576 94.1338 19.44C93.8538 19.304 93.5298 19.184 93.1618 19.08C92.8018 18.968 92.4298 18.848 92.0458 18.72C91.6698 18.592 91.2978 18.444 90.9298 18.276C90.5698 18.1 90.2458 17.88 89.9578 17.616C89.6778 17.352 89.4498 17.028 89.2738 16.644C89.1058 16.26 89.0218 15.796 89.0218 15.252C89.0218 14.748 89.1218 14.268 89.3218 13.812C89.5218 13.356 89.8138 12.96 90.1978 12.624C90.5898 12.28 91.0738 12.008 91.6498 11.808C92.2338 11.6 92.9058 11.496 93.6658 11.496C94.5138 11.496 95.2858 11.636 95.9818 11.916C96.6778 12.196 97.2578 12.564 97.7218 13.02L97.0498 14.088ZM100.293 28.02V11.688H102.105C102.297 11.688 102.461 11.732 102.597 11.82C102.733 11.908 102.821 12.044 102.861 12.228L103.101 13.368C103.597 12.8 104.165 12.34 104.805 11.988C105.453 11.636 106.209 11.46 107.073 11.46C107.745 11.46 108.357 11.6 108.909 11.88C109.469 12.16 109.949 12.568 110.349 13.104C110.757 13.632 111.069 14.288 111.285 15.072C111.509 15.848 111.621 16.74 111.621 17.748C111.621 18.668 111.497 19.52 111.249 20.304C111.001 21.088 110.645 21.768 110.181 22.344C109.725 22.92 109.169 23.372 108.513 23.7C107.865 24.02 107.137 24.18 106.329 24.18C105.633 24.18 105.041 24.076 104.553 23.868C104.073 23.652 103.641 23.356 103.257 22.98V28.02H100.293ZM106.053 13.8C105.437 13.8 104.909 13.932 104.469 14.196C104.037 14.452 103.633 14.816 103.257 15.288V20.808C103.593 21.224 103.957 21.516 104.349 21.684C104.749 21.844 105.177 21.924 105.633 21.924C106.081 21.924 106.485 21.84 106.845 21.672C107.213 21.504 107.521 21.248 107.769 20.904C108.025 20.56 108.221 20.128 108.357 19.608C108.493 19.08 108.561 18.46 108.561 17.748C108.561 17.028 108.501 16.42 108.381 15.924C108.269 15.42 108.105 15.012 107.889 14.7C107.673 14.388 107.409 14.16 107.097 14.016C106.793 13.872 106.445 13.8 106.053 13.8ZM123.587 24H122.255C121.975 24 121.755 23.96 121.595 23.88C121.435 23.792 121.315 23.62 121.235 23.364L120.971 22.488C120.659 22.768 120.351 23.016 120.047 23.232C119.751 23.44 119.443 23.616 119.123 23.76C118.803 23.904 118.463 24.012 118.103 24.084C117.743 24.156 117.343 24.192 116.903 24.192C116.383 24.192 115.903 24.124 115.463 23.988C115.023 23.844 114.643 23.632 114.323 23.352C114.011 23.072 113.767 22.724 113.591 22.308C113.415 21.892 113.327 21.408 113.327 20.856C113.327 20.392 113.447 19.936 113.687 19.488C113.935 19.032 114.343 18.624 114.911 18.264C115.479 17.896 116.235 17.592 117.179 17.352C118.123 17.112 119.295 16.976 120.695 16.944V16.224C120.695 15.4 120.519 14.792 120.167 14.4C119.823 14 119.319 13.8 118.655 13.8C118.175 13.8 117.775 13.856 117.455 13.968C117.135 14.08 116.855 14.208 116.615 14.352C116.383 14.488 116.167 14.612 115.967 14.724C115.767 14.836 115.547 14.892 115.307 14.892C115.107 14.892 114.935 14.84 114.791 14.736C114.647 14.632 114.531 14.504 114.443 14.352L113.903 13.404C115.319 12.108 117.027 11.46 119.027 11.46C119.747 11.46 120.387 11.58 120.947 11.82C121.515 12.052 121.995 12.38 122.387 12.804C122.779 13.22 123.075 13.72 123.275 14.304C123.483 14.888 123.587 15.528 123.587 16.224V24ZM117.827 22.152C118.131 22.152 118.411 22.124 118.667 22.068C118.923 22.012 119.163 21.928 119.387 21.816C119.619 21.704 119.839 21.568 120.047 21.408C120.263 21.24 120.479 21.044 120.695 20.82V18.744C119.831 18.784 119.107 18.86 118.523 18.972C117.947 19.076 117.483 19.212 117.131 19.38C116.779 19.548 116.527 19.744 116.375 19.968C116.231 20.192 116.159 20.436 116.159 20.7C116.159 21.22 116.311 21.592 116.615 21.816C116.927 22.04 117.331 22.152 117.827 22.152ZM135.228 14.292C135.14 14.404 135.052 14.492 134.964 14.556C134.884 14.62 134.764 14.652 134.604 14.652C134.452 14.652 134.304 14.608 134.16 14.52C134.016 14.424 133.844 14.32 133.644 14.208C133.444 14.088 133.204 13.984 132.924 13.896C132.652 13.8 132.312 13.752 131.904 13.752C131.384 13.752 130.928 13.848 130.536 14.04C130.144 14.224 129.816 14.492 129.552 14.844C129.296 15.196 129.104 15.624 128.976 16.128C128.848 16.624 128.784 17.188 128.784 17.82C128.784 18.476 128.852 19.06 128.988 19.572C129.132 20.084 129.336 20.516 129.6 20.868C129.864 21.212 130.184 21.476 130.56 21.66C130.936 21.836 131.36 21.924 131.832 21.924C132.304 21.924 132.684 21.868 132.972 21.756C133.268 21.636 133.516 21.508 133.716 21.372C133.916 21.228 134.088 21.1 134.232 20.988C134.384 20.868 134.552 20.808 134.736 20.808C134.976 20.808 135.156 20.9 135.276 21.084L136.128 22.164C135.8 22.548 135.444 22.872 135.06 23.136C134.676 23.392 134.276 23.6 133.86 23.76C133.452 23.912 133.028 24.02 132.588 24.084C132.148 24.148 131.712 24.18 131.28 24.18C130.52 24.18 129.804 24.04 129.132 23.76C128.46 23.472 127.872 23.056 127.368 22.512C126.872 21.968 126.476 21.304 126.18 20.52C125.892 19.728 125.748 18.828 125.748 17.82C125.748 16.916 125.876 16.08 126.132 15.312C126.396 14.536 126.78 13.868 127.284 13.308C127.788 12.74 128.412 12.296 129.156 11.976C129.9 11.656 130.756 11.496 131.724 11.496C132.644 11.496 133.448 11.644 134.136 11.94C134.832 12.236 135.456 12.66 136.008 13.212L135.228 14.292ZM143.177 11.496C143.953 11.496 144.665 11.62 145.313 11.868C145.969 12.116 146.533 12.48 147.005 12.96C147.477 13.432 147.845 14.016 148.109 14.712C148.373 15.4 148.505 16.188 148.505 17.076C148.505 17.3 148.493 17.488 148.469 17.64C148.453 17.784 148.417 17.9 148.361 17.988C148.313 18.068 148.245 18.128 148.157 18.168C148.069 18.2 147.957 18.216 147.821 18.216H140.213C140.301 19.48 140.641 20.408 141.233 21C141.825 21.592 142.609 21.888 143.585 21.888C144.065 21.888 144.477 21.832 144.821 21.72C145.173 21.608 145.477 21.484 145.733 21.348C145.997 21.212 146.225 21.088 146.417 20.976C146.617 20.864 146.809 20.808 146.993 20.808C147.113 20.808 147.217 20.832 147.305 20.88C147.393 20.928 147.469 20.996 147.533 21.084L148.397 22.164C148.069 22.548 147.701 22.872 147.293 23.136C146.885 23.392 146.457 23.6 146.009 23.76C145.569 23.912 145.117 24.02 144.653 24.084C144.197 24.148 143.753 24.18 143.321 24.18C142.465 24.18 141.669 24.04 140.933 23.76C140.197 23.472 139.557 23.052 139.013 22.5C138.469 21.94 138.041 21.252 137.729 20.436C137.417 19.612 137.261 18.66 137.261 17.58C137.261 16.74 137.397 15.952 137.669 15.216C137.941 14.472 138.329 13.828 138.833 13.284C139.345 12.732 139.965 12.296 140.693 11.976C141.429 11.656 142.257 11.496 143.177 11.496ZM143.237 13.62C142.373 13.62 141.697 13.864 141.209 14.352C140.721 14.84 140.409 15.532 140.273 16.428H145.841C145.841 16.044 145.789 15.684 145.685 15.348C145.581 15.004 145.421 14.704 145.205 14.448C144.989 14.192 144.717 13.992 144.389 13.848C144.061 13.696 143.677 13.62 143.237 13.62Z" fill="#1B1D21"/>
</g>
<defs>
<clipPath id="clip0_0_592">
<rect width="150" height="29" fill="white"/>
</clipPath>
</defs>
</svg>
