<svg width="184" height="16" viewBox="0 0 184 16" fill="none" xmlns="http://www.w3.org/2000/svg">
<g clip-path="url(#clip0_0_20)">
<path d="M14 2.78125C14 2.5625 13.9062 2.375 13.75 2.21875C13.5938 2.09375 13.4062 2 13.2188 2H0.78125C0.53125 2 0.34375 2.09375 0.21875 2.21875C0.0625 2.375 0 2.5625 0 2.78125V15.2188C0 15.4375 0.0625 15.625 0.21875 15.7812C0.34375 15.9375 0.53125 16 0.78125 16H7.46875V10.5625H5.65625V8.46875H7.46875V6.90625C7.46875 6.03125 7.71875 5.34375 8.21875 4.84375C8.71875 4.375 9.375 4.125 10.1875 4.125C10.8125 4.125 11.375 4.15625 11.8125 4.1875V6.09375H10.6875C10.2812 6.09375 10 6.1875 9.84375 6.375C9.71875 6.53125 9.65625 6.78125 9.65625 7.125V8.46875H11.75L11.4688 10.5625H9.65625V16H13.2188C13.4375 16 13.625 15.9375 13.7812 15.7812C13.9062 15.625 14 15.4375 14 15.2188V2.78125Z" fill="#1B1D21"/>
<path d="M55.3438 5.75C55.9688 5.28125 56.5312 4.71875 57 4.03125C56.375 4.3125 55.75 4.5 55.125 4.5625C55.8125 4.125 56.3125 3.53125 56.5625 2.75C55.9062 3.125 55.2188 3.40625 54.4688 3.53125C54.1562 3.21875 53.7812 2.96875 53.375 2.78125C52.9688 2.59375 52.5312 2.5 52.0625 2.5C51.4688 2.5 50.9375 2.65625 50.4375 2.9375C49.9375 3.25 49.5312 3.65625 49.25 4.15625C48.9375 4.65625 48.8125 5.21875 48.8125 5.78125C48.8125 6.03125 48.8125 6.28125 48.875 6.53125C47.5312 6.46875 46.2812 6.15625 45.0938 5.53125C43.9062 4.9375 42.9375 4.125 42.125 3.09375C41.8125 3.625 41.6562 4.1875 41.6562 4.75C41.6562 5.3125 41.7812 5.84375 42.0625 6.3125C42.3125 6.8125 42.6875 7.1875 43.125 7.5C42.5938 7.5 42.0938 7.34375 41.6562 7.0625V7.125C41.6562 7.90625 41.9062 8.59375 42.4062 9.1875C42.9062 9.8125 43.5312 10.1875 44.2812 10.3438C43.9688 10.4062 43.6875 10.4375 43.4062 10.4375C43.2188 10.4375 43 10.4375 42.8125 10.4062C43 11.0625 43.375 11.5938 43.9375 12.0312C44.5 12.4688 45.125 12.6562 45.875 12.6562C44.6562 13.5938 43.2812 14.0625 41.7812 14.0625C41.4688 14.0625 41.2188 14.0625 41 14.0312C42.5 15.0312 44.1875 15.5 46.0312 15.5C47.9375 15.5 49.625 15.0312 51.125 14.0312C52.4688 13.1562 53.5312 12 54.2812 10.5C55 9.125 55.375 7.65625 55.375 6.15625C55.375 5.96875 55.3438 5.84375 55.3438 5.75Z" fill="#1B1D21"/>
<path d="M90 5.40625C90.625 5.40625 91.2188 5.59375 91.7812 5.90625C92.3438 6.21875 92.7812 6.65625 93.0938 7.21875C93.4062 7.78125 93.5938 8.375 93.5938 9C93.5938 9.65625 93.4062 10.25 93.0938 10.8125C92.7812 11.375 92.3438 11.8125 91.7812 12.125C91.2188 12.4375 90.625 12.5938 90 12.5938C89.3438 12.5938 88.75 12.4375 88.1875 12.125C87.625 11.8125 87.1875 11.375 86.875 10.8125C86.5625 10.25 86.4062 9.65625 86.4062 9C86.4062 8.375 86.5625 7.78125 86.875 7.21875C87.1875 6.65625 87.625 6.21875 88.1875 5.90625C88.75 5.59375 89.3438 5.40625 90 5.40625ZM90 11.3438C90.625 11.3438 91.1875 11.125 91.6562 10.6562C92.0938 10.2188 92.3438 9.65625 92.3438 9C92.3438 8.375 92.0938 7.8125 91.6562 7.34375C91.1875 6.90625 90.625 6.65625 90 6.65625C89.3438 6.65625 88.7812 6.90625 88.3438 7.34375C87.875 7.8125 87.6562 8.375 87.6562 9C87.6562 9.65625 87.875 10.2188 88.3438 10.6562C88.7812 11.125 89.3438 11.3438 90 11.3438ZM94.5938 5.25C94.5938 5.03125 94.5 4.84375 94.3438 4.65625C94.1562 4.5 93.9688 4.40625 93.75 4.40625C93.5 4.40625 93.3125 4.5 93.1562 4.65625C92.9688 4.84375 92.9062 5.03125 92.9062 5.25C92.9062 5.5 92.9688 5.6875 93.1562 5.84375C93.3125 6.03125 93.5 6.09375 93.75 6.09375C93.9688 6.09375 94.1562 6.03125 94.3125 5.84375C94.4688 5.6875 94.5625 5.5 94.5938 5.25ZM96.9688 6.09375C96.9688 6.6875 97 7.65625 97 9C97 10.375 96.9688 11.3438 96.9375 11.9375C96.9062 12.5312 96.8125 13.0312 96.6875 13.4688C96.5 14 96.1875 14.4688 95.8125 14.8438C95.4375 15.2188 94.9688 15.5 94.4688 15.6875C94.0312 15.8438 93.5 15.9375 92.9062 15.9688C92.3125 16 91.3438 16 90 16C88.625 16 87.6562 16 87.0625 15.9688C86.4688 15.9375 85.9688 15.8438 85.5312 15.6562C85 15.5 84.5312 15.2188 84.1562 14.8438C83.7812 14.4688 83.5 14 83.3125 13.4688C83.1562 13.0312 83.0625 12.5312 83.0312 11.9375C83 11.3438 83 10.375 83 9C83 7.65625 83 6.6875 83.0312 6.09375C83.0625 5.5 83.1562 4.96875 83.3125 4.53125C83.5 4.03125 83.7812 3.5625 84.1562 3.1875C84.5312 2.8125 85 2.5 85.5312 2.3125C85.9688 2.1875 86.4688 2.09375 87.0625 2.0625C87.6562 2.03125 88.625 2 90 2C91.3438 2 92.3125 2.03125 92.9062 2.0625C93.5 2.09375 94.0312 2.1875 94.4688 2.3125C94.9688 2.5 95.4375 2.8125 95.8125 3.1875C96.1875 3.5625 96.5 4.03125 96.6875 4.53125C96.8125 4.96875 96.9062 5.5 96.9688 6.09375ZM95.4688 13.125C95.5938 12.7812 95.6562 12.2188 95.7188 11.4375C95.7188 11 95.75 10.3438 95.75 9.5V8.5C95.75 7.65625 95.7188 7 95.7188 6.5625C95.6562 5.78125 95.5938 5.21875 95.4688 4.875C95.2188 4.25 94.75 3.78125 94.125 3.53125C93.7812 3.40625 93.2188 3.34375 92.4375 3.28125C91.9688 3.28125 91.3125 3.25 90.5 3.25H89.5C88.6562 3.25 88 3.28125 87.5625 3.28125C86.7812 3.34375 86.2188 3.40625 85.875 3.53125C85.2188 3.78125 84.7812 4.25 84.5312 4.875C84.4062 5.21875 84.3125 5.78125 84.2812 6.5625C84.25 7.03125 84.25 7.6875 84.25 8.5V9.5C84.25 10.3438 84.25 11 84.2812 11.4375C84.3125 12.2188 84.4062 12.7812 84.5312 13.125C84.7812 13.7812 85.25 14.2188 85.875 14.4688C86.2188 14.5938 86.7812 14.6875 87.5625 14.7188C88 14.75 88.6562 14.75 89.5 14.75H90.5C91.3438 14.75 92 14.75 92.4375 14.7188C93.2188 14.6875 93.7812 14.5938 94.125 14.4688C94.75 14.2188 95.2188 13.75 95.4688 13.125Z" fill="#1B1D21"/>
<path d="M140.688 4.875C140.812 5.4375 140.938 6.3125 141 7.4375L141.031 9L141 10.5625C140.938 11.75 140.812 12.5938 140.688 13.1562C140.562 13.5312 140.375 13.8438 140.125 14.0938C139.844 14.375 139.531 14.5625 139.156 14.6562C138.594 14.8125 137.344 14.9062 135.344 14.9688L132.5 15L129.656 14.9688C127.656 14.9062 126.375 14.8125 125.844 14.6562C125.469 14.5625 125.125 14.375 124.875 14.0938C124.594 13.8438 124.406 13.5312 124.312 13.1562C124.156 12.5938 124.062 11.75 124 10.5625L123.969 9C123.969 8.5625 123.969 8.03125 124 7.4375C124.062 6.3125 124.156 5.4375 124.312 4.875C124.406 4.5 124.594 4.1875 124.875 3.90625C125.125 3.65625 125.469 3.46875 125.844 3.34375C126.375 3.21875 127.656 3.09375 129.656 3.03125L132.5 3L135.344 3.03125C137.344 3.09375 138.594 3.21875 139.156 3.34375C139.531 3.46875 139.844 3.65625 140.125 3.90625C140.375 4.1875 140.562 4.5 140.688 4.875ZM130.75 11.5625L135.219 9L130.75 6.46875V11.5625Z" fill="#1B1D21"/>
<path d="M173.438 13.4062C173.438 13.4062 173.406 13.375 173.375 13.3438C173.344 13.3438 173.312 13.3125 173.25 13.3125C173.125 13.3125 173.094 13.375 173.094 13.4375C173.094 13.5312 173.125 13.5625 173.25 13.5625C173.375 13.5625 173.438 13.5 173.438 13.4062ZM172.469 13.2812C172.469 13.2188 172.531 13.1875 172.656 13.2188C172.75 13.25 172.781 13.2812 172.781 13.3438C172.781 13.4062 172.75 13.4375 172.719 13.4375C172.656 13.4688 172.625 13.4688 172.594 13.4375C172.531 13.4375 172.5 13.4062 172.469 13.375C172.438 13.3438 172.438 13.3125 172.469 13.2812ZM173.844 13.2188C173.938 13.2188 174 13.25 174 13.3125C174 13.375 173.969 13.4375 173.875 13.4688C173.812 13.4688 173.781 13.4688 173.75 13.4688C173.719 13.4688 173.688 13.4062 173.688 13.3438C173.688 13.2812 173.719 13.25 173.844 13.2188ZM175.906 1.25C177.312 1.25 178.625 1.59375 179.844 2.25C181.031 2.9375 182 3.84375 182.688 4.96875C183.375 6.15625 183.75 7.46875 183.75 8.875C183.75 10.625 183.25 12.1562 182.281 13.5312C181.312 14.9062 180.062 15.8438 178.5 16.3438C178.312 16.4062 178.188 16.375 178.094 16.2812C178 16.2188 177.969 16.0938 177.969 15.9688V13.3438C177.969 12.6875 177.781 12.2188 177.438 11.9062C178.188 11.8438 178.781 11.7188 179.156 11.5938C179.719 11.4062 180.188 11.0938 180.5 10.6562C180.844 10.125 181.031 9.375 181.031 8.4375C181.031 8.0625 180.938 7.71875 180.812 7.40625C180.688 7.21875 180.5 6.9375 180.219 6.625C180.281 6.4375 180.344 6.1875 180.375 5.875C180.375 5.4375 180.312 4.96875 180.156 4.5C179.938 4.4375 179.656 4.5 179.281 4.625C179.031 4.75 178.719 4.875 178.406 5.0625L178 5.34375C177.344 5.15625 176.688 5.0625 176 5.0625C175.312 5.0625 174.688 5.15625 174.062 5.34375L173.656 5.0625C173.312 4.875 173 4.75 172.75 4.625C172.375 4.5 172.094 4.4375 171.906 4.5C171.719 4.96875 171.625 5.4375 171.688 5.875C171.688 6.1875 171.719 6.40625 171.812 6.59375C171.562 6.90625 171.375 7.21875 171.25 7.46875C171.125 7.71875 171.094 8.0625 171.094 8.4375C171.094 9.375 171.25 10.125 171.594 10.625C171.875 11.0625 172.312 11.4062 172.906 11.5938C173.281 11.7188 173.844 11.8438 174.594 11.9062C174.312 12.1562 174.156 12.5312 174.094 12.9688C173.719 13.1562 173.375 13.2188 173.062 13.1562C172.5 13.125 172.094 12.8438 171.812 12.3125C171.688 12.0938 171.5 11.9062 171.312 11.75C171.156 11.6875 171 11.5938 170.844 11.5312L170.625 11.5C170.375 11.5 170.25 11.5625 170.25 11.625C170.25 11.6875 170.281 11.7812 170.406 11.8438L170.562 11.9688C170.688 12.0625 170.844 12.1875 171 12.375C171.125 12.5312 171.219 12.6875 171.312 12.875L171.438 13.125C171.531 13.4375 171.719 13.6875 172.031 13.8438C172.281 14 172.562 14.0938 172.938 14.125C173.188 14.1562 173.438 14.1562 173.719 14.0938L174.062 14.0625L174.094 15.9688C174.094 16.0938 174.031 16.2188 173.938 16.2812C173.844 16.375 173.719 16.4062 173.562 16.3438C171.969 15.8438 170.688 14.9062 169.719 13.5312C168.719 12.1562 168.25 10.625 168.25 8.875C168.25 7.46875 168.562 6.1875 169.25 5C169.906 3.84375 170.812 2.9375 172 2.25C173.156 1.59375 174.469 1.25 175.906 1.25ZM171.281 12.0312C171.312 12 171.375 12 171.438 12.0625C171.5 12.125 171.5 12.1875 171.469 12.2188C171.406 12.2812 171.375 12.25 171.312 12.1875C171.25 12.125 171.219 12.0938 171.281 12.0312ZM170.938 11.7812C170.969 11.75 171.031 11.75 171.094 11.7812C171.156 11.8125 171.156 11.8438 171.156 11.9062C171.125 11.9688 171.062 11.9688 171 11.9062C170.938 11.875 170.906 11.8438 170.938 11.7812ZM171.969 12.875C171.969 12.875 172 12.875 172.062 12.875C172.094 12.875 172.125 12.9062 172.156 12.9375C172.188 12.9688 172.219 13 172.219 13.0312C172.219 13.0938 172.219 13.125 172.219 13.125C172.156 13.1875 172.062 13.1875 172 13.0938C171.938 13.0625 171.938 13.0312 171.938 12.9688C171.938 12.9375 171.938 12.9062 171.969 12.875ZM171.594 12.4375C171.625 12.4375 171.656 12.4375 171.688 12.4375C171.719 12.4375 171.75 12.4688 171.781 12.5C171.844 12.5938 171.844 12.6562 171.781 12.6875C171.75 12.7188 171.719 12.7188 171.688 12.6875C171.656 12.6875 171.625 12.6562 171.594 12.625C171.531 12.5312 171.531 12.4688 171.594 12.4375Z" fill="#1B1D21"/>
</g>
<defs>
<clipPath id="clip0_0_20">
<rect width="184" height="16" fill="white"/>
</clipPath>
</defs>
</svg>
