<svg width="30" height="32" viewBox="0 0 30 32" fill="none" xmlns="http://www.w3.org/2000/svg">
<path fill-rule="evenodd" clip-rule="evenodd" d="M10.8645 14.1064L10.6821 12.6097C10.6164 11.9752 10.0755 11.4927 9.42995 11.4927H8.75555C8.33825 11.4927 8 11.1586 8 10.7464C8 10.3342 8.33825 10 8.75555 10H9.42995C10.8505 10 12.0407 11.0617 12.1853 12.4578L12.323 13.787H27.6563C27.9733 13.787 28.2114 14.0729 28.1504 14.3802L26.8109 21.1291C26.4866 22.7629 25.0371 23.9413 23.3519 23.9413H15.3234C15.5549 24.9507 16.468 25.6824 17.533 25.6824H23.8565C23.8938 25.6824 23.9308 25.6851 23.9122 25.6884C23.9676 25.6844 24.0233 25.6824 24.0792 25.6824C25.3308 25.6824 26.3454 26.6847 26.3454 27.9212C26.3454 29.1576 25.3308 30.16 24.0792 30.16C22.8276 30.16 21.813 29.1576 21.813 27.9212C21.813 27.6635 21.8572 27.412 21.9419 27.1751H19.1667C19.2515 27.412 19.2957 27.6635 19.2957 27.9212C19.2957 29.1576 18.2811 30.16 17.0295 30.16C15.7779 30.16 14.7633 29.1576 14.7633 27.9212C14.7633 27.3759 14.9619 26.862 15.3111 26.4615C14.4522 25.8436 13.8857 24.8905 13.7758 23.8268L13.7642 23.7144C12.5346 23.252 11.6271 22.1278 11.5062 20.7624L11.2017 17.323C11.1966 17.3017 11.1928 17.2799 11.1905 17.2575L10.8645 14.1064ZM17.0295 28.9162C17.5857 28.9162 18.0366 28.4707 18.0366 27.9212C18.0366 27.3717 17.5857 26.9262 17.0295 26.9262C16.4733 26.9262 16.0224 27.3717 16.0224 27.9212C16.0224 28.4707 16.4733 28.9162 17.0295 28.9162ZM24.0792 28.9162C24.6354 28.9162 25.0863 28.4707 25.0863 27.9212C25.0863 27.3717 24.6354 26.9262 24.0792 26.9262C23.523 26.9262 23.0721 27.3717 23.0721 27.9212C23.0721 28.4707 23.523 28.9162 24.0792 28.9162Z" fill="#1B1D21"/>
<g clip-path="url(#clip0_0_521)">
<circle cx="9.5" cy="10.448" r="9.5" fill="#1BD27E"/>
<path d="M12.132 14.106V15H7.476V14.106H9.3V8.46C9.3 8.28 9.306 8.094 9.318 7.902L7.854 9.144C7.798 9.188 7.742 9.216 7.686 9.228C7.63 9.24 7.576 9.242 7.524 9.234C7.476 9.226 7.432 9.21 7.392 9.186C7.356 9.158 7.326 9.13 7.302 9.102L6.936 8.592L9.516 6.366H10.47V14.106H12.132Z" fill="white"/>
</g>
<defs>
<clipPath id="clip0_0_521">
<rect width="19" height="20" fill="white"/>
</clipPath>
</defs>
</svg>
