<svg width="75" height="36" viewBox="0 0 75 36" fill="none" xmlns="http://www.w3.org/2000/svg">
<g clip-path="url(#clip0_0_366)">
<g clip-path="url(#clip1_0_366)">
<rect x="0.5" y="0.5" width="74" height="35" rx="3.5" stroke="#C9C9C9"/>
</g>
<path d="M36.009 22.048H38.165V15.209C38.165 15.0037 38.172 14.796 38.186 14.586L36.394 16.119C36.3473 16.1563 36.3007 16.1843 36.254 16.203C36.2073 16.217 36.163 16.224 36.121 16.224C36.051 16.224 35.988 16.21 35.932 16.182C35.876 16.1493 35.834 16.112 35.806 16.07L35.414 15.531L38.396 12.948H39.411V22.048H41.385V23H36.009V22.048Z" fill="#161D25"/>
<path d="M60.8381 21.5625L60.8376 18.8385L63.5625 18.8381V17.7244L60.8376 17.7245L60.8381 15H59.7244L59.7236 17.7245L57 17.7244V18.8381L59.7236 18.8385L59.7244 21.5625H60.8381Z" fill="#161D25"/>
<path d="M14.4545 18.0938V17H10V18.0938H14.4545Z" fill="#C9C9C9"/>
</g>
<defs>
<clipPath id="clip0_0_366">
<rect width="75" height="36" fill="white"/>
</clipPath>
<clipPath id="clip1_0_366">
<rect width="75" height="36" fill="white"/>
</clipPath>
</defs>
</svg>
