<svg width="100" height="40" viewBox="0 0 100 40" fill="none" xmlns="http://www.w3.org/2000/svg">
<g opacity="0.5" clip-path="url(#clip0_0_462)">
<g clip-path="url(#clip1_0_462)">
<rect x="0.5" y="0.5" width="39" height="39" rx="19.5" stroke="#545961"/>
</g>
<path d="M17.875 21.2852C17.7383 21.4219 17.6836 21.5859 17.6836 21.75C17.6836 21.9414 17.7383 22.1055 17.875 22.2148L21.5938 25.9336C21.7031 26.0703 21.8672 26.125 22.0586 26.125C22.2227 26.125 22.3867 26.0703 22.5234 25.9336L23.125 25.3047C23.2344 25.1953 23.3164 25.0312 23.3164 24.8398C23.3164 24.6758 23.2344 24.5117 23.125 24.375L20.5 21.75L23.125 19.0977C23.2344 18.9883 23.3164 18.8516 23.3164 18.6602C23.3164 18.4961 23.2344 18.332 23.125 18.1953L22.5234 17.5664C22.3867 17.457 22.2227 17.375 22.0586 17.375C21.8672 17.375 21.7031 17.457 21.5938 17.5664L17.875 21.2852Z" fill="#1B1D21"/>
</g>
<g clip-path="url(#clip2_0_462)">
<g clip-path="url(#clip3_0_462)">
<rect x="60.5" y="0.5" width="39" height="39" rx="19.5" stroke="#545961"/>
</g>
<path d="M83.125 22.2148C83.2344 22.1055 83.3164 21.9414 83.3164 21.75C83.3164 21.5859 83.2344 21.4219 83.125 21.2852L79.4062 17.5664C79.2695 17.457 79.1055 17.375 78.9414 17.375C78.75 17.375 78.5859 17.457 78.4766 17.5664L77.875 18.1953C77.7383 18.332 77.6836 18.4961 77.6836 18.6602C77.6836 18.8516 77.7383 19.0156 77.875 19.125L80.5 21.75L77.875 24.375C77.7383 24.5117 77.6836 24.6758 77.6836 24.8398C77.6836 25.0312 77.7383 25.1953 77.875 25.3047L78.4766 25.9336C78.5859 26.0703 78.75 26.125 78.9414 26.125C79.1055 26.125 79.2695 26.0703 79.4062 25.9336L83.125 22.2148Z" fill="#1B1D21"/>
</g>
<defs>
<clipPath id="clip0_0_462">
<rect width="40" height="40" fill="white"/>
</clipPath>
<clipPath id="clip1_0_462">
<rect width="40" height="40" fill="white"/>
</clipPath>
<clipPath id="clip2_0_462">
<rect width="40" height="40" fill="white" transform="translate(60)"/>
</clipPath>
<clipPath id="clip3_0_462">
<rect width="40" height="40" fill="white" transform="translate(60)"/>
</clipPath>
</defs>
</svg>
