<svg width="9" height="14" viewBox="0 0 9 14" fill="none" xmlns="http://www.w3.org/2000/svg">
<path fill-rule="evenodd" clip-rule="evenodd" d="M2.23488 4.84267L4.49918 2.67589L6.76347 4.84267C6.94913 5.02102 7.20186 5.12133 7.4655 5.12133C7.72915 5.12133 7.98187 5.02102 8.16753 4.84267C8.35472 4.66578 8.46001 4.42499 8.46001 4.17379C8.46001 3.9226 8.35472 3.68181 8.16753 3.50492L5.20121 0.678689C5.01555 0.500342 4.76282 0.400024 4.49918 0.400024C4.23553 0.400024 3.9828 0.500342 3.79715 0.678689L0.830822 3.50492C0.443101 3.87433 0.443101 4.47326 0.830822 4.84267C1.21854 5.21208 1.84716 5.21208 2.23488 4.84267ZM6.76347 9.15738L4.49918 11.3242L2.23488 9.15738C1.98407 8.91841 1.61851 8.82509 1.27589 8.91255C0.933276 9.00002 0.665664 9.255 0.573861 9.58143C0.482057 9.90786 0.58001 10.2562 0.830822 10.4951L3.79715 13.3214C3.98281 13.4997 4.23553 13.6 4.49918 13.6C4.76282 13.6 5.01555 13.4997 5.20121 13.3214L8.16753 10.4951C8.55525 10.1257 8.55525 9.52679 8.16753 9.15738C7.77981 8.78797 7.15119 8.78797 6.76347 9.15738Z" fill="#454F5B"/>
</svg>
