<svg width="24" height="24" viewBox="0 0 24 24" fill="none" xmlns="http://www.w3.org/2000/svg">
<path fill-rule="evenodd" clip-rule="evenodd" d="M17.0254 16.0078L19.4691 18.4508C20.148 19.1295 19.1299 20.1479 18.451 19.4692L16.0071 17.0259C13.0714 19.4472 8.7405 19.2622 6.01915 16.5408C3.11365 13.6353 3.11365 8.92459 6.01915 6.01909C8.92465 3.11359 13.6354 3.11359 16.5409 6.01909C19.2625 8.7407 19.4473 13.0721 17.0254 16.0078ZM15.5227 7.03733C13.1795 4.69418 9.38053 4.69418 7.03739 7.03733C4.69424 9.38047 4.69424 13.1795 7.03739 15.5226C9.38053 17.8658 13.1795 17.8658 15.5227 15.5226C17.8658 13.1795 17.8658 9.38047 15.5227 7.03733Z" fill="#385566"/>
</svg>
