<svg width="40" height="40" viewBox="0 0 40 40" fill="none" xmlns="http://www.w3.org/2000/svg">
<path fill-rule="evenodd" clip-rule="evenodd" d="M3.2 20.8H20.8V10.4C20.8 8.84603 21.6862 7.499 22.9807 6.83673C22.5902 6.5616 22.114 6.40002 21.6 6.40002H5.6C4.27451 6.40002 3.2 7.47454 3.2 8.80002V20.8ZM36.8 24.8C36.8 24.1853 36.5689 23.6245 36.1888 23.1999C36.5689 22.7753 36.8 22.2145 36.8 21.5997V19.2H31.2C29.8745 19.2 28.8 18.1255 28.8 16.8V13.6C28.8 12.2745 29.8745 11.2 31.2 11.2H35.4749L35.4341 11.034C35.2009 10.085 34.4156 9.37223 33.4486 9.23169L25.1452 8.02497C25.0309 8.00836 24.9155 8.00002 24.8 8.00002C23.4745 8.00002 22.4 9.07454 22.4 10.4V21.5997C22.4 21.8804 22.4482 22.1497 22.5367 22.4H5.6C4.27451 22.4 3.2 23.4745 3.2 24.8V26.4C3.2 27.7255 4.27451 28.8 5.6 28.8H6.45671C6.84489 26.0862 9.17882 24 12 24C14.8212 24 17.1551 26.0862 17.5433 28.8H24.0567C24.4449 26.0862 26.7788 24 29.6 24C32.3823 24 34.6907 26.0291 35.1261 28.6882C36.0967 28.3805 36.8 27.4724 36.8 26.4V24.8ZM36.7307 16.31L35.8681 12.8H31.2C30.7582 12.8 30.4 13.1582 30.4 13.6V16.8C30.4 17.2419 30.7582 17.6 31.2 17.6H36.8V16.8828C36.8 16.6898 36.7767 16.4974 36.7307 16.31ZM16 29.6C16 31.8092 14.2091 33.6 12 33.6C9.79086 33.6 8 31.8092 8 29.6C8 27.3909 9.79086 25.6 12 25.6C14.2091 25.6 16 27.3909 16 29.6ZM33.6 29.6C33.6 31.8092 31.8091 33.6 29.6 33.6C27.3909 33.6 25.6 31.8092 25.6 29.6C25.6 27.3909 27.3909 25.6 29.6 25.6C31.8091 25.6 33.6 27.3909 33.6 29.6Z" fill="#1BD27E"/>
</svg>
