<svg width="48" height="36" viewBox="0 0 48 36" fill="none" xmlns="http://www.w3.org/2000/svg">
<path d="M0.864 1.4H21.84V5.384L9.6 35H4.944L17.088 5.624H0.864V1.4ZM42.1778 17.624C43.8098 18.456 45.0898 19.576 46.0178 20.984C46.9458 22.392 47.4098 23.992 47.4098 25.784C47.4098 28.856 46.3378 31.272 44.1938 33.032C42.0498 34.76 39.2818 35.624 35.8898 35.624C32.5298 35.624 29.7778 34.76 27.6338 33.032C25.4898 31.272 24.4178 28.856 24.4178 25.784C24.4178 23.992 24.8818 22.392 25.8098 20.984C26.7378 19.576 28.0178 18.456 29.6497 17.624C26.8978 15.896 25.5218 13.448 25.5218 10.28C25.5218 7.24 26.5298 4.904 28.5458 3.272C30.5938 1.608 33.0418 0.775997 35.8898 0.775997C38.7698 0.775997 41.2178 1.608 43.2338 3.272C45.2818 4.904 46.3058 7.24 46.3058 10.28C46.3058 13.448 44.9298 15.896 42.1778 17.624ZM35.8898 5.048C34.1938 5.048 32.7698 5.496 31.6178 6.392C30.4978 7.288 29.9378 8.616 29.9378 10.376C29.9378 12.072 30.5138 13.4 31.6658 14.36C32.8178 15.288 34.2258 15.752 35.8898 15.752C37.5538 15.752 38.9618 15.288 40.1138 14.36C41.2658 13.4 41.8418 12.072 41.8418 10.376C41.8418 8.616 41.2818 7.288 40.1618 6.392C39.0418 5.496 37.6178 5.048 35.8898 5.048ZM35.8898 31.352C38.0338 31.352 39.7458 30.856 41.0258 29.864C42.3378 28.84 42.9938 27.384 42.9938 25.496C42.9938 23.64 42.3378 22.216 41.0258 21.224C39.7458 20.2 38.0338 19.688 35.8898 19.688C33.7778 19.688 32.0658 20.2 30.7538 21.224C29.4738 22.216 28.8338 23.64 28.8338 25.496C28.8338 27.384 29.4738 28.84 30.7538 29.864C32.0658 30.856 33.7778 31.352 35.8898 31.352Z" fill="black"/>
</svg>
