<svg width="277" height="296" viewBox="0 0 277 296" fill="none" xmlns="http://www.w3.org/2000/svg">
<path d="M71.25 39.3464C70.646 39.3464 70.1562 39.8362 70.1562 40.4402V48.1041H68.4161C67.9872 44.3105 64.5643 41.583 60.7709 42.0118C57.5681 42.3738 55.0408 44.9013 54.6786 48.1041H31.875V16.3853H70.1562V19.8252C70.1562 20.4292 70.646 20.9189 71.25 20.9189C71.854 20.9189 72.3438 20.4292 72.3438 19.8252V15.2916C72.3438 14.6876 71.854 14.1978 71.25 14.1978H30.7812C30.1772 14.1978 29.6875 14.6876 29.6875 15.2916V16.3853H17.1619C14.4162 16.3889 12.1911 18.6138 12.1875 21.3597V22.9478C12.1875 23.5519 12.6772 24.0416 13.2812 24.0416H14.5533L13.7188 34.0658C11.5347 34.6343 10.0077 36.6028 10 38.8597V48.1041C10 48.7081 10.4897 49.1978 11.0938 49.1978H13.3086C13.6084 53.1091 17.0223 56.0368 20.9335 55.737C24.4281 55.4691 27.2047 52.6924 27.4727 49.1978C27.4825 49.1978 27.4902 49.2033 27.5 49.2033H29.6875C29.6875 49.8073 30.1772 50.2971 30.7812 50.2971H54.7781C55.5573 54.0356 59.2197 56.4346 62.9583 55.6555C65.6512 55.0942 67.7553 52.99 68.3166 50.2971H71.25C71.854 50.2971 72.3438 49.8073 72.3438 49.2033V40.4402C72.3438 39.836 71.854 39.3464 71.25 39.3464ZM20.3906 53.5728C17.6724 53.5728 15.4688 51.3692 15.4688 48.651C15.4688 45.9327 17.6724 43.7291 20.3906 43.7291C23.1089 43.7291 25.3125 45.9327 25.3125 48.651C25.3095 51.368 23.1076 53.5698 20.3906 53.5728ZM29.6875 47.0103H27.5C27.4359 47.017 27.3724 47.0298 27.3108 47.0486C26.4311 43.2269 22.62 40.842 18.7984 41.7216C16.1633 42.3281 14.1014 44.3786 13.4803 47.0103H12.1875V38.8597C12.1893 37.3213 13.436 36.0746 14.9744 36.0728H29.6875V47.0103ZM29.6875 33.8853H15.9281L16.7484 24.0416H29.6875V33.8853ZM29.6875 21.8541H14.375V21.3597C14.3768 19.8213 15.6235 18.5746 17.1619 18.5728H29.6875V21.8541ZM66.2673 49.1541C66.1267 51.6563 64.0545 53.6121 61.5484 53.6078H61.5473C59.2525 53.6028 57.2931 51.95 56.9011 49.6889C57.0928 49.354 57.0709 48.9378 56.8453 48.6247C56.9915 46.023 59.2192 44.0322 61.8211 44.1783C64.4228 44.3245 66.4136 46.5522 66.2673 49.1541Z" fill="#333333"/>
<path d="M70.1562 22.9478H54.8438C54.2397 22.9478 53.75 23.4376 53.75 24.0416C53.75 24.6456 54.2397 25.1353 54.8438 25.1353H70.1562C70.7603 25.1353 71.25 24.6456 71.25 24.0416C71.25 23.4376 70.7603 22.9478 70.1562 22.9478Z" fill="#333333"/>
<path d="M72.3438 34.9791H48.2812C47.6772 34.9791 47.1875 35.4688 47.1875 36.0728C47.1875 36.6769 47.6772 37.1666 48.2812 37.1666H72.3438C72.9478 37.1666 73.4375 36.6769 73.4375 36.0728C73.4375 35.4688 72.9478 34.9791 72.3438 34.9791Z" fill="#333333"/>
<path d="M70.1562 28.4166H58.125C57.521 28.4166 57.0312 28.9063 57.0312 29.5103C57.0312 30.1144 57.521 30.6041 58.125 30.6041H70.1562C70.7603 30.6041 71.25 30.1144 71.25 29.5103C71.25 28.9063 70.7603 28.4166 70.1562 28.4166Z" fill="#333333"/>
<path d="M74.5312 25.1353H76.7188C77.3228 25.1353 77.8125 24.6456 77.8125 24.0416C77.8125 23.4376 77.3228 22.9478 76.7188 22.9478H74.5312C73.9272 22.9478 73.4375 23.4376 73.4375 24.0416C73.4375 24.6456 73.9272 25.1353 74.5312 25.1353Z" fill="#333333"/>
<path d="M77.8125 34.9791H75.625C75.021 34.9791 74.5312 35.4688 74.5312 36.0728C74.5312 36.6769 75.021 37.1666 75.625 37.1666H77.8125C78.4165 37.1666 78.9062 36.6769 78.9062 36.0728C78.9062 35.4688 78.4165 34.9791 77.8125 34.9791Z" fill="#333333"/>
<path d="M78.9062 28.4166H74.5312C73.9272 28.4166 73.4375 28.9063 73.4375 29.5103C73.4375 30.1144 73.9272 30.6041 74.5312 30.6041H78.9062C79.5103 30.6041 80 30.1144 80 29.5103C80 28.9063 79.5103 28.4166 78.9062 28.4166Z" fill="#333333"/>
<path d="M5.6275 95.28C6.5555 95.28 7.34483 95.6107 7.9955 96.272C8.65683 96.9333 8.9875 97.7227 8.9875 98.64C8.9875 99.568 8.65683 100.363 7.9955 101.024C7.34483 101.675 6.5555 102 5.6275 102H1.4675V90.8H8.0275V91.856H2.5875V95.28H5.6275ZM5.6275 100.944C6.24617 100.944 6.77417 100.72 7.2115 100.272C7.64883 99.824 7.8675 99.28 7.8675 98.64C7.8675 98.0107 7.64883 97.472 7.2115 97.024C6.77417 96.5653 6.24617 96.336 5.6275 96.336H2.5875V100.944H5.6275ZM14.3629 93.808C15.5469 93.808 16.5015 94.2293 17.2269 95.072C17.9629 95.904 18.3309 96.8907 18.3309 98.032C18.3309 98.1493 18.3202 98.3147 18.2989 98.528H11.2749C11.3815 99.3387 11.7229 99.984 12.2989 100.464C12.8855 100.933 13.6055 101.168 14.4589 101.168C15.0669 101.168 15.5895 101.045 16.0269 100.8C16.4749 100.544 16.8109 100.213 17.0349 99.808L17.9629 100.352C17.6109 100.917 17.1309 101.365 16.5229 101.696C15.9149 102.027 15.2215 102.192 14.4429 102.192C13.1842 102.192 12.1602 101.797 11.3709 101.008C10.5815 100.219 10.1869 99.216 10.1869 98C10.1869 96.8053 10.5762 95.808 11.3549 95.008C12.1335 94.208 13.1362 93.808 14.3629 93.808ZM14.3629 94.832C13.5309 94.832 12.8322 95.0827 12.2669 95.584C11.7122 96.0747 11.3815 96.7147 11.2749 97.504H17.2429C17.1362 96.6613 16.8109 96.0053 16.2669 95.536C15.7229 95.0667 15.0882 94.832 14.3629 94.832ZM23.7386 102.192C22.5333 102.192 21.5306 101.792 20.7306 100.992C19.9306 100.181 19.5306 99.184 19.5306 98C19.5306 96.816 19.9306 95.824 20.7306 95.024C21.5306 94.2133 22.5333 93.808 23.7386 93.808C24.528 93.808 25.2373 94 25.8666 94.384C26.496 94.7573 26.9546 95.264 27.2426 95.904L26.3786 96.4C26.1653 95.92 25.8186 95.5413 25.3386 95.264C24.8693 94.976 24.336 94.832 23.7386 94.832C22.8533 94.832 22.1066 95.1413 21.4986 95.76C20.8906 96.368 20.5866 97.1147 20.5866 98C20.5866 98.8853 20.8906 99.6373 21.4986 100.256C22.1066 100.864 22.8533 101.168 23.7386 101.168C24.336 101.168 24.8693 101.029 25.3386 100.752C25.808 100.464 26.176 100.08 26.4426 99.6L27.3226 100.112C26.992 100.752 26.5066 101.259 25.8666 101.632C25.2266 102.005 24.5173 102.192 23.7386 102.192ZM35.5588 94V102H34.5028V95.024H29.8948V102H28.8388V94H35.5588ZM44.3519 94V102H43.2959V95.024H39.6799V98.592C39.6799 99.9253 39.4239 100.843 38.9119 101.344C38.4105 101.845 37.7172 102.064 36.8319 102V101.008C37.4399 101.072 37.8879 100.928 38.1759 100.576C38.4745 100.224 38.6239 99.5627 38.6239 98.592V94H44.3519ZM53.4688 94H54.5248V102H53.4688V100.432C52.7328 101.605 51.6554 102.192 50.2368 102.192C49.0954 102.192 48.1194 101.787 47.3088 100.976C46.5088 100.165 46.1088 99.1733 46.1088 98C46.1088 96.8267 46.5088 95.8347 47.3088 95.024C48.1194 94.2133 49.0954 93.808 50.2368 93.808C51.6554 93.808 52.7328 94.3947 53.4688 95.568V94ZM48.0768 100.256C48.6848 100.864 49.4314 101.168 50.3168 101.168C51.2021 101.168 51.9488 100.864 52.5568 100.256C53.1648 99.6373 53.4688 98.8853 53.4688 98C53.4688 97.1147 53.1648 96.368 52.5568 95.76C51.9488 95.1413 51.2021 94.832 50.3168 94.832C49.4314 94.832 48.6848 95.1413 48.0768 95.76C47.4688 96.368 47.1648 97.1147 47.1648 98C47.1648 98.8853 47.4688 99.6373 48.0768 100.256ZM62.5206 94V95.024H59.6886V102H58.6326V95.024H55.8006V94H62.5206ZM69.4715 94H70.5275V102H69.4715V98.512H64.8635V102H63.8075V94H64.8635V97.488H69.4715V94ZM79.6406 94H80.6966V102H79.6406V100.432C78.9046 101.605 77.8273 102.192 76.4086 102.192C75.2673 102.192 74.2913 101.787 73.4806 100.976C72.6806 100.165 72.2806 99.1733 72.2806 98C72.2806 96.8267 72.6806 95.8347 73.4806 95.024C74.2913 94.2133 75.2673 93.808 76.4086 93.808C77.8273 93.808 78.9046 94.3947 79.6406 95.568V94ZM74.2486 100.256C74.8566 100.864 75.6033 101.168 76.4886 101.168C77.374 101.168 78.1206 100.864 78.7286 100.256C79.3366 99.6373 79.6406 98.8853 79.6406 98C79.6406 97.1147 79.3366 96.368 78.7286 95.76C78.1206 95.1413 77.374 94.832 76.4886 94.832C75.6033 94.832 74.8566 95.1413 74.2486 95.76C73.6406 96.368 73.3366 97.1147 73.3366 98C73.3366 98.8853 73.6406 99.6373 74.2486 100.256ZM88.6925 94V102H87.6365V98.928H86.2605L83.7965 102H82.4525L84.9805 98.896C84.3405 98.8 83.8125 98.5333 83.3965 98.096C82.9805 97.6587 82.7725 97.12 82.7725 96.48C82.7725 95.7547 83.0285 95.1627 83.5405 94.704C84.0632 94.2347 84.6978 94 85.4445 94H88.6925ZM85.4445 97.936H87.6365V95.024H85.4445C84.9965 95.024 84.6125 95.1573 84.2925 95.424C83.9832 95.6907 83.8285 96.0427 83.8285 96.48C83.8285 96.9173 83.9832 97.2693 84.2925 97.536C84.6125 97.8027 84.9965 97.936 85.4445 97.936ZM17.9963 124.976H19.1163V128.144H18.0603V126H11.5323V128.144H10.4763V124.976H11.4523C11.9962 124.261 12.2682 123.253 12.2682 121.952V118H17.9963V124.976ZM12.7323 124.976H16.9403V119.024H13.3243V121.952C13.3243 123.179 13.1269 124.187 12.7323 124.976ZM27.1053 124.992C26.2946 125.792 25.3026 126.192 24.1293 126.192C22.9559 126.192 21.9586 125.792 21.1373 124.992C20.3266 124.181 19.9213 123.184 19.9213 122C19.9213 120.816 20.3266 119.824 21.1373 119.024C21.9586 118.213 22.9559 117.808 24.1293 117.808C25.3026 117.808 26.2946 118.213 27.1053 119.024C27.9266 119.824 28.3373 120.816 28.3373 122C28.3373 123.184 27.9266 124.181 27.1053 124.992ZM21.8893 124.256C22.4973 124.864 23.2439 125.168 24.1293 125.168C25.0146 125.168 25.7613 124.864 26.3693 124.256C26.9773 123.637 27.2812 122.885 27.2812 122C27.2812 121.115 26.9773 120.368 26.3693 119.76C25.7613 119.141 25.0146 118.832 24.1293 118.832C23.2439 118.832 22.4973 119.141 21.8893 119.76C21.2813 120.368 20.9773 121.115 20.9773 122C20.9773 122.885 21.2813 123.637 21.8893 124.256ZM33.8324 126.192C32.627 126.192 31.6244 125.792 30.8244 124.992C30.0244 124.181 29.6244 123.184 29.6244 122C29.6244 120.816 30.0244 119.824 30.8244 119.024C31.6244 118.213 32.627 117.808 33.8324 117.808C34.6217 117.808 35.331 118 35.9604 118.384C36.5897 118.757 37.0484 119.264 37.3364 119.904L36.4724 120.4C36.259 119.92 35.9124 119.541 35.4324 119.264C34.963 118.976 34.4297 118.832 33.8324 118.832C32.947 118.832 32.2004 119.141 31.5924 119.76C30.9844 120.368 30.6804 121.115 30.6804 122C30.6804 122.885 30.9844 123.637 31.5924 124.256C32.2004 124.864 32.947 125.168 33.8324 125.168C34.4297 125.168 34.963 125.029 35.4324 124.752C35.9017 124.464 36.2697 124.08 36.5364 123.6L37.4164 124.112C37.0857 124.752 36.6004 125.259 35.9604 125.632C35.3204 126.005 34.611 126.192 33.8324 126.192ZM44.5363 118V119.024H41.7043V126H40.6483V119.024H37.8163V118H44.5363ZM52.3906 118H53.4466V126H52.3906V124.432C51.6546 125.605 50.5773 126.192 49.1586 126.192C48.0173 126.192 47.0413 125.787 46.2306 124.976C45.4306 124.165 45.0306 123.173 45.0306 122C45.0306 120.827 45.4306 119.835 46.2306 119.024C47.0413 118.213 48.0173 117.808 49.1586 117.808C50.5773 117.808 51.6546 118.395 52.3906 119.568V118ZM46.9986 124.256C47.6066 124.864 48.3533 125.168 49.2386 125.168C50.124 125.168 50.8706 124.864 51.4786 124.256C52.0866 123.637 52.3906 122.885 52.3906 122C52.3906 121.115 52.0866 120.368 51.4786 119.76C50.8706 119.141 50.124 118.832 49.2386 118.832C48.3533 118.832 47.6066 119.141 46.9986 119.76C46.3906 120.368 46.0866 121.115 46.0866 122C46.0866 122.885 46.3906 123.637 46.9986 124.256ZM60.7705 121.888C61.6452 122.208 62.0825 122.832 62.0825 123.76C62.0825 124.411 61.8638 124.949 61.4265 125.376C60.9998 125.792 60.3812 126 59.5705 126H55.6825V118H59.2505C60.0292 118 60.6318 118.203 61.0585 118.608C61.4852 119.003 61.6985 119.515 61.6985 120.144C61.6985 120.944 61.3892 121.525 60.7705 121.888ZM59.2505 119.024H56.7385V121.456H59.2505C60.1785 121.456 60.6425 121.04 60.6425 120.208C60.6425 119.835 60.5198 119.547 60.2745 119.344C60.0398 119.131 59.6985 119.024 59.2505 119.024ZM59.5705 124.976C60.0398 124.976 60.3972 124.864 60.6425 124.64C60.8985 124.416 61.0265 124.101 61.0265 123.696C61.0265 123.323 60.8985 123.029 60.6425 122.816C60.3972 122.592 60.0398 122.48 59.5705 122.48H56.7385V124.976H59.5705ZM70.1465 126H68.7385L64.7385 122.144V126H63.6825V118H64.7385V121.536L68.5465 118H69.9865L65.8585 121.84L70.1465 126ZM77.6719 118H78.7279V126H77.6719V124.432C76.9359 125.605 75.8585 126.192 74.4399 126.192C73.2985 126.192 72.3225 125.787 71.5119 124.976C70.7119 124.165 70.3119 123.173 70.3119 122C70.3119 120.827 70.7119 119.835 71.5119 119.024C72.3225 118.213 73.2985 117.808 74.4399 117.808C75.8585 117.808 76.9359 118.395 77.6719 119.568V118ZM72.2799 124.256C72.8879 124.864 73.6345 125.168 74.5199 125.168C75.4052 125.168 76.1519 124.864 76.7599 124.256C77.3679 123.637 77.6719 122.885 77.6719 122C77.6719 121.115 77.3679 120.368 76.7599 119.76C76.1519 119.141 75.4052 118.832 74.5199 118.832C73.6345 118.832 72.8879 119.141 72.2799 119.76C71.6719 120.368 71.3679 121.115 71.3679 122C71.3679 122.885 71.6719 123.637 72.2799 124.256Z" fill="black"/>
<path d="M56.7436 203.94L46.8998 189.722C46.7992 189.576 46.6648 189.457 46.5081 189.375C46.3514 189.293 46.1771 189.25 46.0002 189.25C45.8233 189.25 45.649 189.293 45.4923 189.375C45.3356 189.457 45.2012 189.576 45.1006 189.722L35.2568 203.94C35.1602 204.08 35.0974 204.24 35.0734 204.408C35.0495 204.576 35.065 204.747 35.1188 204.908L37.9201 213.313H37.2502C36.9601 213.313 36.6819 213.428 36.4768 213.633C36.2717 213.838 36.1564 214.116 36.1564 214.406V217.688C36.1564 217.978 36.2717 218.256 36.4768 218.461C36.6819 218.666 36.9601 218.781 37.2502 218.781H38.3439V230.813C38.3439 231.103 38.4592 231.381 38.6643 231.586C38.8694 231.791 39.1476 231.906 39.4377 231.906H52.5627C52.8528 231.906 53.131 231.791 53.3361 231.586C53.5412 231.381 53.6564 231.103 53.6564 230.813V218.781H54.7502C55.0403 218.781 55.3185 218.666 55.5236 218.461C55.7287 218.256 55.8439 217.978 55.8439 217.688V214.406C55.8439 214.116 55.7287 213.838 55.5236 213.633C55.3185 213.428 55.0403 213.313 54.7502 213.313H54.0803L56.8816 204.908C56.9354 204.747 56.9509 204.576 56.9269 204.408C56.903 204.24 56.8402 204.08 56.7436 203.94ZM46.0002 202.375C46.2165 202.375 46.428 202.439 46.6078 202.559C46.7877 202.68 46.9279 202.85 47.0107 203.05C47.0935 203.25 47.1151 203.47 47.0729 203.682C47.0307 203.894 46.9266 204.089 46.7736 204.242C46.6206 204.395 46.4257 204.499 46.2136 204.541C46.0014 204.584 45.7815 204.562 45.5816 204.479C45.3818 204.396 45.211 204.256 45.0908 204.076C44.9706 203.897 44.9064 203.685 44.9064 203.469C44.9068 203.179 45.0222 202.901 45.2272 202.696C45.4323 202.491 45.7102 202.375 46.0002 202.375ZM51.4689 229.719H40.5314V218.781H51.4689V229.719ZM53.6564 216.594H38.3439V215.5H53.6564V216.594ZM51.7738 213.313H40.2266L37.3664 204.736L44.9064 193.845V200.188C44.907 200.249 44.9125 200.31 44.9229 200.371C44.1903 200.625 43.5717 201.131 43.1766 201.799C42.7815 202.466 42.6356 203.252 42.7647 204.016C42.8939 204.781 43.2897 205.475 43.8819 205.976C44.4742 206.477 45.2247 206.751 46.0002 206.751C46.7757 206.751 47.5262 206.477 48.1185 205.976C48.7107 205.475 49.1065 204.781 49.2357 204.016C49.3648 203.252 49.2189 202.466 48.8238 201.799C48.4287 201.131 47.8101 200.625 47.0775 200.371C47.0879 200.31 47.0934 200.249 47.0939 200.188V193.845L54.634 204.736L51.7738 213.313Z" fill="#333333"/>
<path d="M78.8125 176.125H74.4375C74.1474 176.125 73.8692 176.24 73.6641 176.445C73.459 176.65 73.3438 176.929 73.3438 177.219V178.322C73.2984 178.316 73.2528 178.313 73.207 178.312H49.2812V177.219C49.2812 176.929 49.166 176.65 48.9609 176.445C48.7558 176.24 48.4776 176.125 48.1875 176.125H47.0938V170.656H48.1875C48.4776 170.656 48.7558 170.541 48.9609 170.336C49.166 170.131 49.2812 169.853 49.2812 169.562V165.188C49.2812 164.897 49.166 164.619 48.9609 164.414C48.7558 164.209 48.4776 164.094 48.1875 164.094H43.8125C43.5224 164.094 43.2442 164.209 43.0391 164.414C42.834 164.619 42.7188 164.897 42.7188 165.188V169.562C42.7188 169.853 42.834 170.131 43.0391 170.336C43.2442 170.541 43.5224 170.656 43.8125 170.656H44.9062V176.125H43.8125C43.5224 176.125 43.2442 176.24 43.0391 176.445C42.834 176.65 42.7188 176.929 42.7188 177.219V178.312H18.6562V177.219C18.6562 176.929 18.541 176.65 18.3359 176.445C18.1308 176.24 17.8526 176.125 17.5625 176.125H13.1875C12.8974 176.125 12.6192 176.24 12.4141 176.445C12.209 176.65 12.0938 176.929 12.0938 177.219V181.594C12.0938 181.884 12.209 182.162 12.4141 182.367C12.6192 182.572 12.8974 182.688 13.1875 182.688H17.5625C17.8526 182.688 18.1308 182.572 18.3359 182.367C18.541 182.162 18.6562 181.884 18.6562 181.594V180.5H36.7387C35.2951 181.455 34.0048 182.624 32.9119 183.966C30.1078 187.366 28.5 191.684 28.5 195.812H27.4062C27.1162 195.812 26.838 195.928 26.6329 196.133C26.4277 196.338 26.3125 196.616 26.3125 196.906V201.281C26.3125 201.571 26.4277 201.85 26.6329 202.055C26.838 202.26 27.1162 202.375 27.4062 202.375H31.7812C32.0713 202.375 32.3495 202.26 32.5546 202.055C32.7598 201.85 32.875 201.571 32.875 201.281V196.906C32.875 196.616 32.7598 196.338 32.5546 196.133C32.3495 195.928 32.0713 195.812 31.7812 195.812H30.6875C30.6875 187.702 36.9273 181.305 42.7188 180.571V181.594C42.7188 181.884 42.834 182.162 43.0391 182.367C43.2442 182.572 43.5224 182.688 43.8125 182.688H48.1875C48.4776 182.688 48.7558 182.572 48.9609 182.367C49.166 182.162 49.2812 181.884 49.2812 181.594V180.567C52.2426 180.918 55.085 182.693 57.3791 185.653C59.6117 188.531 61.0295 192.258 61.2742 195.812H60.2188C59.9287 195.812 59.6505 195.928 59.4454 196.133C59.2402 196.338 59.125 196.616 59.125 196.906V201.281C59.125 201.571 59.2402 201.85 59.4454 202.055C59.6505 202.26 59.9287 202.375 60.2188 202.375H64.5938C64.8838 202.375 65.162 202.26 65.3671 202.055C65.5723 201.85 65.6875 201.571 65.6875 201.281V196.906C65.6875 196.616 65.5723 196.338 65.3671 196.133C65.162 195.928 64.8838 195.812 64.5938 195.812H63.4658C63.2266 191.751 61.6693 187.613 59.1086 184.312C57.9824 182.833 56.6252 181.546 55.0891 180.5H73.207C73.2528 180.5 73.2984 180.496 73.3438 180.49V181.594C73.3438 181.884 73.459 182.162 73.6641 182.367C73.8692 182.572 74.1474 182.688 74.4375 182.688H78.8125C79.1026 182.688 79.3808 182.572 79.5859 182.367C79.791 182.162 79.9062 181.884 79.9062 181.594V177.219C79.9062 176.929 79.791 176.65 79.5859 176.445C79.3808 176.24 79.1026 176.125 78.8125 176.125ZM16.4688 180.5H14.2812V178.312H16.4688V180.5ZM30.6875 200.188H28.5V198H30.6875V200.188ZM44.9062 166.281H47.0938V168.469H44.9062V166.281ZM47.0938 180.5H44.9062V178.312H47.0938V180.5ZM61.3125 198H63.5V200.188H61.3125V198ZM77.7188 180.5H75.5312V178.312H77.7188V180.5Z" fill="#333333"/>
<path d="M5.6275 258.28C6.5555 258.28 7.34483 258.611 7.9955 259.272C8.65683 259.933 8.9875 260.723 8.9875 261.64C8.9875 262.568 8.65683 263.363 7.9955 264.024C7.34483 264.675 6.5555 265 5.6275 265H1.4675V253.8H8.0275V254.856H2.5875V258.28H5.6275ZM5.6275 263.944C6.24617 263.944 6.77417 263.72 7.2115 263.272C7.64883 262.824 7.8675 262.28 7.8675 261.64C7.8675 261.011 7.64883 260.472 7.2115 260.024C6.77417 259.565 6.24617 259.336 5.6275 259.336H2.5875V263.944H5.6275ZM14.3629 256.808C15.5469 256.808 16.5015 257.229 17.2269 258.072C17.9629 258.904 18.3309 259.891 18.3309 261.032C18.3309 261.149 18.3202 261.315 18.2989 261.528H11.2749C11.3815 262.339 11.7229 262.984 12.2989 263.464C12.8855 263.933 13.6055 264.168 14.4589 264.168C15.0669 264.168 15.5895 264.045 16.0269 263.8C16.4749 263.544 16.8109 263.213 17.0349 262.808L17.9629 263.352C17.6109 263.917 17.1309 264.365 16.5229 264.696C15.9149 265.027 15.2215 265.192 14.4429 265.192C13.1842 265.192 12.1602 264.797 11.3709 264.008C10.5815 263.219 10.1869 262.216 10.1869 261C10.1869 259.805 10.5762 258.808 11.3549 258.008C12.1335 257.208 13.1362 256.808 14.3629 256.808ZM14.3629 257.832C13.5309 257.832 12.8322 258.083 12.2669 258.584C11.7122 259.075 11.3815 259.715 11.2749 260.504H17.2429C17.1362 259.661 16.8109 259.005 16.2669 258.536C15.7229 258.067 15.0882 257.832 14.3629 257.832ZM23.7386 265.192C22.5333 265.192 21.5306 264.792 20.7306 263.992C19.9306 263.181 19.5306 262.184 19.5306 261C19.5306 259.816 19.9306 258.824 20.7306 258.024C21.5306 257.213 22.5333 256.808 23.7386 256.808C24.528 256.808 25.2373 257 25.8666 257.384C26.496 257.757 26.9546 258.264 27.2426 258.904L26.3786 259.4C26.1653 258.92 25.8186 258.541 25.3386 258.264C24.8693 257.976 24.336 257.832 23.7386 257.832C22.8533 257.832 22.1066 258.141 21.4986 258.76C20.8906 259.368 20.5866 260.115 20.5866 261C20.5866 261.885 20.8906 262.637 21.4986 263.256C22.1066 263.864 22.8533 264.168 23.7386 264.168C24.336 264.168 24.8693 264.029 25.3386 263.752C25.808 263.464 26.176 263.08 26.4426 262.6L27.3226 263.112C26.992 263.752 26.5066 264.259 25.8666 264.632C25.2266 265.005 24.5173 265.192 23.7386 265.192ZM35.5588 257V265H34.5028V258.024H29.8948V265H28.8388V257H35.5588ZM44.3519 257V265H43.2959V258.024H39.6799V261.592C39.6799 262.925 39.4239 263.843 38.9119 264.344C38.4105 264.845 37.7172 265.064 36.8319 265V264.008C37.4399 264.072 37.8879 263.928 38.1759 263.576C38.4745 263.224 38.6239 262.563 38.6239 261.592V257H44.3519ZM53.4688 257H54.5248V265H53.4688V263.432C52.7328 264.605 51.6554 265.192 50.2368 265.192C49.0954 265.192 48.1194 264.787 47.3088 263.976C46.5088 263.165 46.1088 262.173 46.1088 261C46.1088 259.827 46.5088 258.835 47.3088 258.024C48.1194 257.213 49.0954 256.808 50.2368 256.808C51.6554 256.808 52.7328 257.395 53.4688 258.568V257ZM48.0768 263.256C48.6848 263.864 49.4314 264.168 50.3168 264.168C51.2021 264.168 51.9488 263.864 52.5568 263.256C53.1648 262.637 53.4688 261.885 53.4688 261C53.4688 260.115 53.1648 259.368 52.5568 258.76C51.9488 258.141 51.2021 257.832 50.3168 257.832C49.4314 257.832 48.6848 258.141 48.0768 258.76C47.4688 259.368 47.1648 260.115 47.1648 261C47.1648 261.885 47.4688 262.637 48.0768 263.256ZM62.5206 257V258.024H59.6886V265H58.6326V258.024H55.8006V257H62.5206ZM69.4715 257H70.5275V265H69.4715V261.512H64.8635V265H63.8075V257H64.8635V260.488H69.4715V257ZM79.6406 257H80.6966V265H79.6406V263.432C78.9046 264.605 77.8273 265.192 76.4086 265.192C75.2673 265.192 74.2913 264.787 73.4806 263.976C72.6806 263.165 72.2806 262.173 72.2806 261C72.2806 259.827 72.6806 258.835 73.4806 258.024C74.2913 257.213 75.2673 256.808 76.4086 256.808C77.8273 256.808 78.9046 257.395 79.6406 258.568V257ZM74.2486 263.256C74.8566 263.864 75.6033 264.168 76.4886 264.168C77.374 264.168 78.1206 263.864 78.7286 263.256C79.3366 262.637 79.6406 261.885 79.6406 261C79.6406 260.115 79.3366 259.368 78.7286 258.76C78.1206 258.141 77.374 257.832 76.4886 257.832C75.6033 257.832 74.8566 258.141 74.2486 258.76C73.6406 259.368 73.3366 260.115 73.3366 261C73.3366 261.885 73.6406 262.637 74.2486 263.256ZM88.6925 257V265H87.6365V261.928H86.2605L83.7965 265H82.4525L84.9805 261.896C84.3405 261.8 83.8125 261.533 83.3965 261.096C82.9805 260.659 82.7725 260.12 82.7725 259.48C82.7725 258.755 83.0285 258.163 83.5405 257.704C84.0632 257.235 84.6978 257 85.4445 257H88.6925ZM85.4445 260.936H87.6365V258.024H85.4445C84.9965 258.024 84.6125 258.157 84.2925 258.424C83.9832 258.691 83.8285 259.043 83.8285 259.48C83.8285 259.917 83.9832 260.269 84.2925 260.536C84.6125 260.803 84.9965 260.936 85.4445 260.936ZM15.3634 281V289H14.3074V282.024H9.69944V289H8.64344V281H15.3634ZM21.8846 280.808C23.0259 280.808 23.9966 281.213 24.7966 282.024C25.6072 282.835 26.0126 283.827 26.0126 285C26.0126 286.173 25.6072 287.165 24.7966 287.976C23.9966 288.787 23.0259 289.192 21.8846 289.192C20.4659 289.192 19.3886 288.605 18.6526 287.432V292.2H17.5966V281H18.6526V282.568C19.3886 281.395 20.4659 280.808 21.8846 280.808ZM19.5646 287.256C20.1726 287.864 20.9192 288.168 21.8046 288.168C22.6899 288.168 23.4366 287.864 24.0446 287.256C24.6526 286.637 24.9566 285.885 24.9566 285C24.9566 284.115 24.6526 283.368 24.0446 282.76C23.4366 282.141 22.6899 281.832 21.8046 281.832C20.9192 281.832 20.1726 282.141 19.5646 282.76C18.9566 283.368 18.6526 284.115 18.6526 285C18.6526 285.885 18.9566 286.637 19.5646 287.256ZM33.5924 281H34.4884V289H33.4324V282.84L28.6644 289H27.7684V281H28.8244V287.16L33.5924 281ZM44.5616 281V289H43.5056V282.616L40.7056 287.16H40.5776L37.7776 282.616V289H36.7216V281H37.9376L40.6416 285.384L43.3456 281H44.5616ZM50.4957 280.808C51.6797 280.808 52.6344 281.229 53.3597 282.072C54.0957 282.904 54.4637 283.891 54.4637 285.032C54.4637 285.149 54.453 285.315 54.4317 285.528H47.4077C47.5144 286.339 47.8557 286.984 48.4317 287.464C49.0184 287.933 49.7384 288.168 50.5917 288.168C51.1997 288.168 51.7224 288.045 52.1597 287.8C52.6077 287.544 52.9437 287.213 53.1677 286.808L54.0957 287.352C53.7437 287.917 53.2637 288.365 52.6557 288.696C52.0477 289.027 51.3544 289.192 50.5757 289.192C49.317 289.192 48.293 288.797 47.5037 288.008C46.7144 287.219 46.3197 286.216 46.3197 285C46.3197 283.805 46.709 282.808 47.4877 282.008C48.2664 281.208 49.269 280.808 50.4957 280.808ZM50.4957 281.832C49.6637 281.832 48.965 282.083 48.3997 282.584C47.845 283.075 47.5144 283.715 47.4077 284.504H53.3757C53.269 283.661 52.9437 283.005 52.3997 282.536C51.8557 282.067 51.221 281.832 50.4957 281.832ZM60.4314 280.808C61.5728 280.808 62.5434 281.213 63.3434 282.024C64.1541 282.835 64.5594 283.827 64.5594 285C64.5594 286.173 64.1541 287.165 63.3434 287.976C62.5434 288.787 61.5728 289.192 60.4314 289.192C59.0128 289.192 57.9354 288.605 57.1994 287.432V292.2H56.1434V281H57.1994V282.568C57.9354 281.395 59.0128 280.808 60.4314 280.808ZM58.1114 287.256C58.7194 287.864 59.4661 288.168 60.3514 288.168C61.2368 288.168 61.9834 287.864 62.5914 287.256C63.1994 286.637 63.5034 285.885 63.5034 285C63.5034 284.115 63.1994 283.368 62.5914 282.76C61.9834 282.141 61.2368 281.832 60.3514 281.832C59.4661 281.832 58.7194 282.141 58.1114 282.76C57.5034 283.368 57.1994 284.115 57.1994 285C57.1994 285.885 57.5034 286.637 58.1114 287.256ZM72.7793 289H71.3713L67.3713 285.144V289H66.3153V281H67.3713V284.536L71.1793 281H72.6193L68.4913 284.84L72.7793 289ZM80.3047 281H81.3607V289H80.3047V287.432C79.5687 288.605 78.4914 289.192 77.0727 289.192C75.9314 289.192 74.9554 288.787 74.1447 287.976C73.3447 287.165 72.9447 286.173 72.9447 285C72.9447 283.827 73.3447 282.835 74.1447 282.024C74.9554 281.213 75.9314 280.808 77.0727 280.808C78.4914 280.808 79.5687 281.395 80.3047 282.568V281ZM74.9127 287.256C75.5207 287.864 76.2674 288.168 77.1527 288.168C78.038 288.168 78.7847 287.864 79.3927 287.256C80.0007 286.637 80.3047 285.885 80.3047 285C80.3047 284.115 80.0007 283.368 79.3927 282.76C78.7847 282.141 78.038 281.832 77.1527 281.832C76.2674 281.832 75.5207 282.141 74.9127 282.76C74.3047 283.368 74.0007 284.115 74.0007 285C74.0007 285.885 74.3047 286.637 74.9127 287.256Z" fill="black"/>
<path d="M229.312 2.1875H220.562V1.09375C220.562 0.489727 220.073 0 219.469 0C218.865 0 218.375 0.489727 218.375 1.09375V2.1875H209.625V1.09375C209.625 0.489727 209.135 0 208.531 0C207.927 0 207.438 0.489727 207.438 1.09375V2.1875H198.688V1.09375C198.688 0.489727 198.198 0 197.594 0C196.99 0 196.5 0.489727 196.5 1.09375V2.1875H187.75C187.146 2.1875 186.656 2.67723 186.656 3.28125V68.9062C186.656 69.5103 187.146 70 187.75 70H229.312C229.917 70 230.406 69.5103 230.406 68.9062V3.28125C230.406 2.67723 229.917 2.1875 229.312 2.1875ZM228.219 67.8125H188.844V4.375H196.5V7.65625C196.5 8.26027 196.99 8.75 197.594 8.75C198.198 8.75 198.688 8.26027 198.688 7.65625V4.375H207.438V7.65625C207.438 8.26027 207.927 8.75 208.531 8.75C209.135 8.75 209.625 8.26027 209.625 7.65625V4.375H218.375V7.65625C218.375 8.26027 218.865 8.75 219.469 8.75C220.073 8.75 220.562 8.26027 220.562 7.65625V4.375H228.219V67.8125Z" fill="#333333"/>
<path d="M204.156 12.0312H193.219C192.615 12.0312 192.125 12.521 192.125 13.125V24.0625C192.125 24.6665 192.615 25.1562 193.219 25.1562H204.156C204.76 25.1562 205.25 24.6665 205.25 24.0625V13.125C205.25 12.521 204.76 12.0312 204.156 12.0312ZM203.062 22.9688H194.312V14.2188H203.062V22.9688Z" fill="#333333"/>
<path d="M204.156 27.3438H193.219C192.615 27.3438 192.125 27.8335 192.125 28.4375V39.375C192.125 39.979 192.615 40.4688 193.219 40.4688H204.156C204.76 40.4688 205.25 39.979 205.25 39.375V28.4375C205.25 27.8335 204.76 27.3438 204.156 27.3438ZM203.062 38.2812H194.312V29.5312H203.062V38.2812Z" fill="#333333"/>
<path d="M204.156 42.6562H193.219C192.615 42.6562 192.125 43.146 192.125 43.75V54.6875C192.125 55.2915 192.615 55.7812 193.219 55.7812H204.156C204.76 55.7812 205.25 55.2915 205.25 54.6875V43.75C205.25 43.146 204.76 42.6562 204.156 42.6562ZM203.062 53.5938H194.312V44.8438H203.062V53.5938Z" fill="#333333"/>
<path d="M208.531 14.2188C208.531 14.8228 209.021 15.3125 209.625 15.3125H222.75C223.354 15.3125 223.844 14.8228 223.844 14.2188C223.844 13.6147 223.354 13.125 222.75 13.125H209.625C209.021 13.125 208.531 13.6147 208.531 14.2188Z" fill="#333333"/>
<path d="M222.75 21.875H209.625C209.021 21.875 208.531 22.3647 208.531 22.9688C208.531 23.5728 209.021 24.0625 209.625 24.0625H222.75C223.354 24.0625 223.844 23.5728 223.844 22.9688C223.844 22.3647 223.354 21.875 222.75 21.875Z" fill="#333333"/>
<path d="M209.625 19.6875H215.094C215.698 19.6875 216.188 19.1978 216.188 18.5938C216.188 17.9897 215.698 17.5 215.094 17.5H209.625C209.021 17.5 208.531 17.9897 208.531 18.5938C208.531 19.1978 209.021 19.6875 209.625 19.6875Z" fill="#333333"/>
<path d="M220.562 19.6875C221.167 19.6875 221.656 19.1978 221.656 18.5938C221.656 17.9897 221.167 17.5 220.562 17.5H218.375C217.771 17.5 217.281 17.9897 217.281 18.5938C217.281 19.1978 217.771 19.6875 218.375 19.6875H220.562Z" fill="#333333"/>
<path d="M222.75 28.4375H209.625C209.021 28.4375 208.531 28.9272 208.531 29.5312C208.531 30.1353 209.021 30.625 209.625 30.625H222.75C223.354 30.625 223.844 30.1353 223.844 29.5312C223.844 28.9272 223.354 28.4375 222.75 28.4375Z" fill="#333333"/>
<path d="M222.75 37.1875H209.625C209.021 37.1875 208.531 37.6772 208.531 38.2812C208.531 38.8853 209.021 39.375 209.625 39.375H222.75C223.354 39.375 223.844 38.8853 223.844 38.2812C223.844 37.6772 223.354 37.1875 222.75 37.1875Z" fill="#333333"/>
<path d="M209.625 35H215.094C215.698 35 216.188 34.5103 216.188 33.9062C216.188 33.3022 215.698 32.8125 215.094 32.8125H209.625C209.021 32.8125 208.531 33.3022 208.531 33.9062C208.531 34.5103 209.021 35 209.625 35Z" fill="#333333"/>
<path d="M220.562 35C221.167 35 221.656 34.5103 221.656 33.9062C221.656 33.3022 221.167 32.8125 220.562 32.8125H218.375C217.771 32.8125 217.281 33.3022 217.281 33.9062C217.281 34.5103 217.771 35 218.375 35H220.562Z" fill="#333333"/>
<path d="M222.75 43.75H209.625C209.021 43.75 208.531 44.2397 208.531 44.8438C208.531 45.4478 209.021 45.9375 209.625 45.9375H222.75C223.354 45.9375 223.844 45.4478 223.844 44.8438C223.844 44.2397 223.354 43.75 222.75 43.75Z" fill="#333333"/>
<path d="M222.75 52.5H209.625C209.021 52.5 208.531 52.9897 208.531 53.5938C208.531 54.1978 209.021 54.6875 209.625 54.6875H222.75C223.354 54.6875 223.844 54.1978 223.844 53.5938C223.844 52.9897 223.354 52.5 222.75 52.5Z" fill="#333333"/>
<path d="M209.625 50.3125H215.094C215.698 50.3125 216.188 49.8228 216.188 49.2188C216.188 48.6147 215.698 48.125 215.094 48.125H209.625C209.021 48.125 208.531 48.6147 208.531 49.2188C208.531 49.8228 209.021 50.3125 209.625 50.3125Z" fill="#333333"/>
<path d="M220.562 50.3125C221.167 50.3125 221.656 49.8228 221.656 49.2188C221.656 48.6147 221.167 48.125 220.562 48.125H218.375C217.771 48.125 217.281 48.6147 217.281 49.2188C217.281 49.8228 217.771 50.3125 218.375 50.3125H220.562Z" fill="#333333"/>
<path d="M237.516 14.2188C235.401 14.2188 233.688 15.9327 233.688 18.0469V50.3125C233.692 50.3445 233.699 50.3763 233.707 50.4077C233.706 50.4357 233.706 50.4638 233.707 50.4919L234.801 57.0544C234.888 57.5802 235.342 57.9664 235.875 57.9688H239.156C239.691 57.9685 240.147 57.5818 240.235 57.0544L241.328 50.4919C241.33 50.4638 241.33 50.4357 241.328 50.4077C241.335 50.3762 241.34 50.3445 241.344 50.3125V18.0469C241.344 15.9327 239.63 14.2188 237.516 14.2188ZM238.23 55.7812H236.801L236.073 51.4062H238.958L238.23 55.7812ZM239.156 49.2188H235.875V22.9688H239.156V49.2188ZM239.156 20.7812H235.875V18.0469C235.875 17.1408 236.61 16.4062 237.516 16.4062C238.422 16.4062 239.156 17.1408 239.156 18.0469V20.7812Z" fill="#333333"/>
<path d="M158.543 102V92.88L152.303 102H151.343V90.8H152.463V99.92L158.703 90.8H159.663V102H158.543ZM167.722 94H168.778V102H167.722V98.512H163.114V102H162.058V94H163.114V97.488H167.722V94ZM177.731 100.976H178.851V104.144H177.795V102H171.267V104.144H170.211V100.976H171.187C171.731 100.261 172.003 99.2533 172.003 97.952V94H177.731V100.976ZM172.467 100.976H176.675V95.024H173.059V97.952C173.059 99.1787 172.861 100.187 172.467 100.976ZM186.272 94H187.168V102H186.112V95.84L181.344 102H180.448V94H181.504V100.16L186.272 94ZM194.489 97.888C195.364 98.208 195.801 98.832 195.801 99.76C195.801 100.411 195.583 100.949 195.145 101.376C194.719 101.792 194.1 102 193.289 102H189.401V94H192.969C193.748 94 194.351 94.2027 194.777 94.608C195.204 95.0027 195.417 95.5147 195.417 96.144C195.417 96.944 195.108 97.5253 194.489 97.888ZM192.969 95.024H190.457V97.456H192.969C193.897 97.456 194.361 97.04 194.361 96.208C194.361 95.8347 194.239 95.5467 193.993 95.344C193.759 95.1307 193.417 95.024 192.969 95.024ZM193.289 100.976C193.759 100.976 194.116 100.864 194.361 100.64C194.617 100.416 194.745 100.101 194.745 99.696C194.745 99.3227 194.617 99.0293 194.361 98.816C194.116 98.592 193.759 98.48 193.289 98.48H190.457V100.976H193.289ZM203.225 94H204.121V102H203.065V95.84L198.297 102H197.401V94H198.457V100.16L203.225 94ZM213.074 100.976H214.194V104.144H213.138V102H206.61V104.144H205.554V100.976H206.53C207.074 100.261 207.346 99.2533 207.346 97.952V94H213.074V100.976ZM207.81 100.976H212.018V95.024H208.402V97.952C208.402 99.1787 208.205 100.187 207.81 100.976ZM221.239 94H222.359L218.935 102.736C218.626 103.525 218.183 104.144 217.607 104.592C217.042 105.051 216.407 105.253 215.703 105.2V104.208C216.663 104.315 217.394 103.76 217.895 102.544L218.103 102.048L214.519 94H215.639L218.647 100.704L221.239 94ZM230.203 94H231.259V102H230.203V100.432C229.467 101.605 228.39 102.192 226.971 102.192C225.83 102.192 224.854 101.787 224.043 100.976C223.243 100.165 222.843 99.1733 222.843 98C222.843 96.8267 223.243 95.8347 224.043 95.024C224.854 94.2133 225.83 93.808 226.971 93.808C228.39 93.808 229.467 94.3947 230.203 95.568V94ZM224.811 100.256C225.419 100.864 226.166 101.168 227.051 101.168C227.936 101.168 228.683 100.864 229.291 100.256C229.899 99.6373 230.203 98.8853 230.203 98C230.203 97.1147 229.899 96.368 229.291 95.76C228.683 95.1413 227.936 94.832 227.051 94.832C226.166 94.832 225.419 95.1413 224.811 95.76C224.203 96.368 223.899 97.1147 223.899 98C223.899 98.8853 224.203 99.6373 224.811 100.256ZM240.055 94V102H238.999V95.024H235.383V98.592C235.383 99.9253 235.127 100.843 234.615 101.344C234.114 101.845 233.42 102.064 232.535 102V101.008C233.143 101.072 233.591 100.928 233.879 100.576C234.178 100.224 234.327 99.5627 234.327 98.592V94H240.055ZM245.54 97.04C246.287 97.04 246.916 97.2747 247.428 97.744C247.951 98.2027 248.212 98.7947 248.212 99.52C248.212 100.245 247.951 100.843 247.428 101.312C246.916 101.771 246.287 102 245.54 102H242.292V94H243.348V97.04H245.54ZM245.54 100.976C245.988 100.976 246.367 100.843 246.676 100.576C246.996 100.309 247.156 99.9573 247.156 99.52C247.156 99.0827 246.996 98.7307 246.676 98.464C246.367 98.1973 245.988 98.064 245.54 98.064H243.348V100.976H245.54ZM255.472 94H256.528V102H255.472V98.512H250.864V102H249.808V94H250.864V97.488H255.472V94ZM262.009 97.04C262.755 97.04 263.385 97.2747 263.897 97.744C264.419 98.2027 264.681 98.7947 264.681 99.52C264.681 100.245 264.419 100.843 263.897 101.312C263.385 101.771 262.755 102 262.009 102H258.761V94H259.817V97.04H262.009ZM265.801 94H266.857V102H265.801V94ZM262.009 100.976C262.457 100.976 262.835 100.843 263.145 100.576C263.465 100.309 263.625 99.9573 263.625 99.52C263.625 99.0827 263.465 98.7307 263.145 98.464C262.835 98.1973 262.457 98.064 262.009 98.064H259.817V100.976H262.009ZM270.384 92.72V91.792H274.544V92.72H270.384ZM274.928 94H275.824V102H274.768V95.84L270 102H269.104V94H270.16V100.16L274.928 94ZM194.543 124.976H195.663V128.144H194.607V126H188.079V128.144H187.023V124.976H187.999C188.543 124.261 188.815 123.253 188.815 121.952V118H194.543V124.976ZM189.279 124.976H193.487V119.024H189.871V121.952C189.871 123.179 189.674 124.187 189.279 124.976ZM203.085 118H203.981V126H202.925V119.84L198.157 126H197.261V118H198.317V124.16L203.085 118ZM210.342 121.888C211.27 122.24 211.734 122.88 211.734 123.808C211.734 124.469 211.472 125.035 210.95 125.504C210.438 125.963 209.702 126.192 208.742 126.192C207.131 126.192 206.075 125.552 205.574 124.272L206.47 123.744C206.8 124.693 207.558 125.168 208.742 125.168C209.36 125.168 209.835 125.035 210.166 124.768C210.507 124.501 210.678 124.16 210.678 123.744C210.678 123.371 210.539 123.067 210.262 122.832C209.984 122.597 209.611 122.48 209.142 122.48H207.974V121.456H208.822C209.28 121.456 209.638 121.344 209.894 121.12C210.16 120.885 210.294 120.565 210.294 120.16C210.294 119.776 210.139 119.461 209.83 119.216C209.52 118.96 209.104 118.832 208.582 118.832C207.579 118.832 206.912 119.232 206.582 120.032L205.702 119.52C206.235 118.379 207.195 117.808 208.582 117.808C209.424 117.808 210.096 118.032 210.598 118.48C211.099 118.917 211.35 119.456 211.35 120.096C211.35 120.917 211.014 121.515 210.342 121.888ZM220.219 118H221.275V126H220.219V124.432C219.483 125.605 218.405 126.192 216.987 126.192C215.845 126.192 214.869 125.787 214.059 124.976C213.259 124.165 212.859 123.173 212.859 122C212.859 120.827 213.259 119.835 214.059 119.024C214.869 118.213 215.845 117.808 216.987 117.808C218.405 117.808 219.483 118.395 220.219 119.568V118ZM214.827 124.256C215.435 124.864 216.181 125.168 217.067 125.168C217.952 125.168 218.699 124.864 219.307 124.256C219.915 123.637 220.219 122.885 220.219 122C220.219 121.115 219.915 120.368 219.307 119.76C218.699 119.141 217.952 118.832 217.067 118.832C216.181 118.832 215.435 119.141 214.827 119.76C214.219 120.368 213.915 121.115 213.915 122C213.915 122.885 214.219 123.637 214.827 124.256ZM224.791 116.72V115.792H228.951V116.72H224.791ZM229.335 118H230.231V126H229.175V119.84L224.407 126H223.511V118H224.567V124.16L229.335 118ZM238.128 118H239.184V126H238.128V122.512H233.52V126H232.464V118H233.52V121.488H238.128V118Z" fill="black"/>
<g clip-path="url(#clip0_35_83)">
<path d="M204.364 206.713C203.694 205.555 202.447 204.836 201.11 204.836H196.158V201.866C198.493 201.41 200.328 199.429 200.517 196.985C200.561 196.421 200.138 195.928 199.574 195.884C199.006 195.838 198.516 196.263 198.473 196.827C198.339 198.558 196.872 199.914 195.133 199.914C193.286 199.914 191.783 198.412 191.783 196.564C191.783 194.717 193.286 193.215 195.133 193.215C195.722 193.215 196.301 193.37 196.807 193.662C197.297 193.946 197.925 193.778 198.208 193.288C198.492 192.798 198.324 192.171 197.834 191.887C197.314 191.586 196.747 191.377 196.158 191.263V188.272C197.544 187.836 198.551 186.539 198.551 185.012C198.551 183.482 197.541 182.184 196.152 181.749L196.173 179.618C196.176 179.276 196.418 178.988 196.761 178.916C200.452 178.146 203.131 174.834 203.131 171.04C203.131 166.685 199.482 163.003 195.163 163C195.161 163 195.16 163 195.159 163C192.045 163 189.146 164.975 187.772 168.032C187.54 168.548 187.77 169.156 188.287 169.388C188.804 169.619 189.41 169.389 189.643 168.873C190.686 166.551 192.851 165.051 195.159 165.051H195.162C198.02 165.053 201.08 167.46 201.08 171.04C201.08 173.868 199.088 176.336 196.342 176.909C195.048 177.179 194.135 178.284 194.122 179.598L194.101 181.753C192.719 182.192 191.715 183.487 191.715 185.012C191.715 186.539 192.722 187.836 194.108 188.272V191.263C191.619 191.743 189.733 193.937 189.733 196.564C189.733 199.192 191.619 201.385 194.108 201.866V204.836H189.156C187.819 204.836 186.572 205.555 185.902 206.713L179.93 217.035C179.258 218.197 179.258 219.639 179.93 220.801L185.902 231.123C186.572 232.281 187.819 233 189.156 233H201.11C202.447 233 203.694 232.281 204.364 231.123L210.336 220.801C211.008 219.639 211.008 218.197 210.336 217.035L204.364 206.713ZM195.133 183.645C195.887 183.645 196.5 184.258 196.5 185.012C196.5 185.766 195.887 186.379 195.133 186.379C194.379 186.379 193.766 185.766 193.766 185.012C193.766 184.258 194.379 183.645 195.133 183.645ZM208.561 219.774L202.589 230.096C202.284 230.622 201.718 230.949 201.11 230.949H189.156C188.549 230.949 187.982 230.622 187.677 230.096L181.705 219.774C181.4 219.246 181.4 218.59 181.705 218.062L187.677 207.74C187.982 207.214 188.549 206.887 189.156 206.887H201.11C201.718 206.887 202.285 207.214 202.589 207.74L208.561 218.062C208.866 218.59 208.866 219.246 208.561 219.774Z" fill="#333333"/>
<path d="M200.244 212.447C199.818 211.709 199.024 211.25 198.172 211.25H192.094C191.242 211.25 190.448 211.709 190.022 212.447L186.983 217.71C186.557 218.448 186.557 219.365 186.983 220.103L187.463 220.935C187.747 221.425 188.374 221.593 188.864 221.31C189.354 221.027 189.522 220.4 189.239 219.909L188.759 219.077C188.698 218.972 188.698 218.841 188.759 218.736L191.798 213.472C191.859 213.367 191.972 213.301 192.094 213.301H198.171C198.293 213.301 198.407 213.367 198.467 213.472L201.506 218.736C201.567 218.841 201.567 218.972 201.506 219.077L198.467 224.341C198.407 224.446 198.293 224.512 198.171 224.512H192.094C191.837 224.534 191.718 224.181 191.607 224.011C191.324 223.52 190.697 223.353 190.207 223.635C189.716 223.918 189.548 224.546 189.831 225.036L190.022 225.366C190.448 226.104 191.242 226.563 192.094 226.563H198.171C199.023 226.563 199.817 226.104 200.243 225.366L203.282 220.103C203.708 219.365 203.708 218.448 203.282 217.71L200.244 212.447Z" fill="#333333"/>
<path d="M248.07 217.035L246.331 214.03C246.048 213.539 245.421 213.372 244.93 213.656C244.44 213.939 244.272 214.566 244.556 215.057L246.295 218.062C246.6 218.59 246.6 219.246 246.295 219.774L240.323 230.096C240.019 230.622 239.452 230.949 238.844 230.949H226.891C226.283 230.949 225.716 230.622 225.412 230.096L219.44 219.774C219.134 219.246 219.134 218.59 219.44 218.062L225.411 207.74C225.716 207.214 226.283 206.887 226.891 206.887H238.844C239.452 206.887 240.019 207.214 240.323 207.74L242.183 210.955C242.467 211.445 243.094 211.613 243.584 211.329C244.074 211.046 244.242 210.418 243.958 209.928L242.098 206.713C241.428 205.555 240.181 204.836 238.844 204.836H233.893V201.866C236.382 201.385 238.268 199.192 238.268 196.564C238.268 193.937 236.382 191.744 233.893 191.263V188.272C235.278 187.836 236.285 186.539 236.285 185.012C236.285 183.482 235.275 182.184 233.887 181.749L233.907 179.618C233.91 179.276 234.152 178.988 234.495 178.916C238.186 178.146 240.865 174.834 240.865 171.04C240.865 170.736 240.848 170.429 240.814 170.129C240.749 169.567 240.241 169.162 239.678 169.227C239.116 169.292 238.712 169.8 238.776 170.363C238.802 170.586 238.815 170.814 238.815 171.04C238.815 173.868 236.822 176.336 234.076 176.909C232.782 177.179 231.869 178.284 231.856 179.598L231.835 181.753C230.454 182.192 229.449 183.487 229.449 185.012C229.449 186.539 230.457 187.836 231.842 188.272V191.263C229.353 191.744 227.467 193.937 227.467 196.564C227.467 199.192 229.353 201.385 231.842 201.866V204.836H226.891C225.553 204.836 224.306 205.555 223.636 206.713L217.664 217.035C216.993 218.197 216.993 219.639 217.664 220.801L223.636 231.123C224.306 232.281 225.553 233 226.891 233H238.844C240.181 233 241.428 232.281 242.099 231.123L248.07 220.801C248.742 219.639 248.742 218.197 248.07 217.035ZM232.867 183.645C233.621 183.645 234.235 184.258 234.235 185.012C234.235 185.766 233.621 186.379 232.867 186.379C232.114 186.379 231.5 185.766 231.5 185.012C231.5 184.258 232.114 183.645 232.867 183.645ZM229.518 196.564C229.518 194.717 231.02 193.215 232.867 193.215C234.714 193.215 236.217 194.717 236.217 196.564C236.217 198.412 234.714 199.914 232.867 199.914C231.02 199.914 229.518 198.412 229.518 196.564Z" fill="#333333"/>
<path d="M226.021 169.388C226.526 169.618 227.144 169.395 227.377 168.873C228.421 166.551 230.586 165.051 232.893 165.051H232.896C234.361 165.052 235.844 165.67 236.965 166.747C237.374 167.14 238.023 167.126 238.415 166.718C238.807 166.31 238.794 165.661 238.386 165.269C236.887 163.828 234.887 163.001 232.898 163C232.896 163 232.895 163 232.893 163C229.78 163 226.88 164.975 225.506 168.032C225.274 168.548 225.505 169.155 226.021 169.388Z" fill="#333333"/>
<path d="M235.906 211.25H229.828C228.976 211.25 228.182 211.709 227.756 212.447L224.717 217.71C224.291 218.448 224.291 219.365 224.717 220.103L227.756 225.366C228.182 226.104 228.976 226.563 229.828 226.563H235.906C236.758 226.563 237.552 226.104 237.978 225.366L241.017 220.103C241.443 219.365 241.443 218.448 241.017 217.71L237.978 212.447C237.552 211.709 236.758 211.25 235.906 211.25ZM239.241 219.077L236.202 224.341C236.141 224.446 236.028 224.512 235.906 224.512H229.828C229.706 224.512 229.593 224.446 229.532 224.341L226.493 219.077C226.432 218.972 226.432 218.841 226.493 218.736L229.532 213.472C229.593 213.367 229.706 213.301 229.828 213.301H235.906C236.028 213.301 236.141 213.367 236.202 213.472L239.241 218.736C239.301 218.841 239.301 218.972 239.241 219.077Z" fill="#333333"/>
</g>
<path d="M185.334 265V264.008C186.112 264.115 186.694 263.875 187.078 263.288C187.472 262.691 187.67 261.603 187.67 260.024V253.8H194.934V265H193.814V254.856H188.79V260.056C188.79 261.069 188.71 261.917 188.55 262.6C188.39 263.283 188.15 263.805 187.83 264.168C187.52 264.52 187.163 264.76 186.758 264.888C186.363 265.005 185.888 265.043 185.334 265ZM203.163 257H204.059V265H203.003V258.84L198.235 265H197.339V257H198.395V263.16L203.163 257ZM211.476 257H212.532V265H211.476V261.96C210.857 262.28 210.095 262.44 209.188 262.44C208.143 262.44 207.343 262.2 206.788 261.72C206.244 261.229 205.972 260.509 205.972 259.56V257H207.028V259.56C207.028 260.232 207.204 260.717 207.556 261.016C207.908 261.304 208.441 261.448 209.156 261.448C209.988 261.448 210.761 261.293 211.476 260.984V257ZM220.44 257H221.496V265H220.44V261.512H215.832V265H214.776V257H215.832V260.488H220.44V257ZM226.977 260.04C227.724 260.04 228.353 260.275 228.865 260.744C229.388 261.203 229.649 261.795 229.649 262.52C229.649 263.245 229.388 263.843 228.865 264.312C228.353 264.771 227.724 265 226.977 265H223.729V257H224.785V260.04H226.977ZM230.769 257H231.825V265H230.769V257ZM226.977 263.976C227.425 263.976 227.804 263.843 228.113 263.576C228.433 263.309 228.593 262.957 228.593 262.52C228.593 262.083 228.433 261.731 228.113 261.464C227.804 261.197 227.425 261.064 226.977 261.064H224.785V263.976H226.977ZM235.353 255.72V254.792H239.513V255.72H235.353ZM239.897 257H240.793V265H239.737V258.84L234.969 265H234.073V257H235.129V263.16L239.897 257ZM194.238 281V289H193.182V282.024H188.574V289H187.518V281H194.238ZM203.176 287.992C202.365 288.792 201.373 289.192 200.2 289.192C199.026 289.192 198.029 288.792 197.208 287.992C196.397 287.181 195.992 286.184 195.992 285C195.992 283.816 196.397 282.824 197.208 282.024C198.029 281.213 199.026 280.808 200.2 280.808C201.373 280.808 202.365 281.213 203.176 282.024C203.997 282.824 204.408 283.816 204.408 285C204.408 286.184 203.997 287.181 203.176 287.992ZM197.96 287.256C198.568 287.864 199.314 288.168 200.2 288.168C201.085 288.168 201.832 287.864 202.44 287.256C203.048 286.637 203.352 285.885 203.352 285C203.352 284.115 203.048 283.368 202.44 282.76C201.832 282.141 201.085 281.832 200.2 281.832C199.314 281.832 198.568 282.141 197.96 282.76C197.352 283.368 197.048 284.115 197.048 285C197.048 285.885 197.352 286.637 197.96 287.256ZM212.582 287.976H213.702V291.144H212.646V289H206.118V291.144H205.062V287.976H206.038C206.582 287.261 206.854 286.253 206.854 284.952V281H212.582V287.976ZM207.318 287.976H211.526V282.024H207.91V284.952C207.91 286.179 207.713 287.187 207.318 287.976ZM222.02 289H220.756L218.26 285.704L215.764 289H214.5L217.636 284.856L214.708 281H215.972L218.26 284.024L220.548 281H221.812L218.9 284.856L222.02 289ZM229.597 287.992C228.787 288.792 227.795 289.192 226.621 289.192C225.448 289.192 224.451 288.792 223.629 287.992C222.819 287.181 222.413 286.184 222.413 285C222.413 283.816 222.819 282.824 223.629 282.024C224.451 281.213 225.448 280.808 226.621 280.808C227.795 280.808 228.787 281.213 229.597 282.024C230.419 282.824 230.829 283.816 230.829 285C230.829 286.184 230.419 287.181 229.597 287.992ZM224.381 287.256C224.989 287.864 225.736 288.168 226.621 288.168C227.507 288.168 228.253 287.864 228.861 287.256C229.469 286.637 229.773 285.885 229.773 285C229.773 284.115 229.469 283.368 228.861 282.76C228.253 282.141 227.507 281.832 226.621 281.832C225.736 281.832 224.989 282.141 224.381 282.76C223.773 283.368 223.469 284.115 223.469 285C223.469 285.885 223.773 286.637 224.381 287.256ZM239.004 287.976H240.124V291.144H239.068V289H232.54V291.144H231.484V287.976H232.46C233.004 287.261 233.276 286.253 233.276 284.952V281H239.004V287.976ZM233.74 287.976H237.948V282.024H234.332V284.952C234.332 286.179 234.135 287.187 233.74 287.976Z" fill="black"/>
<defs>
<clipPath id="clip0_35_83">
<rect width="70" height="70" fill="white" transform="translate(179 163)"/>
</clipPath>
</defs>
</svg>
