<svg width="16" height="16" viewBox="0 0 16 16" fill="none" xmlns="http://www.w3.org/2000/svg">
<g clip-path="url(#clip0_1_187)">
<path d="M7.9997 5.3332C8.73609 5.3332 9.33305 4.73624 9.33305 3.99985C9.33305 3.26346 8.73609 2.6665 7.9997 2.6665C7.26331 2.6665 6.66635 3.26346 6.66635 3.99985C6.66635 4.73624 7.26331 5.3332 7.9997 5.3332Z" fill="#2F2F2F"/>
<path d="M5.68979 9.33275C5.3222 8.69478 4.50643 8.47599 3.86906 8.84457C3.23168 9.21296 3.01289 10.0281 3.38068 10.6661C3.74846 11.3033 4.56483 11.522 5.20281 11.1543C5.83958 10.7859 6.05838 9.97013 5.68979 9.33275Z" fill="#2F2F2F"/>
<path d="M11.4634 7.33352C12.2 7.33352 12.7971 6.73638 12.7971 5.99977C12.7971 5.26316 12.2 4.66602 11.4634 4.66602C10.7268 4.66602 10.1296 5.26316 10.1296 5.99977C10.1296 6.73638 10.7268 7.33352 11.4634 7.33352Z" fill="#2F2F2F"/>
<path d="M3.38148 5.33294C3.01309 5.97032 3.23109 6.78589 3.86906 7.15447C4.50624 7.52226 5.32201 7.30367 5.68999 6.66569C6.05838 6.02831 5.84019 5.21254 5.20241 4.84416C4.56504 4.47617 3.74867 4.69496 3.38148 5.33294Z" fill="#2F2F2F"/>
<path fill-rule="evenodd" clip-rule="evenodd" d="M7.9997 0C3.58187 0 0 3.58127 0 7.9997C0 12.4181 3.58187 16 7.9997 16C9.08306 16 10.1168 15.7812 11.0596 15.3906C11.2228 15.323 11.3694 15.2246 11.4924 15.1016C12.0132 14.5809 12.0132 13.7365 11.4924 13.2149L10.5538 12.2763C10.3122 12.0345 10.1632 11.7014 10.1632 11.3334C10.1632 10.597 10.7608 10.0002 11.4964 10.0002L14.6663 9.99943C15.4026 9.99943 15.9996 9.40265 15.9996 8.66628V7.9997C15.9994 3.58107 12.4181 0 7.9997 0ZM14.6661 8.66628L11.4962 8.66687C10.0254 8.66687 8.82967 9.86263 8.82967 11.3334C8.82967 12.0459 9.10706 12.7149 9.61084 13.2189L10.5496 14.1575C9.73584 14.4961 8.87787 14.6669 7.9995 14.6669C4.32384 14.6669 1.33315 11.676 1.33315 7.9997C1.33315 4.32344 4.32404 1.33315 7.9997 1.33315C11.6754 1.33315 14.6661 4.32324 14.6661 7.9995V8.66628Z" fill="#2F2F2F"/>
</g>
<defs>
<clipPath id="clip0_1_187">
<rect width="16" height="16" fill="white"/>
</clipPath>
</defs>
</svg>
